<?xml version="1.0" encoding="utf-8"?>
<!-- Generator: Adobe Illustrator 28.2.0, SVG Export Plug-In . SVG Version: 6.00 Build 0)  -->
<svg version="1.1" id="Layer_1" xmlns="http://www.w3.org/2000/svg" xmlns:xlink="http://www.w3.org/1999/xlink" x="0px" y="0px"
	 viewBox="0 0 100 100" style="enable-background:new 0 0 100 100;" xml:space="preserve">
<style type="text/css">
	.st0{fill:#5580F9;}
</style>
<g>
	<path class="st0" d="M61,53.2c6-3.6,9-12.5,9.8-19.1c0.6-4.9,0-8.7-1.5-10.2c-1.5-1.5-5.3-2.1-10.2-1.5c-6.5,0.8-15.5,3.8-19.1,9.8
		l-8.7,14.3l-10.5,3.7c-0.7,0.3-0.7,1.3,0.1,1.5l6.2,1.7l-2,3.3l-2.5,2.5c-0.2,0.2-0.3,0.4-0.3,0.7s0.1,0.5,0.3,0.7l0.7,0.7
		c-2,0.8-7.6,3.5-8.9,9.1c2.8-1.9,5.3,1.5,7.3-1.7c0.8-1.1,1.2-2.3,1.5-3.6c0,0,2.2,8.6-7.9,10.9c0.7,1.7,12.8,4.7,15.6-7l1.1,1.1
		c0.2,0.2,0.5,0.3,0.7,0.3s0.5-0.1,0.7-0.3l2-2c0,0,0,0,0,0c0.1,0,0.2,0,0.3,0c0.2,0,0.4,0,0.5-0.1l3.2-1.9L41,72
		c0.2,0.8,1.3,0.8,1.5,0.1l3.5-9.8L61,53.2z M32.8,68.1l-8-8l1.4-1.4l3,1.7l2.1,1.2l2.9,5.1L32.8,68.1z M36.1,65.9l-2.9-5.2
		c-0.1-0.2-0.2-0.3-0.4-0.4c0,0,0,0,0,0c-0.1-0.1-0.2-0.3-0.3-0.3l-5.2-2.9l1.8-3l2.7,0.7l6.2-9.5c0.3-0.4-0.1-0.9-0.6-0.8l-3.1,1.1
		l7.4-12.2c3.3-5.4,11.5-8.1,17.6-8.9c4.7-0.6,7.7,0.1,8.5,0.9s1.5,3.8,0.9,8.5C68,40,65.3,48.2,59.9,51.5l-12.8,7.8l1.3-3.8
		c0.2-0.5-0.4-0.9-0.8-0.6l-9.5,6.2l0.8,3.2L36.1,65.9z"/>
	<path class="st0" d="M59.1,42.4c2.4-2.4,2.4-6.2,0-8.6s-6.2-2.4-8.6,0s-2.4,6.2,0,8.6S56.7,44.8,59.1,42.4z"/>
	<path class="st0" d="M85.2,29.9l-5.2-5.2c-0.4-0.4-1-0.4-1.4,0l-5.2,5.2c-0.4,0.4-0.4,1,0,1.4s1,0.4,1.4,0l3.5-3.5v48.3
		c0,0.6,0.4,1,1,1s1-0.4,1-1V27.9l3.5,3.5c0.2,0.2,0.5,0.3,0.7,0.3s0.5-0.1,0.7-0.3C85.6,31,85.6,30.3,85.2,29.9z"/>
	<path class="st0" d="M65.5,59.6c-0.1-0.1-0.2-0.2-0.3-0.2c-0.2-0.1-0.5-0.1-0.8,0c-0.1,0.1-0.2,0.1-0.3,0.2l-5.2,5.2
		c-0.4,0.4-0.4,1,0,1.4s1,0.4,1.4,0l3.5-3.5v13.4c0,0.6,0.4,1,1,1s1-0.4,1-1V62.7l3.5,3.5c0.2,0.2,0.5,0.3,0.7,0.3s0.5-0.1,0.7-0.3
		c0.4-0.4,0.4-1,0-1.4L65.5,59.6z"/>
</g>
</svg>
