<?xml version="1.0" encoding="UTF-8"?>
<svg id="Layer_1" data-name="Layer 1" xmlns="http://www.w3.org/2000/svg" version="1.1" viewBox="0 0 100 100">
  <defs>
    <style>
      .cls-1 {
        fill: #ff9a48;
        stroke-width: 0px;
      }
    </style>
  </defs>
  <path class="cls-1" d="M83.041,21.351H16.961c-4.58,0-8.308,3.727-8.308,8.308v40.683c0,4.58,3.727,8.308,8.308,8.308h66.081c4.58,0,8.307-3.727,8.307-8.308V29.658c0-4.58-3.726-8.308-8.307-8.308ZM89.248,70.342h-.001c0,3.423-2.784,6.208-6.207,6.208H16.961c-3.423,0-6.208-2.785-6.208-6.208V29.658c0-3.423,2.785-6.208,6.208-6.208h66.081c3.423,0,6.207,2.785,6.207,6.208v40.683Z"/>
  <path class="cls-1" d="M45.089,41.447c0-.488-.396-.884-.884-.884h-2.921c-.488,0-.884.396-.884.884v7.722h4.689v-7.722Z"/>
  <path class="cls-1" d="M52.257,37.635c0-.488-.396-.884-.884-.884h-2.921c-.488,0-.884.396-.884.884v11.533h4.689v-11.533Z"/>
  <path class="cls-1" d="M58.541,32.94h-2.921c-.488,0-.884.396-.884.884v15.345h4.689v-15.345c0-.488-.396-.884-.884-.884Z"/>
  <path class="cls-1" d="M17.925,54.222c-1.338,0-2.428,1.089-2.428,2.428s1.089,2.428,2.428,2.428,2.428-1.089,2.428-2.428-1.089-2.428-2.428-2.428Z"/>
  <path class="cls-1" d="M24.804,54.222c-1.338,0-2.428,1.089-2.428,2.428s1.089,2.428,2.428,2.428,2.428-1.089,2.428-2.428-1.089-2.428-2.428-2.428Z"/>
  <circle class="cls-1" cx="31.685" cy="56.65" r="2.428"/>
  <path class="cls-1" d="M17.925,61.108c-1.338,0-2.428,1.089-2.428,2.428s1.089,2.428,2.428,2.428,2.428-1.089,2.428-2.428-1.089-2.428-2.428-2.428Z"/>
  <path class="cls-1" d="M24.804,61.108c-1.338,0-2.428,1.089-2.428,2.428s1.089,2.428,2.428,2.428,2.428-1.089,2.428-2.428-1.089-2.428-2.428-2.428ZM24.804,63.862c-.181,0-.328-.147-.328-.328s.147-.328.328-.328.328.147.328.328-.148.328-.328.328Z"/>
  <path class="cls-1" d="M31.685,61.108c-1.338,0-2.428,1.089-2.428,2.428s1.089,2.428,2.428,2.428,2.428-1.089,2.428-2.428-1.089-2.428-2.428-2.428ZM31.685,63.862c-.181,0-.328-.147-.328-.328s.147-.328.328-.328.328.147.328.328-.147.328-.328.328Z"/>
  <path class="cls-1" d="M17.925,67.995c-1.338,0-2.428,1.089-2.428,2.428s1.089,2.428,2.428,2.428,2.428-1.089,2.428-2.428-1.089-2.428-2.428-2.428Z"/>
  <path class="cls-1" d="M24.804,67.995c-1.338,0-2.428,1.089-2.428,2.428s1.089,2.428,2.428,2.428,2.428-1.089,2.428-2.428-1.089-2.428-2.428-2.428Z"/>
  <path class="cls-1" d="M31.685,67.995c-1.338,0-2.428,1.089-2.428,2.428s1.089,2.428,2.428,2.428,2.428-1.089,2.428-2.428-1.089-2.428-2.428-2.428ZM31.685,70.749c-.181,0-.328-.147-.328-.328s.147-.328.328-.328.328.147.328.328-.147.328-.328.328Z"/>
  <rect class="cls-1" x="16.089" y="29.261" width="17.396" height="19.908" rx="2.379" ry="2.379"/>
  <path class="cls-1" d="M56.379,54.492h0s-5.508,4.959-5.508,4.959l-5.438-3.673c-.383-.258-.893-.238-1.25.057l-6.118,4.979c-.45.366-.518,1.028-.152,1.476.207.255.509.387.815.387.233,0,.466-.077.662-.236l5.515-4.487,5.472,3.697c.399.269.932.233,1.29-.09l6.118-5.509c.43-.387.465-1.052.078-1.483-.388-.433-1.051-.465-1.483-.078Z"/>
  <path class="cls-1" d="M56.854,63.061l-5.972,2.856-5.957-.933c-.17-.024-.345.034-.463.159l-6.118,6.509c-.144.153-.183.376-.1.568.083.193.273.317.482.317h18.354c.29,0,.525-.235.525-.525v-8.477c0-.181-.092-.348-.245-.444-.152-.096-.344-.107-.506-.029Z"/>
  <path class="cls-1" d="M74.152,28.208v.002c-5.943,0-10.778,4.834-10.778,10.777,0,1.825.47,3.632,1.357,5.227.002.003.001.006.003.009.229.412.486.799.76,1.168.069.093.148.177.219.268.163.206.322.418.497.605.052.059.11.107.164.164.071.075.144.145.216.217.109.108.214.227.324.324.206.19.42.37.631.53.247.197.512.378.826.58.09.057.176.102.266.156.038.023.076.045.114.067.086.05.177.11.259.153.278.154.564.294.828.405.033.015.068.026.102.041.017.007.034.013.049.02.195.083.39.163.602.24.235.082.473.153.689.208.018.005.035.008.052.014.04.009.086.024.124.031.299.087.597.151.797.171.069.015.141.016.21.028.164.026.328.047.492.066.097.009.193.031.289.039.285.025.584.042.906.042.349,0,.69-.017,1-.048.098-.008.183-.027.278-.038.1-.013.2-.025.299-.041.12-.018.25-.027.362-.049.299-.051.591-.123.869-.201.003,0,.006-.002.009-.003.084-.024.173-.045.252-.07.37-.104.722-.232,1.071-.375.416-.17.846-.385,1.325-.664,1.612-.953,2.955-2.313,3.883-3.933.004-.007.003-.016.007-.023.928-1.624,1.42-3.468,1.42-5.332,0-5.942-4.834-10.777-10.776-10.777ZM74.151,34.213c2.637,0,4.781,2.142,4.781,4.774,0,.823-.217,1.638-.628,2.357-.147.251-.319.483-.499.698-.051.061-.103.121-.156.178-.103.109-.21.213-.32.312-.054.047-.105.096-.161.141-.145.118-.296.227-.455.327-.029.019-.058.041-.088.059-.072.045-.15.085-.226.126-.107.058-.215.113-.327.163-.065.028-.132.056-.201.082-.133.051-.268.1-.406.14-.031.009-.065.021-.097.029-.151.041-.307.068-.463.095-.152.027-.321.04-.491.049-.067.004-.133.013-.202.014-.135.002-.267-.009-.399-.019-.102-.007-.205-.007-.304-.021-.078-.012-.15-.031-.228-.045-.346-.064-.686-.157-1.006-.293-.204-.084-.396-.186-.613-.32-.166-.094-.325-.208-.469-.324-.174-.14-.334-.286-.481-.434-.118-.122-.223-.254-.328-.388-.033-.042-.069-.082-.101-.125-.122-.167-.234-.342-.335-.527h-.001c-.375-.695-.573-1.479-.573-2.272,0-2.632,2.142-4.774,4.774-4.774h.002ZM66.108,42.237c-.416-1.029-.633-2.134-.633-3.247,0-4.429,3.335-8.093,7.626-8.613v1.815c-.031.005-.061.018-.093.023-.357.06-.705.145-1.041.258-.051.018-.102.038-.152.056-.343.125-.675.27-.99.445-.025.014-.049.03-.075.045-.323.185-.631.393-.919.626-.009.007-.019.014-.027.021-.285.233-.546.492-.79.768-.029.034-.06.064-.089.098-.229.268-.435.555-.621.857-.03.048-.06.097-.088.146-.176.302-.331.618-.46.948-.021.054-.039.107-.059.161-.123.338-.225.687-.294,1.047-.008.042-.013.085-.02.128-.066.381-.107.771-.107,1.171,0,.356.038.709.092,1.059.016.1.036.198.056.298.055.272.126.54.213.802.019.058.026.12.047.177l-1.577.91ZM67.479,44.503c-.117-.143-.242-.278-.351-.429l.744-.429-.393.858ZM68.653,45.68c-.032-.026-.066-.047-.097-.074h-.001c-.023-.018-.046-.037-.068-.057-.138-.119-.264-.252-.395-.38l.8-1.764c.08.097.154.193.244.289.019.019.04.035.059.054.005.005.009.01.015.016.07.074.149.137.224.206l-.78,1.71ZM69.965,46.569c-.206-.114-.413-.228-.609-.359-.007-.005-.014-.01-.022-.015l.759-1.665c.09.066.177.128.261.184.057.038.114.071.171.107.008.005.019.013.027.017.052.033.104.064.157.094l-.745,1.637ZM71.387,47.197c-.086-.029-.175-.048-.26-.08-.001,0-.002,0-.003-.001-.141-.052-.274-.122-.412-.182h.001l.739-1.625c.028.012.058.019.086.03.023.009.048.016.07.025.152.061.307.114.463.165.024.007.046.018.069.024l-.754,1.643ZM72.928,47.566c-.247-.036-.492-.078-.734-.133l.77-1.687h.001c.012.003.023.005.035.007.082.014.161.036.243.046.015.002.027.006.042.008.017.002.037.003.054.004.018.002.036.002.054.004.106.012.213.021.325.027l-.789,1.723ZM74.612,47.636c-.143.007-.284.025-.427.025-.075,0-.156-.008-.234-.011-.046-.001-.091-.006-.137-.008l.824-1.805c.082-.005.163-.011.243-.019.041-.004.082-.011.123-.016.06-.007.119-.019.179-.028.039-.006.082-.009.12-.017.061-.009.124-.026.185-.037l-.875,1.915ZM76.47,47.331c-.039.011-.077.024-.116.035-.12.033-.243.062-.367.089-.133.029-.268.049-.403.072l.957-2.104c.033-.013.065-.028.098-.041.093-.037.187-.074.279-.114.174-.077.338-.16.498-.248.046-.025.096-.044.142-.07l-1.088,2.381ZM78.604,46.409c-.336.202-.684.379-1.044.534l1.39-3.046c.021-.021.044-.038.065-.059h.001c.014-.014.025-.029.039-.044.05-.05.095-.107.143-.16.039-.042.082-.075.121-.118.067-.078.131-.155.195-.235.005-.006.011-.011.015-.017l.403.233-1.328,2.911ZM80.456,44.936c-.014.014-.028.027-.041.041h-.001c-.133.139-.278.265-.419.394l.663-1.452.441.255c-.201.268-.415.522-.643.762Z"/>
  <path class="cls-1" d="M82.8,56.141h-17.401c-.897,0-1.623.727-1.623,1.623s.727,1.623,1.623,1.623h17.401c.897,0,1.623-.727,1.623-1.623s-.727-1.623-1.623-1.623Z"/>
  <path class="cls-1" d="M78.494,62.453h-13.095c-.897,0-1.623.727-1.623,1.623s.727,1.623,1.623,1.623h13.095c.897,0,1.623-.727,1.623-1.623s-.727-1.623-1.623-1.623Z"/>
  <path class="cls-1" d="M71.289,68.766h-5.889c-.897,0-1.623.727-1.623,1.623s.727,1.623,1.623,1.623h5.889c.897,0,1.623-.727,1.623-1.623s-.727-1.623-1.623-1.623Z"/>
</svg>