<?xml version="1.0" encoding="utf-8"?>
<!-- Generator: Adobe Illustrator 28.2.0, SVG Export Plug-In . SVG Version: 6.00 Build 0)  -->
<svg version="1.1" id="Layer_1" xmlns="http://www.w3.org/2000/svg" xmlns:xlink="http://www.w3.org/1999/xlink" x="0px" y="0px"
	 viewBox="0 0 100 100" style="enable-background:new 0 0 100 100;" xml:space="preserve">
<style type="text/css">
	.st0{fill:#5580F9;}
</style>
<g>
	<path class="st0" d="M72.2,72.2H22.7V22.8h23.1v-2H21.4c-3.5,0-6.4,2.9-6.4,6.4v51.3c0,3.5,2.9,6.4,6.4,6.4h51.8
		c0.5,0,0.9-0.3,1-0.8c0.1-0.5-0.2-0.9-0.6-1.1c-1.3-0.5-2.1-1.9-2.2-3.7c-0.1-2.3,0.8-4.4,2.4-5.2c0.1,0,0.1-0.1,0.2-0.1
		c0,0,0.1,0,0.1-0.1c0.1-0.1,0.2-0.2,0.2-0.3c0,0,0,0,0-0.1c0-0.1,0.1-0.2,0.1-0.3c0,0,0,0,0,0v-23h-2V72.2z M20.7,22.9v49.3
		c-1.4,0.2-2.6,0.8-3.6,1.7V27.2C17.1,25.1,18.6,23.3,20.7,22.9z"/>
	<path class="st0" d="M81,15.1H52.5c-2.2,0-3.9,1.8-3.9,3.9v11.1c-0.2,0-0.3,0-0.5,0c-6,0-10.9,4.9-10.9,10.9s4.9,10.9,10.9,10.9
		c3.5,0,6.7-1.7,8.6-4.3H81c2.2,0,3.9-1.8,3.9-3.9V19C84.9,16.9,83.2,15.1,81,15.1z M82.9,43.7c0,1.1-0.9,1.9-1.9,1.9H52.5
		c-1.1,0-1.9-0.9-1.9-1.9V19c0-1.1,0.9-1.9,1.9-1.9H81c1.1,0,1.9,0.9,1.9,1.9V43.7z"/>
	<rect x="54.6" y="27.5" class="st0" width="24.6" height="2"/>
	<rect x="54.6" y="22" class="st0" width="24.6" height="2"/>
	<rect x="54.6" y="32.9" class="st0" width="24.6" height="2"/>
	<rect x="54.6" y="38" class="st0" width="5.7" height="2"/>
	<path class="st0" d="M31.7,62.7c0,1.4,1.1,2.5,2.5,2.5H62c1.4,0,2.5-1.1,2.5-2.5v-1c0-1.4-1.1-2.5-2.5-2.5H34.2
		c-1.4,0-2.5,1.1-2.5,2.5V62.7z"/>
	<path class="st0" d="M64.3,38c-0.6,0-1.1,0.5-1.1,1.1s0.5,1.1,1.1,1.1c0.6,0,1.1-0.5,1.1-1.1S64.9,38,64.3,38z"/>
	<circle class="st0" cx="69.1" cy="39" r="1.1"/>
	<path class="st0" d="M73.9,38c-0.6,0-1.1,0.5-1.1,1.1s0.5,1.1,1.1,1.1s1.1-0.5,1.1-1.1S74.4,38,73.9,38z"/>
</g>
</svg>
