<?xml version="1.0" encoding="utf-8"?>
<!-- Generator: Adobe Illustrator 28.2.0, SVG Export Plug-In . SVG Version: 6.00 Build 0)  -->
<svg version="1.1" id="Layer_1" xmlns="http://www.w3.org/2000/svg" xmlns:xlink="http://www.w3.org/1999/xlink" x="0px" y="0px"
	 viewBox="0 0 100 100" style="enable-background:new 0 0 100 100;" xml:space="preserve">
<style type="text/css">
	.st0{fill:#FFA348;}
</style>
<g>
	<path class="st0" d="M80.4,77.3h-5.8c-0.8,0-1.5,0.7-1.5,1.5v5.8c0,0.8,0.7,1.5,1.5,1.5h5.8c0.8,0,1.5-0.7,1.5-1.5v-5.8
		C82,78,81.3,77.3,80.4,77.3z"/>
	<path class="st0" d="M25.3,77.3h-5.8c-0.8,0-1.5,0.7-1.5,1.5v5.8c0,0.8,0.7,1.5,1.5,1.5h5.8c0.8,0,1.5-0.7,1.5-1.5v-5.8
		C26.9,78,26.2,77.3,25.3,77.3z"/>
	<path class="st0" d="M52.9,77.3h-5.8c-0.8,0-1.5,0.7-1.5,1.5v5.8c0,0.8,0.7,1.5,1.5,1.5h5.8c0.8,0,1.5-0.7,1.5-1.5v-5.8
		C54.4,78,53.7,77.3,52.9,77.3z"/>
	<path class="st0" d="M77.6,32.6c0.6,0,1-0.4,1-1v-6.5h-2v5.5H51v-5.5h-2v5.5H23.4v-5.5h-2v6.5c0,0.6,0.4,1,1,1H49v5.7H33
		c-1.7,0-3.1,1.4-3.1,3.1v16.4c0,1.7,1.4,3.1,3.1,3.1h16v6.5H22.4c-0.6,0-1,0.4-1,1v6.5h2v-5.5H49v5.5h2v-5.5h25.6v5.5h2v-6.5
		c0-0.6-0.4-1-1-1H51v-6.5h16c1.7,0,3.1-1.4,3.1-3.1V41.4c0-1.7-1.4-3.1-3.1-3.1H51v-5.7H77.6z M68.1,41.4v16.4
		c0,0.6-0.5,1.1-1.1,1.1H33c-0.6,0-1.1-0.5-1.1-1.1V41.4c0-0.6,0.5-1.1,1.1-1.1H67C67.6,40.2,68.1,40.7,68.1,41.4z"/>
	<path class="st0" d="M80.4,13.9h-5.8c-0.8,0-1.5,0.7-1.5,1.5v5.8c0,0.8,0.7,1.5,1.5,1.5h5.8c0.8,0,1.5-0.7,1.5-1.5v-5.8
		C82,14.6,81.3,13.9,80.4,13.9z"/>
	<path class="st0" d="M47.1,22.7h5.8c0.8,0,1.5-0.7,1.5-1.5v-5.8c0-0.8-0.7-1.5-1.5-1.5h-5.8c-0.8,0-1.5,0.7-1.5,1.5v5.8
		C45.6,22,46.3,22.7,47.1,22.7z"/>
	<path class="st0" d="M19.6,22.7h5.8c0.8,0,1.5-0.7,1.5-1.5v-5.8c0-0.8-0.7-1.5-1.5-1.5h-5.8c-0.8,0-1.5,0.7-1.5,1.5v5.8
		C18,22,18.7,22.7,19.6,22.7z"/>
	<path class="st0" d="M48.5,53.9c0.3,0,0.5-0.1,0.7-0.3l8.6-8.6l-1.4-1.4l-7.9,7.9l-4.2-4.2l-1.4,1.4l4.9,4.9
		C48,53.8,48.2,53.9,48.5,53.9z"/>
</g>
</svg>
