<?xml version="1.0" encoding="utf-8"?>
<!-- Generator: Adobe Illustrator 28.2.0, SVG Export Plug-In . SVG Version: 6.00 Build 0)  -->
<svg version="1.1" id="Layer_1" xmlns="http://www.w3.org/2000/svg" xmlns:xlink="http://www.w3.org/1999/xlink" x="0px" y="0px"
	 viewBox="0 0 100 100" style="enable-background:new 0 0 100 100;" xml:space="preserve">
<style type="text/css">
	.st0{fill:#E6546B;}
</style>
<g>
	<g>
		<rect x="48.7" y="25" class="st0" width="24.9" height="2"/>
	</g>
	<g>
		<rect x="48.7" y="34.3" class="st0" width="24.9" height="2"/>
	</g>
	<g>
		<path class="st0" d="M51.5,43.6c-0.6,0.6-1.1,1.3-1.5,2H36.5v-2H51.5z"/>
	</g>
	<g>
		<path class="st0" d="M47.3,52.9c-0.1,0.6-0.1,1.3-0.1,2v0H36.5v-2H47.3z"/>
	</g>
	<g>
		<path class="st0" d="M49.9,64.1H36.5v-2h12.3C49.1,62.8,49.5,63.5,49.9,64.1z"/>
	</g>
	<g>
		<g>
			<path class="st0" d="M68.5,49.4l3,2.9L64,59.9c-0.4,0.4-0.9,0.6-1.5,0.6c-0.5,0-1-0.2-1.4-0.6l-4.5-4.3l2.9-3l3,2.9L68.5,49.4z"
				/>
		</g>
		<g>
			<path class="st0" d="M64,68.8c-7.7,0-14-6.3-14-14c0-7.7,6.3-14,14-14c7.7,0,14,6.3,14,14C78,62.6,71.7,68.8,64,68.8z M64,42.8
				c-6.6,0-12,5.4-12,12c0,6.6,5.4,12,12,12c6.6,0,12-5.4,12-12C76,48.2,70.6,42.8,64,42.8z"/>
		</g>
	</g>
	<g>
		<path class="st0" d="M87,80.8c-0.8,0-1.5-0.3-2.1-0.9l-8.5-8.5c-1.2-1.2-1.2-3.1,0-4.2c1.2-1.2,3.1-1.2,4.2,0l8.5,8.5
			c1.2,1.2,1.2,3.1,0,4.2C88.5,80.5,87.7,80.8,87,80.8z"/>
	</g>
	<g>
		<rect x="77.4" y="62" transform="matrix(0.7071 -0.7071 0.7071 0.7071 -25.9959 75.7286)" class="st0" width="2" height="14.6"/>
	</g>
	<g>
		<path class="st0" d="M83.4,53.8h-2V14.1H28.6v4.2h-2v-5.2c0-0.6,0.4-1,1-1h54.8c0.6,0,1,0.4,1,1V53.8z"/>
	</g>
	<g>
		<path class="st0" d="M59.3,87.9H14.5c-0.6,0-1-0.4-1-1V39.1c0-0.6,0.4-1,1-1s1,0.4,1,1v46.7h42.9v-9.8c0-0.6,0.4-1,1-1s1,0.4,1,1
			v10.8C60.3,87.4,59.9,87.9,59.3,87.9z"/>
	</g>
	<g>
		<g>
			<path class="st0" d="M72.5,77.1H27.6c-0.6,0-1-0.4-1-1V45.6h-5.9v-2h6.9c0.6,0,1,0.4,1,1v30.5h43.9V77.1z"/>
		</g>
		<g>
			<rect x="21" y="52.9" class="st0" width="6.7" height="2"/>
		</g>
		<g>
			<rect x="21" y="62.1" class="st0" width="7.7" height="2"/>
		</g>
		<g>
			<rect x="21" y="71.4" class="st0" width="6.7" height="2"/>
		</g>
	</g>
	<g>
		<g>
			<path class="st0" d="M45.5,31.8c-4.2-5.1-10.4-8-17-8c-6.6,0-12.8,2.9-17,8L10,30.5c4.6-5.6,11.3-8.8,18.5-8.8
				c7.2,0,13.9,3.2,18.5,8.8L45.5,31.8z"/>
		</g>
		<g>
			<path class="st0" d="M28.5,37.6c-6.3,0-12.1-3.2-15.5-8.5l1.7-1.1c3,4.7,8.2,7.6,13.8,7.6c5.6,0,10.8-2.8,13.8-7.6l1.7,1.1
				C40.6,34.5,34.8,37.6,28.5,37.6z"/>
		</g>
		<g>
			<path class="st0" d="M34.9,25.4c0,3.5-2.8,6.3-6.3,6.3s-6.3-2.8-6.3-6.3c0-0.5,0.1-1,0.2-1.5c1.9-0.7,4-1.1,6.1-1.1
				c2.2,0,4.2,0.4,6.1,1.1C34.8,24.4,34.9,24.9,34.9,25.4z"/>
		</g>
	</g>
</g>
</svg>
