<?xml version="1.0" encoding="UTF-8"?>
<svg id="Layer_1" data-name="Layer 1" xmlns="http://www.w3.org/2000/svg" xmlns:xlink="http://www.w3.org/1999/xlink" version="1.1" viewBox="0 0 100 100">
  <defs>
    <style>
      .cls-1 {
        fill: #1bbeff;
      }

      .cls-1, .cls-2 {
        stroke-width: 0px;
      }

      .cls-3 {
        filter: url(#drop-shadow-1);
      }

      .cls-2 {
        fill: #fff;
      }
    </style>
    <filter id="drop-shadow-1">
      <feOffset dx="0" dy="0"/>
      <feGaussianBlur result="blur" stdDeviation="3"/>
      <feFlood flood-color="#073547" flood-opacity=".2"/>
      <feComposite in2="blur" operator="in"/>
      <feComposite in="SourceGraphic"/>
    </filter>
  </defs>
  <g class="cls-3">
    <circle class="cls-2" cx="50" cy="50" r="36.452"/>
  </g>
  <g>
    <path class="cls-1" d="M61.283,45.719c-.47-3.169-3.131-5.625-6.391-5.775-1.509,0-3.23.881-4.047,1.87-.085-.216,1.118-2.345,3.648-2.834-1.566-3.278-4.838-5.474-8.551-5.602-2.648-.106-5.146.846-7.074,2.644s-3.04,4.238-3.132,6.872c1.757-.111,4.252.34,5.005,1.631-.925-.43-2.215-.806-4.979-.806-1.784.802-3.034,2.588-3.034,4.667,0,2.825,2.298,5.123,5.122,5.123v-.036c.06.011.114.036.177.036h9.113v13.121h20.133v-20.911h-5.989ZM65.272,64.63h-16.133v-16.911h16.133v16.911Z"/>
    <rect class="cls-1" x="55.582" y="50.572" width="7.353" height="2"/>
    <rect class="cls-1" x="55.582" y="55.174" width="7.353" height="2"/>
    <rect class="cls-1" x="55.582" y="59.776" width="7.353" height="2"/>
    <rect class="cls-1" x="51.834" y="50.572" width="2.038" height="2"/>
    <rect class="cls-1" x="51.834" y="55.174" width="2.038" height="2"/>
    <rect class="cls-1" x="51.834" y="59.776" width="2.038" height="2"/>
  </g>
</svg>