<?xml version="1.0" encoding="UTF-8"?>
<svg id="Layer_1" data-name="Layer 1" xmlns="http://www.w3.org/2000/svg" version="1.1" viewBox="0 0 100 100">
  <defs>
    <style>
      .cls-1 {
        fill: #1bbeff;
        stroke-width: 0px;
      }
    </style>
  </defs>
  <path class="cls-1" d="M82.285,76.767c-.589,0-1.065.476-1.065,1.065v2.657l-19.62-11.003,12.097-7.042c.328-.19.529-.541.529-.921v-9.458l5.912-3.391-.288,1.715c-.097.58.294,1.13.874,1.227.06.01.12.015.178.015.511,0,.962-.368,1.05-.888l.661-3.935c.008-.048-.006-.094-.005-.142.003-.075.006-.147-.008-.222-.013-.071-.04-.134-.067-.201-.019-.047-.022-.097-.048-.142-.01-.018-.028-.028-.04-.045-.012-.018-.014-.04-.027-.058-.032-.043-.079-.067-.116-.105-.049-.05-.095-.099-.153-.138-.056-.038-.117-.061-.179-.088-.067-.029-.131-.056-.202-.07-.023-.005-.043-.02-.066-.023l-5.305-.709c-.586-.083-1.119.333-1.197.914-.078.584.332,1.119.914,1.197l2.191.293-4.08,2.34v-22.998c0-.225-.078-.435-.204-.612-.012-.016-.023-.031-.036-.047-.082-.103-.177-.197-.295-.264-.01-.006-.021-.008-.032-.013l-16.283-9.374c-.039-.022-.081-.024-.121-.041-.071-.03-.14-.058-.216-.072-.064-.012-.125-.012-.189-.013-.072,0-.14,0-.212.015-.071.014-.134.041-.201.069-.042.018-.087.02-.128.044l-28.01,16.311c-.012.007-.019.02-.03.027-.08.05-.145.116-.21.187-.033.036-.068.069-.096.109-.016.023-.04.037-.054.061,0,.002,0,.003-.002.005-.065.114-.1.235-.12.357-.004.022-.009.044-.011.066-.008.077-.006.153.003.229,0,.008,0,.015.001.023.005.034.012.067.02.101.005.022.012.041.019.062.012.037.018.076.034.112-.056.129-.087.273-.087.422v15.658l-6.492-3.714h3.191c.589,0,1.065-.476,1.065-1.065s-.476-1.065-1.065-1.065h-6.752c-.589,0-1.065.476-1.065,1.065v4.868c0,.589.476,1.065,1.065,1.065s1.065-.476,1.065-1.065v-2.777l8.988,5.142v15.955c0,.381.204.733.534.923l5.768,3.32-12.77,7.059.245-1.454c.098-.58-.294-1.13-.874-1.227-.592-.093-1.131.294-1.227.874l-.662,3.935c-.048.285.022.577.193.809s.43.385.716.423l5.305.709c.048.006.096.009.143.009.525,0,.983-.389,1.055-.924.078-.584-.332-1.119-.914-1.197l-2.512-.336,13.459-7.44,8.387,4.828s.001.001.002.002c.072.042.149.07.227.093.011.003.021.01.032.013.089.024.181.035.272.035.159,0,.316-.043.463-.114.023-.011.048-.016.07-.029,0,0,0,0,0,0,0,0,.001,0,.002,0l13.783-8.023,19.443,10.905h-3.374c-.589,0-1.065.476-1.065,1.065s.476,1.065,1.065,1.065h6.752c.589,0,1.065-.476,1.065-1.065v-4.867c0-.589-.476-1.065-1.065-1.065ZM56.85,18.455l14.181,8.164-25.092,14.607-.797.464-14.178-8.161,25.885-15.074ZM29.898,35.374l14.182,8.162v32.454l-14.182-8.163v-32.453ZM46.211,43.533l25.886-15.068v32.446l-25.886,15.069v-32.447Z"/>
  <polygon class="cls-1" points="49.236 50.367 59.323 44.616 59.323 41.932 49.236 47.683 49.236 50.367"/>
  <path class="cls-1" d="M63.62,38.916c-.71.405-1.286,1.588-1.286,2.641s.576,1.579,1.286,1.174c.711-.405,1.287-1.588,1.287-2.641s-.576-1.579-1.287-1.174Z"/>
  <path class="cls-1" d="M68.16,36.327c-.711.405-1.287,1.588-1.287,2.641s.576,1.579,1.287,1.174,1.286-1.588,1.286-2.641-.576-1.579-1.286-1.174Z"/>
  <polygon class="cls-1" points="49.236 59.637 59.323 53.886 59.323 51.203 49.236 56.954 49.236 59.637"/>
  <path class="cls-1" d="M63.62,48.187c-.71.405-1.286,1.588-1.286,2.641s.576,1.579,1.286,1.174c.711-.405,1.287-1.588,1.287-2.641s-.576-1.579-1.287-1.174Z"/>
  <path class="cls-1" d="M68.16,45.598c-.711.405-1.287,1.588-1.287,2.641s.576,1.579,1.287,1.174,1.286-1.588,1.286-2.641-.576-1.579-1.286-1.174Z"/>
  <polygon class="cls-1" points="49.236 68.908 59.323 63.157 59.323 60.473 49.236 66.224 49.236 68.908"/>
  <path class="cls-1" d="M63.62,57.457c-.71.405-1.286,1.588-1.286,2.641s.576,1.579,1.286,1.174c.711-.405,1.287-1.588,1.287-2.641s-.576-1.579-1.287-1.174Z"/>
  <path class="cls-1" d="M68.16,54.869c-.711.405-1.287,1.588-1.287,2.641s.576,1.579,1.287,1.174,1.286-1.588,1.286-2.641-.576-1.579-1.286-1.174Z"/>
  <path class="cls-1" d="M25.737,55.939c.451-.377.513-1.047.135-1.5-.376-.451-1.045-.513-1.5-.135-3.612,3.011-5.521,6.572-5.521,10.295s1.91,7.284,5.521,10.296c.2.165.441.247.681.247.306,0,.609-.13.82-.383.377-.452.315-1.123-.136-1.501-3.111-2.593-4.756-5.587-4.756-8.659s1.645-6.064,4.756-8.66Z"/>
  <path class="cls-1" d="M67.743,77.134c-5.129,2.192-11.264,3.35-17.743,3.35-6.207,0-12.134-1.071-17.14-3.1-.541-.222-1.166.042-1.387.588-.221.545.042,1.166.588,1.387,5.257,2.13,11.461,3.256,17.939,3.256,6.763,0,13.189-1.218,18.579-3.521.541-.232.793-.857.562-1.398-.233-.543-.862-.794-1.398-.562Z"/>
  <path class="cls-1" d="M73.709,73.705c-.465.361-.549,1.03-.188,1.495.21.27.524.412.843.412.228,0,.458-.073.652-.224,4.013-3.115,6.134-6.847,6.134-10.789,0-3.376-1.593-6.656-4.605-9.484-.43-.403-1.104-.384-1.505.047-.404.429-.382,1.103.047,1.505,2.573,2.416,3.933,5.159,3.933,7.932,0,3.26-1.836,6.41-5.31,9.106Z"/>
</svg>