<?xml version="1.0" encoding="UTF-8"?>
<svg xmlns="http://www.w3.org/2000/svg" version="1.1" viewBox="0 0 24 24">
  <defs>
    <style>
      .cls-1 {
        fill: #fff;
      }
    </style>
  </defs>
  <!-- Generator: Adobe Illustrator 28.7.0, SVG Export Plug-In . SVG Version: 1.2.0 Build 136)  -->
  <g>
    <g id="Layer_1">
      <g>
        <rect class="cls-1" x="12.011" y="6.873" width="5.156" height="1.029"/>
        <rect class="cls-1" x="12.011" y="9.959" width="5.156" height="1.029"/>
        <rect class="cls-1" x="6.868" y="13.045" width="10.298" height="1.029"/>
        <path class="cls-1" d="M9.194,6.974l.57,1.156,1.276.185c.148.022.208.204.1.309l-.923.9.218,1.27c.025.148-.13.261-.263.191l-1.141-.6-1.141.6c-.133.07-.288-.043-.263-.191l.218-1.27-.923-.9c-.107-.105-.048-.287.1-.309l1.276-.185.57-1.156c.066-.135.258-.135.325,0Z"/>
        <path class="cls-1" d="M17.153,20.225c-.121,0-.239-.042-.333-.124l-3.43-2.926h-7.885c-.955,0-1.732-.768-1.732-1.713V5.509c0-.943.775-1.712,1.729-1.713l12.99-.022h.006c.463,0,.899.18,1.226.506.323.322.502.751.502,1.206v9.976c0,.944-.776,1.713-1.732,1.713h-.828s0,2.535,0,2.535c0,.201-.117.383-.299.467-.068.032-.142.047-.215.047ZM18.497,4.803h-.002l-12.991.022c-.388.001-.702.307-.702.684v9.954c0,.378.315.684.703.684h8.074c.123,0,.241.043.333.124l2.726,2.325v-1.938c0-.137.054-.268.151-.365.096-.095.227-.15.364-.15h.002l1.34.003c.388,0,.703-.306.703-.684V5.487c0-.18-.071-.35-.2-.478-.134-.133-.311-.206-.501-.206Z"/>
      </g>
    </g>
  </g>
</svg>