<?xml version="1.0" encoding="utf-8"?>
<!-- Generator: Adobe Illustrator 28.2.0, SVG Export Plug-In . SVG Version: 6.00 Build 0)  -->
<svg version="1.1" id="Layer_1" xmlns="http://www.w3.org/2000/svg" xmlns:xlink="http://www.w3.org/1999/xlink" x="0px" y="0px"
	 viewBox="0 0 100 100" style="enable-background:new 0 0 100 100;" xml:space="preserve">
<style type="text/css">
	.st0{fill:#EF546B;}
</style>
<g>
	<circle class="st0" cx="15.7" cy="52.3" r="2.3"/>
	<circle class="st0" cx="18.3" cy="65.1" r="2.3"/>
	<path class="st0" d="M18.5,41.7c0.9-0.9,0.9-2.4,0-3.3c-0.9-0.9-2.4-0.9-3.3,0c-0.9,0.9-0.9,2.4,0,3.3
		C16.1,42.6,17.6,42.6,18.5,41.7z"/>
	<path class="st0" d="M76.1,24.5c-7-7-16.2-10.5-25.4-10.6c0,0-0.1,0-0.1,0c0,0-0.1,0-0.1,0c-8.7,0-17.3,3.1-24.2,9.4l-5.2-5.2
		l0,11.7h11.7l-5-5c6.2-5.6,13.9-8.5,21.7-8.7v5.1c0,0.6,0.5,1.1,1,1.1s1-0.5,1-1.1v-5.1c7.9,0.2,15.7,3.2,22,8.9l-4.1,4.1
		c-0.4,0.4-0.4,1.1,0,1.5c0.2,0.2,0.5,0.3,0.7,0.3c0.3,0,0.5-0.1,0.7-0.3l4.2-4.2c5.8,6,9.1,13.7,9.5,22h-5.6c-0.6,0-1.1,0.5-1.1,1
		c0,0.6,0.5,1.1,1.1,1.1h5.6c-0.1,8.4-3.3,16.3-9,22.5l-4.7-4.7c-0.4-0.4-1.1-0.4-1.5,0s-0.4,1.1,0,1.5l4.7,4.7
		c-6.3,6.1-14.4,9.2-22.5,9.5v-6.1c0-0.6-0.5-1.1-1-1.1s-1,0.5-1,1.1V84c-8.1-0.2-16.2-3.4-22.5-9.5l4.7-4.7c0.4-0.4,0.4-1.1,0-1.5
		s-1.1-0.4-1.5,0l-5.4,5.4c-0.4,0.4-0.4,1.1,0,1.5c0,0,0.1,0.1,0.2,0.1c0,0.1,0.1,0.1,0.1,0.2c7,7,16.3,10.6,25.5,10.6
		c9.2,0,18.5-3.5,25.5-10.6c6.8-6.8,10.6-15.9,10.6-25.5S82.9,31.3,76.1,24.5z"/>
	<path class="st0" d="M42.8,42.8c2-2,2-5.2,0-7.2c-2-2-5.2-2-7.2,0c-2,2-2,5.2,0,7.2C37.6,44.7,40.9,44.7,42.8,42.8z"/>
	<path class="st0" d="M60,38.6l0.7-6.5c0-0.3-0.2-0.6-0.5-0.6c-0.3-0.1-0.6,0.1-0.7,0.4L58,38l-3,4.1l-1.9-1.2l-2.5,8.7l8.7,8.7
		c0.8-1,1.8-2.3,2.2-3.4v0c0.6-1.6,0.7-3.4,0.3-5l4.5,0.6l2.4,7.6c0.1,0.5,0.9,0.3,0.8-0.2l-1.4-8.6c-0.1-0.4-0.4-0.7-0.8-0.8
		l-6.4-1.2c-0.4-0.7-0.9-1.4-1.5-2C59,44.7,58.5,44.3,58,44l-0.8-0.5l2.7-4.4C59.9,38.9,60,38.7,60,38.6z"/>
	<path class="st0" d="M30.5,43.4c-0.3-0.6-1.2-0.2-1,0.4l2.4,6.7c0.2,0.4,0.6,0.7,1,0.6l0.1,0l5.8-0.9l1,1.6l9.2-2.7l2.7-9.1
		l-1.6-1.1l0.9-5.8l0-0.1c0.1-0.4-0.2-0.9-0.6-1l-6.8-2.4c-0.5-0.2-0.9,0.6-0.4,0.8l5.5,3l-1.3,5.2l-0.7,0.2c-0.1,2.2-1,4.2-2.5,5.7
		C43,46,41,46.9,38.8,47l-0.2,0.7l-5.2,1.3C32.6,47.2,30.5,43.4,30.5,43.4z"/>
	<path class="st0" d="M54.8,61.5c1.2-0.4,2.6-1.4,3.6-2.2l-8.8-8.9l-8.7,2.7v0l1.2,1.8l-4,3.1c-1.2,0.3-6,1.7-6,1.7
		c-0.4,0.1-0.3,0.7,0.1,0.7l6.5-0.4c0.1,0,0.3-0.1,0.4-0.2l4.5-2.6l0.5,0.7c0.8,1.2,1.7,2.1,2.9,2.8l1.5,6.6l0,0.1
		c0.1,0.4,0.4,0.6,0.8,0.7l8.6,1.3c0.4,0.1,0.6-0.6,0.2-0.7l-7.5-2.4L50,61.9C51.5,62.2,53.2,62.1,54.8,61.5z"/>
</g>
</svg>
