<?xml version="1.0" encoding="UTF-8"?>
<svg id="Layer_1" data-name="Layer 1" xmlns="http://www.w3.org/2000/svg" version="1.1" viewBox="0 0 100 100">
  <defs>
    <style>
      .cls-1 {
        fill: #e6546b;
        stroke-width: 0px;
      }
    </style>
  </defs>
  <path class="cls-1" d="M78.4,27.4h-2.2v-2.2c0-3.1-2.5-5.7-5.7-5.7H21.6c-3.1,0-5.7,2.5-5.7,5.7v41.7c0,3.1,2.5,5.7,5.7,5.7h2.2v2.2c0,3.1,2.5,5.7,5.7,5.7h48.9c3.1,0,5.7-2.5,5.7-5.7v-41.7c0-3.1-2.5-5.7-5.7-5.7ZM18.1,66.9V25.2c0-2,1.6-3.5,3.5-3.5h48.9c2,0,3.5,1.6,3.5,3.5v41.7c0,2-1.6,3.5-3.5,3.5H21.6c-2,0-3.5-1.6-3.5-3.5ZM81.9,74.8c0,2-1.6,3.5-3.5,3.5H29.5c-2,0-3.5-1.6-3.5-3.5v-2.2h44.6c3.1,0,5.7-2.5,5.7-5.7V29.5h2.2c2,0,3.5,1.6,3.5,3.5v41.7Z"/>
  <path class="cls-1" d="M66.8,41.4h-2.7v-3.9c0-.6-.5-1.1-1.1-1.1h-16v-3c1.8-.5,3.2-2.1,3.2-4.1s-1.9-4.3-4.3-4.3-4.3,1.9-4.3,4.3,1.4,3.6,3.2,4.1v3h-15.9c-.6,0-1.1.5-1.1,1.1v3.9h-2.7c-1.1,0-2,.9-2,2v5.4c0,1.1.9,2,2,2h2.7v4.1c0,.6.5,1.1,1.1,1.1h15.9v2.7c-1.8.5-3.2,2.1-3.2,4.1s1.9,4.3,4.3,4.3,4.3-1.9,4.3-4.3-1.4-3.6-3.2-4.1v-2.7h16c.6,0,1.1-.5,1.1-1.1v-4.1h2.7c1.1,0,2-.9,2-2v-5.4c0-1.1-.9-2-2-2ZM43.9,29.4c0-1.2,1-2.2,2.2-2.2s2.2,1,2.2,2.2-1,2.2-2.2,2.2-2.2-1-2.2-2.2ZM48.2,62.7c0,1.2-1,2.2-2.2,2.2s-2.2-1-2.2-2.2,1-2.2,2.2-2.2,2.2,1,2.2,2.2ZM25.4,43.5h7.3v5.2h-7.3v-5.2ZM30.1,53.8v-3.1h2.7c1.1,0,2-.9,2-2v-5.4c0-1.1-.9-2-2-2h-2.7v-2.8h14.9v2.8h-2.7c-1.1,0-2,.9-2,2v5.4c0,1.1.9,2,2,2h2.7v3.1h-14.9ZM42.4,48.6v-5.2h7.3v5.2h-7.3ZM62,53.8h-15v-3.1h2.7c1.1,0,2-.9,2-2v-5.4c0-1.1-.9-2-2-2h-2.7v-2.8h15v2.8h-2.7c-1.1,0-2,.9-2,2v5.4c0,1.1.9,2,2,2h2.7v3.1ZM66.7,48.6h-7.3v-5.2h7.3v5.2Z"/>
</svg>