<?xml version="1.0" encoding="utf-8"?>
<!-- Generator: Adobe Illustrator 28.2.0, SVG Export Plug-In . SVG Version: 6.00 Build 0)  -->
<svg version="1.1" id="Layer_1" xmlns="http://www.w3.org/2000/svg" xmlns:xlink="http://www.w3.org/1999/xlink" x="0px" y="0px"
	 viewBox="0 0 100 100" style="enable-background:new 0 0 100 100;" xml:space="preserve">
<style type="text/css">
	.st0{fill:#FFA348;}
</style>
<g>
	<path class="st0" d="M91.4,33.9c0-6.9-5.6-12.5-12.5-12.5c-5.7,0-10.8,3.6-12.2,7.9c1.4,0.7,2.3,2.1,2.2,3.5
		c-2-2.5-4.7-3.3-6.1-3.3c-2.7,0-5.1,1.3-6.7,3.3c-3.1-3.6-7.7-5.7-12.7-5.7c-4,0-7.6,1.4-10.5,3.7c-1.4-1.6-3.5-2.5-5.8-2.5
		c-3.7,0-6,2.3-7.2,4.7c1,0.7,1.4,1.7,1.5,2.7c-1.2-1.6-3.1-2.1-4.9-2.1c-1,0-2,0.2-2.8,0.5c-0.8,0.3-1.5,0.7-2.2,1.2
		c-0.1,0.1-0.3,0.2-0.4,0.4c-1.6,1.5-2.6,3.6-2.6,5.9c0,4.4,3.6,8,8,8h1.5c-2.2,2.4-3.6,5.7-3.6,9.2c0,7.5,6.1,13.6,13.6,13.6H37
		c0.6,0,1-0.4,1-1s-0.4-1-1-1h-8.8c-6.4,0-11.6-5.2-11.6-11.6s5.2-11.6,11.6-11.6c1.9,0,3.7,0.4,5.4,1.3c0.5,0.3,1.1,0.1,1.3-0.4
		c0.3-0.5,0.1-1.1-0.4-1.3c-1.8-1-3.9-1.5-5.9-1.5c0-0.4,0-0.8,0-1.2c0-8.3,6.7-15,15-15c6.5,0,12.3,4.2,14.2,10.4
		c-1.1,0.5-2.2,1.1-3.2,1.9c-0.4,0.3-0.5,1-0.2,1.4c0.3,0.4,1,0.5,1.4,0.2c2.7-2,5.8-3.1,9.2-3.1c1.9,0,3.7,0.3,5.4,1
		c1.5,0.6,2.9,1.4,4.1,2.4c0.3,0.2,0.5,0.4,0.8,0.7c3.1,2.9,4.9,7,4.9,11.2c0,8.4-6.9,15.3-15.3,15.3h-9.1c-0.6,0-1,0.4-1,1
		s0.4,1,1,1h9.1c9.5,0,17.3-7.8,17.3-17.3c0-3.2-0.9-6.2-2.5-8.9C86.2,46,91.4,40.6,91.4,33.9z"/>
	<path class="st0" d="M37,48.4c-0.5,0-0.9,0.4-0.9,0.9c0,0.5,0.4,0.9,0.9,0.9s0.9-0.4,0.9-0.9C37.9,48.8,37.5,48.4,37,48.4z"/>
	<path class="st0" d="M45.8,55c-4.4,0-7.9,3.6-7.9,7.9c0,0.3,0,0.6,0.1,0.9c0.5,6.1,5.4,12.3,7.2,14.4c0.4,0.4,1,0.4,1.4,0
		c1.8-2.1,6.7-8.3,7.2-14.4c0-0.3,0.1-0.6,0.1-0.9C53.8,58.5,50.2,55,45.8,55z M45.8,68.2c-2.9,0-5.2-2.4-5.2-5.3
		c0-2.9,2.4-5.2,5.2-5.2c2.9,0,5.3,2.4,5.3,5.2C51.1,65.8,48.7,68.2,45.8,68.2z"/>
	<path class="st0" d="M45.8,59.9c-1.7,0-3.1,1.4-3.1,3.1s1.4,3.1,3.1,3.1s3.1-1.4,3.1-3.1S47.5,59.9,45.8,59.9z"/>
</g>
</svg>
