<?xml version="1.0" encoding="UTF-8"?>
<svg id="Layer_1" data-name="Layer 1" xmlns="http://www.w3.org/2000/svg" version="1.1" viewBox="0 0 100 100">
  <defs>
    <style>
      .cls-1 {
        fill: #3ac09c;
        stroke-width: 0px;
      }
    </style>
  </defs>
  <path class="cls-1" d="M51.3,50.4h-4.8v-4.9h18.5v4.9h-4.8c-.7,0-1.2.5-1.2,1.2v5.3c0,.7.5,1.2,1.2,1.2h6.1c1.7-2.2,3.9-4.1,6.5-5.6v-.9c0-.7-.5-1.2-1.2-1.2h-4.8v-5.8c0-.5-.4-.9-.9-.9h-19.4v-4.7c1.9-.4,3.2-2.1,3.2-4.1s-1.9-4.2-4.2-4.2-4.2,1.9-4.2,4.2,1.4,3.6,3.2,4.1v4.7h-19.4c-.5,0-.9.4-.9.9v5.8h-4.8c-.7,0-1.2.5-1.2,1.2v5.3c0,.7.5,1.2,1.2,1.2h4.8v9.1c0,.5.4.9.9.9h13.3v1.8c0,.7.5,1.2,1.2,1.2h4.8v4.5c-1.6.3-2.8,1.6-3.1,3.1h-25.1c-1.1,0-2.1-.9-2.1-2.1V27.1h62.5v23.5c.6-.2,1.2-.4,1.8-.6v-30.5c0-2.2-1.8-3.8-3.8-3.8H16.3c-2.2,0-3.8,1.8-3.8,3.8v57.4c0,2.2,1.8,3.8,3.8,3.8h25.1c.4,1.9,2.1,3.2,4.1,3.2s4.2-1.9,4.2-4.2-1.4-3.6-3.2-4.1v-4.5h4.8c.7,0,1.2-.5,1.2-1.2v-5.3c0-.7-.5-1.2-1.2-1.2h-4.8v-5.3h4.8c.7,0,1.2-.5,1.2-1.2v-5.3c0-.7-.5-1.2-1.2-1.2h0ZM21.3,23.5c-.9,0-1.7-.7-1.7-1.7s.7-1.7,1.7-1.7,1.7.7,1.7,1.7-.7,1.7-1.7,1.7ZM26.5,23.5c-.9,0-1.7-.7-1.7-1.7s.7-1.7,1.7-1.7,1.7.7,1.7,1.7-.7,1.7-1.7,1.7ZM31.7,23.5c-.9,0-1.7-.7-1.7-1.7s.7-1.7,1.7-1.7,1.7.7,1.7,1.7-.7,1.7-1.7,1.7ZM70.7,22.7h-32.3c-.4,0-.8-.3-.8-.8s.3-.8.8-.8h32.3c.4,0,.8.3.8.8s-.3.8-.8.8ZM44.6,63.4h-4.8c-.7,0-1.2.5-1.2,1.2v1.8h-12.5v-8.3h4.8c.7,0,1.2-.5,1.2-1.2v-5.3c0-.7-.5-1.2-1.2-1.2h-4.8v-4.9h18.5v4.9h-4.8c-.7,0-1.2.5-1.2,1.2v5.3c0,.7.5,1.2,1.2,1.2h4.8v5.3Z"/>
  <path class="cls-1" d="M85.8,65.5l-1-.6v-1.1l1-.6-.6-1.5-1.1.3c-.2-.3-.5-.6-.8-.8l.3-1.1-1.5-.6-.6,1h-1.1l-.6-1-1.5.6.3,1.1c-.3.2-.6.5-.8.8l-1.1-.3-.6,1.5,1,.6v1.1l-1,.6.6,1.5,1.1-.3c.2.3.5.6.8.8l-.3,1.1,1.5.6.6-1h1.1l.6,1,1.5-.6-.3-1.1c.3-.2.6-.5.8-.8l1.1.3s.6-1.5.6-1.5ZM82.2,65.6c-.7.7-1.9.7-2.6,0s-.7-1.9,0-2.6,1.9-.7,2.6,0,.7,1.9,0,2.6Z"/>
  <path class="cls-1" d="M62.9,81l-5.6,5.6c-.3.3-.3.9,0,1.2.2.2.4.3.6.3s.4,0,.6-.3l5.6-5.6s-1.2-1.2-1.2-1.2Z"/>
  <path class="cls-1" d="M62.7,86.6c-.3.3-.3.9,0,1.2.2.2.4.3.6.3s.4,0,.6-.3l2.9-2.9-1.2-1.2s-2.9,2.9-2.9,2.9Z"/>
  <path class="cls-1" d="M57.9,82.7c.2,0,.4,0,.6-.3l2.9-2.9-1.2-1.2-2.9,2.9c-.3.3-.3.9,0,1.2.2.2.4.3.6.3Z"/>
  <path class="cls-1" d="M92.1,53.9c0-.2-.1-.3-.2-.5-.1-.1-.3-.2-.5-.3-1.2-.2-11.2-2.1-19.1,5.7-1.4,1.3-2.3,2.3-2.9,2.9h-3.4c-1-.1-2,.2-2.7.9l-3.4,3.4,6.6,3c-.3,1.6-.4,2.7-.4,3.4l-2.7,1.1c-.5.2-.9.7-1,1.4,0,.5,0,1,.3,1.4,0,0,.1.2.2.2l3.4,3.4,2.4,2.4c.3.3.8.5,1.2.5s.2,0,.3,0c.5-.1,1-.5,1.2-1l1.1-2.7c.7,0,1.9,0,3.4-.4l3,6.6,3.4-3.4c.7-.7,1.1-1.7,1-2.7v-3.8c-.1,0,2.5-1.9,2.9-2.4,8.4-9.5,5.9-18.3,5.7-19.1ZM69.7,81.3l-5.8-5.8,2.7-1.1,2.2,2.2,2.1,2.1-1.1,2.7ZM72.4,77.5l-2.3-2.3-2.3-2.3c0-.5,0-1.8.4-3.4,0,0,.1.2.2.3l3.5,3.5,3.5,3.5s.2.1.3.2c-1.7.4-2.9.4-3.4.4ZM85.2,71.8c-2.1,2.1-5.4,4-6,4.3s-1.8.1-2.4-.5l-3.5-3.5-3.5-3.5c-.6-.6-.7-1.5-.4-2.2.8-1.9,2.2-4.1,4.3-6.1,3.4-3.4,7.5-4.9,10.8-5.3l6.1,6.1c-.5,3.3-1.9,7.3-5.3,10.8Z"/>
</svg>