<?xml version="1.0" encoding="utf-8"?>
<!-- Generator: Adobe Illustrator 28.2.0, SVG Export Plug-In . SVG Version: 6.00 Build 0)  -->
<svg version="1.1" id="Layer_1" xmlns="http://www.w3.org/2000/svg" xmlns:xlink="http://www.w3.org/1999/xlink" x="0px" y="0px"
	 viewBox="0 0 100 100" style="enable-background:new 0 0 100 100;" xml:space="preserve">
<style type="text/css">
	.st0{fill:#3AC9A5;}
</style>
<g>
	<path class="st0" d="M44.2,45.6l3.3,3.3v-8.1h-8.1l3.4,3.4c-2.7,2.1-6.1,3.3-9.6,3.3c-4.2,0-8.2-1.6-11.1-4.6
		c-4.1-4.1-5.6-10.1-4-15.6c0.2-0.5-0.1-1.1-0.7-1.2c-0.5-0.2-1.1,0.1-1.2,0.7c-1.9,6.3-0.1,13,4.5,17.6c3.4,3.4,7.8,5.2,12.6,5.2
		C37.2,49.5,41.1,48.1,44.2,45.6z"/>
	<path class="st0" d="M23.9,19c2.7-2,5.9-3,9.3-3c4.2,0,8.2,1.6,11.1,4.6c4.2,4.2,5.7,10.6,3.7,16.3c-0.2,0.5,0.1,1.1,0.6,1.3
		c0.1,0,0.2,0.1,0.3,0.1c0.4,0,0.8-0.3,0.9-0.7c2.2-6.4,0.6-13.6-4.2-18.4c-3.4-3.4-7.8-5.2-12.6-5.2c-3.9,0-7.6,1.3-10.7,3.6
		l-3.2-3.2v8.1h8.1L23.9,19z"/>
	<path class="st0" d="M41.8,33.8c0.2,0,0.4-0.3,0.4-0.5v-2.1c0-0.2-0.2-0.5-0.4-0.5l-1.6-0.5c-0.2-0.6-0.4-1.1-0.7-1.6l0.8-1.5
		c0.1-0.2,0.1-0.5-0.1-0.7L38.7,25c-0.2-0.2-0.5-0.2-0.7-0.1l-1.5,0.8c-0.3-0.1-1.3-0.6-1.6-0.7l-0.5-1.6c0-0.2-0.3-0.4-0.5-0.4
		h-2.1c-0.3,0-0.5,0.2-0.5,0.4L30.9,25c-0.4,0.1-1.5,0.6-1.6,0.7l-1.5-0.8c-0.2-0.1-0.5-0.1-0.7,0.1l-1.5,1.5
		c-0.2,0.2-0.2,0.5-0.1,0.7l0.8,1.5c-0.3,0.5-0.5,1.1-0.7,1.6l-1.6,0.5c-0.2,0-0.4,0.3-0.4,0.5v2.1c0,0.2,0.2,0.5,0.4,0.5l1.6,0.5
		c0.2,0.6,0.4,1.1,0.7,1.6l-0.8,1.5c-0.1,0.2-0.1,0.5,0.1,0.7l1.5,1.5c0.2,0.2,0.5,0.2,0.7,0.1l1.5-0.7c0.3,0.1,1.3,0.6,1.6,0.7
		l0.5,1.6c0,0.2,0.3,0.4,0.5,0.4H34c0.3,0,0.5-0.2,0.5-0.4l0.5-1.6c0.4-0.1,1.4-0.6,1.6-0.7l1.5,0.8c0.2,0.1,0.5,0.1,0.7-0.1
		l1.5-1.5c0.2-0.2,0.2-0.5,0.1-0.7l-0.8-1.5c0.3-0.5,0.5-1,0.7-1.6L41.8,33.8z M32.9,36.6c-2.4,0-4.4-2-4.4-4.4c0-2.4,2-4.4,4.4-4.4
		s4.4,2,4.4,4.4C37.3,34.7,35.4,36.6,32.9,36.6z"/>
	<path class="st0" d="M84.6,32.4c0-0.3,0-0.6-0.3-0.9l-7-7c-0.2-0.2-0.5-0.3-0.8-0.3c0,0-0.1,0-0.1,0H52.2v2h23.4v6c0,0.6,0.4,1,1,1
		h6v43.4H38.9V52.1h-2v25.6c0,0.6,0.4,1,1,1H74V85H30.4V52.1h-2V86c0,0.6,0.4,1,1,1H75c0.6,0,1-0.4,1-1v-7.3h7.6c0.6,0,1-0.4,1-1
		L84.6,32.4C84.6,32.5,84.6,32.4,84.6,32.4z"/>
	<rect x="49.9" y="47" class="st0" width="25.1" height="2"/>
	<rect x="56.6" y="38.6" class="st0" width="18.4" height="2"/>
	<rect x="46.5" y="63.7" class="st0" width="28.5" height="2"/>
	<rect x="46.5" y="55.3" class="st0" width="28.5" height="2"/>
</g>
</svg>
