<?xml version="1.0" encoding="utf-8"?>
<!-- Generator: Adobe Illustrator 28.2.0, SVG Export Plug-In . SVG Version: 6.00 Build 0)  -->
<svg version="1.1" id="Layer_1" xmlns="http://www.w3.org/2000/svg" xmlns:xlink="http://www.w3.org/1999/xlink" x="0px" y="0px"
	 viewBox="0 0 100 100" style="enable-background:new 0 0 100 100;" xml:space="preserve">
<style type="text/css">
	.st0{fill:#5580F0;}
</style>
<path class="st0" d="M85.4,29.6c0.2,0.2,0.6,0.1,0.6-0.2V14H70.6c-0.3,0-0.5,0.4-0.2,0.6l4.1,4.1L61.2,31.9l-10.8-4.5
	c-0.2-0.1-0.5-0.1-0.8,0l-10.8,4.5L25.5,18.7l4.1-4.1c0.2-0.2,0.1-0.6-0.2-0.6H14v15.4c0,0.3,0.4,0.5,0.6,0.2l4.1-4.1l10.4,10.4
	l-0.3,0.1c0,0,0,0-0.1,0c0,0-0.1,0-0.1,0.1c0,0,0,0,0,0c0,0-0.1,0-0.1,0.1c0,0-0.1,0.1-0.1,0.1c0,0,0,0.1-0.1,0.1
	c0,0.1-0.1,0.1-0.1,0.2c0,0,0,0.1,0,0.1c0,0.1,0,0.2,0,0.3v26c0,0.4,0.2,0.8,0.6,0.9l0.3,0.1L18.7,74.5l-4.1-4.1
	c-0.2-0.2-0.6-0.1-0.6,0.2V86h15.4c0.3,0,0.5-0.4,0.2-0.6l-4.1-4.1l13.3-13.3l10.8,4.5c0,0,0,0,0,0c0.1,0,0.2,0.1,0.3,0.1
	s0.2,0,0.3-0.1c0,0,0,0,0,0l10.8-4.5l13.3,13.3l-4.1,4.1c-0.2,0.2-0.1,0.6,0.2,0.6H86V70.6c0-0.3-0.4-0.5-0.6-0.2l-4.1,4.1
	L70.9,64.1l0.3-0.1c0.4-0.2,0.6-0.5,0.6-0.9V37c0-0.1,0-0.2,0-0.3c0,0,0-0.1,0-0.1c0-0.1,0-0.1-0.1-0.2c0,0,0-0.1-0.1-0.1
	c0,0-0.1-0.1-0.1-0.1c0,0,0,0-0.1-0.1c0,0,0,0,0,0c0,0-0.1,0-0.1-0.1c0,0,0,0-0.1,0l-0.3-0.1l10.4-10.4L85.4,29.6z M49,70.1
	l-18.9-7.8V38.5l13.7,5.6l5.2,2.1V70.1z M50,29.5L68.3,37l-2.4,1L50,44.5l-14.1-5.8L31.7,37L50,29.5z M51,46.3l18.9-7.8v23.9
	L51,70.1V46.3z"/>
</svg>
