<?xml version="1.0" encoding="UTF-8"?>
<svg id="Layer_1" data-name="Layer 1" xmlns="http://www.w3.org/2000/svg" version="1.1" viewBox="0 0 100 100">
  <defs>
    <style>
      .cls-1 {
        fill: #1bbeff;
        stroke-width: 0px;
      }
    </style>
  </defs>
  <path class="cls-1" d="M80.6,18.4H30.1c-.6,0-1.1.5-1.1,1.1v28.5h2.1v-27.5h48.4v48.4h-27.7v2.1h28.7c.6,0,1.1-.5,1.1-1.1V19.4c0-.6-.5-1.1-1.1-1.1Z"/>
  <path class="cls-1" d="M61.8,39.7v8.2c0,.6.5,1.1,1.1,1.1s1.1-.5,1.1-1.1v-10.8c0-.1,0-.3,0-.4-.1-.3-.3-.5-.6-.6-.1,0-.3,0-.4,0h-10.8c-.6,0-1.1.5-1.1,1.1s.5,1.1,1.1,1.1h8.2l-13.8,13.8h-27.1c-.6,0-1.1.5-1.1,1.1v27.5c0,.6.5,1.1,1.1,1.1h27.5c.6,0,1.1-.5,1.1-1.1v-27.1l13.8-13.8Z"/>
</svg>