<?xml version="1.0" encoding="utf-8"?>
<!-- Generator: Adobe Illustrator 28.2.0, SVG Export Plug-In . SVG Version: 6.00 Build 0)  -->
<svg version="1.1" id="Layer_1" xmlns="http://www.w3.org/2000/svg" xmlns:xlink="http://www.w3.org/1999/xlink" x="0px" y="0px"
	 viewBox="0 0 100 100" style="enable-background:new 0 0 100 100;" xml:space="preserve">
<style type="text/css">
	.st0{fill:#EF546B;}
</style>
<g>
	<path class="st0" d="M27.9,20.8h39.6v29.9h2.1V19.8c0-0.6-0.5-1-1-1H26.8c-0.6,0-1,0.5-1,1v47.9c0,0.6,0.5,1.1,1,1.1h26.8v-2.1
		H27.9V20.8z"/>
	<path class="st0" d="M22.2,26.2h-2.1v47.1c0,0.6,0.5,1.1,1,1.1h32.5v-2.1H22.2V26.2z"/>
	<path class="st0" d="M61.8,48.4c0-0.6-0.5-1-1-1H50.5c-0.6,0-1,0.5-1,1s0.5,1,1,1h10.2C61.3,49.5,61.8,49,61.8,48.4z"/>
	<path class="st0" d="M34.7,55.8h24c0.6,0,1-0.5,1-1c0-0.6-0.5-1.1-1-1.1h-24c-0.6,0-1,0.5-1,1.1C33.6,55.3,34.1,55.8,34.7,55.8z"/>
	<path class="st0" d="M34.7,43.1H38c0.6,0,1.1-0.5,1.1-1.1c0-0.6-0.5-1-1.1-1h-3.3c-0.6,0-1,0.5-1,1C33.6,42.7,34.1,43.1,34.7,43.1z
		"/>
	<path class="st0" d="M34.7,30.5h14.3c0.6,0,1-0.5,1-1c0-0.6-0.5-1.1-1-1.1H34.7c-0.6,0-1,0.5-1,1.1C33.6,30,34.1,30.5,34.7,30.5z"
		/>
	<path class="st0" d="M34.7,36.8h8c0.6,0,1.1-0.5,1.1-1s-0.5-1-1.1-1h-8c-0.6,0-1,0.5-1,1S34.1,36.8,34.7,36.8z"/>
	<rect x="32.8" y="35.8" transform="matrix(0.7071 -0.7071 0.7071 0.7071 -13.3563 46.0048)" class="st0" width="32" height="6.6"/>
	<path class="st0" d="M59.6,43.1c0.6,0,1.1-0.5,1.1-1.1c0-0.6-0.5-1-1.1-1h-5.5c-0.6,0-1,0.5-1,1c0,0.6,0.5,1.1,1,1.1H59.6z"/>
	<path class="st0" d="M77.3,62.8h-1.6v-1.6c0-1.9-0.7-3.7-2.1-5.1c-1.4-1.4-3.1-2.1-5.1-2.1c0,0,0,0,0,0c-1.9,0-3.7,0.7-5.1,2.1
		c-1.4,1.4-2.1,3.2-2.1,5.1c0,0.8,0,1.2,0,1.6h-1.6c-1.5,0-2.6,1.2-2.6,2.6v13.3c0,1.5,1.2,2.6,2.6,2.6h17.5c1.5,0,2.6-1.2,2.6-2.6
		V65.4C79.9,63.9,78.7,62.8,77.3,62.8z M65,57.6c1-1,2.2-1.5,3.6-1.5c0,0,0,0,0,0c1.4,0,2.6,0.5,3.6,1.5c1,1,1.5,2.2,1.5,3.6v1.6
		H63.5c0-0.3,0-0.8,0-1.6C63.5,59.9,64,58.6,65,57.6z M70.5,75.2c0.1,0.4-0.2,0.7-0.5,0.7h-2.9c-0.4,0-0.7-0.4-0.5-0.7l1.3-3.8
		c-0.9-0.3-1.5-1.1-1.5-2c0-1.2,1-2.2,2.2-2.2c1.2,0,2.2,1,2.2,2.2c0,1-0.6,1.8-1.5,2L70.5,75.2z"/>
</g>
</svg>
