<?xml version="1.0" encoding="UTF-8"?>
<svg id="Layer_1" data-name="Layer 1" xmlns="http://www.w3.org/2000/svg" xmlns:xlink="http://www.w3.org/1999/xlink" version="1.1" viewBox="0 0 100 100">
  <defs>
    <style>
      .cls-1 {
        clip-path: url(#clippath);
      }

      .cls-2 {
        fill: none;
      }

      .cls-2, .cls-3, .cls-4 {
        stroke-width: 0px;
      }

      .cls-3 {
        fill: #ed5668;
      }

      .cls-5 {
        filter: url(#drop-shadow-1);
      }

      .cls-4 {
        fill: #fff;
      }
    </style>
    <filter id="drop-shadow-1">
      <feOffset dx="0" dy="0"/>
      <feGaussianBlur result="blur" stdDeviation="3"/>
      <feFlood flood-color="#073547" flood-opacity=".2"/>
      <feComposite in2="blur" operator="in"/>
      <feComposite in="SourceGraphic"/>
    </filter>
    <clipPath id="clippath">
      <rect class="cls-2" x="30.635" y="31.774" width="35.313" height="33.034"/>
    </clipPath>
  </defs>
  <g class="cls-5">
    <circle class="cls-4" cx="50" cy="50" r="36.452"/>
  </g>
  <g class="cls-1">
    <g>
      <path class="cls-3" d="M65.44,39.269c0,2.484-2.008,4.484-4.502,4.484h-4.215l-9.512-3.451v-.044c0-1.89,1.479-3.407,3.355-3.495.795,0,1.633.22,2.273.681.044.044.066,0,0,0-.331-.461-.993-1.011-2.339-1.055v-.198c0-2.44,1.986-4.418,4.436-4.418,1.92,0,3.531,1.209,4.149,2.901-.971.44-1.412,1.055-1.589,1.429-.088.11,0,.176.088.088.309-.286.927-.835,1.633-1.121.485-.198,1.059-.308,1.655-.308,2.494,0,4.502,2.022,4.502,4.506h.066Z"/>
      <path class="cls-3" d="M65.948,62.567H30.635v2.198h35.313v-2.198Z"/>
      <path class="cls-3" d="M46.15,64.765h-11.101c-.618,0-1.104-.484-1.104-1.099v-18.704c0-.462.265-.857.706-1.011l11.101-4.396c.331-.132.728-.088,1.037.11s.485.55.485.901v23.1c0,.615-.485,1.099-1.103,1.099h-.022,0ZM36.153,62.567h8.894v-20.374l-8.894,3.517v16.858h0Z"/>
      <path class="cls-3" d="M61.534,64.808l-15.383-.044c-.618,0-1.104-.484-1.104-1.099v-23.1c0-.352.155-.681.441-.879.287-.198.64-.264.971-.176l15.383,4.44c.464.132.795.571.795,1.055v18.704c0,.286-.11.571-.331.769s-.486.33-.772.33ZM47.255,62.566l13.176.044v-16.77l-13.176-3.802v20.55-.022Z"/>
      <path class="cls-3" d="M61.534,60.105l-15.383-1.055.022-2.659,15.361,1.517v2.198h0Z"/>
      <path class="cls-3" d="M61.534,55.446l-15.383-2.044.022-2.638,15.361,2.484v2.198Z"/>
      <path class="cls-3" d="M61.534,50.786l-15.383-3.011.022-2.659,15.361,3.473v2.198h0Z"/>
    </g>
  </g>
</svg>