<?xml version="1.0" encoding="utf-8"?>
<!-- Generator: Adobe Illustrator 28.2.0, SVG Export Plug-In . SVG Version: 6.00 Build 0)  -->
<svg version="1.1" id="Layer_1" xmlns="http://www.w3.org/2000/svg" xmlns:xlink="http://www.w3.org/1999/xlink" x="0px" y="0px"
	 viewBox="0 0 100 100" style="enable-background:new 0 0 100 100;" xml:space="preserve">
<style type="text/css">
	.st0{fill:#EF546B;}
</style>
<g>
	<path class="st0" d="M45.8,28.6l10.8,9.3c0.9,0.8,2.2,0.8,3.2,0c0,0,9-7.6,10.8-9.3c0.8-0.7,0.6-1.3-0.5-1.3c-1.1,0-23.9,0-23.9,0
		C45.6,27.3,45.3,28.2,45.8,28.6z"/>
	<path class="st0" d="M58.2,40.5c-1.1,0-2.2-0.4-3.1-1.2l-9.9-8.5c-0.4-0.3-1-0.1-1,0.5v15c0,1.5,1.2,2.7,2.7,2.7h22.5
		c1.5,0,2.7-1.2,2.7-2.7v-15c0-0.5-0.6-0.8-1-0.5l-9.9,8.5C60.4,40.1,59.3,40.5,58.2,40.5z"/>
	<rect x="14" y="52.7" class="st0" width="2" height="25.6"/>
	<path class="st0" d="M85.4,57.9c-1.1-1.9-3.5-2.8-5.6-2.1l-19.4,6.3c-0.3-1.4-1.3-2.7-2.7-3.2l-9.9-3.5c-1.2-0.4-2.4-0.5-3.7-0.4
		l-12.1,1.8v-2.1c0-1.1-0.9-2-2-2H18.1v25.6h11.9c1.1,0,2-0.9,2-2v-1.6l17.1,5.4c0.8,0.3,1.7,0.4,2.6,0.4c1.4,0,2.9-0.4,4.2-1.1
		l27.7-15.1c1.1-0.6,1.9-1.6,2.2-2.8C86.2,60.3,86,59,85.4,57.9z M25.1,74.5c-1.1,0-1.9-0.9-1.9-1.9c0-1.1,0.9-1.9,1.9-1.9
		c1.1,0,1.9,0.9,1.9,1.9C27,73.7,26.2,74.5,25.1,74.5z M83.9,60.9c-0.2,0.7-0.6,1.3-1.2,1.6L55,77.6c-1.6,0.9-3.5,1.1-5.2,0.5
		l-17.7-5.6V58.9L44.5,57c0.9-0.1,1.8,0,2.7,0.3l9.9,3.5c1,0.4,1.6,1.4,1.4,2.4c-0.2,1.1-1.3,1.8-2.4,1.7l-11.3-1.5l-0.3,2l11.3,1.5
		c0.2,0,0.4,0,0.5,0c1.7,0,3.3-1.1,3.9-2.7l20.2-6.5c1.2-0.4,2.5,0.1,3.2,1.2C84,59.5,84.1,60.3,83.9,60.9z"/>
	<path class="st0" d="M40.4,43.2h2.3v-2h-2.3c-1.1,0-1.9-0.9-1.9-1.9V23.4c0-1.1,0.9-1.9,1.9-1.9h22.2c1.1,0,1.9,0.9,1.9,1.9h2
		c0-2.2-1.8-3.9-3.9-3.9H40.4c-2.2,0-3.9,1.8-3.9,3.9v15.8C36.5,41.4,38.3,43.2,40.4,43.2z"/>
</g>
</svg>
