<?xml version="1.0" encoding="utf-8"?>
<!-- Generator: Adobe Illustrator 28.2.0, SVG Export Plug-In . SVG Version: 6.00 Build 0)  -->
<svg version="1.1" id="Layer_1" xmlns="http://www.w3.org/2000/svg" xmlns:xlink="http://www.w3.org/1999/xlink" x="0px" y="0px"
	 viewBox="0 0 100 100" style="enable-background:new 0 0 100 100;" xml:space="preserve">
<style type="text/css">
	.st0{fill:#805ED4;}
</style>
<g>
	<g>
		<g>
			
				<ellipse transform="matrix(0.9871 -0.1602 0.1602 0.9871 -7.0368 6.4217)" class="st0" cx="36.3" cy="46.9" rx="11.8" ry="11.8"/>
		</g>
		<g>
			<path class="st0" d="M51.4,77.5c0,2,0.4,4,1.1,5.7c-12.4,7.1-28.6,5.4-39.2-5.2c-0.9-0.9-1.7-1.9-2.5-2.8
				c1.4-7.9,6.4-14.6,13.3-18.3c2.9,3.6,7.3,5.9,12.3,5.9c5,0,9.4-2.3,12.3-5.9c3.7,2,6.8,4.8,9.2,8.2
				C53.9,67.8,51.4,72.4,51.4,77.5z"/>
		</g>
	</g>
	<g>
		<path class="st0" d="M66.5,66.4c-6.1,0-11,4.9-11,11c0,6.1,4.9,11,11,11s11-4.9,11-11C77.6,71.4,72.6,66.4,66.5,66.4z M72.7,82.4
			c-0.9,0.8-2.3,1.6-3,1.6h-0.1c-1,0-3.5-1.1-6.1-3.6c-2.6-2.6-3.7-5.2-3.6-6.1c0.1-0.7,0.8-2.1,1.6-3c0.1-0.1,0.2-0.2,0.3-0.2
			c0,0,0,0,0,0c0.1,0,0.2,0,0.3,0.1l2.6,2.6c0.2,0.2,0.2,0.5,0,0.7l-1.3,1.3c-0.1,0.1-0.1,0.2-0.1,0.3c0.1,0.4,0.4,1.3,1.7,2.6
			c1.3,1.3,2.2,1.6,2.6,1.7c0.1,0,0.2,0,0.3-0.1l1.3-1.3c0.2-0.2,0.5-0.2,0.7,0l2.7,2.7c0.1,0.1,0.1,0.2,0.1,0.4
			C72.9,82.2,72.8,82.4,72.7,82.4z"/>
	</g>
	<g>
		<path class="st0" d="M65.1,56.8c-0.1,0-0.2,0-0.3,0c-0.6,0-1-0.5-1-1c0-0.5,0.5-1,1-1c0.1,0,0.2,0,0.3,0c5.5,0,10.6-2.1,14.4-6
			c8-8,8-20.9,0-28.9c-8-8-20.9-8-28.9,0c-3.9,3.9-6,9-6,14.4c0,0.6-0.4,1-1,1s-1-0.4-1-1c0-6,2.3-11.6,6.6-15.9
			c8.7-8.7,23-8.7,31.7,0c8.7,8.7,8.7,23,0,31.7C76.7,54.5,71.1,56.8,65.1,56.8z"/>
	</g>
	<g>
		<path class="st0" d="M61.7,56.6c-0.1,0-0.2,0-0.3-0.1c-0.5-0.2-0.8-0.7-0.6-1.3c0.2-0.5,0.7-0.8,1.1-0.7c0.5,0.1,0.8,0.5,0.8,1
			C62.7,56.1,62.2,56.6,61.7,56.6z M56,54.8c-0.1,0-0.3,0-0.4-0.1c-0.5-0.2-0.7-0.7-0.5-1.2c0.2-0.5,0.7-0.8,1.3-0.6
			c0.1,0,0.2,0.1,0.2,0.1c0.5,0.3,0.6,0.9,0.3,1.4C56.6,54.7,56.3,54.8,56,54.8z M51,51.5c-0.2,0-0.5-0.1-0.7-0.3
			c-0.4-0.3-0.4-0.9-0.2-1.3c0.3-0.5,0.9-0.6,1.4-0.3c0.1,0.1,0.2,0.2,0.3,0.3c0.3,0.5,0.2,1.1-0.3,1.4C51.3,51.5,51.1,51.5,51,51.5
			z"/>
	</g>
	<g>
		<circle class="st0" cx="65.1" cy="34.4" r="2.5"/>
	</g>
	<g>
		<path class="st0" d="M65.1,20.7c-0.6,0-1-0.4-1-1v-4.1c0-0.6,0.4-1,1-1s1,0.4,1,1v4.1C66.1,20.3,65.6,20.7,65.1,20.7z"/>
	</g>
	<g>
		<path class="st0" d="M77.4,47.7c-0.3,0-0.5-0.1-0.7-0.3l-1.9-1.9c-0.4-0.4-0.4-1,0-1.4s1-0.4,1.4,0l1.9,1.9c0.4,0.4,0.4,1,0,1.4
			C77.9,47.6,77.6,47.7,77.4,47.7z"/>
	</g>
	<g>
		<path class="st0" d="M54.7,25c-0.3,0-0.5-0.1-0.7-0.3L52,22.8c-0.4-0.4-0.4-1,0-1.4s1-0.4,1.4,0l1.9,1.9c0.4,0.4,0.4,1,0,1.4
			C55.2,24.9,54.9,25,54.7,25z"/>
	</g>
	<g>
		<path class="st0" d="M50.4,35.4h-4.1c-0.6,0-1-0.4-1-1s0.4-1,1-1h4.1c0.6,0,1,0.4,1,1S50.9,35.4,50.4,35.4z"/>
	</g>
	<g>
		<path class="st0" d="M83.8,35.4h-4.1c-0.6,0-1-0.4-1-1s0.4-1,1-1h4.1c0.6,0,1,0.4,1,1S84.3,35.4,83.8,35.4z"/>
	</g>
	<g>
		<path class="st0" d="M75.4,25c-0.3,0-0.5-0.1-0.7-0.3c-0.4-0.4-0.4-1,0-1.4l1.9-1.9c0.4-0.4,1-0.4,1.4,0s0.4,1,0,1.4l-1.9,1.9
			C76,24.9,75.7,25,75.4,25z"/>
	</g>
	<g>
		<path class="st0" d="M65.1,35.4c-0.6,0-1-0.4-1-1v-9.6c0-0.6,0.4-1,1-1s1,0.4,1,1v9.6C66.1,35,65.6,35.4,65.1,35.4z"/>
	</g>
	<g>
		<path class="st0" d="M59.1,40.2c-0.3,0-0.6-0.1-0.8-0.4c-0.3-0.4-0.3-1.1,0.2-1.4l5.9-4.7c0.4-0.3,1.1-0.3,1.4,0.2
			s0.3,1.1-0.2,1.4l-5.9,4.7C59.6,40.1,59.3,40.2,59.1,40.2z"/>
	</g>
	<g>
		<path class="st0" d="M68.3,60.4c-0.3,0-0.5-0.1-0.7-0.3l-3.5-3.5c-0.4-0.4-0.4-1,0-1.4l3.5-3.5c0.4-0.4,1-0.4,1.4,0s0.4,1,0,1.4
			l-2.8,2.8l2.8,2.8c0.4,0.4,0.4,1,0,1.4C68.8,60.3,68.5,60.4,68.3,60.4z"/>
	</g>
</g>
</svg>
