<?xml version="1.0" encoding="utf-8"?>
<!-- Generator: Adobe Illustrator 28.2.0, SVG Export Plug-In . SVG Version: 6.00 Build 0)  -->
<svg version="1.1" id="Layer_1" xmlns="http://www.w3.org/2000/svg" xmlns:xlink="http://www.w3.org/1999/xlink" x="0px" y="0px"
	 viewBox="0 0 100 100" style="enable-background:new 0 0 100 100;" xml:space="preserve">
<style type="text/css">
	.st0{fill:#3AC9A5;}
</style>
<g>
	<path class="st0" d="M42.1,49.8c0-0.6-0.5-1-1-1H18.8c-0.6,0-1,0.5-1,1s0.5,1,1,1h22.3C41.6,50.8,42.1,50.3,42.1,49.8z"/>
	<path class="st0" d="M18.8,56.2c-0.6,0-1,0.5-1,1s0.5,1,1,1h16.3c0.6,0,1-0.5,1-1s-0.5-1-1-1H18.8z"/>
	<path class="st0" d="M44.1,33.9H18.8c-0.6,0-1,0.5-1,1s0.5,1,1,1h25.3c0.6,0,1-0.5,1-1S44.6,33.9,44.1,33.9z"/>
	<path class="st0" d="M45.1,42.4c0-0.6-0.5-1-1-1H18.8c-0.6,0-1,0.5-1,1c0,0.6,0.5,1,1,1h25.3C44.6,43.4,45.1,42.9,45.1,42.4z"/>
	<path class="st0" d="M87.3,69c-0.3-4-2.6-7.6-6-9.6c0.7-1.1,1-2.3,1-3.7c0-3.9-3.2-7.1-7.1-7.1c-3.9,0-7.1,3.2-7.1,7.1
		c0,1.3,0.4,2.6,1,3.7c-2,1.1-3.6,2.8-4.7,4.9l1.8,0.9c0.9-1.8,2.4-3.3,4.2-4.2c1.3,1.1,2.9,1.8,4.7,1.8c1.8,0,3.4-0.7,4.7-1.8
		c3,1.6,5,4.6,5.3,8H71.4v2h19.7v-2H87.3z M75.2,60.7c-2.8,0-5-2.3-5-5s2.3-5,5-5c2.8,0,5,2.3,5,5S78,60.7,75.2,60.7z"/>
	<path class="st0" d="M61,64.4c1.1-1.6,1.8-3.6,1.8-5.8c0-5.6-4.6-10.2-10.2-10.2S42.3,53,42.3,58.6c0,2.1,0.7,4.1,1.8,5.8
		c-2.2,1.2-4,2.7-5.5,4.6H18.4v-5.2c0-0.6-0.5-1-1-1h-5.2V24.4h38.5v20.5c0,0.6,0.5,1,1,1c0.6,0,1-0.5,1-1V23.4c0-0.6-0.5-1-1-1
		H19.8V17h38.5v30.3c0,0.6,0.5,1,1,1c0.6,0,1-0.5,1-1V16c0-0.6-0.5-1-1-1H18.8c-0.6,0-1,0.5-1,1v6.4h-6.6c-0.6,0-1,0.5-1,1v40.1
		c0,0,0,0,0,0.1c0,0.3,0.1,0.6,0.3,0.9l6.2,6.3c0.2,0.2,0.5,0.3,0.7,0.3c0,0,0.1,0,0.1,0c0,0,0.1,0,0.1,0h19.6
		c-1.5,2.5-2.4,5.5-2.5,8.5h-4.8v2H43v-2h-6.3c0.2-5.8,3.5-10.9,8.7-13.6c0.9,0.8,1.9,1.5,3,2c0,0.1,0,0.3,0.1,0.4l2,3.5L47,82.2
		c-0.1,0.4,0,0.8,0.2,1.1l4.6,4.6c0.2,0.2,0.5,0.3,0.7,0.3c0.3,0,0.5-0.1,0.7-0.3l4.7-4.6c0.3-0.3,0.4-0.7,0.2-1.1l-3.7-10.3l2-3.5
		c0.1-0.1,0.1-0.3,0.1-0.4c1.1-0.5,2.1-1.2,3-2c5,2.5,8.4,7.6,8.7,13.1h-8.4v2H73v-2h-2.6C70,72.9,66.4,67.3,61,64.4z M52.6,85.7
		l-3.5-3.4l3.3-9.4h0.2l3.4,9.4L52.6,85.7z M52.6,66.8c-4.5,0-8.2-3.7-8.2-8.2s3.7-8.2,8.2-8.2s8.2,3.7,8.2,8.2S57.1,66.8,52.6,66.8
		z"/>
</g>
</svg>
