<?xml version="1.0" encoding="UTF-8"?>
<svg id="Layer_1" data-name="Layer 1" xmlns="http://www.w3.org/2000/svg" version="1.1" viewBox="0 0 100 100">
  <defs>
    <style>
      .cls-1 {
        fill: #805ed4;
        stroke-width: 0px;
      }
    </style>
  </defs>
  <path class="cls-1" d="M91.437,33.939c0-6.892-5.587-12.479-12.479-12.479-5.736,0-10.761,3.575-12.161,7.877,1.353.731,2.31,2.083,2.169,3.544-1.961-2.521-4.697-3.278-6.099-3.278-2.733,0-5.15,1.314-6.685,3.334-3.145-3.557-7.724-5.744-12.719-5.744-3.961,0-7.6,1.375-10.491,3.657-1.441-1.562-3.502-2.541-5.794-2.541-3.669,0-6.024,2.251-7.203,4.672.994.747,1.43,1.678,1.523,2.722-1.173-1.635-3.09-2.053-4.902-2.053-1.002,0-1.96.183-2.845.518-.795.301-1.53.725-2.181,1.248-.142.114-.279.232-.413.355-1.595,1.468-2.595,3.574-2.595,5.913,0,4.437,3.597,8.034,8.034,8.034h1.546c-2.236,2.43-3.615,5.661-3.615,9.215,0,7.518,6.116,13.634,13.634,13.634h8.805c.553,0,1-.447,1-1s-.447-1-1-1h-8.805c-6.415,0-11.634-5.219-11.634-11.634s5.219-11.634,11.634-11.634c1.898,0,3.708.442,5.377,1.314.487.255,1.094.065,1.35-.424.255-.489.065-1.094-.424-1.35-1.82-.95-3.862-1.461-5.927-1.519-.029-.382-.048-.767-.048-1.153,0-8.257,6.718-14.975,14.975-14.975,6.539,0,12.275,4.236,14.249,10.393-1.117.513-2.188,1.138-3.191,1.893-.441.332-.529.959-.197,1.4.331.441.958.531,1.4.197,2.662-2.004,5.836-3.063,9.178-3.063,1.863,0,3.683.331,5.408.985,1.499.567,2.894,1.366,4.147,2.373.27.216.531.44.786.675,3.135,2.885,4.934,6.983,4.934,11.243,0,8.424-6.853,15.276-15.275,15.276h-9.08c-.553,0-1,.447-1,1s.447,1,1,1h9.08c9.525,0,17.275-7.75,17.275-17.276,0-3.164-.892-6.24-2.499-8.909,6.554-.376,11.757-5.794,11.757-12.442Z"/>
  <path class="cls-1" d="M36.966,48.416c-.501,0-.907.406-.907.907s.406.907.907.907.907-.406.907-.907-.406-.907-.907-.907Z"/>
  <path class="cls-1" d="M45.823,54.974c-4.39,0-7.95,3.56-7.95,7.95,0,.31.02.61.06.91.46,6.1,5.36,12.27,7.2,14.39.37.42,1.02.42,1.39,0,1.84-2.12,6.74-8.29,7.2-14.39.03-.3.05-.6.05-.91,0-4.39-3.56-7.95-7.95-7.95ZM45.823,68.184c-2.9,0-5.25-2.35-5.25-5.26s2.35-5.25,5.25-5.25,5.26,2.35,5.26,5.25-2.35,5.26-5.26,5.26Z"/>
  <path class="cls-1" d="M45.826,59.874c-1.687,0-3.055,1.367-3.055,3.054s1.368,3.055,3.055,3.055,3.055-1.368,3.055-3.055-1.368-3.054-3.055-3.054Z"/>
</svg>