<?xml version="1.0" encoding="utf-8"?>
<!-- Generator: Adobe Illustrator 28.2.0, SVG Export Plug-In . SVG Version: 6.00 Build 0)  -->
<svg version="1.1" id="Layer_1" xmlns="http://www.w3.org/2000/svg" xmlns:xlink="http://www.w3.org/1999/xlink" x="0px" y="0px"
	 viewBox="0 0 100 100" style="enable-background:new 0 0 100 100;" xml:space="preserve">
<style type="text/css">
	.st0{fill:#EF546B;}
</style>
<g>
	<path class="st0" d="M87.1,67.5L80,62.1l4.3-2.7c0.6-0.4,0.5-1.4-0.3-1.5L70.8,55c-0.6-0.1-1.1,0.4-1,1l2.9,13.1
		c0.2,0.7,1.1,0.9,1.5,0.3l2.7-4.3l5.6,7c0.2,0.2,0.5,0.2,0.7,0l3.9-3.9C87.3,68.1,87.3,67.7,87.1,67.5z"/>
	<path class="st0" d="M74,77.8c0,1.7-1.4,3-3,3H23.6c-1.7,0-3-1.4-3-3V20.9c0-1.7,1.4-3,3-3H71c1.7,0,3,1.4,3,3v31.7h2V20.9
		c0-2.8-2.2-5-5-5H23.6c-2.8,0-5,2.2-5,5v56.9c0,2.8,2.2,5,5,5H71c2.8,0,5-2.2,5-5V74h-2V77.8z"/>
	<path class="st0" d="M29,33.1h14.8c0.6,0,1.1-0.5,1.1-1.1v-5c0-0.6-0.5-1.1-1.1-1.1H29c-0.6,0-1.1,0.5-1.1,1.1v5
		C27.9,32.7,28.4,33.1,29,33.1z"/>
	<path class="st0" d="M66.7,27.1c0-0.6-0.5-1.1-1.1-1.1H50.9c-0.6,0-1.1,0.5-1.1,1.1v5c0,0.6,0.5,1.1,1.1,1.1h14.8
		c0.6,0,1.1-0.5,1.1-1.1V27.1z"/>
	<path class="st0" d="M66.7,37.9c0-0.6-0.5-1.1-1.1-1.1H29c-0.6,0-1.1,0.5-1.1,1.1v5c0,0.6,0.5,1.1,1.1,1.1h36.7
		c0.6,0,1.1-0.5,1.1-1.1V37.9z"/>
	<path class="st0" d="M66.7,48.7c0-0.6-0.5-1.1-1.1-1.1H29c-0.6,0-1.1,0.5-1.1,1.1v13.9c0,0.6,0.5,1.1,1.1,1.1h36.7
		c0.6,0,1.1-0.5,1.1-1.1V48.7z"/>
	<path class="st0" d="M64,67.4H52.6c-1.5,0-2.8,1.2-2.8,2.8v1.1c0,1.5,1.2,2.8,2.8,2.8H64c1.5,0,2.8-1.2,2.8-2.8v-1.1
		C66.7,68.6,65.5,67.4,64,67.4z"/>
</g>
</svg>
