<?xml version="1.0" encoding="utf-8"?>
<!-- Generator: Adobe Illustrator 28.2.0, SVG Export Plug-In . SVG Version: 6.00 Build 0)  -->
<svg version="1.1" id="Layer_1" xmlns="http://www.w3.org/2000/svg" xmlns:xlink="http://www.w3.org/1999/xlink" x="0px" y="0px"
	 viewBox="0 0 100 100" style="enable-background:new 0 0 100 100;" xml:space="preserve">
<style type="text/css">
	.st0{fill:#1BC7FF;}
</style>
<g>
	<path class="st0" d="M82.4,52.1L75,44.7l0,0l-3.9-3.9c-1.5-1.5-4-1.5-5.5,0c-0.6,0.6-1,1.3-1.1,2.2c-1.6-0.9-3.8-0.7-5.1,0.7
		c-0.7,0.7-1.2,1.7-1.3,2.7c-1.8-1-4-0.7-5.6,0.8C51.8,48,51.4,49,51.3,50l-7-7c-0.5-0.5-1.1-0.9-1.8-1.1c-0.1-1.3-0.6-2.4-1.5-3.3
		c-2.2-2.2-5.6-2.2-7.7,0c-2.2,2.2-2.2,5.6,0,7.6c0.9,0.9,2,1.4,3.2,1.5c0.2,0.7,0.6,1.3,1.2,1.9l14.8,14.8h-7
		c-2.6,0-4.7,2.2-4.7,4.7s2.5,4.2,4.2,4.2c10.6,0.2,18.1,2.8,20.4,5.1l2.8,2.8l1.3-1.3l-2.8-2.8c-3.2-3.2-12-5.5-21.7-5.7
		c-0.7,0-2.5-0.9-2.5-2.4c0-1.6,1.3-2.9,2.9-2.9H54l2.4,2.4l1.3-1.3L38.8,48.5c-0.5-0.5-0.9-1.3-0.9-2.1s0.3-1.5,0.9-2.1
		c1.1-1.1,3.1-1.1,4.1,0L56.7,58l1.3-1.3l-4-4c-1.2-1.2-1.2-3,0-4.1c1.2-1.2,3-1.2,4.1,0l1.3,1.3l0,0l2.9,2.9l1.3-1.3l-0.3-0.3l0,0
		l-2.6-2.6c-1-1-1-2.6,0-3.6s2.6-1,3.6,0l1.3,1.3l0,0l0.5,0.5l0.9,0.9l0,0l0.4,0.4l1.3-1.3l-1.3-1.3l-0.5-0.6
		c-0.8-0.8-0.8-2.2,0-2.9c0.8-0.8,2.2-0.8,2.9,0l2.3,2.3l0,0l8.9,8.9c2.4,2.4,3.8,5.7,3.8,9.1h1.8C86.6,58.5,85.1,54.8,82.4,52.1z"
		/>
	<path class="st0" d="M38.6,64.2c-0.9,0.1-1.7,0.1-2.6,0c-5.5-0.3-10.6-2.5-14.5-6.4c-8.6-8.5-8.6-22.5,0-31s22.5-8.5,31,0
		c3.4,3.4,5.5,7.7,6.2,12.4c0.1,0.5,0.5,0.8,1,0.7s0.8-0.5,0.7-1c-0.5-5.1-2.9-9.8-6.6-13.4c-9.3-9.3-24.3-9.3-33.6,0
		c-9.3,9.2-9.3,24.3,0,33.6C24.4,63.2,30,65.7,36,66c0.4,0,0.8,0,1.2,0c0.5,0,1.1,0,1.6-0.1c0.5,0,0.9-0.4,0.8-1
		C39.5,64.4,39.1,64.2,38.6,64.2z"/>
	<path class="st0" d="M53.9,43.1c0.5,0,0.9-0.4,0.9-0.9c0-4.8-1.8-9.2-5.2-12.5c-3.3-3.3-7.7-5.2-12.5-5.2s-9.2,1.8-12.5,5.2
		c-6.9,6.9-6.9,18.1,0,25C27.9,58.1,32.4,60,37,60c1.7,0,3.5-0.3,5.2-0.8c0.5-0.2,0.7-0.6,0.6-1.1c-0.2-0.5-0.6-0.7-1.1-0.6
		c-5.7,1.7-11.8,0.3-15.9-4c-6.2-6.2-6.2-16.3,0-22.5c3-3,7-4.7,11.2-4.7s8.3,1.6,11.2,4.7c3,3,4.7,7,4.7,11.3
		C53,42.8,53.4,43.1,53.9,43.1z"/>
	<path class="st0" d="M47.3,44.1c0.5,0.1,0.9-0.4,1-0.8c0.4-3.3-0.9-6.7-3.2-9.1c-2.2-2.2-4.9-3.3-8-3.3s-5.9,1.2-8,3.3
		c-2.2,2.2-3.3,5-3.3,8s1.2,5.8,3.3,8c2.2,2.2,4.9,3.3,8,3.3c0.5,0,0.9-0.4,0.9-0.9c0-0.5-0.4-0.9-0.9-0.9c-2.5,0-5-1-6.8-2.8
		c-1.8-1.8-2.8-4.1-2.8-6.8c0-2.5,1-4.9,2.8-6.8c1.8-1.8,4.1-2.8,6.8-2.8c2.6,0,4.9,1,6.8,2.8c2,2,3,4.8,2.7,7.7
		C46.5,43.7,46.8,44.1,47.3,44.1z"/>
</g>
</svg>
