<?xml version="1.0" encoding="utf-8"?>
<!-- Generator: Adobe Illustrator 28.2.0, SVG Export Plug-In . SVG Version: 6.00 Build 0)  -->
<svg version="1.1" id="Layer_1" xmlns="http://www.w3.org/2000/svg" xmlns:xlink="http://www.w3.org/1999/xlink" x="0px" y="0px"
	 viewBox="0 0 100 100" style="enable-background:new 0 0 100 100;" xml:space="preserve">
<style type="text/css">
	.st0{fill:#835EDD;}
</style>
<g>
	<path class="st0" d="M49.6,48.9c3.7,0,6.7-3,6.7-6.7c0-3.7-3-6.7-6.7-6.7s-6.7,3-6.7,6.7C42.9,46,45.9,48.9,49.6,48.9z"/>
	<path class="st0" d="M56.5,47.9c-1.7,2-4.2,3.3-7,3.3c-2.8,0-5.3-1.3-7-3.3c-3.9,2.1-6.7,5.9-7.5,10.4c0.4,0.6,0.9,1.1,1.4,1.6
		c7.2,7.2,18.9,7.2,26.2,0c0.5-0.5,1-1.1,1.4-1.6C63.3,53.8,60.4,50,56.5,47.9z"/>
	<path class="st0" d="M66.2,46c2.3,0,4.2-1.9,4.2-4.2s-1.9-4.2-4.2-4.2c-2.3,0-4.2,1.9-4.2,4.2S63.9,46,66.2,46z"/>
	<path class="st0" d="M70.6,45.4c-1,1.3-2.6,2.1-4.4,2.1c-1.7,0-3.3-0.8-4.3-2.1c-1,0.5-1.9,1.3-2.7,2.1c3,2.1,5.1,5.2,6.2,8.7
		c3.2,0.2,6.5-0.9,9-3.3c0.3-0.3,0.6-0.7,0.9-1C74.8,49,73,46.7,70.6,45.4z"/>
	<path class="st0" d="M28.7,41.8c0,2.3,1.9,4.2,4.2,4.2s4.2-1.9,4.2-4.2s-1.9-4.2-4.2-4.2S28.7,39.5,28.7,41.8z"/>
	<path class="st0" d="M33.7,56.2c1-3.5,3.2-6.5,6.2-8.6c-0.7-0.9-1.6-1.6-2.6-2.2c-1,1.3-2.6,2.1-4.4,2.1c-1.7,0-3.3-0.8-4.3-2.1
		c-2.4,1.3-4.2,3.7-4.7,6.5c0.3,0.4,0.6,0.7,0.9,1C27.2,55.3,30.5,56.4,33.7,56.2z"/>
	<path class="st0" d="M45.6,24.7l2.9-2.9v9.9c0,0.6,0.5,1,1,1c0.6,0,1.1-0.5,1.1-1v-9.9l2.9,2.9c0.2,0.2,0.5,0.3,0.7,0.3
		c0.3,0,0.5-0.1,0.7-0.3c0.4-0.4,0.4-1.1,0-1.5l-4.7-4.7c-0.1-0.1-0.2-0.2-0.3-0.2c-0.3-0.1-0.5-0.1-0.8,0c-0.1,0.1-0.2,0.1-0.3,0.2
		l-4.7,4.7c-0.4,0.4-0.4,1.1,0,1.5S45.2,25.1,45.6,24.7z"/>
	<path class="st0" d="M53.5,75.3l-2.9,2.9v-9.9c0-0.6-0.5-1-1.1-1c-0.6,0-1,0.5-1,1v9.9l-2.9-2.9c-0.4-0.4-1.1-0.4-1.5,0
		s-0.4,1.1,0,1.5l4.7,4.7c0.1,0.1,0.2,0.2,0.3,0.2c0.1,0.1,0.3,0.1,0.4,0.1c0.1,0,0.3,0,0.4-0.1c0.1-0.1,0.2-0.1,0.3-0.2l4.7-4.7
		c0.4-0.4,0.4-1.1,0-1.5S53.9,74.9,53.5,75.3z"/>
	<path class="st0" d="M86.6,49.6c-0.1-0.1-0.1-0.2-0.2-0.3l-4.7-4.7c-0.4-0.4-1.1-0.4-1.5,0s-0.4,1.1,0,1.5l2.9,2.9h-4.5
		c-0.6,0-1,0.5-1,1s0.5,1,1,1h4.5l-2.9,2.9c-0.4,0.4-0.4,1.1,0,1.5c0.2,0.2,0.5,0.3,0.7,0.3s0.5-0.1,0.7-0.3l4.7-4.7
		c0.1-0.1,0.2-0.2,0.2-0.3C86.7,50.1,86.7,49.9,86.6,49.6z"/>
	<path class="st0" d="M21.4,48.9h-4.5l2.9-2.9c0.4-0.4,0.4-1.1,0-1.5s-1.1-0.4-1.5,0l-4.7,4.7c-0.1,0.1-0.2,0.2-0.2,0.3
		c-0.1,0.1-0.1,0.3-0.1,0.4c0,0.1,0,0.3,0.1,0.4c0.1,0.1,0.1,0.2,0.2,0.3l4.7,4.7c0.2,0.2,0.5,0.3,0.7,0.3s0.5-0.1,0.7-0.3
		c0.4-0.4,0.4-1.1,0-1.5L16.9,51h4.5c0.6,0,1-0.5,1-1S22,48.9,21.4,48.9z"/>
	<path class="st0" d="M66,35.4c0.3,0,0.5-0.1,0.7-0.3l6.1-6.1v4.1c0,0.6,0.5,1,1.1,1c0.6,0,1-0.5,1-1v-6.6c0-0.1,0-0.3-0.1-0.4
		c-0.1-0.3-0.3-0.5-0.6-0.6c-0.1-0.1-0.3-0.1-0.4-0.1h-6.6c-0.6,0-1,0.5-1,1.1c0,0.6,0.5,1,1,1h4.1l-6.1,6.1c-0.4,0.4-0.4,1.1,0,1.5
		C65.5,35.3,65.8,35.4,66,35.4z"/>
	<path class="st0" d="M32.3,64.9l-6.1,6.1v-4.1c0-0.6-0.5-1-1-1c-0.6,0-1.1,0.5-1.1,1v6.6c0,0.1,0,0.3,0.1,0.4
		c0.1,0.3,0.3,0.5,0.6,0.6c0.1,0.1,0.3,0.1,0.4,0.1h6.6c0.6,0,1-0.5,1-1.1c0-0.6-0.5-1-1-1h-4.1l6.1-6.1c0.4-0.4,0.4-1.1,0-1.5
		S32.7,64.4,32.3,64.9z"/>
	<path class="st0" d="M73,65.8c-0.6,0-1.1,0.5-1.1,1v4.2l-7-6.3c-0.4-0.4-1.1-0.4-1.5,0.1c-0.4,0.4-0.4,1.1,0.1,1.5l6.7,6.1h-3.9
		c-0.6,0-1,0.5-1,1c0,0.6,0.5,1.1,1,1.1H73c0.1,0,0.3,0,0.4-0.1c0,0,0,0,0.1,0c0.1-0.1,0.2-0.1,0.3-0.2c0,0,0,0,0,0
		c0,0,0-0.1,0.1-0.1c0-0.1,0.1-0.1,0.1-0.2c0-0.1,0-0.1,0-0.2c0-0.1,0-0.1,0-0.1v-6.6C74.1,66.3,73.6,65.8,73,65.8z"/>
	<path class="st0" d="M25.2,34.2c0.6,0,1-0.5,1-1v-4.1l6.1,6.1c0.2,0.2,0.5,0.3,0.7,0.3s0.5-0.1,0.7-0.3c0.4-0.4,0.4-1.1,0-1.5
		l-6.1-6.1h4.1c0.6,0,1-0.5,1-1c0-0.6-0.5-1.1-1-1.1h-6.6c-0.1,0-0.3,0-0.4,0.1c-0.3,0.1-0.5,0.3-0.6,0.6c-0.1,0.1-0.1,0.3-0.1,0.4
		v6.6C24.1,33.7,24.6,34.2,25.2,34.2z"/>
</g>
</svg>
