<?xml version="1.0" encoding="utf-8"?>
<!-- Generator: Adobe Illustrator 28.2.0, SVG Export Plug-In . SVG Version: 6.00 Build 0)  -->
<svg version="1.1" id="Layer_1" xmlns="http://www.w3.org/2000/svg" xmlns:xlink="http://www.w3.org/1999/xlink" x="0px" y="0px"
	 viewBox="0 0 100 100" style="enable-background:new 0 0 100 100;" xml:space="preserve">
<style type="text/css">
	.st0{fill:#3AC9A5;}
</style>
<path class="st0" d="M86.3,45.8c0-1-0.7-1.8-1.7-2l-6.2-2c-0.7-2.2-1.5-4.3-2.6-6.3l3-5.7c0.5-0.8,0.5-1.9-0.2-2.6l-3-3l0,0l0,0
	l-3-3c-0.7-0.7-1.8-0.8-2.6-0.2l-5.7,3c-1-0.5-2-1-3.1-1.5c-1-0.4-2.1-0.8-3.2-1.1l-2-6.2c-0.2-1-1-1.7-2-1.7h-8.4
	c-1,0-1.8,0.7-2,1.7l-1.9,6.1c-1.5,0.4-3,1.1-4.4,1.7c-0.6,0.3-1.3,0.6-1.9,0.9l-5.7-3c-0.8-0.6-1.9-0.4-2.6,0.2l-5.9,5.9
	c-0.7,0.7-0.8,1.8-0.3,2.6l3,5.7c-1.1,2-2,4.1-2.6,6.3l-6.1,1.9c-1,0.2-1.7,1-1.7,2v8.4c0,1,0.7,1.8,1.7,2l6.2,2
	c0.6,2.2,1.5,4.3,2.6,6.3l-3,5.7c-0.5,0.8-0.4,1.9,0.2,2.6l3,3h0l3,3c0.7,0.7,1.8,0.8,2.6,0.2l5.7-2.9c1,0.5,2,1,3.1,1.5
	c1,0.4,2.1,0.8,3.2,1.1l1.9,6.2c0.2,1,1,1.7,2,1.7h8.4c1,0,1.8-0.7,2-1.7l1.9-6.1c1.5-0.4,2.9-1,4.3-1.7c0.7-0.3,1.3-0.6,2-0.9
	l5.7,3c0.8,0.6,1.9,0.5,2.6-0.2l5.9-5.9c0.7-0.7,0.8-1.8,0.3-2.6l-3-5.7c1.1-2,2-4.1,2.6-6.3l6.2-1.9c1-0.2,1.7-1,1.7-2V50h0l0,0
	V45.8z M47.6,74.1V63.3h4.8v10.7c-0.8,0.1-1.6,0.1-2.4,0.1C49.2,74.2,48.4,74.2,47.6,74.1z M42.4,50.2h15.1v10.1
	c0,0.6-0.5,1.1-1.1,1.1h-3.1h-6.8h-3.1c-0.6,0-1.1-0.5-1.1-1.1V50.2z M54.4,73.8V63.3h2.1c1.7,0,3.1-1.4,3.1-3.1V50.2h3.2
	c0.5,0,0.9-0.4,0.9-0.9v-5c0-0.5-0.4-0.9-0.9-0.9h-5v-7.2h-2v7.2H51v-7.2h-2v7.2h-4.8v-7.2h-2v7.2h-5c-0.5,0-0.9,0.4-0.9,0.9v5
	c0,0.5,0.4,0.9,0.9,0.9h3.2v10.1c0,1.7,1.4,3.1,3.1,3.1h2.1v10.5C34.3,71.7,25.8,61.9,25.8,50c0-13.4,10.8-24.2,24.2-24.2
	c13.4,0,24.2,10.8,24.2,24.2C74.2,61.9,65.7,71.7,54.4,73.8z"/>
</svg>
