<?xml version="1.0" encoding="utf-8"?>
<!-- Generator: Adobe Illustrator 28.2.0, SVG Export Plug-In . SVG Version: 6.00 Build 0)  -->
<svg version="1.1" id="Layer_1" xmlns="http://www.w3.org/2000/svg" xmlns:xlink="http://www.w3.org/1999/xlink" x="0px" y="0px"
	 viewBox="0 0 100 100" style="enable-background:new 0 0 100 100;" xml:space="preserve">
<style type="text/css">
	.st0{fill:#FFA348;}
</style>
<g>
	<path class="st0" d="M88,50c0-2.1-1.5-3.9-3.6-4.2c-0.8-6.4-3.3-12.3-7.1-17.1c1.2-1.7,1-4-0.5-5.5c-1.5-1.5-3.8-1.7-5.5-0.5
		c-4.8-3.8-10.7-6.3-17.1-7.1c-0.3-2-2.1-3.6-4.2-3.6s-3.9,1.5-4.2,3.6c-6.4,0.8-12.3,3.3-17.1,7.1c-1.7-1.2-4-1-5.5,0.5
		s-1.7,3.8-0.5,5.5c-3.8,4.8-6.3,10.7-7.1,17.1c-2,0.3-3.6,2.1-3.6,4.2s1.5,3.9,3.6,4.2c0.8,6.4,3.3,12.3,7.1,17.1
		c-1.2,1.7-1,4,0.5,5.5c1.5,1.5,3.8,1.7,5.5,0.5c4.8,3.8,10.7,6.3,17.1,7.1c0.3,2,2.1,3.6,4.2,3.6s3.9-1.5,4.2-3.6
		c6.4-0.8,12.3-3.3,17.1-7.1c1.7,1.2,4,1,5.5-0.5c1.5-1.5,1.7-3.8,0.5-5.5c3.8-4.8,6.3-10.7,7.1-17.1C86.5,53.9,88,52.1,88,50z
		 M82.5,54.1c-0.7,6-3.1,11.4-6.6,16c-1.6-0.8-3.7-0.6-5,0.8c-1.4,1.4-1.6,3.4-0.8,5c-4.5,3.5-10,5.9-16,6.6c-0.5-1.8-2.2-3-4.1-3
		s-3.5,1.3-4.1,3c-6-0.7-11.4-3.1-16-6.6c0.8-1.6,0.6-3.7-0.8-5c-1.4-1.4-3.4-1.6-5-0.8c-3.5-4.5-5.9-10-6.6-16c1.8-0.5,3-2.2,3-4.1
		s-1.3-3.5-3-4.1c0.7-6,3.1-11.4,6.6-16c1.6,0.8,3.7,0.6,5-0.8c1.4-1.4,1.6-3.4,0.8-5c4.5-3.5,10-5.9,16-6.6c0.5,1.8,2.2,3,4.1,3
		s3.5-1.3,4.1-3c6,0.7,11.4,3.1,16,6.6c-0.8,1.6-0.6,3.7,0.8,5c1.4,1.4,3.4,1.6,5,0.8c3.5,4.5,5.9,10,6.6,16c-1.8,0.5-3,2.2-3,4.1
		S80.7,53.5,82.5,54.1z"/>
	<path class="st0" d="M72.7,45.2h-6.8c-0.6,0-1,0.4-1,1s0.4,1,1,1h6.8c0.6,0,1-0.4,1-1S73.2,45.2,72.7,45.2z"/>
	<path class="st0" d="M66.2,51.2c-0.4-0.4-1-0.4-1.4,0s-0.4,1,0,1.4l3.9,3.9c0.2,0.2,0.5,0.3,0.7,0.3s0.5-0.1,0.7-0.3
		c0.4-0.4,0.4-1,0-1.4L66.2,51.2z"/>
	<path class="st0" d="M65.5,41.4c0.3,0,0.5-0.1,0.7-0.3l3.9-3.9c0.4-0.4,0.4-1,0-1.4s-1-0.4-1.4,0l-3.9,3.9c-0.4,0.4-0.4,1,0,1.4
		C65,41.3,65.2,41.4,65.5,41.4z"/>
	<path class="st0" d="M61.6,31.9c-0.4-0.2-0.8-0.1-1.1,0.2c-3.8,3.8-12.2,7.7-22.1,7.7c0,0,0,0,0,0c-2.5,0-4.8,1.4-5.9,3.5h-2.9
		c-0.9,0-1.5,0.7-1.5,1.5v2.7c0,0.9,0.7,1.5,1.5,1.5h2.5c0.9,2.1,2.8,3.7,5.1,4.1L38.2,65c0.1,1.5,1.2,2.8,2.6,3.1l2.9,0.6
		c0.1,0,0.1,0,0.2,0c0.2,0,0.4-0.1,0.6-0.2c0.2-0.2,0.4-0.5,0.4-0.8V53.7c6.5,1,12.4,3.4,15.6,6.6c0.2,0.2,0.4,0.3,0.7,0.3
		c0.1,0,0.3,0,0.4-0.1c0.4-0.2,0.6-0.5,0.6-0.9V32.8C62.2,32.4,61.9,32,61.6,31.9z M33.6,46.5c0-2.6,2.1-4.7,4.7-4.7c0,0,0,0,0,0
		c3.7,0,7.1-0.5,10.3-1.3v12c-3.2-0.8-6.7-1.2-10.3-1.2C35.8,51.2,33.6,49.1,33.6,46.5z M42.9,66.6l-1.7-0.4c-0.6-0.1-1-0.7-1-1.3
		l-0.9-11.6c1.2,0,2.4,0.1,3.6,0.2V66.6z"/>
</g>
</svg>
