<?xml version="1.0" encoding="utf-8"?>
<!-- Generator: Adobe Illustrator 28.2.0, SVG Export Plug-In . SVG Version: 6.00 Build 0)  -->
<svg version="1.1" id="Layer_1" xmlns="http://www.w3.org/2000/svg" xmlns:xlink="http://www.w3.org/1999/xlink" x="0px" y="0px"
	 viewBox="0 0 100 100" style="enable-background:new 0 0 100 100;" xml:space="preserve">
<style type="text/css">
	.st0{fill:#5580F9;}
</style>
<g>
	<path class="st0" d="M90.3,30.1c-0.1-0.1-0.1-0.2-0.2-0.3c-6-6.1-14-9.5-22.6-9.5c-0.2,0-0.5,0-0.7,0c-0.4,0-0.7,0-1.1,0
		c-0.3,0-0.7,0-1,0.1c-0.5,0-1,0.1-1.6,0.2c-0.3,0-0.7,0.1-1,0.2c-0.3,0.1-0.7,0.1-1,0.2c-0.5,0.1-0.9,0.2-1.4,0.3
		c-0.4,0.1-0.7,0.2-1.1,0.3c-0.3,0.1-0.6,0.2-0.9,0.3c-0.5,0.2-1,0.3-1.5,0.5l0,0c-2.3,0.9-4.5,2-6.6,3.4c-4.4-3.5-10-5.6-16.1-5.6
		c-14.4,0-26,11.7-26,26c0,4.5,1.1,8.7,3.1,12.3c0,0,0,0,0,0c4.4,8.1,13,13.7,22.9,13.7c6.1,0,11.7-2.1,16.2-5.6l17.2,17.2l4.2-4.2
		L54,62.4c3.5-4.4,5.6-10.1,5.6-16.2c0-7.5-3.2-14.3-8.4-19.1c2.2-1.4,4.6-2.6,7-3.4c0,0,0,0,0,0c-0.1,0.4-0.1,0.9-0.1,1.3
		c0,5.1,4.1,9.2,9.2,9.2s9.2-4.1,9.2-9.2c0-0.4,0-0.9-0.1-1.3c0.5,0.2,0.9,0.3,1.4,0.5l0,0c3.7,1.4,7.1,3.5,10,6.3
		c-2.7,2.6-5.8,4.6-9.2,6c-0.5,0.2-0.8,0.8-0.5,1.3c0.2,0.4,0.5,0.6,0.9,0.6c0.1,0,0.3,0,0.4-0.1c4-1.6,7.5-4,10.6-7.1
		C90.4,30.9,90.5,30.5,90.3,30.1z M57.7,46.2c0,13.3-10.8,24-24,24c-8.8,0-16.6-4.8-20.7-11.9l10.8-10.8l9.4,7.3
		c0.4,0.3,1,0.3,1.4-0.1l11.4-13.6c0.4-0.4,0.3-1.1-0.1-1.4c-0.4-0.4-1.1-0.3-1.4,0.1L33.5,52.7l-9.3-7.2c-0.4-0.3-1-0.3-1.3,0.1
		l-11,11c-1.5-3.1-2.3-6.6-2.3-10.3c0-13.3,10.8-24,24-24C46.9,22.2,57.7,33,57.7,46.2z"/>
	<path class="st0" d="M86.3,46.9H65.6c-0.6,0-1,0.4-1,1s0.4,1,1,1h20.6c0.6,0,1-0.4,1-1S86.8,46.9,86.3,46.9z"/>
	<path class="st0" d="M86.3,57.3H63c-0.6,0-1,0.4-1,1s0.4,1,1,1h23.3c0.6,0,1-0.4,1-1S86.8,57.3,86.3,57.3z"/>
	<path class="st0" d="M86.3,67.7H69.8c-0.6,0-1,0.4-1,1s0.4,1,1,1h16.5c0.6,0,1-0.4,1-1S86.8,67.7,86.3,67.7z"/>
	<path class="st0" d="M86.3,78.1h-8.5c-0.6,0-1,0.4-1,1s0.4,1,1,1h8.5c0.6,0,1-0.4,1-1S86.8,78.1,86.3,78.1z"/>
	<path class="st0" d="M51.8,78.1H25.5c-0.6,0-1,0.4-1,1s0.4,1,1,1h26.3c0.6,0,1-0.4,1-1S52.3,78.1,51.8,78.1z"/>
</g>
</svg>
