<?xml version="1.0" encoding="UTF-8"?>
<svg id="Layer_1" data-name="Layer 1" xmlns="http://www.w3.org/2000/svg" version="1.1" viewBox="0 0 100 100">
  <defs>
    <style>
      .cls-1 {
        fill: #e6546b;
        stroke-width: 0px;
      }
    </style>
  </defs>
  <g>
    <path class="cls-1" d="M76.622,21.62H21.914c-2.84,0-5.142,2.302-5.142,5.15v6.175h64.991v-6.175c0-2.848-2.302-5.15-5.142-5.15ZM25.182,29.071c-.941,0-1.705-.765-1.705-1.705,0-.933.765-1.697,1.705-1.697s1.697.765,1.697,1.697c0,.941-.756,1.705-1.697,1.705ZM30.693,29.071c-.941,0-1.705-.765-1.705-1.705,0-.933.765-1.697,1.705-1.697.933,0,1.697.765,1.697,1.697,0,.941-.765,1.705-1.697,1.705ZM36.204,29.071c-.941,0-1.705-.765-1.705-1.705,0-.933.764-1.697,1.705-1.697.932,0,1.697.765,1.697,1.697,0,.941-.765,1.705-1.697,1.705ZM74.32,28.206h-31.151c-.462,0-.84-.37-.84-.84,0-.462.378-.84.84-.84h31.151c.462,0,.84.378.84.84,0,.47-.378.84-.84.84Z"/>
    <line class="cls-1" x1="81.762" y1="32.944" x2="16.771" y2="32.944"/>
    <path class="cls-1" d="M67.523,76.067H21.914c-3.376,0-6.124-2.746-6.124-6.123V26.767c0-3.376,2.747-6.123,6.124-6.123h54.706c3.376,0,6.123,2.746,6.123,6.123v40.414c0,.541-.438.979-.979.979s-.979-.438-.979-.979V26.767c0-2.297-1.868-4.165-4.165-4.165H21.914c-2.297,0-4.166,1.868-4.166,4.165v43.178c0,2.297,1.869,4.165,4.166,4.165h45.609c.541,0,.979.438.979.979s-.438.979-.979.979Z"/>
    <rect class="cls-1" x="29.71" y="32.943" width="1.957" height="42.146"/>
    <rect class="cls-1" x="16.769" y="31.964" width="64.995" height="1.957"/>
  </g>
  <path class="cls-1" d="M57.968,70.626c-8.914,0-16.165-7.251-16.165-16.164s7.251-16.165,16.165-16.165,16.164,7.251,16.164,16.165-7.251,16.164-16.164,16.164ZM57.968,40.254c-7.834,0-14.208,6.374-14.208,14.208s6.374,14.207,14.208,14.207,14.207-6.373,14.207-14.207-6.373-14.208-14.207-14.208Z"/>
  <path class="cls-1" d="M83.869,75.366l-12.959-12.959c-.245.326-2.784,2.705-4.213,3.981-.498.444-.714.955-.243,1.427,2.542,2.544,10.002,10.065,12.455,12.517.455.455,1.189.451,1.643-.003l3.317-3.317c.455-.455.455-1.192,0-1.647Z"/>
  <path class="cls-1" d="M45.315,63.625c-.263,0-.525-.105-.718-.313-.367-.397-.344-1.016.053-1.383l4.354-4.035c.396-.369,1.015-.345,1.383.053.367.397.344,1.016-.053,1.383l-4.354,4.035c-.188.175-.427.261-.665.261Z"/>
  <path class="cls-1" d="M56.805,62.006c-.186,0-.376-.054-.543-.164l-4.341-2.899c-.449-.301-.57-.908-.27-1.358.3-.448.906-.57,1.358-.27l4.341,2.899c.449.301.57.908.27,1.358-.189.282-.499.435-.815.435Z"/>
  <path class="cls-1" d="M59.76,61.518c-.173,0-.348-.046-.506-.142-.463-.28-.61-.882-.329-1.344l4.931-8.124c.28-.463.881-.611,1.344-.329.463.28.61.882.329,1.344l-4.931,8.124c-.183.304-.506.471-.837.471Z"/>
  <path class="cls-1" d="M50.892,60.087c-1.512,0-2.742-1.23-2.742-2.743s1.23-2.743,2.742-2.743,2.743,1.23,2.743,2.743-1.23,2.743-2.743,2.743ZM50.892,56.559c-.433,0-.785.353-.785.786s.352.786.785.786.786-.353.786-.786-.353-.786-.786-.786Z"/>
  <path class="cls-1" d="M58.57,64.575c-1.513,0-2.743-1.23-2.743-2.743s1.23-2.743,2.743-2.743,2.743,1.23,2.743,2.743-1.23,2.743-2.743,2.743ZM58.57,61.047c-.433,0-.786.353-.786.786s.353.786.786.786.786-.353.786-.786-.353-.786-.786-.786Z"/>
  <path class="cls-1" d="M65.759,53.762c-1.513,0-2.743-1.23-2.743-2.742s1.23-2.743,2.743-2.743,2.743,1.23,2.743,2.743-1.23,2.742-2.743,2.742ZM65.759,50.235c-.433,0-.786.353-.786.786s.353.785.786.785.786-.352.786-.785-.353-.786-.786-.786Z"/>
  <path class="cls-1" d="M72.851,57.072c-.203,0-.406-.062-.581-.192l-5.599-4.145c-.435-.322-.526-.935-.204-1.368.323-.435.935-.527,1.368-.204l5.599,4.145c.435.322.527.935.204,1.368-.192.26-.487.397-.787.397Z"/>
</svg>