<?xml version="1.0" encoding="UTF-8"?>
<svg id="Layer_1" data-name="Layer 1" xmlns="http://www.w3.org/2000/svg" version="1.1" viewBox="0 0 100 100">
  <defs>
    <style>
      .cls-1 {
        fill: #835edd;
        stroke-width: 0px;
      }
    </style>
  </defs>
  <path class="cls-1" d="M53.11,75.69H15.11v-10.37h35.73l.31-2H13.11v14.37h40.44l-.44-2Z"/>
  <rect class="cls-1" x="13.115" y="46.942" width="22.414" height="5.98"/>
  <rect class="cls-1" x="13.115" y="54.791" width="17.226" height="3.05"/>
  <polygon class="cls-1" points="69.99 52.92 69.99 64.49 67.99 64.05 67.99 52.92 69.99 52.92"/>
  <path class="cls-1" d="M9.64,45.92v33.47c0,1.35,1.1,2.45,2.45,2.45h42.41l.528,2H12.09c-2.46,0-4.45-2-4.45-4.45v-33.47c0-2.46,1.99-4.46,4.45-4.46h46.61v2H12.09c-1.35,0-2.45,1.1-2.45,2.46Z"/>
  <path class="cls-1" d="M86.215,64.177h-11.58v-2h11.58c1.354,0,2.454-1.101,2.454-2.454V26.251c0-1.353-1.101-2.454-2.454-2.454h-53.446c-1.353,0-2.454,1.101-2.454,2.454v12.257h-2v-12.257c0-2.456,1.998-4.454,4.454-4.454h53.446c2.456,0,4.454,1.998,4.454,4.454v33.471c0,2.456-1.998,4.454-4.454,4.454Z"/>
  <path class="cls-1" d="M74.139,78.835l-8.494-6.482,5.086-3.188c.762-.478.561-1.639-.318-1.833l-15.694-3.453c-.716-.158-1.355.481-1.197,1.197l3.453,15.694c.193.878,1.355,1.08,1.833.318l3.218-5.134,6.665,8.346c.215.269.617.292.861.048l4.645-4.645c.248-.247.22-.656-.058-.869Z"/>
  <rect class="cls-1" x="54.653" y="40.654" width="27.639" height="4.999" transform="translate(-10.459 61.057) rotate(-45)"/>
  <polygon class="cls-1" points="81.586 48.301 81.586 30.04 63.325 30.04 81.586 48.301"/>
</svg>