<?xml version="1.0" encoding="UTF-8"?>
<svg xmlns="http://www.w3.org/2000/svg" xmlns:xlink="http://www.w3.org/1999/xlink" version="1.1" viewBox="0 0 60 60">
  <defs>
    <style>
      .cls-1 {
        fill: url(#linear-gradient-8);
      }

      .cls-2 {
        fill: url(#linear-gradient-7);
      }

      .cls-3 {
        fill: url(#linear-gradient-5);
      }

      .cls-4 {
        fill: url(#linear-gradient-6);
      }

      .cls-5 {
        fill: url(#linear-gradient-9);
      }

      .cls-6 {
        fill: url(#linear-gradient-4);
      }

      .cls-7 {
        fill: url(#linear-gradient-3);
      }

      .cls-8 {
        fill: url(#linear-gradient-2);
      }

      .cls-9 {
        fill: url(#linear-gradient);
      }

      .cls-10 {
        fill: url(#linear-gradient-10);
      }

      .cls-11 {
        fill: url(#linear-gradient-11);
      }

      .cls-12 {
        fill: url(#linear-gradient-12);
      }

      .cls-13 {
        fill: url(#linear-gradient-13);
      }

      .cls-14 {
        fill: url(#linear-gradient-14);
      }

      .cls-15 {
        fill: url(#linear-gradient-15);
      }

      .cls-16 {
        fill: url(#linear-gradient-16);
      }
    </style>
    <linearGradient id="linear-gradient" x1="35.893" y1="47.904" x2="53.14" y2="47.904" gradientTransform="translate(0 62) scale(1 -1)" gradientUnits="userSpaceOnUse">
      <stop offset="0" stop-color="#e6546b"/>
      <stop offset="1" stop-color="#f07d7d"/>
    </linearGradient>
    <linearGradient id="linear-gradient-2" x1="20.308" y1="53.948" x2="37.689" y2="15.917" gradientTransform="translate(0 62) scale(1 -1)" gradientUnits="userSpaceOnUse">
      <stop offset="0" stop-color="#6c37b4"/>
      <stop offset="1" stop-color="#805ed4"/>
    </linearGradient>
    <linearGradient id="linear-gradient-3" x1="27.09" y1="57.048" x2="44.469" y2="19.019" gradientTransform="translate(0 62) scale(1 -1)" gradientUnits="userSpaceOnUse">
      <stop offset="0" stop-color="#6c37b4"/>
      <stop offset="1" stop-color="#805ed4"/>
    </linearGradient>
    <linearGradient id="linear-gradient-4" x1="22.376" y1="54.894" x2="39.756" y2="16.865" gradientTransform="translate(0 62) scale(1 -1)" gradientUnits="userSpaceOnUse">
      <stop offset="0" stop-color="#6c37b4"/>
      <stop offset="1" stop-color="#805ed4"/>
    </linearGradient>
    <linearGradient id="linear-gradient-5" x1="24.68" y1="55.946" x2="42.06" y2="17.918" gradientTransform="translate(0 62) scale(1 -1)" gradientUnits="userSpaceOnUse">
      <stop offset="0" stop-color="#6c37b4"/>
      <stop offset="1" stop-color="#805ed4"/>
    </linearGradient>
    <linearGradient id="linear-gradient-6" x1="23.063" y1="55.207" x2="40.442" y2="17.179" gradientTransform="translate(0 62) scale(1 -1)" gradientUnits="userSpaceOnUse">
      <stop offset="0" stop-color="#6c37b4"/>
      <stop offset="1" stop-color="#805ed4"/>
    </linearGradient>
    <linearGradient id="linear-gradient-7" x1="20.776" y1="54.162" x2="38.155" y2="16.134" gradientTransform="translate(0 62) scale(1 -1)" gradientUnits="userSpaceOnUse">
      <stop offset="0" stop-color="#6c37b4"/>
      <stop offset="1" stop-color="#805ed4"/>
    </linearGradient>
    <linearGradient id="linear-gradient-8" x1="19.673" y1="53.658" x2="37.053" y2="15.629" gradientTransform="translate(0 62) scale(1 -1)" gradientUnits="userSpaceOnUse">
      <stop offset="0" stop-color="#6c37b4"/>
      <stop offset="1" stop-color="#805ed4"/>
    </linearGradient>
    <linearGradient id="linear-gradient-9" x1="6.864" y1="27.523" x2="26.678" y2="27.523" gradientTransform="translate(0 62) scale(1 -1)" gradientUnits="userSpaceOnUse">
      <stop offset="0" stop-color="#e6546b"/>
      <stop offset="1" stop-color="#f07d7d"/>
    </linearGradient>
    <linearGradient id="linear-gradient-10" x1="6.859" y1="22.668" x2="26.682" y2="22.668" gradientTransform="translate(0 62) scale(1 -1)" gradientUnits="userSpaceOnUse">
      <stop offset="0" stop-color="#e6546b"/>
      <stop offset="1" stop-color="#f07d7d"/>
    </linearGradient>
    <linearGradient id="linear-gradient-11" x1="6.859" y1="17.135" x2="26.682" y2="17.135" gradientTransform="translate(0 62) scale(1 -1)" gradientUnits="userSpaceOnUse">
      <stop offset="0" stop-color="#e6546b"/>
      <stop offset="1" stop-color="#f07d7d"/>
    </linearGradient>
    <linearGradient id="linear-gradient-12" x1="6.859" y1="11.602" x2="26.682" y2="11.602" gradientTransform="translate(0 62) scale(1 -1)" gradientUnits="userSpaceOnUse">
      <stop offset="0" stop-color="#e6546b"/>
      <stop offset="1" stop-color="#f07d7d"/>
    </linearGradient>
    <linearGradient id="linear-gradient-13" x1="6.864" y1="27.523" x2="26.678" y2="27.523" gradientTransform="translate(0 62) scale(1 -1)" gradientUnits="userSpaceOnUse">
      <stop offset="0" stop-color="#e6546b"/>
      <stop offset="1" stop-color="#f07d7d"/>
    </linearGradient>
    <linearGradient id="linear-gradient-14" x1="6.859" y1="22.668" x2="26.682" y2="22.668" gradientTransform="translate(0 62) scale(1 -1)" gradientUnits="userSpaceOnUse">
      <stop offset="0" stop-color="#e6546b"/>
      <stop offset="1" stop-color="#f07d7d"/>
    </linearGradient>
    <linearGradient id="linear-gradient-15" x1="6.859" y1="17.135" x2="26.682" y2="17.135" gradientTransform="translate(0 62) scale(1 -1)" gradientUnits="userSpaceOnUse">
      <stop offset="0" stop-color="#e6546b"/>
      <stop offset="1" stop-color="#f07d7d"/>
    </linearGradient>
    <linearGradient id="linear-gradient-16" x1="6.859" y1="11.602" x2="26.682" y2="11.602" gradientTransform="translate(0 62) scale(1 -1)" gradientUnits="userSpaceOnUse">
      <stop offset="0" stop-color="#e6546b"/>
      <stop offset="1" stop-color="#f07d7d"/>
    </linearGradient>
  </defs>
  <!-- Generator: Adobe Illustrator 28.7.0, SVG Export Plug-In . SVG Version: 1.2.0 Build 136)  -->
  <g>
    <g id="Layer_1">
      <g id="Layer_1-2" data-name="Layer_1">
        <g>
          <path class="cls-9" d="M44.719,11.254c-1.776-.276-3.456.702-4.134,2.28,2.022,1.344,3.786,3.048,5.196,5.022,1.11-.534,1.95-1.584,2.154-2.892.33-2.106-1.11-4.08-3.216-4.41ZM44.719,11.254c-1.776-.276-3.456.702-4.134,2.28,2.022,1.344,3.786,3.048,5.196,5.022,1.11-.534,1.95-1.584,2.154-2.892.33-2.106-1.11-4.08-3.216-4.41ZM53.125,13.822l-.522-2.022c-.06-.234-.282-.39-.528-.378l-1.596-.084c-.288-.48-.624-.93-1.02-1.35l.366-1.56c.078-.234-.012-.486-.222-.612l-1.794-1.062c-.204-.12-.48-.078-.636.108l-1.194,1.074c-.168-.042-.336-.072-.504-.102-.396-.072-.786-.126-1.176-.138l-.84-1.356c-.108-.222-.354-.336-.594-.276l-2.01.516c-.234.06-.396.288-.378.528l-.084,1.602c-.24.138-.474.294-.696.468-.228.168-.45.354-.654.546l-1.56-.36c-.234-.078-.486.012-.612.216l-.528.9-.45.762c1.134.372,2.22.852,3.252,1.416.678-1.41,1.956-2.526,3.594-2.946,2.958-.768,5.976,1.014,6.744,3.972.654,2.538-.564,5.118-2.79,6.282.42.696.792,1.428,1.116,2.178l.042-.72c.24-.144.468-.294.696-.468.228-.168.444-.348.654-.546l1.56.36c.228.078.486-.012.606-.216l.528-.9h.006l.528-.9c.12-.204.078-.474-.102-.636l-1.074-1.194c.138-.534.216-1.098.228-1.668l1.368-.852c.216-.108.336-.348.276-.582ZM47.935,15.664c.33-2.106-1.11-4.08-3.216-4.41-1.776-.276-3.456.702-4.134,2.28,2.022,1.344,3.786,3.048,5.196,5.022,1.11-.534,1.95-1.584,2.154-2.892Z"/>
          <g>
            <path class="cls-8" d="M29.601,9.723c-11.22,0-20.35,9.13-20.35,20.35,0,.39.01.77.04,1.16.32-.09.65-.18.99-.27-.02-.29-.03-.59-.03-.89,0-9.47,6.83-17.37,15.83-19.03,1.14-.21,2.32-.32,3.52-.32,1.21,0,2.39.11,3.53.33,9,1.66,15.83,9.56,15.83,19.02s-6.83,17.37-15.83,19.03c-1.14.22-2.32.33-3.53.33-.58,0-1.15-.03-1.72-.08v1c.57.06,1.14.08,1.72.08,11.23,0,20.36-9.14,20.36-20.36s-9.13-20.35-20.36-20.35Z"/>
            <path class="cls-7" d="M29.605,35.614c-.276,0-.5-.224-.5-.5s.224-.5.5-.5c11.405,0,19.353-2.833,19.353-5.376,0-.276.224-.5.5-.5s.5.224.5.5c0,3.091-7.133,6.376-20.353,6.376Z"/>
            <path class="cls-6" d="M29.605,27.526c-9.123,0-18.818-1.649-18.818-4.706,0-.276.224-.5.5-.5s.5.224.5.5c0,1.547,6.778,3.706,17.818,3.706s17.818-2.159,17.818-3.706c0-.276.224-.5.5-.5s.5.224.5.5c0,3.057-9.695,4.706-18.818,4.706Z"/>
            <path class="cls-3" d="M29.632,19.294c-6.135,0-11.834-.839-14.874-2.189-.252-.112-.366-.408-.254-.66.112-.251.407-.366.66-.254,2.92,1.297,8.464,2.103,14.468,2.103,5.855,0,11.332-.777,14.293-2.027.254-.107.547.012.655.266s-.012.547-.266.655c-3.122,1.319-8.611,2.106-14.682,2.106Z"/>
            <path class="cls-4" d="M29.605,43.476c-.276,0-.5-.224-.5-.5s.224-.5.5-.5c7.516,0,13.137-1.384,17.688-4.355.232-.149.541-.085.692.146s.086.541-.145.692c-4.721,3.082-10.516,4.518-18.235,4.518h0Z"/>
            <path class="cls-2" d="M33.131,11.053c-1.09-.86-2.28-1.33-3.53-1.33s-2.43.46-3.52,1.32c-3.69,2.88-6.25,10.22-6.25,19.03v.34c.33.03.66.07,1,.12v-.46c0-10.67,3.94-19.35,8.77-19.35s8.78,8.68,8.78,19.35-3.94,19.36-8.78,19.36c-.59,0-1.16-.13-1.72-.37v1.06c.56.21,1.13.31,1.72.31,1.25,0,2.44-.47,3.53-1.33,3.69-2.88,6.25-10.22,6.25-19.03s-2.56-16.15-6.25-19.02Z"/>
            <path class="cls-1" d="M29.605,50.428c-.276,0-.5-.224-.5-.5V10.221c0-.276.224-.5.5-.5s.5.224.5.5v39.707c0,.276-.224.5-.5.5Z"/>
          </g>
          <g>
            <path class="cls-5" d="M16.771,37.486c5.472,0,9.907-1.347,9.907-3.009s-4.436-3.009-9.907-3.009-9.907,1.347-9.907,3.009,4.436,3.009,9.907,3.009Z"/>
            <path class="cls-10" d="M16.776,37.989c-3.937,0-8.112-.7-9.917-2.211v4.095c0,1.67,4.445,3.012,9.917,3.012s9.906-1.343,9.906-3.012v-4.095c-1.805,1.512-5.968,2.211-9.906,2.211ZM16.776,40.866c-3.339,0-6.419-.485-8.45-1.32-.214-.09-.327-.338-.237-.553.09-.214.338-.316.553-.226,1.94.79,4.896,1.252,8.134,1.252.237,0,.417.181.417.418s-.181.429-.417.429ZM20.793,40.776c-.361,0-.654-.293-.654-.666,0-.361.293-.666.654-.666.372,0,.666.305.666.666,0,.372-.293.666-.666.666ZM23.907,40.11c-.361,0-.666-.293-.666-.666,0-.361.305-.654.666-.654.372,0,.666.293.666.654,0,.372-.293.666-.666.666Z"/>
            <path class="cls-11" d="M6.859,41.311v4.095c0,1.67,4.445,3.012,9.917,3.012s9.906-1.343,9.906-3.012v-4.095c-1.805,1.512-5.968,2.211-9.906,2.211s-8.112-.7-9.917-2.211ZM23.907,44.323c.372,0,.666.293.666.654,0,.372-.293.666-.666.666-.361,0-.666-.293-.666-.666,0-.361.305-.654.666-.654ZM20.793,44.978c.372,0,.666.305.666.666,0,.372-.293.666-.666.666-.361,0-.654-.293-.654-.666,0-.361.293-.666.654-.666ZM17.194,45.97c0,.237-.181.429-.417.429-3.339,0-6.419-.485-8.45-1.32-.214-.09-.327-.338-.237-.553.09-.214.338-.316.553-.226,1.94.79,4.896,1.252,8.134,1.252.237,0,.417.181.417.418Z"/>
            <path class="cls-12" d="M6.859,46.844v4.096c0,1.67,4.445,3.012,9.917,3.012s9.906-1.343,9.906-3.012v-4.096c-1.805,1.512-5.968,2.211-9.906,2.211s-8.112-.7-9.917-2.211ZM23.907,49.856c.372,0,.666.293.666.654,0,.372-.293.666-.666.666-.361,0-.666-.293-.666-.666,0-.361.305-.654.666-.654ZM20.793,50.511c.372,0,.666.305.666.666,0,.372-.293.666-.666.666-.361,0-.654-.293-.654-.666,0-.361.293-.666.654-.666ZM17.194,51.503c0,.237-.181.429-.417.429-3.339,0-6.419-.485-8.45-1.32-.214-.09-.327-.338-.237-.553.09-.214.338-.316.553-.226,1.94.79,4.896,1.252,8.134,1.252.237,0,.417.181.417.418Z"/>
          </g>
          <g>
            <ellipse class="cls-13" cx="16.771" cy="34.477" rx="9.907" ry="3.009"/>
            <path class="cls-14" d="M16.776,37.989c-3.937,0-8.112-.7-9.917-2.211v4.095c0,1.67,4.445,3.013,9.917,3.013s9.906-1.343,9.906-3.013v-4.095c-1.805,1.512-5.968,2.211-9.906,2.211ZM16.776,40.866c-3.339,0-6.419-.485-8.45-1.32-.214-.091-.327-.339-.237-.553.09-.214.338-.316.553-.226,1.94.79,4.896,1.252,8.134,1.252.237,0,.417.18.417.417s-.181.429-.417.429h0ZM20.793,40.776c-.361,0-.654-.293-.654-.666,0-.361.293-.666.654-.666.372,0,.666.305.666.666,0,.372-.293.666-.666.666ZM23.907,40.11c-.361,0-.666-.293-.666-.666,0-.361.305-.654.666-.654.372,0,.666.294.666.654,0,.372-.293.666-.666.666Z"/>
            <path class="cls-15" d="M6.859,41.311v4.095c0,1.67,4.445,3.013,9.917,3.013s9.906-1.343,9.906-3.013v-4.095c-1.805,1.512-5.968,2.211-9.906,2.211s-8.112-.7-9.917-2.211ZM23.907,44.323c.372,0,.666.294.666.654,0,.372-.293.666-.666.666-.361,0-.666-.293-.666-.666,0-.361.305-.654.666-.654ZM20.793,44.977c.372,0,.666.305.666.666,0,.372-.293.666-.666.666-.361,0-.654-.293-.654-.666,0-.361.293-.666.654-.666ZM17.194,45.97c0,.237-.181.429-.417.429-3.339,0-6.419-.485-8.45-1.32-.214-.091-.327-.339-.237-.553.09-.214.338-.316.553-.226,1.94.79,4.896,1.252,8.134,1.252.237,0,.417.18.417.417h0Z"/>
            <path class="cls-16" d="M6.859,46.844v4.096c0,1.67,4.445,3.012,9.917,3.012s9.906-1.343,9.906-3.012v-4.096c-1.805,1.512-5.968,2.211-9.906,2.211s-8.112-.7-9.917-2.211ZM23.907,49.856c.372,0,.666.294.666.654,0,.372-.293.666-.666.666-.361,0-.666-.293-.666-.666,0-.361.305-.654.666-.654ZM20.793,50.51c.372,0,.666.305.666.666,0,.372-.293.666-.666.666-.361,0-.654-.293-.654-.666,0-.361.293-.666.654-.666ZM17.194,51.503c0,.237-.181.429-.417.429-3.339,0-6.419-.485-8.45-1.32-.214-.091-.327-.339-.237-.553.09-.214.338-.316.553-.226,1.94.79,4.896,1.252,8.134,1.252.237,0,.417.18.417.417h0Z"/>
          </g>
        </g>
      </g>
    </g>
  </g>
</svg>