<?xml version="1.0" encoding="UTF-8"?>
<svg id="Layer_1" data-name="Layer 1" xmlns="http://www.w3.org/2000/svg" version="1.1" viewBox="0 0 100 100">
  <defs>
    <style>
      .cls-1 {
        fill: #1bc7ff;
        stroke-width: 0px;
      }
    </style>
  </defs>
  <path class="cls-1" d="M49.4,80.4h-26.8c-4.5,0-8.1-3.7-8.1-8.1V26.4c0-4.5,3.7-8.1,8.1-8.1h37.9c4.5,0,8.1,3.7,8.1,8.1v19c0,.6-.5,1.1-1.1,1.1s-1.1-.5-1.1-1.1v-19c0-3.3-2.7-6-6-6H22.6c-3.3,0-6,2.7-6,6v45.9c0,3.3,2.7,6,6,6h26.8c.6,0,1.1.5,1.1,1.1s-.5,1.1-1.1,1.1Z"/>
  <path class="cls-1" d="M27.6,14.3h27.8v11.1c0,1.4-1.1,2.5-2.5,2.5h-22.8c-1.4,0-2.5-1.1-2.5-2.5v-11.1h0Z"/>
  <circle class="cls-1" cx="26.9" cy="40" r="2.6"/>
  <circle class="cls-1" cx="26.9" cy="52.9" r="2.6"/>
  <circle class="cls-1" cx="26.9" cy="65.7" r="2.6"/>
  <path class="cls-1" d="M55.5,41h-20.9c-.6,0-1.1-.5-1.1-1.1s.5-1.1,1.1-1.1h20.9c.6,0,1.1.5,1.1,1.1s-.5,1.1-1.1,1.1Z"/>
  <path class="cls-1" d="M50.7,53.9h-16.2c-.6,0-1.1-.5-1.1-1.1s.5-1.1,1.1-1.1h16.2c.6,0,1.1.5,1.1,1.1s-.5,1.1-1.1,1.1Z"/>
  <path class="cls-1" d="M45,66.8h-10.5c-.6,0-1.1-.5-1.1-1.1s.5-1.1,1.1-1.1h10.5c.6,0,1.1.5,1.1,1.1s-.5,1.1-1.1,1.1Z"/>
  <g>
    <path class="cls-1" d="M67.6,84.7c-.6,0-1.1-.5-1.1-1.1v-4.4c0-.6.5-1.1,1.1-1.1s1.1.5,1.1,1.1v4.4c0,.6-.5,1.1-1.1,1.1Z"/>
    <path class="cls-1" d="M67.6,85.6c-4.6,0-9.2-1.7-12.7-5.2-7-7-7-18.4,0-25.4,7-7,18.4-7,25.4,0,3.4,3.4,5.3,7.9,5.3,12.7s-.5,1.1-1.1,1.1-1.1-.5-1.1-1.1c0-4.2-1.6-8.2-4.6-11.2-6.2-6.2-16.2-6.2-22.4,0-6.2,6.2-6.2,16.2,0,22.4,6.2,6.2,16.2,6.2,22.4,0,.4-.4,1.1-.4,1.5,0s.4,1.1,0,1.5c-3.5,3.5-8.1,5.2-12.7,5.2Z"/>
    <circle class="cls-1" cx="67.6" cy="67.7" r="2.5"/>
    <path class="cls-1" d="M67.6,57.2c-.6,0-1.1-.5-1.1-1.1v-4.4c0-.6.5-1.1,1.1-1.1s1.1.5,1.1,1.1v4.4c0,.6-.5,1.1-1.1,1.1Z"/>
    <path class="cls-1" d="M56,80.4c-.3,0-.5-.1-.7-.3-.4-.4-.4-1.1,0-1.5l2.5-2.5c.4-.4,1.1-.4,1.5,0s.4,1.1,0,1.5l-2.5,2.5c-.2.2-.5.3-.7.3Z"/>
    <path class="cls-1" d="M76.7,59.6c-.3,0-.5-.1-.7-.3-.4-.4-.4-1.1,0-1.5l2.5-2.5c.4-.4,1.1-.4,1.5,0s.4,1.1,0,1.5l-2.5,2.5c-.2.2-.5.3-.7.3Z"/>
    <path class="cls-1" d="M84.5,68.7h-5.3c-.6,0-1.1-.5-1.1-1.1s.5-1.1,1.1-1.1h5.3c.6,0,1.1.5,1.1,1.1s-.5,1.1-1.1,1.1Z"/>
    <path class="cls-1" d="M56,68.7h-4.4c-.6,0-1.1-.5-1.1-1.1s.5-1.1,1.1-1.1h4.4c.6,0,1.1.5,1.1,1.1s-.5,1.1-1.1,1.1Z"/>
    <path class="cls-1" d="M58.4,59.6c-.3,0-.5-.1-.7-.3l-2.5-2.5c-.4-.4-.4-1.1,0-1.5s1.1-.4,1.5,0l2.5,2.5c.4.4.4,1.1,0,1.5s-.5.3-.7.3Z"/>
    <path class="cls-1" d="M67.6,68.7c-.6,0-1.1-.5-1.1-1.1v-7.4c0-.6.5-1.1,1.1-1.1s1.1.5,1.1,1.1v7.4c0,.6-.5,1.1-1.1,1.1Z"/>
    <path class="cls-1" d="M72.3,72.5c-.2,0-.5,0-.7-.2l-4.7-3.7c-.5-.4-.5-1-.2-1.5s1-.5,1.5-.2l4.7,3.7c.5.4.5,1,.2,1.5-.2.3-.5.4-.8.4Z"/>
    <polygon class="cls-1" points="80.3 85.7 81.5 78.2 74 76.9 80.3 85.7"/>
  </g>
</svg>