<?xml version="1.0" encoding="UTF-8"?>
<svg id="Layer_1" data-name="Layer 1" xmlns="http://www.w3.org/2000/svg" version="1.1" viewBox="0 0 100 100">
  <defs>
    <style>
      .cls-1 {
        fill: #1bc7ff;
        stroke-width: 0px;
      }
    </style>
  </defs>
  <g>
    <path class="cls-1" d="M27.339,59.424c8.578,0,15.532-2.112,15.532-4.717s-6.954-4.717-15.532-4.717-15.532,2.112-15.532,4.717,6.954,4.717,15.532,4.717Z"/>
    <path class="cls-1" d="M27.347,61.207c-6.173,0-12.717-1.097-15.547-3.467v6.42c0,2.618,6.969,4.723,15.547,4.723s15.53-2.105,15.53-4.723v-6.42c-2.83,2.37-9.357,3.467-15.53,3.467Z"/>
    <path class="cls-1" d="M11.8,67.083v6.42c0,2.618,6.969,4.723,15.547,4.723s15.53-2.105,15.53-4.723v-6.42c-2.83,2.37-9.357,3.467-15.53,3.467s-12.717-1.097-15.547-3.467Z"/>
    <path class="cls-1" d="M11.8,76.426v6.421c0,2.618,6.969,4.722,15.547,4.722s15.53-2.105,15.53-4.722v-6.421c-2.83,2.37-9.357,3.467-15.53,3.467s-12.717-1.097-15.547-3.467Z"/>
  </g>
  <path class="cls-1" d="M72.884,72.442h-26.769v-2h26.355l6.391-6.391V13.431H28.338v34.193h-2V12.431c0-.552.448-1,1-1h52.522c.553,0,1,.448,1,1v52.035c0,.266-.105.52-.293.707l-6.977,6.977c-.188.188-.441.293-.707.293Z"/>
  <path class="cls-1" d="M80.51,80.518h-34.395v-2h33.981l7.104-7.104V20.551h2v51.276c0,.266-.105.52-.293.707l-7.69,7.69c-.188.188-.441.293-.707.293Z"/>
  <rect class="cls-1" x="46.115" y="52.873" width="27.122" height="2"/>
  <rect class="cls-1" x="34.238" y="23.61" width="15.013" height="2"/>
  <rect class="cls-1" x="34.238" y="31.587" width="11.835" height="2"/>
  <rect class="cls-1" x="34.238" y="39.564" width="10.507" height="2"/>
  <g>
    <path class="cls-1" d="M70.79,27.732h-16.314c-1.354,0-2.447,1.093-2.447,2.447v12.401c0,1.354,1.093,2.447,2.447,2.447h16.314c1.354,0,2.447-1.093,2.447-2.447v-12.401c0-1.354-1.093-2.447-2.447-2.447ZM64.493,39.298c.114.343-.147.686-.49.686h-2.725c-.359,0-.62-.343-.505-.686l1.191-3.556c-.799-.261-1.371-1.012-1.371-1.909,0-1.126.914-2.039,2.039-2.039s2.039.914,2.039,2.039c0,.897-.571,1.647-1.37,1.909l1.191,3.556Z"/>
    <path class="cls-1" d="M68.344,29.702h-11.403c-.55,0-.997-.444-1-.994l-.003-.393c-.002-.382-.005-.701-.007-2.046-.003-1.792.692-3.477,1.958-4.746,1.266-1.269,2.949-1.968,4.741-1.971,1.788.042,3.479.695,4.747,1.962,1.269,1.267,1.967,2.952,1.967,4.745v2.444c0,.552-.447,1-1,1ZM57.935,27.702h9.409v-1.444c0-1.258-.49-2.441-1.38-3.33-.89-.888-2.07-1.376-3.327-1.376h-.005c-1.257.001-2.438.493-3.327,1.383-.888.89-1.376,2.073-1.374,3.331,0,.715.002,1.139.004,1.437Z"/>
  </g>
  <g>
    <polygon class="cls-1" points="72.17 71.442 79.861 63.752 72.17 63.752 72.17 71.442"/>
    <path class="cls-1" d="M72.17,72.442c-.129,0-.259-.024-.383-.076-.374-.154-.617-.52-.617-.924v-7.69c0-.553.447-1,1-1h7.69c.404,0,.77.243.924.617.155.374.069.804-.217,1.09l-7.69,7.69c-.191.191-.447.293-.707.293ZM73.17,64.752v4.276l4.276-4.276h-4.276Z"/>
  </g>
  <g>
    <polygon class="cls-1" points="80.51 79.517 88.2 71.827 80.51 71.827 80.51 79.517"/>
    <path class="cls-1" d="M80.51,80.518c-.129,0-.259-.024-.383-.076-.374-.154-.617-.52-.617-.924v-7.69c0-.553.447-1,1-1h7.69c.404,0,.77.243.924.617.155.374.069.804-.217,1.09l-7.69,7.69c-.191.191-.447.293-.707.293ZM81.51,72.827v4.276l4.276-4.276h-4.276Z"/>
  </g>
</svg>