<?xml version="1.0" encoding="utf-8"?>
<!-- Generator: Adobe Illustrator 28.2.0, SVG Export Plug-In . SVG Version: 6.00 Build 0)  -->
<svg version="1.1" id="Layer_1" xmlns="http://www.w3.org/2000/svg" xmlns:xlink="http://www.w3.org/1999/xlink" x="0px" y="0px"
	 viewBox="0 0 100 100" style="enable-background:new 0 0 100 100;" xml:space="preserve">
<style type="text/css">
	.st0{fill:#1BBEFF;}
</style>
<g>
	<g>
		<g>
			<path class="st0" d="M69.9,18.8c-9.4,0-14.2-2.4-19.3-9.1c-0.2-0.2-0.4-0.3-0.7-0.3v0c0,0,0,0,0,0c0,0,0,0,0,0v0
				c-0.2,0-0.5,0.1-0.7,0.3c-5,6.6-9.9,9.1-19.3,9.1c0,0-3.6,28.3,19.9,36.8v0l0,0C73.5,47.1,69.9,18.8,69.9,18.8z M50,42.3
				c-5.3,0-9.5-4.3-9.5-9.5c0-5.3,4.3-9.5,9.5-9.5c5.3,0,9.5,4.3,9.5,9.5C59.5,38,55.3,42.3,50,42.3z"/>
		</g>
		<g>
			<g>
				<path class="st0" d="M50,69.9c-0.1,0-0.3,0-0.4-0.1L8.5,53.4c-0.4-0.2-0.6-0.5-0.6-0.9s0.2-0.8,0.6-0.9l25.6-10.2
					c0.5-0.2,1.1,0,1.3,0.6c0.2,0.5,0,1.1-0.6,1.3l-23.2,9.3L50,67.8l38.4-15.3L65,43.2c-0.5-0.2-0.8-0.8-0.6-1.3s0.8-0.8,1.3-0.6
					l25.7,10.2c0.4,0.2,0.6,0.5,0.6,0.9s-0.2,0.8-0.6,0.9L50.4,69.8C50.3,69.9,50.1,69.9,50,69.9z"/>
			</g>
			<g>
				<path class="st0" d="M50,80.2c-0.1,0-0.3,0-0.4-0.1L8.5,63.8c-0.4-0.2-0.6-0.5-0.6-0.9s0.2-0.8,0.6-0.9l13-5.2
					c0.2-0.1,0.5-0.1,0.7,0l27.7,11l27.7-11c0.2-0.1,0.5-0.1,0.7,0l13,5.2c0.4,0.2,0.6,0.5,0.6,0.9s-0.2,0.8-0.6,0.9L50.4,80.2
					C50.3,80.2,50.1,80.2,50,80.2z M11.6,62.9L50,78.2l38.4-15.3l-10.3-4.1l-27.7,11c-0.2,0.1-0.5,0.1-0.7,0l-27.7-11L11.6,62.9z"/>
			</g>
			<g>
				<path class="st0" d="M50,90.6c-0.1,0-0.3,0-0.4-0.1L8.5,74.2c-0.4-0.2-0.6-0.5-0.6-0.9s0.2-0.8,0.6-0.9l13-5.2
					c0.2-0.1,0.5-0.1,0.7,0l27.7,11l27.7-11c0.2-0.1,0.5-0.1,0.7,0l13,5.2c0.4,0.2,0.6,0.5,0.6,0.9s-0.2,0.8-0.6,0.9L50.4,90.5
					C50.3,90.6,50.1,90.6,50,90.6z M11.6,73.2L50,88.5l38.4-15.3l-10.3-4.1l-27.7,11c-0.2,0.1-0.5,0.1-0.7,0l-27.7-11L11.6,73.2z"/>
			</g>
		</g>
	</g>
	<g>
		<path class="st0" d="M49.4,37c-0.4,0-0.7-0.1-1-0.4l-3.7-3.5l2.1-2.2l2.6,2.5l5.1-5l2.1,2.1l-6.1,6C50.2,36.8,49.8,37,49.4,37z"/>
	</g>
</g>
</svg>
