<?xml version="1.0" encoding="utf-8"?>
<!-- Generator: Adobe Illustrator 28.2.0, SVG Export Plug-In . SVG Version: 6.00 Build 0)  -->
<svg version="1.1" id="Layer_1" xmlns="http://www.w3.org/2000/svg" xmlns:xlink="http://www.w3.org/1999/xlink" x="0px" y="0px"
	 viewBox="0 0 100 100" style="enable-background:new 0 0 100 100;" xml:space="preserve">
<style type="text/css">
	.st0{fill:#1BC7FF;}
</style>
<g>
	<path class="st0" d="M17.7,61.6c0.7-0.2,1.1-0.9,0.8-1.5c-0.9-3-1.3-5.9-1.3-9c0-13.4,8.6-25.1,21-29.2l-1.4,3.3
		c-0.2,0.6,0,1.4,0.7,1.7c0.1,0.1,0.4,0.1,0.5,0.1c0.5,0,0.9-0.2,1.2-0.8l2.5-6c0.2-0.6,0-1.4-0.7-1.7L35,16c-0.6-0.2-1.3,0-1.7,0.7
		c-0.2,0.6,0,1.4,0.7,1.7l3.2,1.3c-13.4,4.6-22.5,17.1-22.5,31.4c0,3.3,0.5,6.6,1.4,9.7c0.1,0.6,0.7,0.8,1.2,0.8
		C17.5,61.6,17.6,61.6,17.7,61.6z"/>
	<path class="st0" d="M71.4,71C65.5,77.9,57,81.8,48,81.8c-7.6,0-14.8-2.7-20.4-7.8l3.9-0.6c0.7-0.1,1.2-0.7,1.1-1.4
		s-0.7-1.2-1.4-1.1l-6.5,0.9c-0.7,0.1-1.2,0.7-1.1,1.4l0.9,6.5c0.1,0.6,0.6,1.1,1.2,1.1c0.1,0,0.1,0,0.2,0c0.7-0.1,1.2-0.7,1.1-1.4
		l-0.5-3.1c6,5.1,13.5,7.8,21.4,7.8c9.7,0,19-4.3,25.3-11.7c0.5-0.5,0.4-1.3-0.1-1.8C72.6,70.5,71.9,70.5,71.4,71z"/>
	<path class="st0" d="M48,22.2c1.8,0,3.3-1.4,3.3-3.3s-1.5-3.2-3.3-3.2s-3.3,1.4-3.3,3.3S46.2,22.2,48,22.2z"/>
	<path class="st0" d="M18.6,64.2c-1.5,0.9-2.1,3-1.2,4.5c0.9,1.5,3,2.1,4.5,1.2c1.5-0.9,2.1-3,1.2-4.5
		C22.2,63.8,20.2,63.2,18.6,64.2z"/>
	<path class="st0" d="M77.3,64.2c-1.5-0.9-3.5-0.4-4.5,1.2c-0.9,1.5-0.4,3.5,1.2,4.5c1.5,0.9,3.5,0.4,4.5-1.2
		C79.4,67.1,79,65.1,77.3,64.2z"/>
	<path class="st0" d="M85.1,57.7c-0.4-0.6-1.1-0.8-1.7-0.5l-3.2,1.7c0.6-2.6,0.9-5.2,0.9-7.8c0-15.2-10.3-28.5-25.2-32.3
		c-0.7-0.1-1.3,0.2-1.5,0.9c-0.1,0.7,0.2,1.3,0.9,1.5C69.1,24.7,78.7,37,78.7,51.2c0,2.4-0.2,4.8-0.8,7.1l-1.7-3.2
		c-0.4-0.6-1.1-0.8-1.7-0.5s-0.8,1.1-0.5,1.7l3.1,5.8c0.2,0.5,0.7,0.7,1.1,0.7c0.2,0,0.4,0,0.6-0.1l5.8-3.1
		C85.2,59,85.5,58.3,85.1,57.7z"/>
	<path class="st0" d="M45.2,48.9l-1.8,1.8l2.7,2.6c0.2,0.2,0.6,0.4,0.8,0.4c0.4,0,0.6-0.1,0.9-0.4l4.5-4.6l-1.8-1.8l-3.7,3.8
		L45.2,48.9z"/>
	<path class="st0" d="M32.1,39.4c0,0-3.3,25.5,15.8,29.2c19.1-3.7,15.8-29.2,15.8-29.2c-7.8,0-11.7-2.1-15.8-7.9
		C43.7,37.2,39.8,39.4,32.1,39.4z M55.8,50.2c0,4.4-3.5,7.8-7.8,7.8s-7.8-3.5-7.8-7.8c0-4.4,3.5-7.8,7.8-7.8S55.8,46,55.8,50.2z"/>
</g>
</svg>
