<?xml version="1.0" encoding="UTF-8"?>
<svg id="Layer_1" data-name="Layer 1" xmlns="http://www.w3.org/2000/svg" version="1.1" viewBox="0 0 100 100">
  <defs>
    <style>
      .cls-1 {
        fill: #e6546b;
        stroke-width: 0px;
      }
    </style>
  </defs>
  <path class="cls-1" d="M85.228,45.858l-10.132-17.544c-.685-1.184-2.408-1.184-3.083,0l-8.616,14.918c1.796,1.484,3.862,3.322,5.73,5.294h14.554c1.381,0,2.232-1.484,1.547-2.668ZM74.567,44.623c-.291.28-.633.415-1.007.415-.395,0-.737-.135-1.028-.415s-.436-.602-.436-.976c0-.384.145-.727.436-.997.291-.28.633-.426,1.028-.426.374,0,.716.145,1.007.426.291.27.436.612.436.997,0,.374-.145.695-.436.976ZM74.899,36.121c-.062.353-.156.747-.26,1.204-.114.426-.228.966-.363,1.609-.135.654-.28,1.453-.426,2.398h-.592c-.145-.955-.291-1.755-.426-2.398-.135-.633-.26-1.173-.363-1.599-.093-.394-.176-.789-.26-1.163-.083-.384-.125-.665-.125-.862,0-.384.145-.716.436-.986.28-.27.623-.416,1.028-.416.394,0,.747.145,1.038.416.291.27.436.602.436.986,0,.208-.052.477-.124.81Z"/>
  <g>
    <path class="cls-1" d="M50.893,44.874c0,5.85-4.739,10.589-10.589,10.589s-10.589-4.739-10.589-10.589c0-.885.11-1.74.314-2.56,3.196-1.214,6.662-1.879,10.275-1.879s7.079.665,10.275,1.879c.205.819.314,1.675.314,2.56Z"/>
    <path class="cls-1" d="M65.041,52.522c-.3,0-.598-.13-.804-.379-5.909-7.201-14.633-11.331-23.933-11.331s-18.024,4.13-23.933,11.331c-.365.442-1.017.508-1.462.144-.443-.364-.507-1.018-.144-1.462,6.306-7.682,15.614-12.089,25.539-12.089s19.233,4.407,25.539,12.089c.363.444.299,1.098-.144,1.462-.194.158-.427.235-.658.235Z"/>
    <path class="cls-1" d="M40.304,61.454c-9.115,0-17.499-4.588-22.429-12.273-.309-.483-.169-1.125.313-1.434.482-.31,1.124-.17,1.434.313,4.546,7.087,12.277,11.318,20.681,11.318s16.135-4.23,20.681-11.318c.31-.484.952-.623,1.434-.313.483.309.622.952.313,1.434-4.93,7.684-13.314,12.273-22.429,12.273Z"/>
  </g>
  <path class="cls-1" d="M40.304,36.571c-.574,0-1.038-.464-1.038-1.038v-10.778c0-.574.464-1.038,1.038-1.038s1.038.464,1.038,1.038v10.778c0,.574-.464,1.038-1.038,1.038Z"/>
  <path class="cls-1" d="M50.539,39.014c-.574,0-1.038-.464-1.038-1.038v-1.422c0-1.763.686-3.419,1.931-4.664l3.381-3.381c.406-.406,1.062-.406,1.468,0s.406,1.062,0,1.468l-3.381,3.381c-.854.854-1.323,1.988-1.323,3.196v1.422c0,.574-.464,1.038-1.038,1.038Z"/>
  <path class="cls-1" d="M40.304,25.792c-2.636,0-4.78-2.145-4.78-4.781s2.144-4.78,4.78-4.78,4.781,2.144,4.781,4.78-2.145,4.781-4.781,4.781ZM40.304,18.307c-1.491,0-2.704,1.212-2.704,2.704s1.212,2.705,2.704,2.705,2.705-1.213,2.705-2.705-1.213-2.704-2.705-2.704Z"/>
  <path class="cls-1" d="M58.298,31.274c-2.636,0-4.781-2.144-4.781-4.78s2.145-4.781,4.781-4.781,4.781,2.145,4.781,4.781-2.145,4.78-4.781,4.78ZM58.298,23.789c-1.491,0-2.705,1.213-2.705,2.705s1.213,2.704,2.705,2.704,2.705-1.212,2.705-2.704-1.213-2.705-2.705-2.705Z"/>
  <path class="cls-1" d="M29.852,39.014c-.574,0-1.038-.464-1.038-1.038v-1.422c0-1.19-.483-2.355-1.324-3.196l-3.381-3.381c-.406-.406-.406-1.062,0-1.468s1.062-.406,1.468,0l3.381,3.381c1.246,1.246,1.932,2.902,1.932,4.664v1.422c0,.574-.464,1.038-1.038,1.038Z"/>
  <path class="cls-1" d="M22.093,31.274c-2.636,0-4.78-2.144-4.78-4.78s2.144-4.781,4.78-4.781,4.781,2.145,4.781,4.781-2.145,4.78-4.781,4.78ZM22.093,23.789c-1.491,0-2.704,1.213-2.704,2.705s1.212,2.704,2.704,2.704,2.705-1.212,2.705-2.704-1.213-2.705-2.705-2.705Z"/>
  <path class="cls-1" d="M40.086,76.284c-.574,0-1.038-.464-1.038-1.038v-10.659c0-.574.464-1.038,1.038-1.038s1.038.464,1.038,1.038v10.659c0,.574-.464,1.038-1.038,1.038Z"/>
  <path class="cls-1" d="M24.843,71.796c-.266,0-.531-.101-.734-.304-.406-.406-.406-1.062,0-1.468l3.381-3.381c.841-.841,1.324-2.006,1.324-3.196v-1.318c0-.574.464-1.038,1.038-1.038s1.038.464,1.038,1.038v1.318c0,1.762-.686,3.418-1.932,4.664l-3.381,3.381c-.203.203-.468.304-.734.304Z"/>
  <path class="cls-1" d="M40.086,83.769c-2.636,0-4.781-2.144-4.781-4.78s2.145-4.781,4.781-4.781,4.781,2.145,4.781,4.781-2.145,4.78-4.781,4.78ZM40.086,76.284c-1.491,0-2.705,1.213-2.705,2.705s1.213,2.704,2.705,2.704,2.705-1.212,2.705-2.704-1.213-2.705-2.705-2.705Z"/>
  <path class="cls-1" d="M22.093,78.287c-2.636,0-4.78-2.145-4.78-4.781s2.144-4.78,4.78-4.78,4.781,2.144,4.781,4.78-2.145,4.781-4.781,4.781ZM22.093,70.803c-1.491,0-2.704,1.212-2.704,2.704s1.212,2.705,2.704,2.705,2.705-1.213,2.705-2.705-1.213-2.704-2.705-2.704Z"/>
  <path class="cls-1" d="M55.547,71.796c-.266,0-.531-.101-.734-.304l-3.381-3.381c-1.245-1.245-1.931-2.901-1.931-4.664v-1.318c0-.574.464-1.038,1.038-1.038s1.038.464,1.038,1.038v1.318c0,1.208.469,2.343,1.323,3.196l3.381,3.381c.406.406.406,1.062,0,1.468-.203.203-.468.304-.734.304Z"/>
  <path class="cls-1" d="M58.298,78.287c-2.636,0-4.781-2.145-4.781-4.781s2.145-4.78,4.781-4.78,4.781,2.144,4.781,4.78-2.145,4.781-4.781,4.781ZM58.298,70.803c-1.491,0-2.705,1.212-2.705,2.704s1.213,2.705,2.705,2.705,2.705-1.213,2.705-2.705-1.213-2.704-2.705-2.704Z"/>
</svg>