<?xml version="1.0" encoding="utf-8"?>
<!-- Generator: Adobe Illustrator 28.2.0, SVG Export Plug-In . SVG Version: 6.00 Build 0)  -->
<svg version="1.1" id="Layer_1" xmlns="http://www.w3.org/2000/svg" xmlns:xlink="http://www.w3.org/1999/xlink" x="0px" y="0px"
	 viewBox="0 0 100 100" style="enable-background:new 0 0 100 100;" xml:space="preserve">
<style type="text/css">
	.st0{fill:#1BC7FF;}
	.st1{fill:#FFFFFF;}
</style>
<g>
	<g>
		<g>
			<g>
				<g>
					<rect x="7.3" y="74.5" class="st0" width="65.4" height="3.7"/>
				</g>
			</g>
			<g>
				<g>
					<g>
						<path class="st0" d="M7.3,66.3c-0.2,0-0.4-0.1-0.5-0.2c-0.1-0.1-0.2-0.3-0.2-0.5c0-0.1,0-0.2,0-0.3c0-0.1,0.1-0.2,0.2-0.2
							c0.3-0.3,0.7-0.3,1,0c0.1,0.1,0.1,0.1,0.1,0.2C8,65.4,8,65.5,8,65.6c0,0.2-0.1,0.4-0.2,0.5S7.5,66.3,7.3,66.3z"/>
					</g>
				</g>
				<g>
					<g>
						<path class="st0" d="M60.3,66.3c-0.4,0-0.7-0.3-0.7-0.7s0.3-0.7,0.7-0.7h0c0.4,0,0.7,0.3,0.7,0.7S60.7,66.3,60.3,66.3z
							 M55.5,66.3c-0.4,0-0.7-0.3-0.7-0.7s0.3-0.7,0.7-0.7h0c0.4,0,0.7,0.3,0.7,0.7S55.8,66.3,55.5,66.3z M50.6,66.3
							c-0.4,0-0.7-0.3-0.7-0.7s0.3-0.7,0.7-0.7h0c0.4,0,0.7,0.3,0.7,0.7S51,66.3,50.6,66.3z M45.8,66.3c-0.4,0-0.7-0.3-0.7-0.7
							s0.3-0.7,0.7-0.7h0c0.4,0,0.7,0.3,0.7,0.7S46.2,66.3,45.8,66.3z M41,66.3c-0.4,0-0.7-0.3-0.7-0.7s0.3-0.7,0.7-0.7h0
							c0.4,0,0.7,0.3,0.7,0.7S41.4,66.3,41,66.3z M36.2,66.3c-0.4,0-0.7-0.3-0.7-0.7s0.3-0.7,0.7-0.7h0c0.4,0,0.7,0.3,0.7,0.7
							S36.6,66.3,36.2,66.3z M31.4,66.3c-0.4,0-0.7-0.3-0.7-0.7s0.3-0.7,0.7-0.7h0c0.4,0,0.7,0.3,0.7,0.7S31.8,66.3,31.4,66.3z
							 M26.6,66.3c-0.4,0-0.7-0.3-0.7-0.7s0.3-0.7,0.7-0.7h0c0.4,0,0.7,0.3,0.7,0.7S27,66.3,26.6,66.3z M21.8,66.3
							c-0.4,0-0.7-0.3-0.7-0.7s0.3-0.7,0.7-0.7h0c0.4,0,0.7,0.3,0.7,0.7S22.1,66.3,21.8,66.3z M16.9,66.3c-0.4,0-0.7-0.3-0.7-0.7
							s0.3-0.7,0.7-0.7h0c0.4,0,0.7,0.3,0.7,0.7S17.3,66.3,16.9,66.3z M12.1,66.3c-0.4,0-0.7-0.3-0.7-0.7s0.3-0.7,0.7-0.7h0
							c0.4,0,0.7,0.3,0.7,0.7S12.5,66.3,12.1,66.3z"/>
					</g>
				</g>
				<g>
					<g>
						<path class="st0" d="M65.1,66.3c-0.1,0-0.2,0-0.3,0c-0.1,0-0.2-0.1-0.2-0.2c-0.1-0.1-0.2-0.3-0.2-0.5c0-0.1,0-0.2,0.1-0.3
							c0-0.1,0.1-0.2,0.1-0.2c0.1-0.1,0.1-0.1,0.2-0.1c0.3-0.1,0.6,0,0.8,0.1c0.1,0.1,0.1,0.1,0.2,0.2c0,0.1,0,0.2,0,0.3
							c0,0.2-0.1,0.4-0.2,0.5C65.5,66.2,65.3,66.3,65.1,66.3z"/>
					</g>
				</g>
			</g>
			<g>
				<g>
					<g>
						<path class="st0" d="M7.3,55.5c-0.1,0-0.2,0-0.3-0.1c-0.1,0-0.2-0.1-0.2-0.1c-0.1-0.1-0.2-0.3-0.2-0.5c0-0.2,0.1-0.4,0.2-0.5
							C6.9,54.3,7,54.2,7,54.2c0.2-0.1,0.4-0.1,0.5,0c0.1,0,0.2,0.1,0.2,0.1C7.9,54.4,8,54.6,8,54.8C8,54.9,8,55,8,55.1
							c0,0.1-0.1,0.2-0.1,0.2c-0.1,0.1-0.1,0.1-0.2,0.1C7.5,55.5,7.4,55.5,7.3,55.5z"/>
					</g>
				</g>
				<g>
					<g>
						<path class="st0" d="M54.7,55.5c-0.4,0-0.7-0.3-0.7-0.7s0.3-0.7,0.7-0.7h0c0.4,0,0.7,0.3,0.7,0.7S55.1,55.5,54.7,55.5z
							 M49.9,55.5c-0.4,0-0.7-0.3-0.7-0.7s0.3-0.7,0.7-0.7h0c0.4,0,0.7,0.3,0.7,0.7S50.3,55.5,49.9,55.5z M45.2,55.5
							c-0.4,0-0.7-0.3-0.7-0.7s0.3-0.7,0.7-0.7h0c0.4,0,0.7,0.3,0.7,0.7S45.6,55.5,45.2,55.5z M40.5,55.5c-0.4,0-0.7-0.3-0.7-0.7
							s0.3-0.7,0.7-0.7h0c0.4,0,0.7,0.3,0.7,0.7S40.8,55.5,40.5,55.5z M35.7,55.5c-0.4,0-0.7-0.3-0.7-0.7s0.3-0.7,0.7-0.7h0
							c0.4,0,0.7,0.3,0.7,0.7S36.1,55.5,35.7,55.5z M31,55.5c-0.4,0-0.7-0.3-0.7-0.7s0.3-0.7,0.7-0.7h0c0.4,0,0.7,0.3,0.7,0.7
							S31.4,55.5,31,55.5z M26.3,55.5c-0.4,0-0.7-0.3-0.7-0.7s0.3-0.7,0.7-0.7h0c0.4,0,0.7,0.3,0.7,0.7S26.6,55.5,26.3,55.5z
							 M21.5,55.5c-0.4,0-0.7-0.3-0.7-0.7s0.3-0.7,0.7-0.7h0c0.4,0,0.7,0.3,0.7,0.7S21.9,55.5,21.5,55.5z M16.8,55.5
							c-0.4,0-0.7-0.3-0.7-0.7s0.3-0.7,0.7-0.7h0c0.4,0,0.7,0.3,0.7,0.7S17.2,55.5,16.8,55.5z M12,55.5c-0.4,0-0.7-0.3-0.7-0.7
							s0.3-0.7,0.7-0.7h0c0.4,0,0.7,0.3,0.7,0.7S12.4,55.5,12,55.5z"/>
					</g>
				</g>
				<g>
					<g>
						<path class="st0" d="M59.4,55.5c-0.1,0-0.2,0-0.3-0.1c-0.1,0-0.2-0.1-0.2-0.1c-0.1-0.1-0.1-0.1-0.1-0.2c0-0.1,0-0.2,0-0.3
							c0-0.2,0.1-0.4,0.2-0.5c0.1-0.1,0.1-0.1,0.2-0.1c0.2-0.1,0.4-0.1,0.5,0c0.1,0,0.2,0.1,0.2,0.1c0.1,0.1,0.2,0.3,0.2,0.5
							c0,0.2-0.1,0.4-0.2,0.5c-0.1,0.1-0.1,0.1-0.2,0.1C59.6,55.5,59.5,55.5,59.4,55.5z"/>
					</g>
				</g>
			</g>
			<g>
				<g>
					<g>
						<path class="st0" d="M7.3,44.7c-0.1,0-0.2,0-0.3-0.1c-0.1,0-0.2-0.1-0.2-0.1c-0.1-0.1-0.2-0.3-0.2-0.5c0-0.2,0.1-0.4,0.2-0.5
							C6.9,43.5,7,43.4,7,43.4c0.3-0.1,0.6,0,0.8,0.1c0.1,0.1,0.1,0.1,0.1,0.2C8,43.8,8,43.9,8,44c0,0.1,0,0.2-0.1,0.3
							c0,0.1-0.1,0.2-0.1,0.2C7.7,44.7,7.5,44.7,7.3,44.7z"/>
					</g>
				</g>
				<g>
					<g>
						<path class="st0" d="M53.1,44.7c-0.4,0-0.7-0.3-0.7-0.7s0.3-0.7,0.7-0.7h0c0.4,0,0.7,0.3,0.7,0.7S53.4,44.7,53.1,44.7z
							 M48.5,44.7c-0.4,0-0.7-0.3-0.7-0.7s0.3-0.7,0.7-0.7h0c0.4,0,0.7,0.3,0.7,0.7S48.9,44.7,48.5,44.7z M43.9,44.7
							c-0.4,0-0.7-0.3-0.7-0.7s0.3-0.7,0.7-0.7h0c0.4,0,0.7,0.3,0.7,0.7S44.3,44.7,43.9,44.7z M39.3,44.7c-0.4,0-0.7-0.3-0.7-0.7
							s0.3-0.7,0.7-0.7h0c0.4,0,0.7,0.3,0.7,0.7S39.7,44.7,39.3,44.7z M34.8,44.7c-0.4,0-0.7-0.3-0.7-0.7s0.3-0.7,0.7-0.7h0
							c0.4,0,0.7,0.3,0.7,0.7S35.1,44.7,34.8,44.7z M30.2,44.7c-0.4,0-0.7-0.3-0.7-0.7s0.3-0.7,0.7-0.7h0c0.4,0,0.7,0.3,0.7,0.7
							S30.6,44.7,30.2,44.7z M25.6,44.7c-0.4,0-0.7-0.3-0.7-0.7s0.3-0.7,0.7-0.7h0c0.4,0,0.7,0.3,0.7,0.7S26,44.7,25.6,44.7z
							 M21,44.7c-0.4,0-0.7-0.3-0.7-0.7s0.3-0.7,0.7-0.7h0c0.4,0,0.7,0.3,0.7,0.7S21.4,44.7,21,44.7z M16.5,44.7
							c-0.4,0-0.7-0.3-0.7-0.7s0.3-0.7,0.7-0.7h0c0.4,0,0.7,0.3,0.7,0.7S16.8,44.7,16.5,44.7z M11.9,44.7c-0.4,0-0.7-0.3-0.7-0.7
							s0.3-0.7,0.7-0.7h0c0.4,0,0.7,0.3,0.7,0.7S12.3,44.7,11.9,44.7z"/>
					</g>
				</g>
				<g>
					<g>
						<path class="st0" d="M57.6,44.7c-0.2,0-0.4-0.1-0.5-0.2c-0.1-0.1-0.2-0.3-0.2-0.5c0-0.2,0.1-0.4,0.2-0.5c0.3-0.3,0.7-0.3,1,0
							c0.1,0.1,0.2,0.3,0.2,0.5c0,0.2-0.1,0.4-0.2,0.5C58,44.7,57.8,44.7,57.6,44.7z"/>
					</g>
				</g>
			</g>
			<g>
				<g>
					<g>
						<path class="st0" d="M72.7,33.9c-0.1,0-0.2,0-0.3,0c-0.1,0-0.2-0.1-0.2-0.2c-0.1-0.1-0.1-0.1-0.1-0.2c0-0.1-0.1-0.2-0.1-0.3
							s0-0.2,0.1-0.3c0-0.1,0.1-0.2,0.1-0.2c0.1-0.1,0.1-0.1,0.2-0.1c0.2-0.1,0.4-0.1,0.5,0c0.1,0,0.2,0.1,0.2,0.1
							c0.1,0.1,0.1,0.1,0.1,0.2c0,0.1,0.1,0.2,0.1,0.3s0,0.2-0.1,0.3s-0.1,0.2-0.1,0.2c-0.1,0.1-0.1,0.1-0.2,0.2
							C72.9,33.9,72.8,33.9,72.7,33.9z"/>
					</g>
				</g>
				<g>
					<g>
						<path class="st0" d="M68,33.9L68,33.9c-0.4,0-0.7-0.3-0.7-0.7s0.3-0.7,0.7-0.7s0.7,0.3,0.7,0.7S68.4,33.9,68,33.9z M63.3,33.9
							L63.3,33.9c-0.4,0-0.7-0.3-0.7-0.7s0.3-0.7,0.7-0.7s0.7,0.3,0.7,0.7S63.7,33.9,63.3,33.9z M58.7,33.9L58.7,33.9
							c-0.4,0-0.7-0.3-0.7-0.7s0.3-0.7,0.7-0.7c0.4,0,0.7,0.3,0.7,0.7S59.1,33.9,58.7,33.9z M54,33.9L54,33.9
							c-0.4,0-0.7-0.3-0.7-0.7s0.3-0.7,0.7-0.7s0.7,0.3,0.7,0.7S54.4,33.9,54,33.9z M49.3,33.9L49.3,33.9c-0.4,0-0.7-0.3-0.7-0.7
							s0.3-0.7,0.7-0.7s0.7,0.3,0.7,0.7S49.7,33.9,49.3,33.9z M44.7,33.9L44.7,33.9c-0.4,0-0.7-0.3-0.7-0.7s0.3-0.7,0.7-0.7
							s0.7,0.3,0.7,0.7S45.1,33.9,44.7,33.9z M40,33.9L40,33.9c-0.4,0-0.7-0.3-0.7-0.7s0.3-0.7,0.7-0.7s0.7,0.3,0.7,0.7
							S40.4,33.9,40,33.9z M35.3,33.9L35.3,33.9c-0.4,0-0.7-0.3-0.7-0.7s0.3-0.7,0.7-0.7s0.7,0.3,0.7,0.7S35.7,33.9,35.3,33.9z
							 M30.7,33.9L30.7,33.9c-0.4,0-0.7-0.3-0.7-0.7s0.3-0.7,0.7-0.7s0.7,0.3,0.7,0.7S31,33.9,30.7,33.9z M26,33.9L26,33.9
							c-0.4,0-0.7-0.3-0.7-0.7s0.3-0.7,0.7-0.7c0.4,0,0.7,0.3,0.7,0.7S26.4,33.9,26,33.9z M21.3,33.9L21.3,33.9
							c-0.4,0-0.7-0.3-0.7-0.7s0.3-0.7,0.7-0.7s0.7,0.3,0.7,0.7S21.7,33.9,21.3,33.9z M16.7,33.9L16.7,33.9c-0.4,0-0.7-0.3-0.7-0.7
							s0.3-0.7,0.7-0.7c0.4,0,0.7,0.3,0.7,0.7S17,33.9,16.7,33.9z M12,33.9L12,33.9c-0.4,0-0.7-0.3-0.7-0.7s0.3-0.7,0.7-0.7
							c0.4,0,0.7,0.3,0.7,0.7S12.4,33.9,12,33.9z"/>
					</g>
				</g>
				<g>
					<g>
						<path class="st0" d="M7.3,33.9c-0.1,0-0.2,0-0.3,0c-0.1,0-0.2-0.1-0.2-0.2c-0.1-0.1-0.1-0.1-0.2-0.2c0-0.1,0-0.2,0-0.3
							s0-0.2,0-0.3c0-0.1,0.1-0.2,0.2-0.2C6.9,32.7,7,32.6,7,32.6c0.2-0.1,0.4-0.1,0.5,0c0.1,0,0.2,0.1,0.2,0.1
							C7.9,32.8,7.9,32.9,8,33C8,33.1,8,33.1,8,33.2s0,0.2-0.1,0.3c0,0.1-0.1,0.2-0.1,0.2c-0.1,0.1-0.1,0.1-0.2,0.2
							C7.5,33.9,7.4,33.9,7.3,33.9z"/>
					</g>
				</g>
			</g>
			<g>
				<g>
					<g>
						<path class="st0" d="M7.3,23.1c-0.2,0-0.4-0.1-0.5-0.2c-0.1-0.1-0.2-0.3-0.2-0.5s0.1-0.4,0.2-0.5C6.9,21.9,7,21.8,7,21.8
							c0.2-0.1,0.4-0.1,0.5,0c0.1,0,0.2,0.1,0.2,0.1C7.9,22,7.9,22.1,8,22.2C8,22.3,8,22.4,8,22.4c0,0.1,0,0.2-0.1,0.3
							c0,0.1-0.1,0.2-0.1,0.2C7.7,23.1,7.5,23.1,7.3,23.1z"/>
					</g>
				</g>
				<g>
					<g>
						<path class="st0" d="M68,23.1c-0.4,0-0.7-0.3-0.7-0.7s0.3-0.7,0.7-0.7h0c0.4,0,0.7,0.3,0.7,0.7S68.4,23.1,68,23.1z M63.3,23.1
							c-0.4,0-0.7-0.3-0.7-0.7s0.3-0.7,0.7-0.7h0c0.4,0,0.7,0.3,0.7,0.7S63.7,23.1,63.3,23.1z M58.7,23.1c-0.4,0-0.7-0.3-0.7-0.7
							s0.3-0.7,0.7-0.7h0c0.4,0,0.7,0.3,0.7,0.7S59.1,23.1,58.7,23.1z M54,23.1c-0.4,0-0.7-0.3-0.7-0.7s0.3-0.7,0.7-0.7h0
							c0.4,0,0.7,0.3,0.7,0.7S54.4,23.1,54,23.1z M49.3,23.1c-0.4,0-0.7-0.3-0.7-0.7s0.3-0.7,0.7-0.7h0c0.4,0,0.7,0.3,0.7,0.7
							S49.7,23.1,49.3,23.1z M44.7,23.1c-0.4,0-0.7-0.3-0.7-0.7s0.3-0.7,0.7-0.7h0c0.4,0,0.7,0.3,0.7,0.7S45,23.1,44.7,23.1z
							 M40,23.1c-0.4,0-0.7-0.3-0.7-0.7s0.3-0.7,0.7-0.7h0c0.4,0,0.7,0.3,0.7,0.7S40.4,23.1,40,23.1z M35.3,23.1
							c-0.4,0-0.7-0.3-0.7-0.7s0.3-0.7,0.7-0.7h0c0.4,0,0.7,0.3,0.7,0.7S35.7,23.1,35.3,23.1z M30.7,23.1c-0.4,0-0.7-0.3-0.7-0.7
							s0.3-0.7,0.7-0.7h0c0.4,0,0.7,0.3,0.7,0.7S31,23.1,30.7,23.1z M26,23.1c-0.4,0-0.7-0.3-0.7-0.7s0.3-0.7,0.7-0.7h0
							c0.4,0,0.7,0.3,0.7,0.7S26.4,23.1,26,23.1z M21.3,23.1c-0.4,0-0.7-0.3-0.7-0.7s0.3-0.7,0.7-0.7h0c0.4,0,0.7,0.3,0.7,0.7
							S21.7,23.1,21.3,23.1z M16.6,23.1c-0.4,0-0.7-0.3-0.7-0.7s0.3-0.7,0.7-0.7h0c0.4,0,0.7,0.3,0.7,0.7S17,23.1,16.6,23.1z
							 M12,23.1c-0.4,0-0.7-0.3-0.7-0.7s0.3-0.7,0.7-0.7h0c0.4,0,0.7,0.3,0.7,0.7S12.4,23.1,12,23.1z"/>
					</g>
				</g>
				<g>
					<g>
						<path class="st0" d="M72.7,23.1c-0.2,0-0.4-0.1-0.5-0.2c-0.1-0.1-0.2-0.3-0.2-0.5s0.1-0.4,0.2-0.5c0.2-0.2,0.5-0.3,0.8-0.1
							c0.1,0,0.2,0.1,0.2,0.1c0.1,0.1,0.2,0.3,0.2,0.5s-0.1,0.4-0.2,0.5C73,23.1,72.9,23.1,72.7,23.1z"/>
					</g>
				</g>
			</g>
		</g>
	</g>
	<g>
		<g>
			<path class="st0" d="M66.4,48.8l0-3.8c0-6.6,5.3-12,11.9-12.1c6.6,0,12,5.3,12.1,11.9l0,4H66.4z"/>
		</g>
		<g>
			<polygon class="st0" points="93.4,58.3 63.6,58.5 66.5,53.8 66.5,52.1 90.5,52.1 90.5,53.8 			"/>
		</g>
		<g>
			<path class="st0" d="M80.5,31.3l0,0.8c-0.7-0.1-1.5-0.2-2.2-0.2c-0.8,0-1.5,0.1-2.2,0.2l0-0.8c0-1.2,1-2.2,2.2-2.2
				c0.6,0,1.2,0.2,1.6,0.6C80.3,30.1,80.5,30.7,80.5,31.3z"/>
		</g>
		<g>
			<path class="st0" d="M83,57.6c0,2.2-1.8,4.1-4,4.1s-4.1-1.8-4.1-4C78.1,57.6,79.5,57.6,83,57.6z"/>
		</g>
		<g>
			<path class="st0" d="M79,70.7c-0.5,0-0.9-0.4-0.9-0.9v-5.3c0-0.5,0.4-0.9,0.9-0.9s0.9,0.4,0.9,0.9v5.3
				C79.9,70.3,79.5,70.7,79,70.7z"/>
		</g>
		<g>
			<path class="st0" d="M85.9,68.9c-0.3,0-0.6-0.2-0.8-0.5l-2.7-4.6c-0.3-0.4-0.1-1,0.3-1.3c0.4-0.3,1-0.1,1.3,0.3l2.7,4.6
				c0.3,0.4,0.1,1-0.3,1.3C86.3,68.8,86.1,68.9,85.9,68.9z"/>
		</g>
		<g>
			<path class="st0" d="M89.7,63.1c-0.2,0-0.3,0-0.5-0.1L86,61c-0.4-0.3-0.6-0.8-0.3-1.3c0.3-0.4,0.8-0.6,1.3-0.3l3.3,1.9
				c0.4,0.3,0.6,0.8,0.3,1.3C90.3,62.9,90,63.1,89.7,63.1z"/>
		</g>
		<g>
			<path class="st0" d="M72,68.9c-0.2,0-0.3,0-0.5-0.1c-0.4-0.3-0.6-0.8-0.3-1.3l2.7-4.6c0.3-0.4,0.8-0.6,1.3-0.3
				c0.4,0.3,0.6,0.8,0.3,1.3l-2.7,4.6C72.7,68.8,72.3,68.9,72,68.9z"/>
		</g>
		<g>
			<path class="st0" d="M68.4,63.1c-0.3,0-0.6-0.2-0.8-0.5c-0.3-0.4-0.1-1,0.3-1.3l3.1-1.8c0.4-0.3,1-0.1,1.3,0.3
				c0.3,0.4,0.1,1-0.3,1.3l-3.1,1.8C68.7,63,68.5,63.1,68.4,63.1z"/>
		</g>
	</g>
	<g>
		<path class="st0" d="M34.8,61.3c-0.3,0-0.6-0.1-0.7-0.4L22.6,45.6l-7.3,9.8c-0.3,0.4-0.9,0.5-1.3,0.2c-0.4-0.3-0.5-0.9-0.2-1.3
			l8-10.8c0.2-0.2,0.5-0.4,0.7-0.4c0,0,0,0,0,0c0.3,0,0.6,0.1,0.7,0.4l11.4,15.3l19-26.1c0.3-0.4,0.8-0.5,1.3-0.2l16.7,10.8
			c0.4,0.3,0.6,0.9,0.3,1.3c-0.3,0.4-0.9,0.6-1.3,0.3L54.8,34.5L35.5,60.9C35.3,61.1,35.1,61.3,34.8,61.3
			C34.8,61.3,34.8,61.3,34.8,61.3z"/>
	</g>
	<g>
		<circle class="st1" cx="22.7" cy="44" r="4.2"/>
		<path class="st0" d="M22.7,49.1c-2.8,0-5.1-2.3-5.1-5.1c0-2.8,2.3-5.1,5.1-5.1s5.1,2.3,5.1,5.1C27.8,46.8,25.5,49.1,22.7,49.1z
			 M22.7,40.8c-1.8,0-3.3,1.5-3.3,3.3c0,1.8,1.5,3.3,3.3,3.3s3.3-1.5,3.3-3.3C25.9,42.2,24.5,40.8,22.7,40.8z"/>
	</g>
	<g>
		<circle class="st1" cx="35.6" cy="60.3" r="4.2"/>
		<path class="st0" d="M35.6,65.5c-2.8,0-5.1-2.3-5.1-5.1c0-2.8,2.3-5.1,5.1-5.1s5.1,2.3,5.1,5.1C40.7,63.2,38.4,65.5,35.6,65.5z
			 M35.6,57.1c-1.8,0-3.3,1.5-3.3,3.3c0,1.8,1.5,3.3,3.3,3.3s3.3-1.5,3.3-3.3C38.9,58.5,37.4,57.1,35.6,57.1z"/>
	</g>
	<g>
		<circle class="st1" cx="55.2" cy="34.3" r="4.2"/>
		<path class="st0" d="M55.2,39.4c-2.8,0-5.1-2.3-5.1-5.1c0-2.8,2.3-5.1,5.1-5.1s5.1,2.3,5.1,5.1C60.3,37.1,58,39.4,55.2,39.4z
			 M55.2,31c-1.8,0-3.3,1.5-3.3,3.3c0,1.8,1.5,3.3,3.3,3.3s3.3-1.5,3.3-3.3C58.5,32.5,57,31,55.2,31z"/>
	</g>
</g>
</svg>
