<?xml version="1.0" encoding="UTF-8"?>
<svg id="Layer_1" data-name="Layer 1" xmlns="http://www.w3.org/2000/svg" version="1.1" viewBox="0 0 100 100">
  <defs>
    <style>
      .cls-1 {
        fill: #2868ee;
        stroke-width: 0px;
      }
    </style>
  </defs>
  <path class="cls-1" d="M71.061,32.222H31.423c-2.603,0-4.732,2.129-4.732,4.732v31.283c0,2.613,2.129,4.743,4.732,4.743h26.943l-.444-2.018h-26.499c-1.493,0-2.714-1.221-2.714-2.725v-25.794h45.067v13.958l2.018.444v-19.889c0-2.604-2.119-4.732-4.732-4.732h-.001ZM70.003,37.394c0,.341-.274.609-.609.609h-22.569c-.335,0-.609-.268-.609-.609,0-.335.274-.609.609-.609h22.569c.335,0,.609.274.609.609ZM43.01,37.394c0,.681-.554,1.236-1.23,1.236-.681,0-1.236-.553-1.236-1.236,0-.675.553-1.23,1.236-1.23.675,0,1.23.553,1.23,1.23ZM39.017,37.394c0,.681-.553,1.236-1.23,1.236-.681,0-1.236-.553-1.236-1.236,0-.675.554-1.23,1.236-1.23.675,0,1.23.553,1.23,1.23ZM35.024,37.394c0,.681-.548,1.236-1.23,1.236s-1.236-.553-1.236-1.236c0-.675.554-1.23,1.236-1.23s1.23.553,1.23,1.23Z"/>
  <path class="cls-1" d="M80.342,72.477l-9.164-6.994,5.487-3.44c.822-.516.605-1.769-.343-1.977l-16.933-3.725c-.773-.17-1.462.519-1.291,1.291l3.725,16.933c.209.948,1.462,1.166,1.977.343l3.472-5.539,7.191,9.005c.232.291.666.315.928.051l5.012-5.012c.267-.267.237-.708-.063-.938h.002Z"/>
  <path class="cls-1" d="M27.7,47.749h-10.744c-2.04,0-3.699-1.659-3.699-3.698v-14.531c0-2.039,1.659-3.698,3.699-3.698h23.891c2.039,0,3.698,1.659,3.698,3.698v4.08c0,.558-.452,1.009-1.009,1.009s-1.009-.452-1.009-1.009v-4.08c0-.926-.754-1.68-1.68-1.68h-23.891c-.927,0-1.681.754-1.681,1.68v14.531c0,.926.754,1.68,1.681,1.68h10.744c.558,0,1.009.452,1.009,1.009s-.452,1.009-1.009,1.009Z"/>
  <path class="cls-1" d="M38.817,79.633h-16.875c-1.978,0-3.587-1.61-3.587-3.587v-13.133c0-1.978,1.61-3.586,3.587-3.586h5.272c.558,0,1.009.452,1.009,1.009s-.452,1.009-1.009,1.009h-5.272c-.865,0-1.569.703-1.569,1.568v13.133c0,.865.704,1.569,1.569,1.569h16.875c.864,0,1.568-.703,1.568-1.569v-4.077c0-.558.452-1.009,1.009-1.009s1.009.452,1.009,1.009v4.077c0,1.978-1.609,3.587-3.586,3.587Z"/>
  <path class="cls-1" d="M82.675,46.253h-7.889c-.558,0-1.009-.452-1.009-1.009s.452-1.009,1.009-1.009h7.889c1.13,0,2.05-.92,2.05-2.049v-17.75c0-1.13-.92-2.05-2.05-2.05h-25.449c-1.13,0-2.049.92-2.049,2.05v9.552c0,.558-.452,1.009-1.009,1.009s-1.009-.452-1.009-1.009v-9.552c0-2.243,1.824-4.068,4.067-4.068h25.449c2.243,0,4.068,1.825,4.068,4.068v17.75c0,2.243-1.825,4.067-4.068,4.067Z"/>
  <path class="cls-1" d="M62.343,49.64h-22.191c-3.683,0-6.68,2.998-6.68,6.671s2.997,6.68,6.68,6.68h16.015l-.444-2.018h-15.57c-2.574,0-4.662-2.088-4.662-4.662s2.088-4.653,4.662-4.653h22.191c2.058,0,3.804,1.342,4.419,3.199l2.18.484c-.475-3.219-3.259-5.702-6.599-5.702Z"/>
</svg>