<?xml version="1.0" encoding="UTF-8"?>
<svg id="Layer_1" data-name="Layer 1" xmlns="http://www.w3.org/2000/svg" version="1.1" viewBox="0 0 100 100">
  <defs>
    <style>
      .cls-1 {
        fill: #1bbeff;
        stroke-width: 0px;
      }
    </style>
  </defs>
  <path class="cls-1" d="M80.101,47.344l-29.658,11.554-21.982-7.645-12.367-5.883.027,2.224c.064.959.667,1.791,1.571,2.147l27.206,10.844c1.644.658,3.38.987,5.107.987s3.462-.329,5.107-.987l27.206-10.853c.904-.356,1.507-.265,1.571-1.224v-3.138l-3.787,1.974Z"/>
  <path class="cls-1" d="M80.101,57.532l-29.658,11.554-21.982-7.645-12.367-5.883.027,2.224c.064.959.667,1.791,1.571,2.147l27.206,10.844c1.644.658,3.38.987,5.107.987s3.462-.329,5.107-.987l27.206-10.853c.904-.356,1.507-.265,1.571-1.224v-3.138l-3.787,1.974Z"/>
  <path class="cls-1" d="M80.101,67.591l-29.658,11.554-21.982-7.645-12.367-5.883.027,2.224c.064.959.667,1.791,1.571,2.147l27.206,10.844c1.644.658,3.38.987,5.107.987s3.462-.329,5.107-.987l27.206-10.853c.904-.356,1.507-.265,1.571-1.224v-3.138l-3.787,1.974Z"/>
  <g>
    <path class="cls-1" d="M73.121,61.444l8.52,3.403c.411.164.439.539.439.649s-.027.484-.439.649l-27.206,10.835c-2.859,1.142-6.002,1.142-8.862,0l-27.206-10.844c-.411-.164-.438-.539-.438-.649s.027-.484.438-.649l8.52-3.397-9.196-3.656,6.733,2.677-6.733,2.686c-.968.384-1.59,1.306-1.59,2.348s.621,1.964,1.59,2.348l27.206,10.844c1.644.658,3.38.987,5.107.987s3.462-.329,5.107-.987l27.206-10.853c.968-.384,1.59-1.306,1.59-2.348s-.621-1.964-1.59-2.348l-6.733-2.677,6.733-2.686-9.196,3.668Z"/>
    <path class="cls-1" d="M26.892,61.439l18.006,7.171c1.644.658,3.38.987,5.107.987s3.462-.329,5.107-.987l17.997-7.171.013.005,9.196-3.668c.968-.384,1.59-1.306,1.59-2.339,0-1.041-.621-1.964-1.59-2.348l-6.733-2.686-2.468.984,8.506,3.392c.411.164.438.539.438.649s-.009.493-.42.649l-8.889,3.545-18.317,7.299c-2.859,1.142-6.002,1.142-8.862,0l-18.317-7.299-8.889-3.545c-.411-.164-.438-.539-.438-.649s.027-.484.438-.649l8.517-3.396-9.202-3.666,6.742,2.686-6.733,2.686c-.968.384-1.59,1.306-1.59,2.348s.621,1.964,1.59,2.348l9.196,3.656.004-.002Z"/>
    <polygon class="cls-1" points="59.166 36.764 55.123 41.56 58.074 41.56 62.062 36.764 58.074 31.968 55.123 31.968 59.166 36.764"/>
    <polygon class="cls-1" points="42.327 41.569 45.278 41.569 41.235 36.773 45.278 31.977 42.327 31.977 38.339 36.773 42.327 41.569"/>
    <polygon class="cls-1" points="47.986 44.776 54.712 27.872 52.301 27.872 45.574 44.776 47.986 44.776"/>
    <path class="cls-1" d="M81.641,46.027c.411-.164.439-.539.439-.649s-.027-.484-.439-.649l-13.119-5.235v-1.973l13.795,5.5c.968.384,1.59,1.306,1.59,2.348s-.621,1.964-1.59,2.348l-6.733,2.686-2.468.984-.017-.007-17.997,7.171c-1.644.658-3.38.987-5.107.987s-3.462-.329-5.107-.987l-17.997-7.171-.006.003-9.202-3.666c-.968-.384-1.59-1.306-1.59-2.348s.621-1.964,1.59-2.348l13.804-5.5v1.973l-13.119,5.226c-.411.164-.438.539-.438.649,0,.119.027.493.438.649l8.891,3.545,18.315,7.298c2.859,1.142,6.002,1.142,8.862,0l27.206-10.835Z"/>
    <path class="cls-1" d="M68.522,51.706v-26.7c0-.018-.009-.037-.009-.055-.009-.082-.018-.155-.046-.238-.009-.027-.018-.055-.027-.082-.046-.1-.1-.192-.183-.265l-5.92-5.92c-.082-.082-.174-.137-.265-.183-.027-.009-.055-.018-.082-.027-.082-.027-.155-.046-.237-.046-.018,0-.037-.009-.055-.009h-29.298c-.503,0-.914.411-.914.914v32.343l1.836.955V20.009h-.009,27.452v5.006c0,.502.411.914.914.914h5.006s.018,26.723.018,26.76l1.818-.983Z"/>
  </g>
</svg>