<?xml version="1.0" encoding="utf-8"?>
<!-- Generator: Adobe Illustrator 28.2.0, SVG Export Plug-In . SVG Version: 6.00 Build 0)  -->
<svg version="1.1" id="Layer_1" xmlns="http://www.w3.org/2000/svg" xmlns:xlink="http://www.w3.org/1999/xlink" x="0px" y="0px"
	 viewBox="0 0 100 100" style="enable-background:new 0 0 100 100;" xml:space="preserve">
<style type="text/css">
	.st0{fill:#835EDD;}
</style>
<g>
	<g>
		<g>
			<g>
				<path class="st0" d="M44.4,53c-7.2,0-13-5.8-13-13s5.9-13,13-13s13.1,5.8,13.1,13S51.6,53,44.4,53z M44.4,28.8
					c-6.2,0-11.2,5-11.2,11.3s5,11.2,11.2,11.2s11.2-5,11.2-11.2S50.6,28.8,44.4,28.8z"/>
			</g>
			<g>
				<path class="st0" d="M72,74.8h-1.8c0-8.8-4.4-17.5-11.2-22.2c-3.7,4.3-8.9,6.8-14.6,6.8s-11-2.4-14.6-6.8
					C23,57.2,18.6,65.8,18.6,74.8h-1.8c0-9.7,4.9-19.3,12.7-24.2c0.4-0.3,0.9-0.2,1.2,0.2C34,55,39,57.4,44.3,57.4
					c5.4,0,10.3-2.4,13.7-6.7c0.3-0.4,0.8-0.5,1.2-0.2C67,55.5,72,65,72,74.8z"/>
			</g>
		</g>
		<g>
			<g>
				<path class="st0" d="M44.4,53c-7.2,0-13-5.8-13-13s5.9-13,13-13s13.1,5.8,13.1,13S51.6,53,44.4,53z M44.4,28.8
					c-6.2,0-11.2,5-11.2,11.3s5,11.2,11.2,11.2s11.2-5,11.2-11.2S50.6,28.8,44.4,28.8z"/>
			</g>
			<g>
				<path class="st0" d="M72,74.8h-1.8c0-8.8-4.4-17.5-11.2-22.2c-3.7,4.3-8.9,6.8-14.6,6.8s-11-2.4-14.6-6.8
					C23,57.2,18.6,65.8,18.6,74.8h-1.8c0-9.7,4.9-19.3,12.7-24.2c0.4-0.3,0.9-0.2,1.2,0.2C34,55,39,57.4,44.3,57.4
					c5.4,0,10.3-2.4,13.7-6.7c0.3-0.4,0.8-0.5,1.2-0.2C67,55.5,72,65,72,74.8z"/>
			</g>
		</g>
		<g>
			<g>
				<path class="st0" d="M88.6,39.5l-3.2-1c-0.4-1.1-0.7-2.2-1.3-3.2l1.5-2.9c0.3-0.5,0.3-1-0.1-1.4l-3-3c-0.4-0.4-0.9-0.4-1.3-0.1
					l-2.9,1.5c-1-0.5-2.1-1-3.2-1.4l-1-3.1c-0.1-0.4-0.5-0.8-1-0.8H69c-0.4,0-0.9,0.4-1,0.8l-1,3.1c-1.1,0.3-2.2,0.8-3.2,1.4
					c-4.4-2.2-3.1-2.4-6.6,1c2,2.6,3.2,5.9,3.2,9.4h1.4c0.5-1.5,1.3-3.1,2.5-4.2l0,0c9.3-8.8,22.6,4.4,13.8,13.8l0,0
					c-3.4,3.4-9.4,3.9-13.1,0.6l-0.7,0.5c3.3,2.9,5.9,6.3,7.7,10.3c0.7,0,2,0.2,2.2-0.8l1-3.1c1.1-0.3,2.2-0.7,3.2-1.3l2.9,1.5
					c0.4,0.3,1,0.3,1.3-0.1l1.5-1.5l0,0l0,0l1.5-1.5c0.4-0.4,0.4-0.9,0.1-1.4l-1.5-2.9c0.5-1,1-2.1,1.3-3.1l3.2-1
					c0.5-0.1,0.8-0.5,0.8-1v-4.2C89.5,40,89.1,39.6,88.6,39.5z"/>
			</g>
			<g>
				<path class="st0" d="M71.1,37.8c2.7,0,4.9,2.2,4.9,4.9c0,0.1,0,0.1,0,0.2c-0.1,2.6-2.2,4.7-4.9,4.7c-2.7,0-4.9-2.2-4.9-4.9
					c0-0.1,0-0.1,0-0.2C66.4,39.8,68.5,37.8,71.1,37.8 M71.1,36c-3.7,0-6.7,3-6.7,6.7l0,0c0,3.7,3,6.7,6.7,6.7c3.7,0,6.7-3,6.7-6.7
					l0,0C77.7,38.9,74.7,36,71.1,36L71.1,36z"/>
			</g>
		</g>
	</g>
	<g>
		<rect x="10.5" y="73.9" class="st0" width="20.3" height="1.8"/>
	</g>
	<g>
		<rect x="42" y="73.9" class="st0" width="36.9" height="1.8"/>
	</g>
	<g>
		<circle class="st0" cx="38.6" cy="74.8" r="1"/>
	</g>
	<g>
		<circle class="st0" cx="34.2" cy="74.8" r="1"/>
	</g>
</g>
</svg>
