<?xml version="1.0" encoding="UTF-8"?>
<svg id="Layer_1" data-name="Layer 1" xmlns="http://www.w3.org/2000/svg" version="1.1" viewBox="0 0 100 100">
  <defs>
    <style>
      .cls-1 {
        fill: #805ed4;
        stroke-width: 0px;
      }
    </style>
  </defs>
  <path class="cls-1" d="M73.595,29.038c-1.781,0-3.543.279-5.22.815-3.132-8.511-11.165-14.152-20.329-14.152-11.295,0-20.761,8.889-21.604,20.035-1.036-.241-2.109-.366-3.203-.366-7.718,0-13.998,6.28-13.998,13.999s6.28,13.998,14.083,13.998h10.565c.595,0,1.076-.482,1.076-1.076s-.482-1.076-1.076-1.076h-10.65c-6.531,0-11.844-5.313-11.844-11.844s5.313-11.845,11.844-11.845c3.678,0,7.086,1.666,9.35,4.572.365.47,1.041.551,1.511.188.47-.366.553-1.042.188-1.511-1.532-1.967-3.507-3.452-5.732-4.363.504-10.275,9.146-18.556,19.489-18.556,8.266,0,15.51,5.097,18.321,12.781-1.309.607-2.543,1.379-3.668,2.304-.46.378-.526,1.056-.148,1.515.378.46,1.055.527,1.515.148,1.187-.974,2.511-1.756,3.921-2.323.014-.004.027-.007.04-.012.065-.02.126-.046.184-.077,1.706-.655,3.532-.999,5.382-.999,8.276,0,15.011,6.734,15.011,15.011,0,7.984-6.86,14.121-11.936,14.917v-13.692c0-3.094-2.517-5.612-5.612-5.612h-3.611v-2.283h-18.677v2.283h-3.607c-3.094,0-5.612,2.517-5.612,5.612v31.258c0,3.094,2.517,5.612,5.612,5.612h25.895c3.094,0,5.612-2.517,5.612-5.612v-15.396c6.596-.763,14.09-8.324,14.09-17.088h.001c0-9.466-7.7-17.165-17.164-17.165ZM74.514,78.687c0,1.908-1.551,3.459-3.459,3.459h-25.895c-1.908,0-3.459-1.551-3.459-3.459v-31.258c0-1.908,1.551-3.459,3.459-3.459h3.607v2.798c0,1.025.832,1.856,1.856,1.856h14.965c1.025,0,1.856-.832,1.856-1.856v-2.798h3.611c1.908,0,3.459,1.551,3.459,3.459v31.258Z"/>
  <path class="cls-1" d="M48.248,55.045c-.967,0-1.751.784-1.751,1.751s.784,1.751,1.751,1.751,1.751-.784,1.751-1.751-.784-1.751-1.751-1.751Z"/>
  <path class="cls-1" d="M48.248,63.702c-.967,0-1.751.784-1.751,1.751s.784,1.751,1.751,1.751,1.751-.784,1.751-1.751-.784-1.751-1.751-1.751Z"/>
  <path class="cls-1" d="M48.248,72.359c-.967,0-1.751.784-1.751,1.751s.784,1.751,1.751,1.751,1.751-.784,1.751-1.751-.784-1.751-1.751-1.751Z"/>
  <path class="cls-1" d="M67.445,55.719h-14.054c-.595,0-1.076.482-1.076,1.076s.482,1.076,1.076,1.076h14.054c.595,0,1.076-.482,1.076-1.076s-.482-1.076-1.076-1.076Z"/>
  <path class="cls-1" d="M67.445,64.377h-14.054c-.595,0-1.076.482-1.076,1.076s.482,1.076,1.076,1.076h14.054c.595,0,1.076-.482,1.076-1.076s-.482-1.076-1.076-1.076Z"/>
  <path class="cls-1" d="M65.008,73.033h-11.617c-.595,0-1.076.482-1.076,1.076s.482,1.076,1.076,1.076h11.617c.595,0,1.076-.482,1.076-1.076s-.482-1.076-1.076-1.076Z"/>
</svg>