<?xml version="1.0" encoding="UTF-8"?>
<svg id="Layer_1" data-name="Layer 1" xmlns="http://www.w3.org/2000/svg" version="1.1" viewBox="0 0 100 100">
  <defs>
    <style>
      .cls-1 {
        fill: #ef546b;
        stroke-width: 0px;
      }
    </style>
  </defs>
  <path class="cls-1" d="M40.516,47.115l.224.277c-.074-.085-.17-.181-.256-.266l.032-.01Z"/>
  <path class="cls-1" d="M40.739,47.391c.128.128.245.245.351.362-.011.011-.021.022-.032.032l-.32-.394Z"/>
  <path class="cls-1" d="M58.909,47.775c.117-.128.234-.256.373-.384l-.341.416c-.011-.011-.021-.021-.032-.032Z"/>
  <path class="cls-1" d="M59.537,47.125c-.085.085-.181.181-.256.266l.224-.277.032.01Z"/>
  <circle class="cls-1" cx="49.998" cy="43.923" r="10.129" transform="translate(-6.39 8.576) rotate(-9.217)"/>
  <path class="cls-1" d="M40.516,47.115l.224.277c-.074-.085-.17-.181-.256-.266l.032-.01Z"/>
  <path class="cls-1" d="M59.537,47.125c-.085.085-.181.181-.256.266l.224-.277.032.01Z"/>
  <path class="cls-1" d="M60.58,52.53c-2.502,3.065-6.313,5.037-10.591,5.037s-8.089-1.972-10.566-5.037c-6.996,3.747-11.742,11.135-11.742,19.635h44.641c0-8.5-4.746-15.868-11.742-19.635Z"/>
  <g>
    <path class="cls-1" d="M73.39,44.144c-4.496,0-8.154-3.658-8.154-8.154s3.658-8.155,8.154-8.155,8.155,3.658,8.155,8.155-3.658,8.154-8.155,8.154ZM73.39,30.042c-3.28,0-5.948,2.668-5.948,5.948s2.668,5.948,5.948,5.948,5.948-2.668,5.948-5.948-2.668-5.948-5.948-5.948Z"/>
    <g>
      <path class="cls-1" d="M58.909,47.775c.117-.128.234-.256.373-.384l-.341.416c-.011-.011-.021-.021-.032-.032Z"/>
      <path class="cls-1" d="M91.766,59.203c0,.618-.501,1.108-1.108,1.108h-16.881c-.362-.756-.777-1.491-1.235-2.204h16.977c-.362-5.219-3.227-9.947-7.711-12.674-2.215,2.301-5.229,3.6-8.424,3.6s-6.209-1.299-8.393-3.589c-.009-1.092-.336-1.9-.628-2.204.117-.064.224-.128.33-.181.458-.245,1.044-.138,1.374.277,1.8,2.215,4.463,3.494,7.317,3.494s5.517-1.278,7.338-3.494c.341-.415.916-.522,1.374-.277,5.964,3.206,9.671,9.394,9.671,16.146Z"/>
    </g>
    <path class="cls-1" d="M26.609,44.144c-4.496,0-8.155-3.658-8.155-8.154s3.658-8.155,8.155-8.155,8.154,3.658,8.154,8.155-3.658,8.154-8.154,8.154ZM26.609,30.042c-3.28,0-5.948,2.668-5.948,5.948s2.668,5.948,5.948,5.948,5.948-2.668,5.948-5.948-2.668-5.948-5.948-5.948Z"/>
    <g>
      <path class="cls-1" d="M35.009,45.442c-2.205,2.29-5.219,3.589-8.414,3.589s-6.209-1.299-8.393-3.6c-4.494,2.716-7.359,7.455-7.722,12.674h16.966c-.458.713-.873,1.448-1.235,2.204H9.342c-.607,0-1.108-.49-1.108-1.108,0-6.763,3.706-12.951,9.681-16.146.458-.245,1.033-.138,1.363.277,1.811,2.215,4.473,3.494,7.317,3.494s5.528-1.278,7.349-3.494c.341-.415.916-.522,1.374-.277.096.053.202.117.309.17-.41.697-.618,2.215-.618,2.215Z"/>
      <path class="cls-1" d="M41.091,47.753c-.011.011-.021.022-.032.032l-.32-.394c.128.128.245.245.351.362Z"/>
    </g>
  </g>
</svg>