<?xml version="1.0" encoding="UTF-8"?>
<svg id="Layer_1" data-name="Layer 1" xmlns="http://www.w3.org/2000/svg" version="1.1" viewBox="0 0 100 100">
  <defs>
    <style>
      .cls-1 {
        fill: #3ac9a5;
        stroke-width: 0px;
      }
    </style>
  </defs>
  <g>
    <path class="cls-1" d="M67.079,63.277H16.412c-2.206,0-4-1.794-4-4V24.214c0-2.206,1.794-4,4-4h50.667c2.206,0,4,1.794,4,4v35.063c0,2.206-1.794,4-4,4ZM16.412,22.214c-1.103,0-2,.897-2,2v35.063c0,1.103.897,2,2,2h50.667c1.103,0,2-.897,2-2V24.214c0-1.103-.897-2-2-2H16.412Z"/>
    <path class="cls-1" d="M24.533,62.849c-.552,0-1-.447-1-1v-31.596c0-.552.448-1,1-1s1,.448,1,1v31.596c0,.553-.448,1-1,1Z"/>
    <path class="cls-1" d="M16.412,21.214h50.667c1.656,0,3,1.344,3,3v6.039H13.412v-6.039c0-1.656,1.344-3,3-3Z"/>
    <path class="cls-1" d="M75.012,71.532H24.989c-2.383,0-4.322-1.938-4.322-4.322v-4.829c0-.553.448-1,1-1s1,.447,1,1v4.829c0,1.28,1.042,2.322,2.322,2.322h50.023c1.28,0,2.322-1.042,2.322-2.322v-34.42c0-1.28-1.042-2.322-2.322-2.322h-4.763c-.553,0-1-.448-1-1s.447-1,1-1h4.763c2.384,0,4.322,1.939,4.322,4.322v34.42c0,2.384-1.938,4.322-4.322,4.322Z"/>
    <path class="cls-1" d="M70.249,29.468h5.085c1.656,0,3,1.344,3,3v6.039h-8.085v-9.039h0Z"/>
    <path class="cls-1" d="M83.266,79.786h-50.022c-2.383,0-4.322-1.938-4.322-4.322v-4.829c0-.553.448-1,1-1s1,.447,1,1v4.829c0,1.28,1.042,2.322,2.322,2.322h50.022c1.28,0,2.322-1.042,2.322-2.322v-34.419c0-1.28-1.042-2.322-2.322-2.322h-4.763c-.553,0-1-.448-1-1s.447-1,1-1h4.763c2.384,0,4.322,1.939,4.322,4.322v34.419c0,2.384-1.938,4.322-4.322,4.322Z"/>
    <path class="cls-1" d="M78.503,37.722h5.085c1.656,0,3,1.344,3,3v6.039h-8.085v-9.039h0Z"/>
  </g>
  <path class="cls-1" d="M56.32,42.727l.7-2.917h-4.959l1.021-4.376h-3.005l-1.021,4.376h-4.288l1.05-4.376h-3.034l-1.021,4.376h-4.317l-.7,2.917h4.347l-1.05,4.376h-4.317l-.7,2.917h4.346l-1.021,4.376h3.004l1.021-4.376h4.288l-1.021,4.376h3.004l1.021-4.376h4.93l.7-2.917h-4.959l1.021-4.376h4.959ZM47.335,47.102h-4.259l1.021-4.376h4.288l-1.05,4.376Z"/>
</svg>