<?xml version="1.0" encoding="UTF-8"?>
<svg xmlns="http://www.w3.org/2000/svg" version="1.1" viewBox="0 0 24 24">
  <defs>
    <style>
      .cls-1 {
        fill: #fff;
      }
    </style>
  </defs>
  <!-- Generator: Adobe Illustrator 28.7.0, SVG Export Plug-In . SVG Version: 1.2.0 Build 136)  -->
  <g>
    <g id="Layer_1">
      <path class="cls-1" d="M14.894,11.85c.112.069.112.232,0,.301l-4.651,2.861c-.118.073-.27-.012-.27-.151v-5.722c0-.138.152-.223.27-.151l4.651,2.861ZM20.107,12c0,4.47-3.637,8.107-8.107,8.107S3.893,16.47,3.893,12,7.53,3.893,12,3.893s8.107,3.637,8.107,8.107ZM19.094,12c0-3.911-3.183-7.094-7.094-7.094s-7.094,3.183-7.094,7.094,3.183,7.094,7.094,7.094,7.094-3.183,7.094-7.094Z"/>
    </g>
  </g>
</svg>