<?xml version="1.0" encoding="utf-8"?>
<!-- Generator: Adobe Illustrator 28.2.0, SVG Export Plug-In . SVG Version: 6.00 Build 0)  -->
<svg version="1.1" id="Layer_1" xmlns="http://www.w3.org/2000/svg" xmlns:xlink="http://www.w3.org/1999/xlink" x="0px" y="0px"
	 viewBox="0 0 100 100" style="enable-background:new 0 0 100 100;" xml:space="preserve">
<style type="text/css">
	.st0{fill:#835EDD;}
</style>
<g>
	<g>
		<path class="st0" d="M53.9,87.2h-3.2c-0.3,0-0.5-0.2-0.5-0.5s0.2-0.5,0.5-0.5h3.2c0.3,0,0.5,0.2,0.5,0.5S54.2,87.2,53.9,87.2z
			 M47.6,87.2h-3.2c-0.3,0-0.5-0.2-0.5-0.5s0.2-0.5,0.5-0.5h3.2c0.3,0,0.5,0.2,0.5,0.5S47.8,87.2,47.6,87.2z M41.2,87.2h-1.7
			c-0.7,0-1.3-0.3-1.7-0.8c-0.2-0.2-0.1-0.6,0.1-0.7c0.2-0.2,0.6-0.1,0.7,0.1c0.2,0.3,0.6,0.4,0.9,0.4h1.7c0.3,0,0.5,0.2,0.5,0.5
			S41.5,87.2,41.2,87.2z M55.6,85c-0.3,0-0.5-0.2-0.5-0.5v-3.2c0-0.3,0.2-0.5,0.5-0.5c0.3,0,0.5,0.2,0.5,0.5v3.2
			C56.1,84.7,55.9,85,55.6,85z M37.9,83.5c-0.3,0-0.5-0.2-0.5-0.5v-3.2c0-0.3,0.2-0.5,0.5-0.5s0.5,0.2,0.5,0.5V83
			C38.4,83.2,38.2,83.5,37.9,83.5z M55.2,78.7c-0.2,0-0.3-0.1-0.4-0.2c-0.2-0.3-0.5-0.4-0.9-0.4h-1.7c-0.3,0-0.5-0.2-0.5-0.5
			s0.2-0.5,0.5-0.5h1.7c0.7,0,1.3,0.3,1.7,0.8c0.2,0.2,0.1,0.6-0.1,0.7C55.4,78.7,55.3,78.7,55.2,78.7z M49.1,78.1h-3.2
			c-0.3,0-0.5-0.2-0.5-0.5s0.2-0.5,0.5-0.5h3.2c0.3,0,0.5,0.2,0.5,0.5S49.3,78.1,49.1,78.1z M42.7,78.1h-3.2c-0.3,0-0.5-0.2-0.5-0.5
			s0.2-0.5,0.5-0.5h3.2c0.3,0,0.5,0.2,0.5,0.5S43,78.1,42.7,78.1z"/>
	</g>
	<g>
		<path class="st0" d="M53.6,67.2h-3.2c-0.3,0-0.5-0.2-0.5-0.5c0-0.3,0.2-0.5,0.5-0.5h3.1c0.3,0,0.5,0.2,0.5,0.5
			C54.1,66.9,53.8,67.2,53.6,67.2z M47.3,67.2h-3.1c-0.3,0-0.5-0.2-0.5-0.5c0-0.3,0.2-0.5,0.5-0.5h3.1c0.3,0,0.5,0.2,0.5,0.5
			C47.8,66.9,47.6,67.2,47.3,67.2z M41,67.2h-1.1c-0.9,0-1.7-0.4-2.2-1.2c-0.2-0.2-0.1-0.6,0.2-0.7c0.2-0.2,0.6-0.1,0.7,0.2
			c0.3,0.4,0.8,0.7,1.3,0.7H41c0.3,0,0.5,0.2,0.5,0.5C41.5,66.9,41.3,67.2,41,67.2z M55.6,64.7l-0.5,0v-3.1c0-0.3,0.2-0.5,0.5-0.5
			c0.3,0,0.5,0.2,0.5,0.5v3.1L55.6,64.7z M37.9,63.2c-0.3,0-0.5-0.2-0.5-0.5v-3.1l0.5-0.1l0.5,0l0,3.1
			C38.4,62.9,38.2,63.2,37.9,63.2z M55.2,59c-0.2,0-0.3-0.1-0.4-0.2c-0.3-0.4-0.8-0.7-1.3-0.7h-1.1c-0.3,0-0.5-0.2-0.5-0.5
			s0.2-0.5,0.5-0.5h1.1c0.9,0,1.7,0.4,2.1,1.2c0.2,0.2,0.1,0.6-0.2,0.7C55.4,59,55.3,59,55.2,59z M39.9,58.1c-0.3,0-0.5-0.2-0.5-0.5
			c0-0.3,0.2-0.5,0.5-0.5c0,0,0,0,0.1,0H43c0.3,0,0.5,0.2,0.5,0.5s-0.2,0.5-0.5,0.5L39.9,58.1C39.9,58.1,39.9,58.1,39.9,58.1z
			 M49.3,58.1h-3.1c-0.3,0-0.5-0.2-0.5-0.5s0.2-0.5,0.5-0.5h3.1c0.3,0,0.5,0.2,0.5,0.5S49.6,58.1,49.3,58.1z"/>
	</g>
	<g>
		<g>
			<path class="st0" d="M17.8,51.5c-0.3,0-0.5-0.2-0.5-0.5v-1.6c0-0.3,0.2-0.5,0.5-0.5s0.5,0.2,0.5,0.5V51
				C18.4,51.3,18.1,51.5,17.8,51.5z"/>
		</g>
		<g>
			<path class="st0" d="M31.2,82.6h-3c-0.3,0-0.5-0.2-0.5-0.5s0.2-0.5,0.5-0.5h3c0.3,0,0.5,0.2,0.5,0.5S31.5,82.6,31.2,82.6z
				 M25.1,82.6h-2.1c-0.4,0-0.7,0-1-0.1c-0.3,0-0.5-0.3-0.4-0.6s0.3-0.5,0.6-0.4c0.3,0,0.6,0.1,0.9,0.1h2.1c0.3,0,0.5,0.2,0.5,0.5
				S25.4,82.6,25.1,82.6z M19.4,81.3c-0.1,0-0.3-0.1-0.4-0.2c-0.7-0.7-1.2-1.7-1.5-2.9c-0.1-0.3,0.1-0.6,0.4-0.6
				c0.3-0.1,0.6,0.1,0.6,0.4c0.2,1,0.6,1.8,1.2,2.4c0.2,0.2,0.2,0.5,0,0.7C19.7,81.3,19.6,81.3,19.4,81.3z M17.8,75.7
				c-0.3,0-0.5-0.2-0.5-0.5v-3c0-0.3,0.2-0.5,0.5-0.5s0.5,0.2,0.5,0.5v3C18.4,75.4,18.1,75.7,17.8,75.7z M17.8,69.6
				c-0.3,0-0.5-0.2-0.5-0.5v-3c0-0.3,0.2-0.5,0.5-0.5s0.5,0.2,0.5,0.5v3C18.4,69.4,18.1,69.6,17.8,69.6z M17.8,63.6
				c-0.3,0-0.5-0.2-0.5-0.5v-3c0-0.3,0.2-0.5,0.5-0.5s0.5,0.2,0.5,0.5v3C18.4,63.3,18.1,63.6,17.8,63.6z M17.8,57.5
				c-0.3,0-0.5-0.2-0.5-0.5v-3c0-0.3,0.2-0.5,0.5-0.5s0.5,0.2,0.5,0.5v3C18.4,57.3,18.1,57.5,17.8,57.5z"/>
		</g>
		<g>
			<path class="st0" d="M35.8,82.6h-1.6c-0.3,0-0.5-0.2-0.5-0.5s0.2-0.5,0.5-0.5h1.6c0.3,0,0.5,0.2,0.5,0.5S36.1,82.6,35.8,82.6z"/>
		</g>
	</g>
	<g>
		<g>
			<path class="st0" d="M46.7,51.5c-0.3,0-0.5-0.2-0.5-0.5v-1.6c0-0.3,0.2-0.5,0.5-0.5c0.3,0,0.5,0.2,0.5,0.5V51
				C47.2,51.3,47,51.5,46.7,51.5z"/>
		</g>
		<g>
			<path class="st0" d="M46.7,54.8c-0.3,0-0.5-0.2-0.5-0.5v-1.7c0-0.3,0.2-0.5,0.5-0.5c0.3,0,0.5,0.2,0.5,0.5v1.7
				C47.2,54.6,47,54.8,46.7,54.8z"/>
		</g>
		<g>
			<path class="st0" d="M46.7,58.1c-0.3,0-0.5-0.2-0.5-0.5V56c0-0.3,0.2-0.5,0.5-0.5c0.3,0,0.5,0.2,0.5,0.5v1.6
				C47.2,57.8,47,58.1,46.7,58.1z"/>
		</g>
	</g>
	<g>
		<g>
			<path class="st0" d="M46.7,69c-0.3,0-0.5-0.2-0.5-0.5v-1.6c0-0.3,0.2-0.5,0.5-0.5c0.3,0,0.5,0.2,0.5,0.5v1.6
				C47.2,68.8,47,69,46.7,69z"/>
		</g>
		<g>
			<path class="st0" d="M46.7,73.8c-0.3,0-0.5-0.2-0.5-0.5v-2.4c0-0.3,0.2-0.5,0.5-0.5c0.3,0,0.5,0.2,0.5,0.5v2.4
				C47.2,73.5,47,73.8,46.7,73.8z"/>
		</g>
		<g>
			<path class="st0" d="M46.7,77.7c-0.3,0-0.5-0.2-0.5-0.5v-1.6c0-0.3,0.2-0.5,0.5-0.5c0.3,0,0.5,0.2,0.5,0.5v1.6
				C47.2,77.5,47,77.7,46.7,77.7z"/>
		</g>
	</g>
	<g>
		<path class="st0" d="M46.7,45.2c-0.6,0-1-0.5-1-1V17.4c0-0.6,0.5-1,1-1c0.6,0,1.1,0.5,1.1,1v26.8C47.8,44.8,47.3,45.2,46.7,45.2z"
			/>
	</g>
	<g>
		<path class="st0" d="M53.5,21.9H39.9c-1.1,0-2-0.9-2-2v-5c0-1.1,0.9-2,2-2h13.6c1.1,0,2,0.9,2,2v5C55.6,21,54.7,21.9,53.5,21.9z"
			/>
	</g>
	<g>
		<path class="st0" d="M53.5,48.7H39.9c-1.1,0-2-0.9-2-2v-5c0-1.1,0.9-2,2-2h13.6c1.1,0,2,0.9,2,2v5C55.6,47.8,54.7,48.7,53.5,48.7z
			"/>
	</g>
	<g>
		<g>
			<path class="st0" d="M17.8,41.3c-0.6,0-1-0.5-1-1v-5.8c0-2.5,2-4.5,4.5-4.5h25.4c0.6,0,1.1,0.5,1.1,1s-0.5,1-1.1,1H21.3
				c-1.3,0-2.4,1.1-2.4,2.4v5.8C18.9,40.9,18.4,41.3,17.8,41.3z"/>
		</g>
		<g>
			<path class="st0" d="M74.1,41.3c-0.6,0-1-0.5-1-1v-5.8c0-1.3-1.1-2.4-2.4-2.4H46.7c-0.6,0-1-0.5-1-1s0.5-1,1-1h23.9
				c2.5,0,4.5,2,4.5,4.5v5.8C75.2,40.9,74.7,41.3,74.1,41.3z"/>
		</g>
	</g>
	<g>
		<g>
			<path class="st0" d="M70.6,63.3H58.3c-0.6,0-1-0.5-1-1s0.5-1,1-1h12.3c1.3,0,2.4-1.1,2.4-2.4V34.6c0-0.6,0.5-1,1-1
				c0.6,0,1.1,0.5,1.1,1v24.2C75.2,61.3,73.1,63.3,70.6,63.3z"/>
		</g>
	</g>
	<g>
		<path class="st0" d="M80.9,48.7H67.3c-1.1,0-2-0.9-2-2v-5c0-1.1,0.9-2,2-2h13.6c1.1,0,2,0.9,2,2v5C83,47.8,82.1,48.7,80.9,48.7z"
			/>
	</g>
	<g>
		<path class="st0" d="M24.6,48.7H11c-1.1,0-2-0.9-2-2v-5c0-1.1,0.9-2,2-2h13.6c1.1,0,2,0.9,2,2v5C26.7,47.8,25.8,48.7,24.6,48.7z"
			/>
	</g>
	<g>
		<g>
			<g>
				<path class="st0" d="M57.1,82.6h-1.6c-0.3,0-0.5-0.2-0.5-0.5s0.2-0.5,0.5-0.5h1.6c0.3,0,0.5,0.2,0.5,0.5S57.4,82.6,57.1,82.6z"
					/>
			</g>
			<g>
				<path class="st0" d="M86.3,82.6h-0.2c-0.3,0-0.5-0.2-0.5-0.5s0.2-0.5,0.5-0.5h0.2c0.9,0,1.7-0.3,2.4-0.9
					c0.2-0.2,0.6-0.2,0.7,0.1c0.2,0.2,0.2,0.6-0.1,0.7C88.5,82.2,87.4,82.6,86.3,82.6z M82.8,82.6h-3.2c-0.3,0-0.5-0.2-0.5-0.5
					s0.2-0.5,0.5-0.5h3.2c0.3,0,0.5,0.2,0.5,0.5S83.1,82.6,82.8,82.6z M76.4,82.6h-3.2c-0.3,0-0.5-0.2-0.5-0.5s0.2-0.5,0.5-0.5h3.2
					c0.3,0,0.5,0.2,0.5,0.5S76.7,82.6,76.4,82.6z M70,82.6h-3.2c-0.3,0-0.5-0.2-0.5-0.5s0.2-0.5,0.5-0.5H70c0.3,0,0.5,0.2,0.5,0.5
					S70.3,82.6,70,82.6z M63.6,82.6h-3.2c-0.3,0-0.5-0.2-0.5-0.5s0.2-0.5,0.5-0.5h3.2c0.3,0,0.5,0.2,0.5,0.5S63.9,82.6,63.6,82.6z
					 M90.5,78.8C90.4,78.8,90.4,78.8,90.5,78.8c-0.3,0-0.6-0.3-0.5-0.6c0-0.1,0-0.2,0-0.4v-2.8c0-0.3,0.2-0.5,0.5-0.5
					s0.5,0.2,0.5,0.5v2.8c0,0.2,0,0.3,0,0.5C91,78.6,90.7,78.8,90.5,78.8z M90.5,72.4c-0.3,0-0.5-0.2-0.5-0.5v-3.2
					c0-0.3,0.2-0.5,0.5-0.5s0.5,0.2,0.5,0.5v3.2C91,72.2,90.8,72.4,90.5,72.4z M90.5,66c-0.3,0-0.5-0.2-0.5-0.5v-3.2
					c0-0.3,0.2-0.5,0.5-0.5S91,62,91,62.3v3.2C91,65.8,90.8,66,90.5,66z M90.5,59.6c-0.3,0-0.5-0.2-0.5-0.5v-3.2
					c0-0.3,0.2-0.5,0.5-0.5s0.5,0.2,0.5,0.5v3.2C91,59.3,90.8,59.6,90.5,59.6z M90.5,53.2c-0.3,0-0.5-0.2-0.5-0.5v-3.2
					c0-0.3,0.2-0.5,0.5-0.5s0.5,0.2,0.5,0.5v3.2C91,52.9,90.8,53.2,90.5,53.2z M90.1,46.8c-0.2,0-0.4-0.1-0.5-0.3
					c-0.4-0.8-1.1-1.5-2-1.9c-0.3-0.1-0.4-0.4-0.3-0.7c0.1-0.3,0.4-0.4,0.7-0.3c1.1,0.4,2.1,1.3,2.6,2.4c0.1,0.3,0,0.6-0.2,0.7
					C90.2,46.8,90.1,46.8,90.1,46.8z"/>
			</g>
			<g>
				<path class="st0" d="M84.6,44.4H83c-0.3,0-0.5-0.2-0.5-0.5c0-0.3,0.2-0.5,0.5-0.5h1.6c0.3,0,0.5,0.2,0.5,0.5
					C85.1,44.2,84.8,44.4,84.6,44.4z"/>
			</g>
		</g>
	</g>
</g>
</svg>
