<?xml version="1.0" encoding="UTF-8"?>
<svg id="Layer_1" data-name="Layer 1" xmlns="http://www.w3.org/2000/svg" version="1.1" viewBox="0 0 100 100">
  <defs>
    <style>
      .cls-1 {
        fill: #2868f7;
        stroke-width: 0px;
      }
    </style>
  </defs>
  <g>
    <g>
      <path class="cls-1" d="M50,58.643c-.198,0-.396-.059-.566-.176l-11.572-7.941c-2.428-1.667-4.346-2.983-4.346-6.646v-12.042c0-.552.448-1,1-1h30.967c.553,0,1,.448,1,1v12.042c0,3.663-1.918,4.979-4.345,6.646h0l-11.572,7.941c-.17.117-.368.176-.565.176h-.001ZM35.517,32.837v11.042c0,2.51,1.004,3.299,3.478,4.997l11.006,7.554,11.006-7.553c2.474-1.698,3.478-2.487,3.478-4.997v-11.042h-28.968ZM61.572,49.701h.01-.01Z"/>
      <path class="cls-1" d="M65.483,84.447h-30.967c-.552,0-1-.447-1-1v-12.042c0-3.663,1.918-4.979,4.346-6.646h0l11.572-7.941c.341-.233.791-.235,1.131,0l11.572,7.941c2.428,1.666,4.346,2.982,4.346,6.646v12.042c0,.553-.447,1-1,1ZM35.517,82.447h28.967v-11.042c0-2.51-1.004-3.299-3.478-4.997l-11.006-7.553-11.006,7.553c-2.474,1.698-3.478,2.487-3.478,4.997v11.042h.001Z"/>
      <path class="cls-1" d="M50,84.447c-.552,0-1-.447-1-1v-25.805c0-.553.448-1,1-1s1,.447,1,1v25.805c0,.553-.447,1-1,1Z"/>
      <path class="cls-1" d="M50,57.642l-11.921-8.181c-2.219-1.523-3.446-2.746-3.446-5.582h30.849c0,2.076-.983,3.812-2.607,4.927l-12.876,8.836h0Z"/>
      <polygon class="cls-1" points="60.322 83.446 39.678 83.446 50 73.065 60.322 83.446"/>
    </g>
    <rect class="cls-1" x="44.839" y="55.157" width="10.322" height="4.971"/>
  </g>
  <path class="cls-1" d="M79.6,73.546h-8.712v-2h8.712c3.927,0,7.122-3.195,7.122-7.122V29.129c0-3.927-3.195-7.122-7.122-7.122h-16.804v-2h16.804c5.03,0,9.122,4.092,9.122,9.122v35.295c0,5.03-4.092,9.122-9.122,9.122Z"/>
  <g>
    <path class="cls-1" d="M29.11,73.55c-.26,0-.52-.11-.7-.3-.19-.19-.3-.44-.3-.7,0-.14.03-.27.08-.39s.12-.23.22-.32c.28-.28.72-.37,1.09-.22.12.05.23.12.32.22.09.09.17.2.22.32s.07.25.07.39c0,.26-.1.51-.29.7-.09.1-.2.17-.32.22-.12.05-.25.08-.39.08Z"/>
    <path class="cls-1" d="M23.238,73.546h-.01c-.552,0-1-.447-1-1s.448-1,1-1,1.005.447,1.005,1-.443,1-.995,1ZM17.425,72.983c-.104,0-.211-.017-.316-.052-.062-.021-.132-.051-.189-.084-.479-.274-.646-.885-.372-1.364.256-.448.803-.622,1.266-.422.477.201.727.739.56,1.238-.14.419-.53.684-.949.684ZM13.159,69.111c-.365,0-.715-.2-.89-.55l-.004-.009c-.247-.494-.047-1.095.447-1.342.496-.246,1.095-.047,1.342.447s.049,1.099-.445,1.346c-.145.072-.298.107-.449.107h0ZM12.278,63.367c-.552,0-1-.442-1-.995v-.01c0-.553.448-1,1-1s1,.447,1,1-.448,1.005-1,1.005ZM12.278,57.482c-.552,0-1-.442-1-.995v-.01c0-.553.448-1,1-1s1,.447,1,1-.448,1.005-1,1.005ZM12.278,51.598c-.552,0-1-.442-1-.995v-.01c0-.553.448-1,1-1s1,.447,1,1-.448,1.005-1,1.005ZM12.278,45.713c-.552,0-1-.443-1-.995v-.01c0-.552.448-1,1-1s1,.448,1,1-.448,1.005-1,1.005ZM12.278,39.829c-.552,0-1-.443-1-.995v-.01c0-.552.448-1,1-1s1,.448,1,1-.448,1.005-1,1.005ZM12.278,33.944c-.552,0-1-.443-1-.995v-.01c0-.552.448-1,1-1s1,.448,1,1-.448,1.005-1,1.005ZM12.537,28.087c-.104,0-.211-.017-.316-.051-.503-.168-.784-.696-.651-1.202.123-.491.599-.815,1.111-.746.546.078.926.584.848,1.131-.008.059-.024.127-.043.184-.14.419-.53.684-.949.684ZM15.869,23.387c-.333,0-.657-.164-.847-.463-.291-.459-.166-1.063.286-1.364.013-.009.035-.022.048-.031.473-.284,1.088-.131,1.372.343s.131,1.088-.343,1.372c-.162.097-.341.144-.517.144h.001ZM45.017,22.007c-.552,0-1.005-.448-1.005-1s.443-1,.995-1h.01c.552,0,1,.448,1,1s-.448,1-1,1ZM39.132,22.007c-.552,0-1.005-.448-1.005-1s.443-1,.995-1h.01c.552,0,1,.448,1,1s-.448,1-1,1ZM33.248,22.007c-.552,0-1.005-.448-1.005-1s.443-1,.995-1h.01c.552,0,1,.448,1,1s-.448,1-1,1ZM27.363,22.007c-.552,0-1.005-.448-1.005-1s.443-1,.995-1h.01c.552,0,1,.448,1,1s-.448,1-1,1ZM21.479,22.007c-.552,0-1.005-.448-1.005-1s.443-1,.995-1h.01c.552,0,1,.448,1,1s-.448,1-1,1Z"/>
    <path class="cls-1" d="M50.93,22.01c-.26,0-.52-.11-.7-.3-.189-.18-.3-.44-.3-.7,0-.07.01-.13.02-.2.02-.06.03-.12.06-.18.03-.07.06-.12.09-.18.04-.05.08-.1.13-.15.271-.28.721-.37,1.09-.22.12.05.23.13.32.22.05.05.09.1.13.15.03.06.061.11.09.18.021.06.04.12.051.18.02.07.029.13.029.2,0,.26-.109.52-.3.7-.09.1-.2.17-.32.22-.13.05-.26.08-.39.08Z"/>
  </g>
  <path class="cls-1" d="M74.784,77.707l-4.454-4.454c-.391-.391-.391-1.023,0-1.414l4.454-4.454,1.414,1.414-3.747,3.747,3.747,3.747-1.414,1.414Z"/>
  <path class="cls-1" d="M48.538,26.168l-1.414-1.414,3.748-3.748-3.748-3.748,1.414-1.414,4.455,4.455c.391.391.391,1.023,0,1.414,0,0-4.455,4.455-4.455,4.455Z"/>
</svg>