<?xml version="1.0" encoding="UTF-8"?>
<svg id="Layer_1" data-name="Layer 1" xmlns="http://www.w3.org/2000/svg" version="1.1" viewBox="0 0 100 100">
  <defs>
    <style>
      .cls-1 {
        fill: #db9700;
        stroke-width: 0px;
      }
    </style>
  </defs>
  <circle class="cls-1" cx="27.257" cy="69.489" r="8.063"/>
  <circle class="cls-1" cx="72.743" cy="69.489" r="8.063"/>
  <path class="cls-1" d="M72.743,88.11c-10.269,0-18.622-8.354-18.622-18.622,0-.553.447-1,1-1s1,.447,1,1c0,9.165,7.457,16.622,16.622,16.622s16.621-7.457,16.621-16.622-7.456-16.621-16.621-16.621c-2.949,0-5.847.782-8.378,2.262-.479.28-1.09.118-1.368-.358-.278-.478-.118-1.09.358-1.368,2.838-1.658,6.084-2.535,9.388-2.535,10.268,0,18.621,8.354,18.621,18.621s-8.354,18.622-18.621,18.622Z"/>
  <path class="cls-1" d="M27.257,88.11c-10.268,0-18.622-8.354-18.622-18.622s8.354-18.621,18.622-18.621c3.304,0,6.55.877,9.387,2.535.477.278.637.892.358,1.368s-.892.637-1.368.358c-2.531-1.479-5.428-2.262-8.377-2.262-9.165,0-16.622,7.456-16.622,16.621s7.457,16.622,16.622,16.622,16.622-7.457,16.622-16.622c0-.553.448-1,1-1s1,.447,1,1c0,10.269-8.354,18.622-18.622,18.622Z"/>
  <path class="cls-1" d="M41.117,46.734c-.171,0-.345-.044-.504-.137-5.696-3.331-9.234-9.495-9.234-16.086,0-10.268,8.354-18.622,18.622-18.622s18.622,8.354,18.622,18.622c0,6.591-3.539,12.755-9.235,16.085-.479.28-1.09.118-1.368-.358-.278-.477-.118-1.089.358-1.368,5.086-2.973,8.245-8.475,8.245-14.359,0-9.166-7.457-16.622-16.622-16.622s-16.622,7.457-16.622,16.622c0,5.883,3.159,11.386,8.244,14.359.477.279.637.892.358,1.368-.186.318-.521.495-.864.495Z"/>
  <circle class="cls-1" cx="50" cy="30.511" r="8.063"/>
  <path class="cls-1" d="M63.861,55.266c-.344,0-.679-.178-.864-.496l-9.8-16.795c-.278-.477-.118-1.089.359-1.368.478-.278,1.09-.117,1.367.36l9.8,16.795c.278.477.118,1.089-.359,1.367-.158.093-.332.137-.503.137Z"/>
  <path class="cls-1" d="M31.316,63.53c-.171,0-.345-.044-.503-.137-.477-.278-.638-.891-.36-1.367l14.623-25.06c.279-.476.891-.638,1.368-.36.477.278.638.891.36,1.368l-14.623,25.06c-.186.318-.521.496-.865.496Z"/>
  <path class="cls-1" d="M64.68,70.488h-19.801c-.552,0-1-.447-1-1s.448-1,1-1h19.801c.553,0,1,.447,1,1s-.447,1-1,1Z"/>
</svg>