<?xml version="1.0" encoding="utf-8"?>
<!-- Generator: Adobe Illustrator 28.2.0, SVG Export Plug-In . SVG Version: 6.00 Build 0)  -->
<svg version="1.1" id="Layer_1" xmlns="http://www.w3.org/2000/svg" xmlns:xlink="http://www.w3.org/1999/xlink" x="0px" y="0px"
	 viewBox="0 0 100 100" style="enable-background:new 0 0 100 100;" xml:space="preserve">
<style type="text/css">
	.st0{fill:#1BC7FF;}
</style>
<g>
	<path class="st0" d="M76.6,23.4c-7.1-7.1-16.6-11-26.6-11c-10.1,0-19.5,3.9-26.6,11c-7.1,7.1-11,16.6-11,26.6
		c0,10.1,3.9,19.5,11,26.6c7.1,7.1,16.6,11,26.6,11c9.5,0,18.4-3.5,25.4-9.8V83h2v-7.6c0-0.6-0.4-1-1-1h-7.6v2h5.1
		c-6.6,6-15,9.2-23.9,9.2c-9.5,0-18.5-3.7-25.2-10.4S14.4,59.5,14.4,50c0-9.5,3.7-18.5,10.4-25.2S40.5,14.4,50,14.4
		c9.5,0,18.5,3.7,25.2,10.4C86.8,36.4,89,54.3,80.6,68.3c-0.3,0.5-0.1,1.1,0.3,1.4c0.5,0.3,1.1,0.1,1.4-0.3
		C91.2,54.5,88.9,35.6,76.6,23.4z"/>
	<path class="st0" d="M30.1,36.9c-0.5-0.3-1.1-0.1-1.4,0.3c-5.9,9.8-4.3,22.2,3.7,30.3c4.8,4.8,11.2,7.3,17.6,7.3s12.7-2.4,17.6-7.3
		c9.7-9.7,9.7-25.4,0-35.1c-9.2-9.2-24-9.6-33.7-1.3v-5h-2v7.3c0,0.6,0.4,1,1,1h7.3v-2h-4.8c9-7.5,22.3-7,30.8,1.4
		c8.9,8.9,8.9,23.4,0,32.3c-8.9,8.9-23.4,8.9-32.3,0c-7.4-7.4-8.8-18.9-3.4-27.9C30.7,37.8,30.5,37.2,30.1,36.9z"/>
	<path class="st0" d="M50,48.7c3.3,0,6-2.7,6-6c0-3.3-2.7-6-6-6c-3.3,0-6,2.7-6,6C44,46.1,46.7,48.7,50,48.7z"/>
	<path class="st0" d="M37,57.1c1.2,3.3,6.6,7.5,13,7.5c6.4,0,11.3-3.7,13-7.5c-0.7-4-3.3-7.4-6.7-9.3c-1.5,1.8-3.7,3-6.3,3
		c-2.5,0-4.8-1.2-6.2-3C40.3,49.7,37.7,53.1,37,57.1z"/>
</g>
</svg>
