<?xml version="1.0" encoding="UTF-8"?>
<svg id="Layer_1" data-name="Layer 1" xmlns="http://www.w3.org/2000/svg" version="1.1" viewBox="0 0 100 100">
  <defs>
    <style>
      .cls-1 {
        fill: #1bbeff;
        stroke-width: 0px;
      }
    </style>
  </defs>
  <path class="cls-1" d="M81.243,21.722H18.757c-3.885,0-7.046,2.912-7.046,6.492v43.573c0,3.58,3.161,6.492,7.046,6.492h62.485c3.885,0,7.046-2.912,7.046-6.492V28.214c0-3.58-3.161-6.492-7.046-6.492ZM72.81,65.955v2.844c-.094.161-.162.337-.162.537s.068.377.162.537v6.232h-10.041v-21.77h4.015v-5.094h-4.015v-15.117h2.054s.003.001.005.001h.108s.003-.001.005-.001h4.334s.003.001.005.001h.108s.003-.001.005-.001h3.416v11.141c-.094.161-.162.337-.162.537s.068.377.162.537v10.692c-.094.161-.162.337-.162.537s.068.377.162.537v2.754h-6.026v5.094h6.026ZM60.597,44.74c-.039-.004-.073-.023-.113-.023h-.109c-.6,0-1.086.486-1.086,1.086s.486,1.086,1.086,1.086h.109c.04,0,.074-.019.113-.023v2.375h-10.041v-2.882c.191.312.519.53.911.53h.109c.6,0,1.086-.486,1.086-1.086s-.486-1.086-1.086-1.086h-.109c-.392,0-.72.219-.911.53v-2.971h6.755v-5.094h-6.755v-3.057h.906s.003.001.005.001h.109s.003-.001.005-.001h4.334s.003.001.005.001h.108s.003-.001.005-.001h4.334s.003.001.005.001h.109s.003-.001.005-.001h.108v10.615ZM38.343,34.125h4.213s.003.001.005.001h.108s.003-.001.005-.001h4.334s.003.001.005.001h.108s.003-.001.005-.001h1.256v3.057h-10.041v-3.057ZM38.343,70.397c.538-.065.96-.505.96-1.061s-.422-.995-.96-1.061v-9.645c.538-.065.96-.505.96-1.061s-.422-.995-.96-1.061v-9.645c.538-.065.96-.505.96-1.061s-.422-.995-.96-1.061v-2.467h10.041v33.83h-10.041v-5.709ZM50.556,69.892c.191.312.519.53.911.53h.109c.6,0,1.086-.486,1.086-1.086s-.486-1.086-1.086-1.086h-.109c-.392,0-.72.219-.911.53v-10.654c.191.312.519.53.911.53h.109c.6,0,1.086-.486,1.086-1.086s-.486-1.086-1.086-1.086h-.109c-.392,0-.72.219-.911.53v-2.678h10.041v2.171c-.039-.004-.073-.023-.113-.023h-.109c-.6,0-1.086.486-1.086,1.086s.486,1.086,1.086,1.086h.109c.04,0,.074-.019.113-.023v9.64c-.039-.004-.073-.023-.113-.023h-.109c-.6,0-1.086.486-1.086,1.086s.486,1.086,1.086,1.086h.109c.04,0,.074-.019.113-.023v5.706h-10.041v-6.214ZM74.982,34.125h3.2s.003.001.005.001h.108s.003-.001.005-.001h4.334s.003.001.005.001h.109s.003-.001.005-.001h3.361v11.221c-.065.14-.108.292-.108.457s.043.317.108.457v10.852c-.065.14-.108.292-.108.457s.043.317.108.457v2.834h-11.134v-26.736ZM13.883,71.786v-37.662h1.953s.003.001.005.001h.109s.003-.001.005-.001h4.334s.003.001.005.001h.108s.003-.001.005-.001h4.334s.003.001.005.001h.108s.003-.001.005-.001h4.334s.003.001.005.001h.109s.003-.001.005-.001h4.334s.003.001.005.001h.108s.003-.001.005-.001h2.403v41.981h-17.414c-2.688,0-4.874-1.938-4.874-4.319ZM81.243,76.106h-6.26v-10.151h11.134v2.924c-.065.14-.108.292-.108.457s.043.317.108.457v1.993c0,2.381-2.186,4.319-4.874,4.319Z"/>
  <path class="cls-1" d="M82.75,44.717h-.109c-.6,0-1.086.486-1.086,1.086s.486,1.086,1.086,1.086h.109c.6,0,1.086-.486,1.086-1.086s-.486-1.086-1.086-1.086Z"/>
  <path class="cls-1" d="M15.951,44.717h-.109c-.6,0-1.086.486-1.086,1.086s.486,1.086,1.086,1.086h.109c.6,0,1.086-.486,1.086-1.086s-.486-1.086-1.086-1.086Z"/>
  <path class="cls-1" d="M78.188,44.717c-.6,0-1.086.486-1.086,1.086s.486,1.086,1.086,1.086h.108c.6,0,1.032-.486,1.032-1.086s-.54-1.086-1.14-1.086Z"/>
  <path class="cls-1" d="M69.281,46.889h.108c.6,0,1.032-.486,1.032-1.086s-.54-1.086-1.14-1.086-1.086.486-1.086,1.086.486,1.086,1.086,1.086Z"/>
  <path class="cls-1" d="M55.921,44.717c-.6,0-1.086.486-1.086,1.086s.486,1.086,1.086,1.086h.108c.6,0,1.032-.486,1.032-1.086s-.54-1.086-1.14-1.086Z"/>
  <path class="cls-1" d="M64.828,44.717c-.6,0-1.086.486-1.086,1.086s.486,1.086,1.086,1.086h.108c.6,0,1.032-.486,1.032-1.086s-.54-1.086-1.14-1.086Z"/>
  <path class="cls-1" d="M42.562,44.717c-.6,0-1.086.486-1.086,1.086s.486,1.086,1.086,1.086h.108c.6,0,1.032-.486,1.032-1.086s-.54-1.086-1.14-1.086Z"/>
  <path class="cls-1" d="M47.015,46.889h.108c.6,0,1.032-.486,1.032-1.086s-.54-1.086-1.14-1.086-1.086.486-1.086,1.086.486,1.086,1.086,1.086Z"/>
  <path class="cls-1" d="M29.31,44.717h-.109c-.6,0-1.086.486-1.086,1.086s.486,1.086,1.086,1.086h.109c.6,0,1.086-.486,1.086-1.086s-.486-1.086-1.086-1.086Z"/>
  <path class="cls-1" d="M24.748,44.717c-.6,0-1.086.486-1.086,1.086s.486,1.086,1.086,1.086h.108c.6,0,1.032-.486,1.032-1.086s-.54-1.086-1.14-1.086Z"/>
  <path class="cls-1" d="M20.295,44.717c-.6,0-1.086.486-1.086,1.086s.486,1.086,1.086,1.086h.108c.6,0,1.032-.486,1.032-1.086s-.54-1.086-1.14-1.086Z"/>
  <path class="cls-1" d="M33.655,46.889h.108c.6,0,1.032-.486,1.032-1.086s-.54-1.086-1.14-1.086-1.086.486-1.086,1.086.486,1.086,1.086,1.086Z"/>
  <path class="cls-1" d="M69.281,58.656h.108c.6,0,1.032-.486,1.032-1.086s-.54-1.086-1.14-1.086-1.086.486-1.086,1.086.486,1.086,1.086,1.086Z"/>
  <path class="cls-1" d="M47.015,56.484c-.6,0-1.086.486-1.086,1.086s.486,1.086,1.086,1.086h.108c.6,0,1.032-.486,1.032-1.086s-.54-1.086-1.14-1.086Z"/>
  <path class="cls-1" d="M42.562,56.484c-.6,0-1.086.486-1.086,1.086s.486,1.086,1.086,1.086h.108c.6,0,1.032-.486,1.032-1.086s-.54-1.086-1.14-1.086Z"/>
  <path class="cls-1" d="M29.31,56.484h-.109c-.6,0-1.086.486-1.086,1.086s.486,1.086,1.086,1.086h.109c.6,0,1.086-.486,1.086-1.086s-.486-1.086-1.086-1.086Z"/>
  <path class="cls-1" d="M24.748,56.484c-.6,0-1.086.486-1.086,1.086s.486,1.086,1.086,1.086h.108c.6,0,1.032-.486,1.032-1.086s-.54-1.086-1.14-1.086Z"/>
  <path class="cls-1" d="M33.655,56.484c-.6,0-1.086.486-1.086,1.086s.486,1.086,1.086,1.086h.108c.6,0,1.032-.486,1.032-1.086s-.54-1.086-1.14-1.086Z"/>
  <path class="cls-1" d="M64.828,56.484c-.6,0-1.086.486-1.086,1.086s.486,1.086,1.086,1.086h.108c.6,0,1.032-.486,1.032-1.086s-.54-1.086-1.14-1.086Z"/>
  <path class="cls-1" d="M15.951,56.484h-.109c-.6,0-1.086.486-1.086,1.086s.486,1.086,1.086,1.086h.109c.6,0,1.086-.486,1.086-1.086s-.486-1.086-1.086-1.086Z"/>
  <path class="cls-1" d="M78.188,56.484c-.6,0-1.086.486-1.086,1.086s.486,1.086,1.086,1.086h.108c.6,0,1.032-.486,1.032-1.086s-.54-1.086-1.14-1.086Z"/>
  <path class="cls-1" d="M82.75,56.484h-.109c-.6,0-1.086.486-1.086,1.086s.486,1.086,1.086,1.086h.109c.6,0,1.086-.486,1.086-1.086s-.486-1.086-1.086-1.086Z"/>
  <path class="cls-1" d="M20.295,56.484c-.6,0-1.086.486-1.086,1.086s.486,1.086,1.086,1.086h.108c.6,0,1.032-.486,1.032-1.086s-.54-1.086-1.14-1.086Z"/>
  <path class="cls-1" d="M55.921,56.484c-.6,0-1.086.486-1.086,1.086s.486,1.086,1.086,1.086h.108c.6,0,1.032-.486,1.032-1.086s-.54-1.086-1.14-1.086Z"/>
  <path class="cls-1" d="M78.188,68.25c-.6,0-1.086.486-1.086,1.086s.486,1.086,1.086,1.086h.108c.6,0,1.032-.486,1.032-1.086s-.54-1.086-1.14-1.086Z"/>
  <path class="cls-1" d="M64.828,68.25c-.6,0-1.086.486-1.086,1.086s.486,1.086,1.086,1.086h.108c.6,0,1.032-.486,1.032-1.086s-.54-1.086-1.14-1.086Z"/>
  <path class="cls-1" d="M15.951,68.25h-.109c-.6,0-1.086.486-1.086,1.086s.486,1.086,1.086,1.086h.109c.6,0,1.086-.486,1.086-1.086s-.486-1.086-1.086-1.086Z"/>
  <path class="cls-1" d="M82.75,68.25h-.109c-.6,0-1.086.486-1.086,1.086s.486,1.086,1.086,1.086h.109c.6,0,1.086-.486,1.086-1.086s-.486-1.086-1.086-1.086Z"/>
  <path class="cls-1" d="M69.281,70.422h.108c.6,0,1.032-.486,1.032-1.086s-.54-1.086-1.14-1.086-1.086.486-1.086,1.086.486,1.086,1.086,1.086Z"/>
  <path class="cls-1" d="M55.921,68.25c-.6,0-1.086.486-1.086,1.086s.486,1.086,1.086,1.086h.108c.6,0,1.032-.486,1.032-1.086s-.54-1.086-1.14-1.086Z"/>
  <path class="cls-1" d="M24.748,68.25c-.6,0-1.086.486-1.086,1.086s.486,1.086,1.086,1.086h.108c.6,0,1.032-.486,1.032-1.086s-.54-1.086-1.14-1.086Z"/>
  <path class="cls-1" d="M47.015,68.25c-.6,0-1.086.486-1.086,1.086s.486,1.086,1.086,1.086h.108c.6,0,1.032-.486,1.032-1.086s-.54-1.086-1.14-1.086Z"/>
  <path class="cls-1" d="M42.562,68.25c-.6,0-1.086.486-1.086,1.086s.486,1.086,1.086,1.086h.108c.6,0,1.032-.486,1.032-1.086s-.54-1.086-1.14-1.086Z"/>
  <path class="cls-1" d="M33.655,68.25c-.6,0-1.086.486-1.086,1.086s.486,1.086,1.086,1.086h.108c.6,0,1.032-.486,1.032-1.086s-.54-1.086-1.14-1.086Z"/>
  <path class="cls-1" d="M20.295,68.25c-.6,0-1.086.486-1.086,1.086s.486,1.086,1.086,1.086h.108c.6,0,1.032-.486,1.032-1.086s-.54-1.086-1.14-1.086Z"/>
  <path class="cls-1" d="M29.31,68.25h-.109c-.6,0-1.086.486-1.086,1.086s.486,1.086,1.086,1.086h.109c.6,0,1.086-.486,1.086-1.086s-.486-1.086-1.086-1.086Z"/>
</svg>