<?xml version="1.0" encoding="UTF-8"?>
<svg id="Layer_1" data-name="Layer 1" xmlns="http://www.w3.org/2000/svg" version="1.1" viewBox="0 0 62 64.4">
  <defs>
    <style>
      .cls-1 {
        fill: #1976d2;
        stroke-width: 0px;
      }
    </style>
  </defs>
  <path class="cls-1" d="M29.4,59.8h-6.4c-2.7,0-5.5-2.9-6.1-4.1s-10.6-18.2-11.8-20.8c-1.3-2.7-.6-4.7,0-5.7S14.8,12.4,16.6,9.2s4-4.6,6.7-4.6h5.6c3.5,0,5.8,1.6,6.9,3.6,2.8,4.9,11.4,20.1,11.4,20.1h5.7l-9.5-16.2h2.7c.8,0,1.5.1,1.9.8.4.6,9,15.3,9,15.3h5s-8.5-14.6-9.9-17.1c-1.3-2.5-3.5-3.4-4.8-3.4h-6.7C37.6.9,31.2,0,30,0h-7.2c-4.9,0-8.6,4.2-9.9,6.4-1.3,2.2-9.4,16.1-11.5,19.9-2.1,3.9-1.5,8.6-.7,10.2s8.6,15.8,11.8,21.1c3.3,5.4,8.5,6.8,10.1,6.8h7c6.5,0,9.8-5.5,9.8-5.5h-7.2c0,.4-1.2.9-2.8.9Z"/>
  <path class="cls-1" d="M56.9,36s-8.1,14.3-8.7,15.2c-.7.9-.5,1-1.7,1h-2.9c2.3-4,9.2-16.2,9.2-16.2h-5.2s-7.2,12.4-9.6,16.2h-12.5c-.6,0-1.2-.3-1.5-.9l-10.6-18c-.4-.7-.4-1.5,0-2.2l10.3-18.1c.3-.5.9-.9,1.5-.9h10.4s-1.1-2-1.5-2.8c-.5-.8-1.1-1.6-1.8-1.9h-7.8c-1,0-3.2.8-5.1,4.2-1.9,3.4-9.6,16.7-10.3,17.9-.7,1.2-1.1,2.8-.1,4.9,1,2.1,10.1,17.9,10.7,18.9s2.5,3.4,5.1,3.4h22.8c2.6,0,3.4-1.7,4.5-3.5,1.1-1.7,9.9-17.3,9.9-17.3h-5.1Z"/>
</svg>