<?xml version="1.0" encoding="utf-8"?>
<!-- Generator: Adobe Illustrator 28.0.0, SVG Export Plug-In . SVG Version: 6.00 Build 0)  -->
<svg version="1.1" id="Layer_1" xmlns="http://www.w3.org/2000/svg" xmlns:xlink="http://www.w3.org/1999/xlink" x="0px" y="0px"
	 viewBox="0 0 201.5 100" style="enable-background:new 0 0 201.5 100;" xml:space="preserve">
<style type="text/css">
	.st0{fill:#FFFFFF;}
</style>
<g>
	<g>
		<path class="st0" d="M180.2,61.4V29.9H171v40h22.9l2.7-8.6L180.2,61.4L180.2,61.4z M163.1,38.5l2.7-8.6h-25.6v40h22.9l2.7-8.6
			h-16.4v-7.7h11.5l2.7-8.6h-14.2v-6.6H163.1L163.1,38.5z M104.8,38.5h11.3V70h9.3V38.5h9.8v-8.6h-25.3
			C109.9,29.9,104.8,38.5,104.8,38.5z M104,29.9H93.6l-6.5,10.9l-6.5-10.9H70.2l11.7,19.6L69.6,70H80l7.1-11.8l7,11.8h10.4
			L92.3,49.5L104,29.9L104,29.9z M52,60.8c-2,0-4-0.6-5.7-1.8c-1.7-1.2-3-2.9-3.8-4.8c-0.8-2-1-4.1-0.6-6.2c0.4-2.1,1.4-4,2.8-5.5
			c1.4-1.5,3.3-2.5,5.3-3c2-0.4,4.1-0.2,5.9,0.6c1.9,0.8,3.5,2.2,4.6,4c1.1,1.8,1.7,3.9,1.7,6c0,2.9-1.1,5.6-3,7.6
			C57.3,59.7,54.7,60.8,52,60.8z M52,29.4c-2.6,0-5.1,0.5-7.5,1.6c-2.4,1-4.6,2.6-6.4,4.5c-1.8,1.9-3.3,4.2-4.3,6.7
			c-1,2.5-1.5,5.2-1.5,7.9c0,11.3,8.8,20.5,19.6,20.5c10.8,0,19.6-9.2,19.6-20.5C71.6,38.6,62.8,29.4,52,29.4L52,29.4z M27.8,38.5
			l2.7-8.6H4.9v40h9.3V55.6h11.5l2.7-8.6H14.1v-8.5L27.8,38.5L27.8,38.5z"/>
	</g>
</g>
</svg>
