<?xml version="1.0" encoding="UTF-8"?>
<svg id="Layer_1" data-name="Layer 1" xmlns="http://www.w3.org/2000/svg" xmlns:xlink="http://www.w3.org/1999/xlink" version="1.1" viewBox="0 0 100 80">
  <defs>
    <style>
      .cls-1 {
        fill: url(#linear-gradient);
        stroke-width: 0px;
      }
    </style>
    <linearGradient id="linear-gradient" x1="298.3" y1="-245.8" x2="378.8" y2="-382.8" gradientTransform="translate(-294 -276.4) scale(1 -1)" gradientUnits="userSpaceOnUse">
      <stop offset="0" stop-color="#eff0f0" stop-opacity=".7"/>
      <stop offset="1" stop-color="#d7dcdd" stop-opacity=".8"/>
    </linearGradient>
  </defs>
  <path class="cls-1" d="M41.6,80H0v-26.4c0-10.7,1-19.1,2.9-25.3,1.9-6.2,5.5-11.7,10.6-16.6C18.6,6.7,25.2,2.8,33.2,0l7.3,15.3c-7.5,2.5-12.8,5.9-16.1,10.3-3.3,4.4-5,10.2-5.1,17.5h22.3v37h0ZM100,80h-41.7v-26.4c0-10.8,1-19.2,2.9-25.4,1.9-6.1,5.5-11.7,10.7-16.6,5.2-4.9,11.8-8.8,19.7-11.6l7.3,15.3c-7.5,2.5-12.8,5.9-16.1,10.3-3.3,4.4-5,10.2-5.1,17.5h22.3v37h0Z"/>
</svg>