<?xml version="1.0" encoding="utf-8"?>
<!-- Generator: Adobe Illustrator 28.0.0, SVG Export Plug-In . SVG Version: 6.00 Build 0)  -->
<svg version="1.1" id="Layer_1" xmlns="http://www.w3.org/2000/svg" xmlns:xlink="http://www.w3.org/1999/xlink" x="0px" y="0px"
	 viewBox="0 0 296.4 100" style="enable-background:new 0 0 296.4 100;" xml:space="preserve">
<style type="text/css">
	.st0{fill:url(#Path_00000141435445575625477530000013504508841491744397_);}
	.st1{fill:url(#Path_00000120557993284778771440000007549238430860466364_);}
	.st2{fill:#FFFFFF;}
</style>
<g id="images_x2F_logos_x5F_normalyze_x5F_dark_00000104666816376949885170000015063931407123399826_">
	<g id="Group_00000132766679095380401700000014736682051572722562_">
		
			<radialGradient id="Path_00000062882083393388600270000018092951177676371329_" cx="-750.6171" cy="-451.9774" r="1.9428" gradientTransform="matrix(44.8001 0 0 44.8001 33674.3086 20335.6484)" gradientUnits="userSpaceOnUse">
			<stop  offset="0" style="stop-color:#FFFFFF;stop-opacity:0"/>
			<stop  offset="0.2331" style="stop-color:#FFFFFF;stop-opacity:0.1225"/>
			<stop  offset="0.6577" style="stop-color:#FFFFFF;stop-opacity:0.4833"/>
			<stop  offset="1" style="stop-color:#FFFFFF"/>
		</radialGradient>
		
			<path id="Path_00000047762874953130447870000018025850983186342579_" style="fill:url(#Path_00000062882083393388600270000018092951177676371329_);" d="
			M15.3,87h49.4c3.3,0,6.4-1.4,8.6-3.5L6.6,16.6c-2.2,2.3-3.6,5.4-3.6,8.8v49.2C2.9,81.4,8.5,87,15.3,87z"/>
		
			<radialGradient id="Path_00000170251891082673728740000001358608781241797810_" cx="-785.9072" cy="-477.1461" r="1.9301" gradientTransform="matrix(-44.8695 0 0 -44.8695 -35233.7695 -21396.3535)" gradientUnits="userSpaceOnUse">
			<stop  offset="0" style="stop-color:#FFFFFF;stop-opacity:0"/>
			<stop  offset="0.1788" style="stop-color:#FFFFFF;stop-opacity:8.460000e-02"/>
			<stop  offset="0.6212" style="stop-color:#FFFFFF;stop-opacity:0.4519"/>
			<stop  offset="1" style="stop-color:#FFFFFF"/>
		</radialGradient>
		
			<path id="Path_00000134967804478792944950000011742898939511203728_" style="fill:url(#Path_00000170251891082673728740000001358608781241797810_);" d="
			M73.3,83.5c2.3-2.3,3.7-5.4,3.7-8.9V25.4C77,18.6,71.5,13,64.7,13H15.3c-3.4,0-6.5,1.4-8.7,3.6L73.3,83.5z"/>
	</g>
	<g id="Group_00000075843740346380680840000012655021879717787573_" transform="translate(180.292171, 17.953956)">
		<polygon id="Path_00000163063692391851997080000010232646980424608149_" class="st2" points="105.7,23.9 105.7,23.2 108.6,23.2 
			108.6,23.9 107.6,23.9 107.6,27.1 106.8,27.1 106.8,23.9 		"/>
		<polygon id="Path_00000175290125881906639520000018106123800428924095_" class="st2" points="109.1,27.1 109.1,23.2 110.4,23.2 
			111.1,26.1 111.8,23.2 113.1,23.2 113.1,27.1 112.3,27.1 112.3,24.1 112.2,24.1 111.5,26.9 110.7,26.9 109.9,24.1 109.9,24.1 
			109.9,27.1 		"/>
	</g>
	<g id="Group_00000140706609839752324900000009145885561491744190_" transform="translate(64.811530, 13.333593)">
		<polygon id="Path_00000137816816973775232630000007011396840065819780_" class="st2" points="39.9,45.7 39.9,21.4 47.5,21.4 
			55.6,42.2 56.2,42.2 56.2,21.4 60.5,21.4 60.5,45.7 53.1,45.7 44.8,24.8 44.2,24.8 44.2,45.7 		"/>
		<path id="Shape_00000076577620711391294950000012984088198002405025_" class="st2" d="M67.1,29.9c1.3-1.5,3.6-2.3,6.7-2.3
			s5.4,0.8,6.7,2.3c1.3,1.5,2,3.8,2,6.9c0,3.1-0.7,5.4-1.9,6.9c-1.3,1.6-3.6,2.3-6.8,2.3c-3.2,0-5.5-0.8-6.8-2.3S65,39.8,65,36.8
			C65,33.7,65.7,31.4,67.1,29.9z M70.2,41.4c0.6,0.9,1.8,1.4,3.5,1.4s2.9-0.5,3.5-1.4c0.6-0.9,0.9-2.5,0.9-4.6s-0.3-3.7-1-4.6
			c-0.6-0.9-1.8-1.4-3.5-1.4s-2.8,0.5-3.5,1.4c-0.6,0.9-1,2.4-1,4.6S69.6,40.4,70.2,41.4z"/>
		<path id="Path_00000029032712481206505410000018163504348535125676_" class="st2" d="M86.7,45.7V28h4.2v2.1
			c2.2-1.3,4.4-2.1,6.6-2.5v3.9c-2.2,0.4-4.2,0.9-5.7,1.6L91,33.3v12.4L86.7,45.7L86.7,45.7z"/>
		<path id="Path_00000176022101550703838090000001899076362538967216_" class="st2" d="M105.1,45.7h-4.3V28h4.2V29
			c1.9-1,3.5-1.5,5.1-1.5c2.3,0,3.9,0.6,5,1.7c2.4-1.2,4.7-1.7,7.1-1.7c2.4,0,4,0.7,5,2c1,1.3,1.4,3.5,1.4,6.6v9.5h-4.2v-9.4
			c0-1.9-0.2-3.3-0.6-4.1c-0.4-0.8-1.3-1.2-2.7-1.2c-1.2,0-2.4,0.2-3.8,0.7l-0.7,0.3c0.2,0.5,0.3,2,0.3,4.5v9.2h-4.2v-9.1
			c0-2.1-0.2-3.5-0.6-4.4c-0.4-0.8-1.3-1.2-2.7-1.2c-1.3,0-2.5,0.2-3.6,0.7l-0.6,0.2L105.1,45.7L105.1,45.7z"/>
		<path id="Shape_00000065033882542917795030000011744443003838982833_" class="st2" d="M148,33.4v8.1c0,0.5,0.2,0.9,0.4,1.2
			c0.3,0.3,0.7,0.4,1.3,0.5l-0.1,2.9c-2.2,0-4-0.4-5.2-1.3c-2.1,0.9-4.2,1.3-6.3,1.3c-3.9,0-5.8-1.9-5.8-5.6c0-1.8,0.5-3.1,1.6-3.9
			c1.1-0.8,2.7-1.3,4.9-1.5l5-0.4v-1.3c0-0.9-0.2-1.6-0.7-2c-0.5-0.4-1.1-0.6-2-0.6c-1.7,0-3.8,0.1-6.2,0.3l-1.3,0.1l-0.2-2.7
			c2.8-0.6,5.4-0.9,7.8-0.9c2.4,0,4.1,0.5,5.2,1.4C147.5,29.9,148,31.4,148,33.4z M139.3,37.8c-1.8,0.1-2.7,1-2.7,2.7
			s0.8,2.4,2.4,2.4c1.3,0,2.7-0.2,4.1-0.6l0.7-0.2v-4.7L139.3,37.8z"/>
		<polygon id="Path_00000089532212306517359700000017526803920085483190_" class="st2" points="153.6,45.7 153.6,20.6 157.9,20.6 
			157.9,45.7 		"/>
		<polygon id="Path_00000180358802999405447520000008852233422653871516_" class="st2" points="161.5,28 165.7,28 169.8,42.4 
			170.9,42.4 175,28 179.2,28 171.8,53.3 167.6,53.3 170,45.7 166.6,45.7 		"/>
		<polygon id="Path_00000054948587904062805570000014344329484931825569_" class="st2" points="181.5,31.4 181.5,28 196.1,28 
			196.1,31.4 186.7,42.2 196.1,42.2 196.1,45.7 181.5,45.7 181.5,42.2 191,31.4 		"/>
		<path id="Shape_00000154386250255051006400000012216227697786721176_" class="st2" d="M214.2,42.5l1.1-0.1l0.1,2.9
			c-3,0.5-5.6,0.8-7.9,0.8c-2.9,0-5-0.7-6.2-2.2c-1.3-1.4-1.9-3.7-1.9-6.9c0-6.3,2.8-9.4,8.5-9.4c5.5,0,8.2,2.7,8.2,8.1l-0.3,2.8
			h-12.1c0,1.5,0.4,2.5,1.1,3.2c0.7,0.7,1.9,1,3.8,1C210.3,42.7,212.2,42.6,214.2,42.5z M211.9,35.5c0-1.7-0.3-3-0.9-3.7
			c-0.6-0.7-1.6-1.1-3.1-1.1c-1.5,0-2.5,0.4-3.2,1.1c-0.7,0.7-1,1.9-1,3.6L211.9,35.5L211.9,35.5z"/>
	</g>
</g>
</svg>
