<?xml version="1.0" encoding="UTF-8"?>
<svg id="Layer_1" data-name="Layer 1" xmlns="http://www.w3.org/2000/svg" xmlns:xlink="http://www.w3.org/1999/xlink" version="1.1" viewBox="0 0 133.5 133.7">
  <defs>
    <style>
      .cls-1 {
        fill: #1ce0ff;
      }

      .cls-1, .cls-2, .cls-3, .cls-4, .cls-5, .cls-6 {
        stroke-width: 0px;
      }

      .cls-2 {
        fill: #ff6a8d;
      }

      .cls-3 {
        fill: url(#linear-gradient-2);
        opacity: .5;
      }

      .cls-3, .cls-4 {
        isolation: isolate;
      }

      .cls-4 {
        fill: url(#linear-gradient);
        opacity: .6;
      }

      .cls-5 {
        fill: #9257ff;
      }

      .cls-6 {
        fill: url(#linear-gradient-3);
      }
    </style>
    <linearGradient id="linear-gradient" x1="-770.2" y1="-241.4" x2="-769.2" y2="-241.4" gradientTransform="translate(57826.5 29907.1) scale(75.1 123.6)" gradientUnits="userSpaceOnUse">
      <stop offset="0" stop-color="#d26a8d"/>
      <stop offset="0" stop-color="#da6a8d" stop-opacity=".9"/>
      <stop offset=".4" stop-color="#ef6a8d" stop-opacity=".6"/>
      <stop offset=".7" stop-color="#fb6a8d" stop-opacity=".3"/>
      <stop offset="1" stop-color="#ff6a8d" stop-opacity="0"/>
    </linearGradient>
    <linearGradient id="linear-gradient-2" x1="-770.1" y1="-234.6" x2="-769.3" y2="-234.4" gradientTransform="translate(58305.6 12084.8) scale(75.6 51.4)" gradientUnits="userSpaceOnUse">
      <stop offset="0" stop-color="#7741d8"/>
      <stop offset=".7" stop-color="#8d53f8" stop-opacity=".2"/>
      <stop offset=".8" stop-color="#9257ff" stop-opacity="0"/>
    </linearGradient>
    <linearGradient id="linear-gradient-3" x1="-770.7" y1="-240.4" x2="-770.1" y2="-241.2" gradientTransform="translate(63366.2 26729.4) scale(82.1 110.6)" gradientUnits="userSpaceOnUse">
      <stop offset="0" stop-color="#198fe1"/>
      <stop offset=".1" stop-color="#1a9ee7" stop-opacity=".9"/>
      <stop offset=".3" stop-color="#1bbbf1" stop-opacity=".7"/>
      <stop offset=".6" stop-color="#1bd0f9" stop-opacity=".4"/>
      <stop offset=".8" stop-color="#1cdcfd" stop-opacity=".2"/>
      <stop offset="1" stop-color="#1ce0ff" stop-opacity="0"/>
    </linearGradient>
  </defs>
  <g id="orkes-logo-purple">
    <g id="orkes">
      <g id="Group">
        <g id="Path">
          <path class="cls-2" d="M51.4,112.2h0c-10.4-16.9-15.8-42-6.8-67.7h0c4.1-12,11.5-24.3,22.9-35.5l-19.4,19.5h0l-19.7,19.6-19.4,19.4C-7.8,84.4,0,113.3,23.3,119.3l51.8,13.4c-8.7-2.5-17.2-9.8-23.7-20.5Z"/>
          <path class="cls-4" d="M51.4,112.2h0c-10.4-16.9-15.8-42-6.8-67.7h0c4.1-12,11.5-24.3,22.9-35.5l-19.4,19.5h0l-19.7,19.6-19.4,19.4C-7.8,84.4,0,113.3,23.3,119.3l51.8,13.4c-8.7-2.5-17.2-9.8-23.7-20.5Z"/>
          <path class="cls-5" d="M67.2,9.1c-11.5,11.5-18.6,23.5-22.9,35.5,25.3-8.7,50.4-3.6,67.6,6.8,10.9-12,10.6-30.8-.8-42.6-11.5-11.1-31.1-12.5-43.9.3Z"/>
          <path class="cls-3" d="M67.2,9.1c-11.5,11.5-18.6,23.5-22.9,35.5,25.3-8.7,50.4-3.6,67.6,6.8,10.9-12,10.6-30.8-.8-42.6-11.5-11.1-31.1-12.5-43.9.3Z"/>
        </g>
        <path id="Path-2" data-name="Path" class="cls-1" d="M132.4,74.9l-13.4-51.9h0c2.5,9.8,0,20.5-7.1,28.4h0c-.3.3-.5.8-1.1,1.1l-59.4,59.7c6.5,10.6,15,18,23.5,20.5,10.6,2.7,22.1-.3,30-8.2l19.6-19.6c7.6-7.7,10.9-19.1,7.9-30Z"/>
        <path id="Path-3" data-name="Path" class="cls-6" d="M132.4,74.9l-13.4-51.9h0c2.5,9.8,0,20.5-7.1,28.4h0c-.3.3-.5.8-1.1,1.1l-59.4,59.7c6.5,10.6,15,18,23.5,20.5,10.6,2.7,22.1-.3,30-8.2l19.6-19.6c7.6-7.7,10.9-19.1,7.9-30Z"/>
      </g>
    </g>
  </g>
</svg>