<?xml version="1.0" encoding="UTF-8" standalone="no"?>
<!-- Created with Inkscape (http://www.inkscape.org/) -->

<svg
   width="86.589935mm"
   height="19.638245mm"
   viewBox="0 0 86.589935 19.638245"
   version="1.1"
   id="svg5"
   inkscape:version="1.1 (c68e22c387, 2021-05-23)"
   sodipodi:docname="coupang.svg"
   xmlns:inkscape="http://www.inkscape.org/namespaces/inkscape"
   xmlns:sodipodi="http://sodipodi.sourceforge.net/DTD/sodipodi-0.dtd"
   xmlns="http://www.w3.org/2000/svg"
   xmlns:svg="http://www.w3.org/2000/svg">
  <sodipodi:namedview
     id="namedview7"
     pagecolor="#ffffff"
     bordercolor="#666666"
     borderopacity="1.0"
     inkscape:pageshadow="2"
     inkscape:pageopacity="0.0"
     inkscape:pagecheckerboard="0"
     inkscape:document-units="mm"
     showgrid="false"
     inkscape:zoom="1.7353323"
     inkscape:cx="331.06052"
     inkscape:cy="104.59092"
     inkscape:window-width="1523"
     inkscape:window-height="1091"
     inkscape:window-x="2602"
     inkscape:window-y="28"
     inkscape:window-maximized="0"
     inkscape:current-layer="layer1"
     lock-margins="true"
     fit-margin-top="0.1"
     fit-margin-left="0.1"
     fit-margin-right="0.1"
     fit-margin-bottom="0.1" />
  <defs
     id="defs2">
    <clipPath
       clipPathUnits="userSpaceOnUse"
       id="clipPath23">
      <path
         d="M 0,40 H 177.773 V 0 H 0 Z"
         id="path21" />
    </clipPath>
  </defs>
  <g
     inkscape:label="레이어 1"
     inkscape:groupmode="layer"
     id="layer1"
     transform="translate(-14.09273,-113.57014)">
    <g
       id="g19"
       clip-path="url(#clipPath23)"
       transform="matrix(0.48595701,0,0,-0.48595701,14.192633,133.10842)">
      <g
         id="g25"
         transform="translate(92.0436,21.6379)">
        <path
           d="m 0,0 c 0,-1.162 -0.778,-5.221 -5.547,-5.237 -4.77,0.016 -5.548,4.075 -5.548,5.237 v 8.198 c 0,1.162 0.778,5.218 5.548,5.236 C -0.778,13.416 0,9.36 0,8.198 Z M 4.322,13.412 C 3.136,15.7 0.677,18.287 -4.391,18.308 v 0.002 h -0.032 -0.026 v -0.002 c -3.343,-0.013 -5.555,-1.38 -7.008,-2.804 v 1.94 c 0,0.193 -0.156,0.35 -0.35,0.35 h -4.54 c -0.193,0 -0.349,-0.157 -0.349,-0.35 V -20.59 c 0,-0.193 0.156,-0.35 0.349,-0.35 h 4.894 c 0.193,0 0.349,0.157 0.349,0.35 v 12.954 c 1.458,-1.262 3.569,-2.462 6.655,-2.472 h 0.026 0.032 c 5.068,0.018 7.527,2.606 8.713,4.894 1.244,2.401 1.295,4.933 1.295,5.445 v 7.741 c 0,0.508 -0.051,3.041 -1.295,5.44"
           style="fill:#e94b22;fill-opacity:1;fill-rule:nonzero;stroke:none"
           id="path27" />
      </g>
      <g
         id="g29"
         transform="translate(28.4157,21.6613)">
        <path
           d="m 0,0 c 0,-1.162 0.781,-5.217 5.55,-5.237 4.768,0.02 5.551,4.075 5.551,5.237 v 8.197 c 0,1.161 -0.783,5.223 -5.551,5.24 C 0.781,13.42 0,9.358 0,8.197 Z m -5.596,7.948 c 0,0.509 0.056,3.041 1.43,5.442 1.318,2.287 4.053,4.874 9.683,4.894 v 0.002 H 5.55 5.577 v -0.002 c 5.632,-0.02 8.366,-2.607 9.68,-4.894 1.379,-2.401 1.435,-4.933 1.435,-5.442 v -7.74 c 0,-0.513 -0.056,-3.045 -1.435,-5.445 -1.314,-2.288 -4.048,-4.876 -9.68,-4.895 H 5.55 5.517 c -5.63,0.019 -8.365,2.607 -9.683,4.895 -1.374,2.4 -1.43,4.932 -1.43,5.445 z"
           style="fill:#894f24;fill-opacity:1;fill-rule:nonzero;stroke:none"
           id="path31" />
      </g>
      <g
         id="g33"
         transform="translate(71.1051,39.0822)">
        <path
           d="m 0,0 c 0,0.189 -0.149,0.35 -0.35,0.35 h -4.886 c -0.201,0 -0.35,-0.161 -0.35,-0.35 l -0.02,-17.444 c 0,-1.16 -0.77,-5.217 -5.537,-5.237 -4.777,0.02 -5.556,4.077 -5.556,5.237 V 0 c 0,0.189 -0.16,0.35 -0.351,0.35 h -4.917 c -0.189,0 -0.349,-0.161 -0.349,-0.35 v -17.214 c 0,-0.511 0.049,-3.049 1.299,-5.447 1.179,-2.289 3.648,-4.877 8.714,-4.887 h 0.031 0.02 c 1.679,0 3.058,0.35 4.217,0.869 1.149,0.52 2.069,1.209 2.799,1.929 v -1.933 c 0,-0.193 0.156,-0.349 0.349,-0.349 h 4.541 c 0.193,0 0.349,0.156 0.349,0.349 z"
           style="fill:#894f24;fill-opacity:1;fill-rule:nonzero;stroke:none"
           id="path35" />
      </g>
      <g
         id="g37"
         transform="translate(116.903,21.1877)">
        <path
           d="m 0,0 c 0,-1.09 -0.759,-4.907 -5.402,-4.925 -4.645,0.018 -5.403,3.835 -5.403,4.925 v 0.444 c 0,1.092 0.758,4.907 5.403,4.923 C -0.759,5.351 0,1.536 0,0.444 Z m 5.184,8.689 c -0.003,2.181 -1.092,7.29 -6.046,9.322 -4.785,1.962 -11.084,-0.191 -13.134,-1.023 -10e-4,-0.001 -0.375,-0.151 -0.375,-0.151 -0.179,-0.073 -0.265,-0.278 -0.192,-0.457 l 1.397,-3.963 c 0.062,-0.171 0.244,-0.267 0.416,-0.22 0.057,0.015 0.14,0.059 0.164,0.072 1.898,0.96 6.809,2.576 9.829,1.199 2.97,-1.354 2.711,-4.515 2.728,-4.853 V 7.839 c -1.441,1.049 -3.45,2.048 -6.288,2.058 h -0.027 -0.024 c -5.075,-0.019 -7.53,-2.462 -8.721,-4.626 -1.239,-2.266 -1.292,-4.658 -1.292,-5.143 V 0.119 c 0,-0.478 0.053,-2.874 1.292,-5.14 1.191,-2.162 3.646,-4.604 8.721,-4.626 h 0.024 0.027 c 2.955,0.011 5.013,1.074 6.462,2.196 v -1.337 c 0,-0.192 0.156,-0.35 0.349,-0.35 h 4.34 c 0.193,0 0.35,0.158 0.35,0.35 L 5.189,8.503 c 0,0.063 0,0.124 -0.005,0.186"
           style="fill:#fac000;fill-opacity:1;fill-rule:nonzero;stroke:none"
           id="path39" />
      </g>
      <g
         id="g41"
         transform="translate(169.0963,29.7932)">
        <path
           d="m 0,0 c 0,-1.066 -0.779,-4.943 -5.549,-4.96 -4.773,0.017 -5.549,3.894 -5.549,4.96 v 0.349 c 0,1.069 0.776,4.947 5.549,4.963 C -0.779,5.296 0,1.418 0,0.349 Z M 8.306,10.021 C 5.434,10.102 3.572,8.916 2.374,7.608 0.763,9.01 -1.719,10.14 -5.515,10.152 v 0.002 h -0.034 -0.03 v -0.002 c -5.629,-0.02 -8.363,-2.482 -9.683,-4.666 -1.372,-2.292 -1.434,-4.704 -1.434,-5.189 V 0.033 c 0,-0.489 0.062,-2.903 1.439,-5.188 0.587,-0.98 1.465,-2.011 2.758,-2.858 -2.119,-1.218 -3.99,-3.37 -3.99,-7.255 l -10e-4,-2.092 c 0,-0.194 0.157,-0.35 0.35,-0.35 l 16.127,0.001 c 1.937,0 2.913,-1.276 3.187,-2.476 0.341,-1.504 -0.237,-3.538 -2.751,-4.918 L 0.255,-25.2 c -0.164,-0.095 -0.223,-0.304 -0.132,-0.471 l 2.156,-3.94 c 0.094,-0.172 0.311,-0.233 0.481,-0.136 0,0 1.113,0.681 1.473,0.923 0.363,0.244 0.682,0.525 0.983,0.806 2.766,2.581 3.344,6.133 2.722,8.904 -0.844,3.761 -4.037,6.022 -7.951,6.022 h -11.124 c 0.612,3.361 4.533,3.298 5.003,3.279 0,0 0.607,-0.009 0.619,-0.009 5.628,0.017 8.359,2.482 9.676,4.667 1.375,2.285 1.437,4.699 1.437,5.188 V 0.297 C 5.598,0.712 5.55,2.498 4.703,4.426 5.44,4.937 6.587,5.41 8.272,5.32 L 8.315,5.319 C 8.509,5.316 8.668,5.47 8.672,5.663 l 0.005,3.946 v 0.002 0.018 c 0,0.209 -0.137,0.392 -0.371,0.392"
           style="fill:#3dacdc;fill-opacity:1;fill-rule:nonzero;stroke:none"
           id="path43" />
      </g>
      <g
         id="g45"
         transform="translate(20.9752,17.4289)">
        <path
           d="M 0,0 -4.332,2.168 C -4.505,2.254 -4.715,2.184 -4.801,2.011 L -4.831,1.952 -4.833,1.951 c -0.671,-1.436 -2.09,-2.943 -4.995,-2.956 -4.768,0.022 -5.55,4.075 -5.55,5.237 v 8.198 c 0,1.16 0.782,5.221 5.55,5.239 2.946,-0.012 4.362,-1.562 5.022,-3.021 0.056,-0.145 0.196,-0.252 0.366,-0.252 0.062,0 0.117,0.019 0.175,0.047 0.004,-0.002 4.246,2.213 4.246,2.213 0.171,0.089 0.238,0.3 0.148,0.472 l -0.004,0.008 c -0.001,0.001 -0.001,0.003 -0.001,0.004 -0.076,0.16 -0.153,0.32 -0.245,0.481 -1.315,2.288 -4.049,4.875 -9.681,4.896 v 0.002 h -0.031 -0.03 v -0.002 c -5.627,-0.021 -8.363,-2.608 -9.676,-4.896 -1.38,-2.399 -1.436,-4.932 -1.436,-5.44 V 4.44 c 0,-0.512 0.056,-3.044 1.436,-5.445 1.313,-2.288 4.049,-4.876 9.676,-4.894 h 0.061 c 5.632,0.018 8.366,2.606 9.681,4.894 0.006,0.009 0.275,0.535 0.275,0.535 C 0.241,-0.297 0.172,-0.087 0,0"
           style="fill:#894f24;fill-opacity:1;fill-rule:nonzero;stroke:none"
           id="path47" />
      </g>
      <g
         id="g49"
         transform="translate(147.4489,35.0686)">
        <path
           d="m 0,0 c -1.19,2.289 -3.65,4.874 -8.72,4.892 v 0.004 c -0.009,0 -0.013,-0.004 -0.032,-0.004 -0.003,0 -0.012,0.004 -0.025,0.004 V 4.892 C -12.11,4.883 -14.31,3.524 -15.766,2.112 l 0.003,1.902 c 0,0.192 -0.156,0.349 -0.349,0.349 h -4.54 c -0.194,0 -0.35,-0.157 -0.35,-0.349 v -26.682 c 0,-0.193 0.156,-0.351 0.35,-0.351 h 4.89 c 0.194,0 0.35,0.158 0.35,0.351 V -4.93 c 0.117,1.422 1.096,4.937 5.535,4.954 4.773,-0.018 5.55,-4.077 5.55,-5.239 v -17.453 c 0,-0.193 0.157,-0.351 0.35,-0.351 h 4.914 c 0.194,0 0.35,0.158 0.35,0.351 V -5.444 C 1.287,-4.933 1.239,-2.401 0,0"
           style="fill:#80bc27;fill-opacity:1;fill-rule:nonzero;stroke:none"
           id="path51" />
      </g>
    </g>
  </g>
</svg>
