<svg width="109" height="23" viewBox="0 0 109 23" fill="none" xmlns="http://www.w3.org/2000/svg">
    <g clip-path="url(#2s2i07x44a)">
        <path d="M99.865 17.859V.296H94.69V22.65h12.784l1.522-4.79h-9.131zM90.308 5.086l1.521-4.79H77.524V22.65h12.784l1.521-4.79H82.7V13.58h6.395l1.518-4.79h-7.914V5.086h7.61zm-32.568 0h6.303v17.563h5.174V5.085h5.481V.296H60.601l-2.861 4.79zm-.456-4.79H51.5l-3.622 6.099L44.226.296h-5.783l6.544 10.92-6.851 11.429h5.783l3.957-6.578 3.926 6.578h5.784l-6.818-11.428L57.284.297zM28.277 17.508a5.547 5.547 0 0 1-3.193-1.008 5.966 5.966 0 0 1-2.12-2.7 6.295 6.295 0 0 1-.33-3.482 6.117 6.117 0 0 1 1.57-3.086 5.66 5.66 0 0 1 2.942-1.648 5.489 5.489 0 0 1 3.319.346 5.807 5.807 0 0 1 2.574 2.224c.63.992.964 2.158.96 3.35 0 1.593-.602 3.12-1.675 4.246-1.074 1.125-2.53 1.758-4.047 1.758zm0-17.5a10.507 10.507 0 0 0-4.195.874 10.93 10.93 0 0 0-3.555 2.491 11.54 11.54 0 0 0-2.376 3.73 11.98 11.98 0 0 0-.832 4.401c0 6.325 4.9 11.464 10.958 11.464 6.029 0 10.927-5.14 10.927-11.464C39.204 5.15 34.304.01 28.277.01zM14.763 5.087l1.522-4.79H1.979V22.65h5.176v-8.047h6.392l1.522-4.79H7.155V5.086h7.608z" fill="#FF4622"/>
    </g>
    <defs>
        <clipPath id="2s2i07x44a">
            <path fill="#fff" d="M0 0h109v23H0z"/>
        </clipPath>
    </defs>
</svg>
