<?xml version="1.0" encoding="UTF-8" standalone="no"?>
<svg
   xmlns:dc="http://purl.org/dc/elements/1.1/"
   xmlns:cc="http://creativecommons.org/ns#"
   xmlns:rdf="http://www.w3.org/1999/02/22-rdf-syntax-ns#"
   xmlns:svg="http://www.w3.org/2000/svg"
   xmlns="http://www.w3.org/2000/svg"
   width="182"
   height="40"
   viewBox="0 0 182 40"
   version="1.1"
   id="svg26">
  <metadata
     id="metadata30">
    <rdf:RDF>
      <cc:Work
         rdf:about="">
        <dc:format>image/svg+xml</dc:format>
        <dc:type
           rdf:resource="http://purl.org/dc/dcmitype/StillImage" />
        <dc:title>Logo GE</dc:title>
      </cc:Work>
    </rdf:RDF>
  </metadata>
  <defs
     id="defs12">

  </defs>
  <title
     id="title14">Logo GE</title>
  <g
     fill="none"
     fill-rule="evenodd"
     id="g24">
    <path
       d="M 0,1 H 182 V 39 H 0 Z"
       id="path16" />
    <g
       style="font-size:18px;font-family:GEInspiraSans-Regular;fill:#2f3133"
       id="text20"
       aria-label="GE Healthcare">
      <path
         d="M 118.4043,14.324219 V 28 h 1.65429 V 14.324219 Z m 12.04297,0 V 28 h 1.65039 v -7.330078 c 0.45117,-0.345703 0.92383,-0.628907 1.41601,-0.851563 0.49219,-0.222656 0.96289,-0.335937 1.41406,-0.335937 0.43946,0 0.79883,0.0625 1.07422,0.185547 0.27539,0.117187 0.48633,0.298828 0.63282,0.544922 0.14062,0.222656 0.23632,0.533203 0.28906,0.93164 0.0527,0.392578 0.0801,0.814453 0.0801,1.265625 V 28 h 1.65039 v -6.371094 c 0,-1.201172 -0.27735,-2.123047 -0.83399,-2.761718 -0.55664,-0.638672 -1.36523,-0.957032 -2.42578,-0.957032 -0.58008,0 -1.14648,0.121094 -1.69726,0.361328 -0.55078,0.240234 -1.08399,0.574219 -1.59961,1.001954 V 14.324219 Z M 57.875,14.675781 c -2.132813,0 -3.8125,0.605469 -5.037109,1.81836 -1.21875,1.207031 -1.828125,2.857422 -1.828125,4.949218 0,1.142579 0.166015,2.142579 0.49414,2.998047 0.328125,0.84961 0.792969,1.558594 1.396485,2.126953 0.597656,0.5625 1.320312,0.984375 2.169921,1.265625 0.84961,0.28125 1.785157,0.421875 2.804688,0.421875 0.791015,0 1.607422,-0.121093 2.451172,-0.361328 0.849609,-0.246093 1.632812,-0.533203 2.347656,-0.861328 v -5.617187 h -5.228516 v 1.529296 h 3.50586 v 3.208985 c -0.421875,0.175781 -0.914063,0.320312 -1.476563,0.431641 -0.55664,0.111327 -1.117187,0.166015 -1.679687,0.166015 -1.535156,0 -2.746094,-0.46875 -3.636719,-1.40625 -0.890625,-0.943359 -1.337891,-2.261719 -1.337891,-3.955078 0,-1.605469 0.425782,-2.876953 1.275391,-3.814453 0.855469,-0.943359 2.015625,-1.414063 3.480469,-1.414063 0.650391,0 1.230469,0.06055 1.740234,0.183594 0.515626,0.117187 0.97461,0.265625 1.378906,0.447266 0.333985,0.152344 0.673829,0.34375 1.019532,0.572265 0.345703,0.228516 0.611328,0.41211 0.792968,0.552735 h 0.15625 V 15.853516 C 61.767578,15.425781 60.929687,15.123047 60.150391,14.947266 59.376953,14.765625 58.619141,14.675781 57.875,14.675781 Z m 7.839844,0.238281 V 28 h 8.621094 v -1.546875 h -6.88086 v -4.861328 h 6.88086 v -1.546875 h -6.88086 v -3.583984 h 6.88086 v -1.546876 z m 17.71875,0 V 28 h 1.740234 v -6.408203 h 6.53125 V 28 h 1.740234 V 14.914062 h -1.740234 v 5.13086 h -6.53125 v -5.13086 z m 39.945316,0.447266 v 2.820313 h -1.11524 v 1.388671 h 1.11524 v 5.220704 c 0,1.189453 0.26171,2.054687 0.7832,2.59375 0.52149,0.539062 1.2832,0.808593 2.28516,0.808593 0.2871,0 0.61132,-0.02539 0.97461,-0.07813 0.36914,-0.05273 0.70898,-0.121093 1.01953,-0.203125 l 0.002,-1.484375 h -0.0879 c -0.12891,0.05273 -0.33985,0.119141 -0.63281,0.201172 -0.29297,0.07617 -0.57422,0.113281 -0.84375,0.113282 -0.4629,0 -0.8086,-0.05078 -1.03711,-0.15625 -0.22266,-0.111329 -0.39844,-0.285156 -0.52735,-0.519532 -0.1406,-0.251952 -0.22262,-0.521483 -0.24609,-0.808594 -0.0235,-0.292968 -0.0352,-0.697265 -0.0352,-1.21289 v -4.47461 h 3.40821 v -1.388671 h -3.40821 v -2.820313 z m -22.46289,2.548828 c -1.429692,0 -2.583988,0.470703 -3.462895,1.414063 -0.873047,0.943359 -1.310547,2.21875 -1.310547,3.824219 0,1.623047 0.457031,2.876953 1.371094,3.761718 0.914063,0.878907 2.185544,1.31836 3.814448,1.31836 0.63867,0 1.24805,-0.07813 1.82813,-0.236328 0.58008,-0.158204 1.14844,-0.35547 1.70508,-0.589844 v -1.800782 h -0.0879 c -0.28712,0.257813 -0.77149,0.521485 -1.45117,0.791016 -0.67383,0.263671 -1.34376,0.394531 -2.01172,0.394531 -0.50391,0 -0.9668,-0.07031 -1.388675,-0.210937 C 99.50586,26.435547 99.144532,26.224609 98.839844,25.943359 98.523438,25.65625 98.275391,25.291015 98.09375,24.845703 97.912109,24.394531 97.820312,23.865235 97.820312,23.261719 h 7.234378 v -0.894531 c 0,-1.423828 -0.35937,-2.523438 -1.08008,-3.296876 -0.71484,-0.773437 -1.73437,-1.160156 -3.05859,-1.160156 z m 72.91406,0 c -1.42969,0 -2.58399,0.470703 -3.46289,1.414063 -0.87305,0.943359 -1.31055,2.21875 -1.31055,3.824219 0,1.623047 0.45703,2.876953 1.37109,3.761718 0.91407,0.878907 2.18555,1.31836 3.81446,1.31836 0.63867,0 1.24805,-0.07813 1.82812,-0.236328 0.58008,-0.158204 1.14844,-0.35547 1.70508,-0.589844 v -1.800782 h -0.0879 c -0.28711,0.257813 -0.77148,0.521485 -1.45117,0.791016 -0.67383,0.263671 -1.34375,0.394531 -2.01172,0.394531 -0.50391,0 -0.9668,-0.07031 -1.38867,-0.210937 -0.41602,-0.140625 -0.77735,-0.351563 -1.08203,-0.632813 -0.31641,-0.287109 -0.56446,-0.652344 -0.7461,-1.097656 -0.18164,-0.451172 -0.27343,-0.980468 -0.27343,-1.583984 h 7.23437 v -0.894531 c 0,-1.423828 -0.35938,-2.523438 -1.08008,-3.296876 -0.71484,-0.773437 -1.73437,-1.160156 -3.05859,-1.160156 z m -62.91406,0.03516 c -0.5918,0 -1.19141,0.05273 -1.80079,0.158204 -0.60937,0.105468 -1.07617,0.203125 -1.39843,0.291015 v 1.677735 h 0.0879 c 0.56836,-0.216798 1.12109,-0.38086 1.65429,-0.492188 0.5332,-0.117187 1.01563,-0.175781 1.44922,-0.175781 0.35743,0 0.69923,0.02344 1.02735,0.07031 0.32812,0.04688 0.60937,0.136719 0.84375,0.271485 0.24609,0.140625 0.43359,0.333985 0.5625,0.580078 0.13476,0.246094 0.20312,0.55664 0.20312,0.93164 v 0.25586 c -0.96093,0.04687 -1.85937,0.117187 -2.69726,0.210937 -0.8379,0.09375 -1.55665,0.271485 -2.1543,0.535157 -0.5918,0.263672 -1.04883,0.628906 -1.37109,1.091796 -0.31641,0.457032 -0.47461,1.056641 -0.47461,1.800782 0,0.908202 0.30859,1.656249 0.92382,2.242187 0.61524,0.585938 1.36524,0.878907 2.25,0.878907 0.48047,0 0.89844,-0.04687 1.25586,-0.140626 0.35743,-0.08789 0.67384,-0.199219 0.94922,-0.333984 0.23438,-0.105469 0.47461,-0.246094 0.72071,-0.421875 0.25195,-0.181641 0.45117,-0.322266 0.59765,-0.421875 V 28 h 1.64453 l -0.002,-6.662109 c 0,-0.632813 -0.0957,-1.162109 -0.28906,-1.589844 -0.19336,-0.427734 -0.47461,-0.777344 -0.84375,-1.046875 -0.375,-0.275391 -0.82031,-0.46875 -1.33594,-0.580078 -0.50977,-0.117188 -1.11133,-0.175782 -1.80273,-0.175782 z m 43.66406,0 c -0.5918,0 -1.19141,0.05273 -1.80078,0.158204 -0.60938,0.105468 -1.07618,0.203125 -1.39844,0.291015 v 1.677735 h 0.0898 c 0.56836,-0.216798 1.11719,-0.38086 1.65039,-0.492188 0.5332,-0.117187 1.01758,-0.175781 1.45118,-0.175781 0.35742,0 0.70117,0.02344 1.02929,0.07031 0.32812,0.04688 0.60937,0.136719 0.84375,0.271485 0.2461,0.140625 0.4336,0.333985 0.5625,0.580078 0.13476,0.246094 0.20117,0.55664 0.20117,0.93164 v 0.25586 c -0.96093,0.04687 -1.86132,0.117187 -2.69921,0.210937 -0.83789,0.09375 -1.55469,0.271485 -2.15235,0.535157 -0.59179,0.263672 -1.04883,0.628906 -1.37109,1.091796 -0.31641,0.457032 -0.47461,1.056641 -0.47461,1.800782 0,0.908202 0.30664,1.656249 0.92187,2.242187 0.61524,0.585938 1.36524,0.878907 2.25,0.878907 0.48047,0 0.90039,-0.04687 1.25782,-0.140626 0.35742,-0.08789 0.67383,-0.199219 0.94921,-0.333984 0.23439,-0.105469 0.47461,-0.246094 0.72071,-0.421875 0.25195,-0.181641 0.45117,-0.322266 0.59765,-0.421875 V 28 h 1.64454 l -0.002,-6.662109 c 0,-0.632813 -0.0957,-1.162109 -0.28906,-1.589844 -0.19336,-0.427734 -0.47461,-0.777344 -0.84375,-1.046875 -0.375,-0.275391 -0.82031,-0.46875 -1.33594,-0.580078 -0.50976,-0.117188 -1.11133,-0.175782 -1.80273,-0.175782 z m -8.62891,0.0098 c -1.44726,0 -2.61328,0.455079 -3.49805,1.369141 -0.8789,0.914062 -1.31835,2.173828 -1.31835,3.779297 0,0.861328 0.11523,1.615234 0.34961,2.259765 0.23437,0.644532 0.5664,1.177734 0.99414,1.59961 0.42187,0.421874 0.92773,0.738281 1.51953,0.949218 0.5918,0.205079 1.24414,0.308594 1.95312,0.308594 0.55664,0 1.08008,-0.07422 1.57227,-0.220703 0.49804,-0.146485 1.02344,-0.351563 1.57422,-0.615234 v -1.81836 h -0.0898 c -0.12304,0.09961 -0.28906,0.218751 -0.5,0.359375 -0.21093,0.134766 -0.43749,0.263672 -0.67773,0.386719 -0.27539,0.140625 -0.58594,0.253906 -0.93164,0.341797 -0.3457,0.08789 -0.68555,0.132812 -1.01953,0.132812 -0.96094,0 -1.70703,-0.316406 -2.24024,-0.949218 -0.52734,-0.638672 -0.79101,-1.550781 -0.79101,-2.734375 0,-1.21875 0.26953,-2.140625 0.80859,-2.767578 0.54492,-0.632812 1.28516,-0.949219 2.22266,-0.949219 0.50976,0 1.03124,0.105469 1.56445,0.316406 0.53906,0.210937 1.06055,0.511719 1.56445,0.904297 h 0.0898 v -1.835938 c -0.45118,-0.228515 -0.94922,-0.421874 -1.49414,-0.580078 -0.53906,-0.158202 -1.08985,-0.236328 -1.65235,-0.236328 z m 16.09961,0.226563 V 28 h 1.65234 v -6.970703 c 0.43946,-0.357421 0.89649,-0.646484 1.3711,-0.869141 0.47461,-0.228515 0.96679,-0.34375 1.47656,-0.34375 0.31641,0 0.58985,0.01562 0.81836,0.04492 0.23437,0.02344 0.47461,0.06445 0.7207,0.123047 h 0.0879 v -1.695313 c -0.2578,-0.04101 -0.45117,-0.06836 -0.58007,-0.08008 -0.12891,-0.01758 -0.33789,-0.02734 -0.625,-0.02734 -0.52148,0 -1.03321,0.11328 -1.53711,0.335937 -0.49805,0.216797 -1.07617,0.587891 -1.73243,1.115234 v -1.451171 z m -61.22266,1.091797 c 0.87891,0 1.53126,0.236328 1.95899,0.710937 0.43345,0.474609 0.65416,1.144531 0.66016,2.011719 h -5.626958 c 0.07031,-0.773438 0.367188,-1.419922 0.888672,-1.941406 0.527344,-0.521485 1.234374,-0.78125 2.119136,-0.78125 z m 72.91211,0 c 0.87891,0 1.53321,0.236328 1.96094,0.710937 0.43346,0.474609 0.6522,1.144531 0.65821,2.011719 h -5.625 c 0.0703,-0.773438 0.36718,-1.419922 0.88867,-1.941406 0.52734,-0.521485 1.23242,-0.78125 2.11718,-0.78125 z m -60.19531,3.576171 v 2.734375 c -0.41015,0.316406 -0.85546,0.587891 -1.33594,0.816407 -0.48046,0.222656 -1.01171,0.333984 -1.59179,0.333984 -0.69726,0 -1.21484,-0.140625 -1.55469,-0.421875 -0.33985,-0.287109 -0.50977,-0.710937 -0.50977,-1.273438 0,-0.498046 0.14648,-0.888671 0.43946,-1.169921 0.29296,-0.28711 0.67578,-0.498047 1.15039,-0.632813 0.39844,-0.111329 0.9375,-0.197266 1.61719,-0.255859 0.68554,-0.05859 1.28125,-0.10156 1.78515,-0.13086 z m 43.66406,0 v 2.734375 c -0.41015,0.316406 -0.85547,0.587891 -1.33593,0.816407 -0.48048,0.222656 -1.00977,0.333984 -1.58985,0.333984 -0.69726,0 -1.21679,-0.140625 -1.55664,-0.421875 -0.33984,-0.287109 -0.50976,-0.710937 -0.50976,-1.273438 0,-0.498046 0.14648,-0.888671 0.43945,-1.169921 0.29297,-0.28711 0.67773,-0.498047 1.15234,-0.632813 0.39844,-0.111329 0.93555,-0.197266 1.61524,-0.255859 0.68554,-0.05859 1.28125,-0.10156 1.78515,-0.13086 z"
         id="path69" />
    </g>
    <path
       d="m 40.333,20 c 0,-11.028 -8.972,-20 -20,-20 -11.027,0 -20,8.972 -20,20 0,11.065 8.973,20 20,20 11.028,0 20,-8.935 20,-20 z m -0.953,0 c 0,10.528 -8.519,19.046 -19.047,19.046 C 9.806,39.046 1.278,30.528 1.278,20 1.278,9.472 9.806,0.944 20.333,0.944 30.861,0.944 39.38,9.528 39.38,20 Z m -1.213,0 C 38.167,13.676 34.944,7.139 28.027,5.046 26.593,4.602 25.38,4.324 23.981,4.324 c -3.203,0 -3.314,1.824 -4.814,1.824 -0.824,0 -1.38,-0.602 -1.38,-1.324 0,-1.268 1.5,-2.268 3.88,-2.268 2.222,0 3.935,0.555 4.259,0.713 L 25.981,3.111 C 25.38,2.88 23.278,2.157 20.343,2.157 c -6.38,0 -12.862,3.278 -14.954,10.14 -0.445,1.434 -0.732,2.666 -0.732,4.046 0,3.222 1.824,3.37 1.824,4.87 a 1.31,1.31 0 0 1 -1.324,1.343 c -1.268,0 -2.268,-1.454 -2.268,-3.89 0,-2.212 0.555,-3.935 0.657,-4.259 L 3.389,14.352 c -0.176,0.667 -0.898,2.722 -0.898,5.657 0,6.426 3.278,12.908 10.139,15.01 1.444,0.444 2.666,0.712 4.046,0.712 3.222,0 3.315,-1.88 4.815,-1.88 0.787,0 1.398,0.612 1.398,1.38 0,1.223 -1.454,2.223 -3.889,2.223 -2.213,0 -3.99,-0.556 -4.26,-0.667 l -0.055,0.167 c 0.611,0.268 2.722,0.889 5.658,0.889 6.37,0 12.907,-3.223 14.953,-10.14 0.445,-1.379 0.713,-2.647 0.713,-3.99 0,-3.26 -1.824,-3.38 -1.824,-4.87 0,-0.824 0.556,-1.38 1.324,-1.38 1.278,0 2.278,1.5 2.278,3.935 0,2.167 -0.556,3.88 -0.667,4.26 l 0.167,0.055 C 37.5,25.046 38.167,22.991 38.167,20 Z m -6.713,5.315 c 0,2.49 -2.148,5.102 -5.315,5.102 -3.815,0 -5.76,-3.223 -5.76,-6.102 0,-4.046 2.76,-5.76 3.927,-6.37 A 2.096,2.096 0 0 1 23.75,17.278 c -1.343,0.944 -2.546,1.778 -5.102,3.222 -0.111,1.769 -0.268,3.704 -0.722,5.046 -0.945,2.824 -2.88,4.87 -5.426,4.87 -2.148,0 -3.204,-1.555 -3.204,-3.222 0,-1.213 0.713,-2.768 2,-3.935 1.611,-1.444 3.38,-2.324 5.815,-3.602 0.056,-0.324 0.111,-0.657 0.167,-1.055 -0.611,0.555 -1.491,0.787 -2.222,0.787 -1.158,0 -2.112,-1 -2.325,-2.046 -1.555,-0.112 -2.722,-1.223 -2.777,-2.991 0,-1.269 0.5,-2.38 1.342,-2.38 0.324,0 0.445,0.269 0.445,0.5 0,0.213 -0.287,0.945 -0.287,1.648 0,0.732 0.342,1.667 1.222,1.667 0,-2.88 2.111,-6.593 4.602,-6.593 1.648,0 1.88,1.223 1.88,1.778 0,2.611 -2.602,5.482 -4.714,6.195 0.056,0.231 0.287,0.842 0.954,0.842 0.824,0 1.824,-0.787 2.324,-1.398 0.213,-1.148 1.056,-2.815 2.167,-2.815 0.444,0 0.657,0.324 0.657,0.723 0,0.824 -0.88,1.88 -1.555,2.592 a 9.723,9.723 0 0 0 -0.158,1.667 c 1.936,-1.167 2.936,-1.769 4.37,-2.824 -0.11,-0.39 -0.11,-0.843 -0.11,-1.278 0,-2.593 1.722,-5.482 3.99,-5.482 1.287,0 1.936,0.899 1.936,1.899 0,1.88 -1.612,3.527 -3.87,5.259 0.175,0.444 0.444,0.824 0.879,1.055 0.055,-0.11 0.778,-0.231 1.38,-0.231 0.666,0 1.61,0.176 1.61,0.843 0,0.768 -1.055,0.944 -1.88,0.944 -0.444,0.056 -1.166,-0.111 -1.166,-0.111 -1.213,0.324 -3.546,1.722 -3.546,5.26 0,2.388 1.5,4.601 3.833,4.601 1.769,0 3.204,-1.324 3.26,-3.38 0,-1.324 -0.556,-2.722 -1.88,-2.722 -0.667,0 -1.269,0.5 -1.269,1.222 -0.055,1.111 0.769,1.223 0.769,1.936 0,0.5 -0.38,0.731 -0.769,0.731 -1.11,0 -1.953,-1.111 -1.953,-2.49 0,-1.667 1.453,-3.047 3.333,-3.047 2.444,-0.028 3.704,2.083 3.704,4.352 z M 27.37,11.352 c 0,-0.269 -0.055,-0.611 -0.398,-0.611 -0.824,0 -2.148,1.778 -2.148,4.046 1.648,-1.444 2.546,-2.667 2.546,-3.435 z M 17.556,11.12 c 0,-0.268 -0.158,-0.38 -0.39,-0.38 -1.166,0 -2.814,3.047 -2.814,4.871 1.824,-1 3.204,-3.26 3.204,-4.49 z m -0.658,10.37 c -2.49,1.214 -5.657,3.38 -5.657,5.76 0,0.88 0.444,1.435 1.268,1.435 2.435,0 3.935,-3.87 4.39,-7.194 z"
       fill="#005eb8"
       id="path22" />
  </g>
</svg>
