<?xml version="1.0" encoding="utf-8"?>
<!-- Generator: Adobe Illustrator 27.2.0, SVG Export Plug-In . SVG Version: 6.00 Build 0)  -->
<svg version="1.1" id="Layer_1" xmlns="http://www.w3.org/2000/svg" xmlns:xlink="http://www.w3.org/1999/xlink" x="0px" y="0px"
	 viewBox="0 0 4063.75 1428.92" style="enable-background:new 0 0 4063.75 1428.92;" xml:space="preserve">
<g>
	<path d="M914.56,192.54c-16.85-19.43-38.47-32.68-64.83-40.33c-26.33-7.63-63.62-11.53-112.34-11.53
		c-26.5,0-63.56,1.05-110.91,2.89l-59.05,2.16v15.84h8.64c23.97,0,39.61,2.33,46.82,6.48c7.23,4.18,11.58,11.45,13.67,22.33
		c2.09,10.89,3.61,35.28,3.61,72.74v230.44c0,39.34-1.52,64.86-3.61,75.61c-2.09,10.77-6.6,18.69-14.39,23.77
		c-7.79,5.09-22.26,7.2-42.5,7.2h-12.25V616H784.2v-15.85h-15.84c-21.18,0-35.53-2.33-43.22-7.92
		c-7.68-5.57-12.66-14.43-14.39-25.92c-1.77-11.51-2.16-35.59-2.16-72.74v-99.39h51.86c53.99,0,91.63-4.96,113.06-15.12
		c21.45-10.19,37.48-25,48.97-44.66c11.47-19.68,17.28-42.73,17.28-68.42C939.76,236.4,931.39,211.96,914.56,192.54z M849.73,335.12
		c-11.13,17.41-25.11,28.35-41.76,33.86c-16.68,5.45-38.44,8.64-65.55,8.64h-33.84V158.68c8.33-0.92,20.27-1.42,36-1.42
		c42.91,0,73.79,9.13,92.91,27.36c19.1,18.2,28.81,46.73,28.81,85.69C866.31,295.85,860.86,317.73,849.73,335.12z"/>
	<path d="M291.62,145.73v15.84h10.8c23.87,0,39.03,2.32,46.09,6.48c7.08,4.16,12.21,11.49,14.4,22.32
		c2.19,10.86,2.88,35.33,2.88,72.74v159.87c0,52.4-1.34,90.33-5.04,113.06c-3.65,22.79-15.16,42.32-33.13,59.05
		c-17.97,16.74-39.99,25.21-66.25,25.21c-12.91,0-23.64-2.35-32.41-6.48c-8.72-4.13-12.96-9.92-12.96-17.28
		c0-2.77,1.06-6.72,3.6-12.24c2.8-6.23,4.32-12.23,4.32-18c0-9.68-3.2-17.81-10.08-24.49c-6.86-6.7-15.69-10.08-25.93-10.08
		c-10.01,0-18.32,4.06-25.21,11.52c-6.86,7.46-10.08,16.45-10.08,27.37c0,18.1,9.68,33.68,28.81,46.81
		c19.18,13.11,45.86,19.44,81.38,19.44c31.61,0,59.67-5.21,83.54-15.84c23.87-10.66,43.32-25.63,57.61-45.37
		c14.29-19.76,22.77-40.39,25.93-61.21c3.1-20.79,4.32-50.94,4.32-90.74V263.11c0-39.07,1.28-63.77,3.6-74.18
		c2.29-10.41,7.24-17.82,14.4-21.6c7.13-3.86,22.28-5.76,45.37-5.76h11.52v-15.84H291.62z"/>
	<path d="M1003.13,145.73v15.84h12.96c23.97,0,38.98,2.32,46.09,6.48c7.11,4.18,12.21,11.44,14.4,22.32
		c2.22,10.89,2.88,35.26,2.88,72.74v204.52c0,38.87-0.8,65.57-3.6,79.94c-2.77,14.34-11.06,26.95-23.77,36.73
		c-12.68,9.83-28.71,14.71-48.97,15.84v15.84h169.24v-15.84c-21.75-1.39-38.39-7-50.41-17.28c-12.07-10.28-19.31-22.35-21.6-36.01
		c-2.32-13.66-3.6-39.35-3.6-77.06V194.7l187.24,421.29h16.56l185.08-421.29v299.58c0,39.35-0.69,64.13-2.88,74.9
		c-2.19,10.76-7.33,18.65-15.12,23.77c-7.81,5.09-21.73,7.2-41.77,7.2h-16.56v15.84h226.13v-15.84h-20.88
		c-21.32,0-35.7-2.35-43.21-7.92c-7.56-5.55-12.56-13.76-14.4-25.21c-1.87-11.44-2.88-36.43-2.88-73.46V263.11
		c0-39.09,1.13-63.74,3.6-74.18c2.39-10.41,7.22-17.8,14.4-21.6c7.18-3.81,22.93-5.76,46.09-5.76h17.28v-15.84h-145.47
		l-170.68,389.6l-172.84-389.6H1003.13z"/>
	<path d="M1998.38,297.68c-37.72-33.42-84.88-50.41-141.14-50.41c-55.75,0-101.71,16.61-138.99,50.41
		c-37.28,33.78-56.17,78.84-56.17,134.67c0,57.27,18.7,102.9,55.45,137.55c36.76,34.7,83.78,52.58,141.16,52.58
		c58.91,0,106.44-17.87,142.58-52.58c36.13-34.65,54.02-79.38,54.02-135.39C2055.29,376.71,2036.09,331.13,1998.38,297.68z
		 M1958.06,564.86c-23.56,29.18-55.28,43.92-95.8,43.92c-46.19,0-80.61-14.74-103.7-43.92c-23.09-29.18-34.56-72.18-34.56-130.35
		c0-57.29,11.47-101.08,34.56-130.34c23.09-29.27,56.01-43.94,99.39-43.94c44.03,0,77.65,15.4,100.83,45.36
		c23.16,29.98,34.56,72.69,34.56,128.91C1993.35,492.33,1981.55,535.68,1958.06,564.86z"/>
	<path d="M2693.34,247.27c-56.31,0-100.44,19.39-133.23,58.33c-32.79,38.92-49.69,84.39-49.69,136.11
		c0,52.28,17.57,95.58,51.85,129.63c34.25,34.05,77.21,51.13,128.91,51.13c25.73,0,53.32-5.97,83.54-17.28
		c22.18-8.32,40.35-12.24,54.01-12.24c3.38,0,7.31-0.01,11.52,0.72v-38.17c0-31.25,0.91-50.94,2.88-59.05
		c1.94-8.09,6.09-14.53,12.24-18c6.12-3.48,18.05-5.04,35.29-5.04v-12.24h-156.27v12.24h8.64c14.34,0,24.16,1.36,29.53,3.6
		c5.37,2.19,8.93,6.48,11.52,12.96c2.6,6.5,4.32,19.45,4.32,38.89c0,16.56-3.12,30.21-8.64,41.05c-5.47,10.86-15.2,19.8-30.25,27.37
		c-15.07,7.61-32.01,11.52-50.41,11.52c-35.94,0-66.49-12.87-90.74-39.61c-24.27-26.69-36.01-72.71-36.01-136.83
		c0-64.3,12.94-108.72,38.17-133.95c25.23-25.21,54.6-38.17,88.58-38.17c32.87,0,60.53,10.83,83.54,32.41
		c23.04,21.6,37.35,50.88,42.49,87.86h12.24V259.51h-12.24c-1.61,14.59-5.57,28.42-11.52,41.05
		C2781.84,265.09,2741.78,247.27,2693.34,247.27z"/>
	<path d="M2429.03,585.03c-15.48-11.42-36.81-35.42-64.09-72.02c-33.48-45.22-58.39-71.27-73.47-78.5
		c33.48-4.08,59.11-14.23,76.35-30.97c17.28-16.74,25.92-37.52,25.92-61.2c0-20.29-6.85-37.26-20.17-51.86
		c-13.31-14.65-30.32-25.25-51.86-31.69c-21.57-6.4-49.85-9.36-84.25-9.36c-20.24,0-47.67,0.65-82.11,2.16l-51.12,2.16v12.23h5.75
		c18.63,0,31.11,1.84,36.72,5.05c5.57,3.19,9.2,8.95,10.8,17.28c1.64,8.35,2.16,26.68,2.16,55.45v177.88
		c0,30.23-0.54,49.33-2.16,57.61c-1.59,8.28-5.54,14.12-11.53,18c-5.93,3.91-16.9,5.77-32.39,5.77h-11.53v12.25h173.55v-12.25
		h-17.28c-16.41,0-28.08-2.22-33.86-6.48c-5.83-4.24-9.49-10.68-10.8-19.44c-1.33-8.71-1.42-27.2-1.42-55.46v-79.22h14.39
		c9.7,0,16.27,1.8,20.89,5.05c4.56,3.26,13,11.67,25.2,26.64c12.18,14.9,23.95,30.55,35.3,46.81c35.3,50.87,62.07,82.21,79.22,94.35
		h96.5v-12.25C2462.62,602.32,2444.56,596.39,2429.03,585.03z M2252.59,427.31c-14.03,0.7-27.16,1.12-40.31,1.44V263.12
		c8.41-0.74,15.82-0.72,22.31-0.72c42.08,0,69.55,7.74,82.11,23.03c12.52,15.31,18.72,35.79,18.72,61.22
		c0,14.63-2.09,26.75-5.77,36.72c-3.7,9.96-8.71,18.36-15.12,24.49c-6.4,6.15-14.84,10.5-25.2,13.67
		C2279,424.75,2266.65,426.57,2252.59,427.31z"/>
	<path d="M3262.26,594.39c-6.31-4.87-11.42-11.65-15.13-20.17l-16.56-38.17L3110.3,249.43h-10.8l-105.86,249.89
		c-7.58,18-11.78,28.34-12.95,30.97c-11.09,28.35-20.92,47.38-28.81,56.19c-7.9,8.82-19.21,14.07-35.3,16.56v12.25h108.75v-12.25
		c-11.78,0-21.45-2.31-28.81-7.92c-7.38-5.63-10.8-14.34-10.8-25.22c0-10.16,7-31.51,20.89-64.81l9.36-23.05h136.83l27.36,66.97
		c8.17,19.41,12.97,31.38,12.97,35.3c0,7.63-3.21,12.55-9.36,15.11c-6.13,2.58-17.89,3.61-35.3,3.61v12.25h141.88v-12.25
		C3277.72,601.76,3268.56,599.29,3262.26,594.39z M3021.02,469.08l63.36-153.41l63.38,153.41H3021.02z"/>
	<path d="M3337.16,253.75v12.24c19.51,0,31.8,1.65,37.45,4.32c5.65,2.67,9.65,8.6,12.24,18c2.6,9.4,4.32,27.7,4.32,55.45v192.28
		c0,21.85-1.22,35.18-2.88,41.05c-1.69,5.85-6.82,11.47-15.84,16.56c-9,5.09-21.77,8.1-38.89,9.36v12.24h133.95v-12.24
		c-19.11,0-32.94-2.4-42.49-7.92c-9.55-5.49-15.94-11.4-18-18c-2.04-6.58-2.88-20.25-2.88-41.05V284.72l257.1,339.19h10.8V324.32
		c0-15.48,1.23-25.9,3.6-32.41c2.37-6.48,7.89-12.67,16.56-17.28c8.72-4.61,20.88-7.38,36.01-8.64v-12.24h-130.35v12.24
		c14.22,0,25.9,2.03,36.01,5.76c10.13,3.73,16.89,8.75,20.16,15.12c3.28,6.43,5.04,17.87,5.04,33.85v216.05l-213.89-283.02H3337.16z
		"/>
</g>
<g>
	<path d="M2730.22,1143.59c-12.29,21.7-29.76,33.04-52.43,33.04c-16.67,0-31.95-5.15-46.67-15.09
		c-14.72-9.89-35.23-33.41-61.06-70.39c10.84-14.38,22.94-36.76,35.91-67.5c15.43-37.25,30.66-62.69,45.24-76.15
		c14.63-13.46,31.44-22.72,51-28.01v-17.23h-155.13v17.23c37.98,4.32,56.73,19.78,56.73,47.4c0,11.52-4.23,27.63-12.2,48.13
		c-7.94,20.53-18.59,40.38-32.31,59.62c-38.17-54.16-78.45-110.06-121.39-168.08c69.29-34.87,103.43-70.65,103.43-107.73
		c0-23.84-9.94-43.49-30.88-58.17c-20.99-14.67-45.07-21.55-71.12-21.55c-29.18,0-53.23,9.84-72.55,29.45
		c-19.27,19.63-28.72,41.77-28.72,66.79c0,31.78,14.12,67.08,42.37,106.3c-46.92,31.32-78.94,57.73-95.53,78.28
		c-16.52,20.63-24.42,45.82-24.42,76.15c0,26.51,6.83,49.44,20.12,69.66c13.27,20.24,29.86,36.23,51,47.4
		c21.14,11.18,43.59,17.23,66.79,17.23c47.31,0,92.52-23.88,135.02-71.09c35.76,47.21,77.19,71.09,124.25,71.09
		c21.72,0,40.94-6.49,57.46-18.66c16.52-12.15,27.24-28.35,32.34-48.13H2730.22z M2399.13,754.31
		c10.52-11.47,24.18-17.23,41.64-17.23c17.61,0,31.56,5.95,42.37,17.96c10.74,12.03,16.52,27.24,16.52,46.67
		c0,32.63-24.44,63.15-72.53,91.23c-29.54-40.55-43.83-72.72-43.83-96.24C2383.31,779.65,2388.56,765.83,2399.13,754.31z
		 M2429.28,1174.47c-30.3,0-57.9-13.07-81.88-39.48c-23.98-26.41-35.91-55.08-35.91-84.77c0-19.24,6.92-38.97,20.82-59.6
		c13.85-20.65,33.63-38.44,58.9-53.87c36.69,47.91,80.71,110.19,131.45,187.45C2494.08,1157.46,2462.94,1174.47,2429.28,1174.47z"/>
	<path d="M3098.68,721.28c-42.21,0-81.03,9.64-116.35,29.45s-62.86,50.32-82.6,91.21c-19.71,40.87-29.45,84.41-29.45,130.72
		c0,70.51,21.14,127.36,63.92,170.22c42.76,42.86,98.49,63.92,165.91,63.92c63.8,0,116.24-23.34,157.29-69.67
		c10.86,14.3,18.07,30.83,22.26,49.56h15.8v-164.47h-15.8c-2.76,27.17-12.03,55.64-27.29,84.75
		c-15.23,29.13-35.65,49.58-61.77,61.77c-26.19,12.19-51.81,17.96-76.85,17.96c-46.81,0-86.32-18.54-117.79-56.02
		c-31.4-37.51-46.68-91.26-46.68-161.6c0-74.28,14.31-131.76,43.09-171.66c28.83-39.94,67.43-59.61,116.35-59.61
		c39.92,0,75.91,12.51,107.73,37.35c31.82,24.84,52.87,68.49,63.2,131.44h15.8l-4.31-177.4h-15.8
		c-2.14,20.94-7.82,41.52-17.96,61.05c-13.98-17.42-35.62-33.07-63.92-47.4C3165.13,728.5,3133.52,721.28,3098.68,721.28z"/>
	<path d="M340.69,722.72c-42.21,0-81.03,9.64-116.35,29.45c-35.34,19.81-62.86,50.32-82.6,91.21
		c-19.73,40.87-29.45,84.39-29.45,130.72c0,70.49,21.14,127.33,63.92,170.22c42.73,42.86,97.72,63.92,165.19,63.92
		c63.75,0,116.27-22.6,157.29-68.95c10.91,14.35,18.84,30.8,22.98,49.56h15.8v-165.19h-15.8c-2.77,27.2-12.01,55.64-27.29,84.75
		c-15.23,29.13-35.6,49.58-61.77,61.77c-26.19,12.19-51.84,18.67-76.85,18.67c-46.81,0-86.34-19.28-117.79-56.74
		c-31.45-37.51-46.68-91.24-46.68-161.6c0-74.28,14.29-131.04,43.09-170.94c28.81-39.92,67.48-60.33,116.35-60.33
		c39.97,0,75.96,12.51,107.73,37.35c31.8,24.84,52.85,68.49,63.2,131.44h15.8l-4.31-176.68h-15.8c-2.11,20.94-8.54,40.8-18.67,60.33
		c-13.98-17.42-34.85-33.1-63.2-47.4C407.21,729.94,375.55,722.72,340.69,722.72z"/>
	<path d="M1575.32,829.74c-27.45,0-49.59,8.02-67.51,25.14c-17.9,17.12-27.29,38.92-27.29,64.64c0,16.87,4.68,32.52,12.93,47.4
		c8.25,14.91,19.08,27.35,33.76,36.63c14.68,9.33,37.17,19.93,66.08,32.32c32.43,13.85,54.6,26.74,66.79,38.78
		c12.22,12.22,17.96,27.17,17.96,45.25c0,17.9-6.93,34.39-20.83,48.84c-13.93,14.45-33.53,21.55-58.89,21.55
		c-56.38,0-91.93-37.92-107.02-113.48h-13.65v116.35h13.65c2.84-15.11,7.02-26.87,12.93-35.19c26.5,30.32,59.5,45.25,99.12,45.25
		c34.46,0,61.98-9.42,82.6-28.73c20.61-19.36,30.88-44.54,30.88-75.41c0-19.51-4.43-36.81-12.93-51.71
		c-8.57-14.88-19.6-26.05-33.76-34.47c-14.13-8.42-37.14-19.86-68.23-33.76c-32.5-14.66-54.33-27.89-66.8-39.5
		c-12.69-11.41-19.39-25.14-19.39-41.66c0-13.67,5-26.53,15.08-38.07c10.11-11.49,25.78-17.24,47.4-17.24
		c22.7,0,43.14,8.09,60.33,23.7c17.27,15.66,29.12,36.67,35.91,63.92h11.49V836.2h-11.49c-1.03,11.34-5.48,21.87-13.65,31.6
		c-14.23-15.59-28.16-25.93-41.66-30.88C1605.58,831.94,1590.68,829.74,1575.32,829.74z"/>
	<path d="M3719.22,880.73c-37.64-33.33-84.67-50.27-140.77-50.27c-55.59,0-101.44,16.57-138.61,50.27
		c-37.17,33.7-56.03,78.62-56.03,134.31c0,57.12,17.93,102.6,54.59,137.18c36.64,34.62,83.58,52.43,140.77,52.43
		c58.8,0,106.15-17.81,142.21-52.43c36.03-34.57,54.59-79.16,54.59-135.02C3775.97,959.54,3756.83,914.09,3719.22,880.73z
		 M3679.01,1147.19c-23.49,29.11-55.15,43.81-95.53,43.81c-46.07,0-81.1-14.7-104.14-43.81c-23.03-29.11-34.48-71.97-34.48-129.99
		c0-57.15,11.44-100.83,34.48-130.01c23.03-29.18,56.56-43.81,99.83-43.81c43.9,0,77.46,15.36,100.54,45.24
		c23.15,29.89,34.48,72.48,34.48,128.58C3714.19,1074.86,3702.43,1118.08,3679.01,1147.19z"/>
	<path d="M1403.65,1175.2c-6.29-4.86-11.35-11.61-15.06-20.12l-16.52-37.34l-119.95-286.58h-10.76l-104.86,249.96
		c-7.53,17.96-12.54,28.23-13.65,30.88c-11.13,28.28-20.17,46.53-28.01,55.3c-7.82,8.8-19.85,14.75-35.91,17.23v12.22h108.46v-12.22
		c-11.69,0-21.33-3.01-28.72-8.6c-7.31-5.59-10.79-13.61-10.79-24.42c0-10.13,7-31.44,20.82-64.65l9.35-22.98h136.45l28.01,66.79
		c8.16,19.36,12.22,30.59,12.22,34.48c0,7.63-3.26,13.24-9.35,15.79c-6.12,2.58-17.86,3.6-35.18,3.6v12.22h141.48v-12.22
		C1419.03,1183.32,1409.94,1180.11,1403.65,1175.2z M1163.77,1050.22l62.49-152.24l63.2,152.24H1163.77z"/>
	<path d="M621.51,836.2v12.21h7.18c18.4,0,29.74,1.86,35.19,5.03c5.43,3.19,9.14,8.89,10.77,17.24c1.71,8.32,2.87,26.62,2.87,55.3
		v176.68c0,30.17-1.16,49.91-2.87,58.18c-1.63,8.25-5.53,14.08-11.49,17.96c-5.98,3.9-16.79,5.75-32.32,5.75h-9.34v12.21h163.76
		v-12.21h-9.34c-16.34,0-27.92-2.22-33.76-6.46c-5.83-4.27-9.37-10.62-10.77-19.39c-1.43-8.8-2.15-27.57-2.15-56.02v-86.91h188.18
		v86.91c0,30.22-0.55,49.19-2.15,57.46c-1.58,8.27-5.63,14.75-11.49,18.67c-5.91,3.9-16.47,5.75-31.6,5.75h-12.21v12.21H1023v-12.21
		h-7.9c-16.09,0-27.18-2.22-33.04-6.46c-5.83-4.25-9.44-10.62-10.77-19.39c-1.36-8.77-2.15-27.64-2.15-56.02V925.98
		c0-29.91,1.04-48.77,2.87-56.74c1.89-7.97,5.32-13.63,10.77-16.52c5.51-2.94,17.5-4.31,35.19-4.31h5.03V836.2H859.96v12.21h9.34
		c18.12,0,29.81,1.86,35.19,5.03c5.38,3.19,9.19,8.89,10.77,17.24c1.61,8.32,2.15,26.62,2.15,55.3v71.82H729.25v-71.82
		c0-29.91,0.99-48.77,2.87-56.74c1.89-7.97,5.91-13.63,11.49-16.52c5.56-2.94,16.7-4.31,34.47-4.31h7.18V836.2H621.51z"/>
	<path d="M1785.04,836.2v12.21c17.52,0,28.99,1.56,34.47,5.03c5.46,3.42,9.27,9.28,10.77,17.96c1.56,8.67,2.15,27.13,2.15,54.59
		v176.68c0,30.14-0.75,49.37-2.15,56.74c-1.43,7.34-4.85,13.15-10.06,17.96c-5.2,4.78-16.01,7.18-33.76,7.18h-7.9v12.21h297.35
		l7.9-112.04h-12.21c-6.38,27-15.54,48.07-26.57,63.2c-11.04,15.18-22.33,25.05-34.47,29.45c-12.24,4.4-27.76,6.46-46.68,6.46
		h-26.57c-24.08,0-39.02-3.98-44.53-11.49c-5.48-7.52-7.9-32.73-7.9-75.41v-85.47h38.78c15.33,0,26.58,1.53,33.04,3.59
		c6.44,2.04,11.02,6.12,14.36,12.93c3.34,6.86,5.03,20.21,5.03,40.22h12.21V945.37h-12.21c0,17.67-1.38,29.83-3.59,35.91
		c-2.21,6.11-6.73,10.63-13.65,13.65c-6.94,3.02-19.21,4.31-36.63,4.31h-37.35V848.41h49.56c24.99,0,42.58,1.57,53.87,4.31
		c11.26,2.77,21.25,8.88,29.45,19.39c8.14,10.53,15.2,28.75,20.83,53.87h12.21l-8.62-89.78H1785.04z"/>
	<path d="M3845.63,1128.52c-10.83,0-20.29,3.75-28.01,11.49c-7.77,7.74-11.49,17.2-11.49,28.01c0,10.61,3.87,20.02,11.49,28.01
		c7.59,7.99,16.98,11.49,28.01,11.49c10.83,0,20.14-3.77,28.01-11.49c7.87-7.77,11.49-16.95,11.49-28.01
		c0-10.81-3.77-20.27-11.49-28.01C3865.85,1132.27,3856.72,1128.52,3845.63,1128.52z"/>
</g>
</svg>
