<?xml version="1.0" encoding="utf-8"?>
<!-- Generator: Adobe Illustrator 27.2.0, SVG Export Plug-In . SVG Version: 6.00 Build 0)  -->
<svg version="1.1" id="Layer_1" xmlns="http://www.w3.org/2000/svg" xmlns:xlink="http://www.w3.org/1999/xlink" x="0px" y="0px"
	 viewBox="0 0 185 49" style="enable-background:new 0 0 185 49;" xml:space="preserve">
<style type="text/css">
	.st0{fill:url(#Path_00000155121205517737871980000001195438013543866265_);}
	.st1{fill:url(#Path_00000124133039515747694570000007593128274137334432_);}
	.st2{fill:#000019;}
</style>
<g id="images_x2F_logos_x5F_normalyze_x5F_dark">
	<g id="Group">
		
			<radialGradient id="Path_00000074405979168395802640000014738750242935742339_" cx="-847.027" cy="552.5045" r="1.2374" gradientTransform="matrix(44.8001 0 0 -44.8001 37974.6875 24799.4082)" gradientUnits="userSpaceOnUse">
			<stop  offset="0" style="stop-color:#FF033A;stop-opacity:0"/>
			<stop  offset="0.2331" style="stop-color:#FF033A;stop-opacity:0.1225"/>
			<stop  offset="0.6577" style="stop-color:#FF033A;stop-opacity:0.4833"/>
			<stop  offset="1" style="stop-color:#FF033A"/>
		</radialGradient>
		<path id="Path" style="fill:url(#Path_00000074405979168395802640000014738750242935742339_);" d="M7.87,47.15h31.44
			c2.13,0,4.07-0.86,5.49-2.25L2.31,2.31C0.88,3.75,0,5.73,0,7.93v31.31C0,43.6,3.52,47.15,7.87,47.15z"/>
		
			<radialGradient id="Path_00000096772795871317390880000005048565110941257093_" cx="-885.9968" cy="576.4777" r="1.2293" gradientTransform="matrix(-44.8695 0 0 44.8695 -39737.3242 -25866.2852)" gradientUnits="userSpaceOnUse">
			<stop  offset="0" style="stop-color:#FF033A;stop-opacity:0"/>
			<stop  offset="0.1788" style="stop-color:#FF033A;stop-opacity:0.0846"/>
			<stop  offset="0.6212" style="stop-color:#FF033A;stop-opacity:0.4519"/>
			<stop  offset="1" style="stop-color:#FF033A"/>
		</radialGradient>
		
			<path id="Path_00000149361084713384855190000014215851414950110859_" style="fill:url(#Path_00000096772795871317390880000005048565110941257093_);" d="
			M44.8,44.9c1.47-1.44,2.38-3.45,2.38-5.68V7.93c0-4.38-3.52-7.93-7.87-7.93H7.87C5.7,0,3.74,0.88,2.31,2.31L44.8,44.9z"/>
	</g>
	<g id="Group_00000018230632434076257350000000121043990510902454_" transform="translate(180.292171, 17.953956)">
		<polygon id="Path_00000102519560218619587350000010570193427061612672_" class="st2" points="0,0.44 0,0 1.82,0 1.82,0.44 
			1.16,0.44 1.16,2.48 0.66,2.48 0.66,0.44 		"/>
		<polygon id="Path_00000166645815165122159260000016499141628358374281_" class="st2" points="2.13,2.48 2.13,0 2.98,0 3.42,1.81 
			3.86,0 4.71,0 4.71,2.48 4.21,2.48 4.21,0.56 4.15,0.56 3.67,2.37 3.17,2.37 2.68,0.56 2.63,0.56 2.63,2.48 		"/>
	</g>
	<g id="Group_00000107573987293963933330000008000023951293585582_" transform="translate(64.811530, 13.333593)">
		<polygon id="Path_00000178884639516625315500000003665491711618524341_" class="st2" points="0,15.98 0,0.51 4.83,0.51 
			10.01,13.77 10.38,13.77 10.38,0.51 13.15,0.51 13.15,15.98 8.41,15.98 3.1,2.71 2.76,2.71 2.76,15.98 		"/>
		<path id="Shape" class="st2" d="M17.3,5.91c0.85-0.98,2.28-1.47,4.27-1.47s3.41,0.49,4.27,1.47c0.85,0.98,1.28,2.45,1.28,4.4
			s-0.42,3.43-1.24,4.42c-0.83,0.99-2.27,1.49-4.31,1.49c-2.04,0-3.48-0.5-4.31-1.49s-1.24-2.47-1.24-4.42
			C16.01,8.36,16.44,6.89,17.3,5.91z M19.32,13.24c0.38,0.6,1.13,0.9,2.24,0.9s1.86-0.3,2.24-0.9c0.38-0.6,0.57-1.59,0.57-2.96
			s-0.2-2.34-0.61-2.91c-0.41-0.57-1.14-0.86-2.2-0.86s-1.8,0.29-2.2,0.86c-0.41,0.57-0.61,1.54-0.61,2.91S18.94,12.64,19.32,13.24z
			"/>
		<path id="Path_00000075854581342858202610000001937986845496797365_" class="st2" d="M29.81,15.98V4.69h2.69v1.35
			c1.41-0.83,2.82-1.36,4.23-1.6V6.9c-1.43,0.25-2.65,0.58-3.66,0.99l-0.55,0.2v7.87L29.81,15.98L29.81,15.98z"/>
		<path id="Path_00000034076013157342696830000000613752499893905595_" class="st2" d="M41.51,15.98H38.8V4.69h2.69v0.7
			c1.18-0.63,2.26-0.95,3.24-0.95c1.45,0,2.5,0.37,3.16,1.11c1.51-0.74,3.02-1.11,4.51-1.11c1.5,0,2.55,0.42,3.16,1.25
			s0.92,2.24,0.92,4.23v6.05h-2.69V10c0-1.22-0.14-2.08-0.41-2.59c-0.27-0.51-0.84-0.77-1.7-0.77c-0.74,0-1.55,0.15-2.42,0.45
			l-0.42,0.16c0.13,0.3,0.2,1.26,0.2,2.89v5.85h-2.69v-5.8c0-1.34-0.13-2.26-0.4-2.78c-0.27-0.51-0.85-0.77-1.74-0.77
			c-0.83,0-1.6,0.15-2.32,0.45l-0.37,0.13L41.51,15.98L41.51,15.98z"/>
		<path id="Shape_00000147933016701086027090000007926565128032965505_" class="st2" d="M68.88,8.17v5.15
			c0.02,0.33,0.11,0.58,0.28,0.74c0.18,0.16,0.44,0.26,0.81,0.31l-0.08,1.87c-1.43,0-2.53-0.28-3.31-0.83
			c-1.33,0.56-2.66,0.83-4.01,0.83c-2.47,0-3.71-1.19-3.71-3.59c0-1.14,0.33-1.97,1.01-2.48c0.68-0.51,1.7-0.82,3.1-0.93l3.21-0.25
			V8.17c0-0.6-0.15-1.02-0.44-1.26c-0.29-0.24-0.72-0.36-1.28-0.36c-1.06,0-2.39,0.06-3.98,0.18l-0.8,0.04l-0.1-1.74
			c1.81-0.39,3.47-0.58,4.99-0.58c1.52,0,2.61,0.3,3.29,0.89C68.54,5.93,68.88,6.87,68.88,8.17z M63.3,10.96
			c-1.15,0.09-1.72,0.65-1.72,1.69s0.5,1.56,1.52,1.56c0.83,0,1.71-0.12,2.64-0.36l0.45-0.13v-3L63.3,10.96z"/>
		<polygon id="Path_00000012450082484163982980000009850091416121330833_" class="st2" points="72.44,15.98 72.44,0 75.15,0 
			75.15,15.98 		"/>
		<polygon id="Path_00000029022973486604445390000000686193649889682087_" class="st2" points="77.45,4.69 80.11,4.69 82.75,13.87 
			83.42,13.87 86.06,4.69 88.75,4.69 84.02,20.83 81.35,20.83 82.85,15.97 80.71,15.97 		"/>
		<polygon id="Path_00000159449426761344422000000009763026614299017366_" class="st2" points="90.22,6.88 90.22,4.7 99.46,4.7 
			99.46,6.88 93.48,13.79 99.46,13.79 99.46,15.98 90.22,15.98 90.22,13.79 96.22,6.88 		"/>
		<path id="Shape_00000124157731850967369320000009109767483770508417_" class="st2" d="M111.01,13.94l0.7-0.07l0.05,1.83
			c-1.89,0.34-3.57,0.52-5.03,0.52c-1.84,0-3.17-0.46-3.97-1.38c-0.81-0.92-1.21-2.38-1.21-4.4c0-4,1.8-6.01,5.4-6.01
			c3.49,0,5.23,1.72,5.23,5.17l-0.18,1.76h-7.72c0.01,0.93,0.24,1.62,0.67,2.05c0.43,0.44,1.24,0.65,2.42,0.65
			C108.56,14.08,109.77,14.03,111.01,13.94z M109.52,9.48c0-1.11-0.2-1.89-0.59-2.34c-0.39-0.44-1.05-0.67-1.98-0.67
			c-0.93,0-1.6,0.24-2.03,0.7c-0.42,0.47-0.64,1.23-0.66,2.3L109.52,9.48L109.52,9.48z"/>
	</g>
</g>
</svg>
