<?xml version="1.0" encoding="utf-8"?>
<!-- Generator: Adobe Illustrator 27.3.1, SVG Export Plug-In . SVG Version: 6.00 Build 0)  -->
<svg version="1.1" id="Layer_1" xmlns="http://www.w3.org/2000/svg" xmlns:xlink="http://www.w3.org/1999/xlink" x="0px" y="0px"
	 viewBox="0 0 487.8 133.7" style="enable-background:new 0 0 487.8 133.7;" xml:space="preserve">
<style type="text/css">
	.st0{fill:#FF6A8D;}
	.st1{opacity:0.58;fill:url(#SVGID_1_);enable-background:new    ;}
	.st2{fill:#9257FF;}
	.st3{opacity:0.51;fill:url(#SVGID_00000004535337023891281750000014744585043498613930_);enable-background:new    ;}
	.st4{fill:#1CE0FF;}
	.st5{fill:url(#Path_00000122695363393196965930000011851136722687617414_);}
	.st6{fill:#2C3042;}
</style>
<g id="orkes-logo-purple">
	<g id="orkes" transform="translate(57.286115, 42.425238)">
		<g id="Group">
			<g id="Path">
				<path class="st0" d="M-5.9,69.8L-5.9,69.8L-5.9,69.8c-10.4-16.9-15.8-42-6.8-67.7l0,0l0,0c4.1-12,11.5-24.3,22.9-35.5L-9.2-13.9
					l0,0L-28.9,5.7l-19.4,19.4C-65.1,42-57.2,70.9-34,76.9l51.8,13.4C9.1,87.8,0.6,80.5-5.9,69.8z"/>
				
					<linearGradient id="SVGID_1_" gradientUnits="userSpaceOnUse" x1="-765.2827" y1="560.9079" x2="-764.2845" y2="560.9079" gradientTransform="matrix(75.0781 0 0 -123.5743 57398.4609 69342.3203)">
					<stop  offset="0" style="stop-color:#D26A8D"/>
					<stop  offset="9.564506e-02" style="stop-color:#DA6A8D;stop-opacity:0.9044"/>
					<stop  offset="0.402" style="stop-color:#EF6A8D;stop-opacity:0.598"/>
					<stop  offset="0.7053" style="stop-color:#FB6A8D;stop-opacity:0.2947"/>
					<stop  offset="1" style="stop-color:#FF6A8D;stop-opacity:0"/>
				</linearGradient>
				<path class="st1" d="M-5.9,69.8L-5.9,69.8L-5.9,69.8c-10.4-16.9-15.8-42-6.8-67.7l0,0l0,0c4.1-12,11.5-24.3,22.9-35.5L-9.2-13.9
					l0,0L-28.9,5.7l-19.4,19.4C-65.1,42-57.2,70.9-34,76.9l51.8,13.4C9.1,87.8,0.6,80.5-5.9,69.8z"/>
				<path class="st2" d="M9.9-33.3C-1.6-21.8-8.7-9.8-13,2.2C12.3-6.5,37.4-1.4,54.6,9c10.9-12,10.6-30.8-0.8-42.6
					C42.3-44.7,22.7-46.1,9.9-33.3z"/>
				
					<linearGradient id="SVGID_00000048502803070619094640000002179507617468047257_" gradientUnits="userSpaceOnUse" x1="-765.1661" y1="556.1368" x2="-764.3753" y2="555.8861" gradientTransform="matrix(75.6363 0 0 -51.4258 57874.7969 28577.3438)">
					<stop  offset="0" style="stop-color:#7741D8"/>
					<stop  offset="0.6756" style="stop-color:#8D53F8;stop-opacity:0.1599"/>
					<stop  offset="0.8042" style="stop-color:#9257FF;stop-opacity:0"/>
				</linearGradient>
				
					<path style="opacity:0.51;fill:url(#SVGID_00000048502803070619094640000002179507617468047257_);enable-background:new    ;" d="
					M9.9-33.3C-1.6-21.8-8.7-9.8-13,2.2C12.3-6.5,37.4-1.4,54.6,9c10.9-12,10.6-30.8-0.8-42.6C42.3-44.7,22.7-46.1,9.9-33.3z"/>
			</g>
			<path id="Path_00000160898145417977786260000012413813624265030575_" class="st4" d="M75.1,32.5L61.7-19.4l0,0
				c2.5,9.8,0,20.5-7.1,28.4l0,0l0,0c-0.3,0.3-0.5,0.8-1.1,1.1L-5.9,69.8c6.5,10.6,15,18,23.5,20.5c10.6,2.7,22.1-0.3,30-8.2
				l19.6-19.6C74.8,54.8,78.1,43.4,75.1,32.5z"/>
			
				<linearGradient id="Path_00000013157620560554551170000018070419696365701306_" gradientUnits="userSpaceOnUse" x1="-765.7064" y1="560.0572" x2="-765.1516" y2="560.8046" gradientTransform="matrix(82.1229 0 0 -110.6476 62902.9023 62054.0781)">
				<stop  offset="0" style="stop-color:#198FE1"/>
				<stop  offset="0.1014" style="stop-color:#1A9EE7;stop-opacity:0.8986"/>
				<stop  offset="0.3297" style="stop-color:#1BBBF1;stop-opacity:0.6703"/>
				<stop  offset="0.5572" style="stop-color:#1BD0F9;stop-opacity:0.4428"/>
				<stop  offset="0.7818" style="stop-color:#1CDCFD;stop-opacity:0.2182"/>
				<stop  offset="1" style="stop-color:#1CE0FF;stop-opacity:0"/>
			</linearGradient>
			
				<path id="Path_00000092440933179195562000000004466412093618752902_" style="fill:url(#Path_00000013157620560554551170000018070419696365701306_);" d="
				M75.1,32.5L61.7-19.4l0,0c2.5,9.8,0,20.5-7.1,28.4l0,0l0,0c-0.3,0.3-0.5,0.8-1.1,1.1L-5.9,69.8c6.5,10.6,15,18,23.5,20.5
				c10.6,2.7,22.1-0.3,30-8.2l19.6-19.6C74.8,54.8,78.1,43.4,75.1,32.5z"/>
		</g>
		<g id="Group_00000129208112153801315430000011626922394153377925_" transform="translate(159.725378, 4.949236)">
			<path id="Path_00000129922028551419614080000000861410175816120462_" class="st6" d="M67-8.8c-0.5,0-1.4,0-1.9,0
				c-5.5,0-10.1,1.4-13.6,4.4c-3.5,2.7-6.3,6.3-7.9,9.8L43,6.5l-1.4-9c-0.5-3.8-3.8-6.8-7.9-6.8c-4.4,0-7.9,3.5-7.9,7.9v57
				c0,5.2,4.4,9.5,9.5,9.5s9.5-4.4,9.5-9.5V27.5c0-7.4,1.6-12.8,4.9-16.1s7.4-4.9,12.5-4.9c1.1,0,1.9,0,3,0.3c4.1,0.5,7.6-2.2,8.5-6
				c0.5-2.2,0-4.4-1.4-6.3C71.1-7.4,68.9-8.5,67-8.8z"/>
			<path id="Path_00000026873590600159536450000018075405083002109350_" class="st6" d="M90.2,64.9c5.2,0,9.5-4.4,9.5-9.5V39.5
				l6.3-6.3l18.5,27.6c1.6,2.5,4.6,4.1,7.6,4.1c3.5,0,6.5-1.9,8.2-4.9c1.6-3,1.4-6.5-0.5-9.5l-19.6-28.1l14.2-15.5
				c2.2-2.5,3-6,1.6-9c-1.4-3-4.4-4.9-7.6-4.9c-2.5,0-4.9,1.1-6.5,3L99.8,21.5V-33c0-5.2-4.4-9.5-9.5-9.5s-9.5,4.4-9.5,9.5v88.7
				C80.7,60.8,85,64.9,90.2,64.9z"/>
			<path id="Shape" class="st6" d="M179.4-8.8C174.2-8.8,169.3-8,165-6c-4.4,1.9-8.2,4.4-11.2,7.6c-3,3.3-5.5,7.1-7.1,11.7
				s-2.5,9.8-2.5,15.3c0,6.3,1.1,11.7,3,16.4c2.2,4.6,4.9,8.2,8.5,11.2s7.6,5.2,12.3,6.5c4.6,1.4,9.8,2.2,15,2.2
				c5.5,0,10.4-0.5,14.5-1.4c1.4-0.3,2.5-0.5,3.5-0.8c3.5-1.1,5.7-4.6,4.6-8.2c-0.5-1.9-1.6-3.3-3.3-4.4c-1.6-0.8-3.5-1.1-5.2-0.5
				c-0.5,0-0.8,0.3-1.4,0.3c-3,0.8-6.5,1.1-10.6,1.1c-6.3,0-11.7-1.4-15.5-4.4c-4.1-2.7-6.3-7.4-6.3-13.1v-0.8h39
				c4.6,0,8.5-3.8,8.5-8.5V24c0-10.4-2.7-18.5-8.5-24.6C196.6-5.8,189-8.8,179.4-8.8z M191.1,19.9l-27.6,0.3v-0.5
				c0.5-4.6,2.2-8.5,4.6-11.2c2.7-2.7,6-4.1,10.1-4.1c2.2,0,4.1,0.5,5.7,1.4s2.7,1.9,3.8,3.3c1.1,1.4,1.9,3,2.2,4.9
				c0.5,1.9,0.8,3.8,0.8,5.7v0.3H191.1z"/>
			<path id="Path_00000118384310272702980780000011292412344240202892_" class="st6" d="M217.1,12.8c0,5.5,1.4,9.8,4.1,12.8
				c2.7,3.3,7.1,5.7,13.1,7.9l4.6,1.4c4.9,1.4,8.5,2.7,10.4,3.8c1.9,1.1,3,3,3,5.2s-1.1,3.8-3,5.2c-1.9,1.4-4.9,1.9-9,1.9
				c-3.3,0-6.5-0.5-9.8-1.4c-0.5-0.3-1.4-0.3-1.9-0.5c-0.8-0.3-1.6-0.3-2.5-0.3c-1.1,0-2.2,0.3-3.3,0.8c-1.6,0.8-3,2.5-3.5,4.1V54
				c-0.5,1.9-0.3,3.8,0.5,5.5c0.8,1.6,2.5,3,4.1,3.5c5.2,1.6,10.9,2.2,17.2,2.2c9.3,0,16.6-2.2,21.8-6.3c5.2-4.1,7.9-9.8,7.9-16.6
				c0-5.2-1.6-9.5-4.6-12.8s-7.9-6-13.9-7.6l-4.4-1.4c-4.6-1.4-7.9-2.7-9.5-3.8c-1.6-1.4-2.5-3-2.5-4.9c0-1.9,0.8-3.5,2.7-4.9
				c1.9-1.1,4.4-1.6,7.6-1.6c3.3,0,6.8,0.5,10.4,1.6c3.5,1.1,7.4-1.1,8.5-4.6c0.5-1.9,0.3-3.5-0.5-5.2c-0.8-1.6-2.5-2.7-4.1-3.3
				c-4.9-1.4-10.4-2.2-16.1-2.2c-8.7,0-15.5,1.9-20.2,6C219.2,1.3,217.1,6.5,217.1,12.8z"/>
			<path id="Shape_00000037662405965329390480000001458257198027404444_" class="st6" d="M12.7,43.3c1.9-4.6,2.7-9.8,2.7-15.8
				s-0.8-11.2-2.7-15.8S8.4,3.2,5.1,0.5C1.8-2.5-2-4.7-6.4-6.3c-4.4-1.6-9.3-2.5-14.2-2.5c-5.2,0-9.8,0.8-14.5,2.5
				c-4.4,1.6-8.5,4.1-11.7,7.4s-6,7.1-7.6,11.7c-1.9,4.6-2.7,10.1-2.7,16.1c0,5.7,0.8,10.9,2.7,15.3c1.9,4.4,4.4,8.2,7.6,11.5
				c3.3,3,7.1,5.5,11.5,6.8c4.4,1.6,9.3,2.5,14.2,2.5c5.2,0,9.8-0.8,14.5-2.7c4.4-1.6,8.5-4.1,11.7-7.4
				C8.4,51.8,10.8,47.7,12.7,43.3z M-5.5,39c-0.8,3-2.2,5.2-3.5,7.1c-1.6,1.9-3.3,3.3-5.2,3.8c-1.9,0.8-4.1,1.1-6,1.1
				c-2.2,0-4.4-0.5-6.3-1.4c-1.9-0.8-3.8-2.2-5.5-4.1c-1.6-1.9-2.7-4.1-3.8-7.1c-0.8-3-1.4-6.3-1.4-10.1c0-4.4,0.5-8.2,1.4-10.9
				c0.8-3,2.2-5.2,3.5-7.1c1.6-1.9,3.3-3,5.2-3.8c3.8-1.6,8.5-1.6,12.3,0.3c1.9,0.8,3.8,2.2,5.5,4.1s2.7,4.4,3.5,7.1
				c0.8,3,1.4,6.5,1.4,10.6C-4.2,32.4-4.7,36-5.5,39z"/>
		</g>
	</g>
</g>
</svg>
