<?xml version="1.0" encoding="utf-8"?>
<!-- Generator: Adobe Illustrator 27.6.1, SVG Export Plug-In . SVG Version: 6.00 Build 0)  -->
<svg version="1.1" id="Layer_1" xmlns="http://www.w3.org/2000/svg" xmlns:xlink="http://www.w3.org/1999/xlink" x="0px" y="0px"
	 viewBox="0 0 125.7 125.6" style="enable-background:new 0 0 125.7 125.6;" xml:space="preserve">
<style type="text/css">
	.st0{fill:#E01E5A;}
	.st1{fill:#36C5F0;}
	.st2{fill:#2EB67D;}
	.st3{fill:#ECB22E;}
</style>
<g>
	<path class="st0" d="M26.5,79.4c0,7.3-5.9,13.2-13.2,13.2S0.1,86.7,0.1,79.4S6,66.2,13.3,66.2h13.2V79.4z M33.1,79.4
		c0-7.3,5.9-13.2,13.2-13.2s13.2,5.9,13.2,13.2v33c0,7.3-5.9,13.2-13.2,13.2s-13.2-5.9-13.2-13.2V79.4z"/>
	<path class="st1" d="M46.3,26.4c-7.3,0-13.2-5.9-13.2-13.2S39,0,46.3,0s13.2,5.9,13.2,13.2v13.2H46.3z M46.3,33.1
		c7.3,0,13.2,5.9,13.2,13.2s-5.9,13.2-13.2,13.2H13.2C5.9,59.5,0,53.6,0,46.3s5.9-13.2,13.2-13.2H46.3z"/>
	<path class="st2" d="M99.2,46.3c0-7.3,5.9-13.2,13.2-13.2c7.3,0,13.2,5.9,13.2,13.2s-5.9,13.2-13.2,13.2H99.2V46.3z M92.6,46.3
		c0,7.3-5.9,13.2-13.2,13.2c-7.3,0-13.2-5.9-13.2-13.2V13.2C66.2,5.9,72.1,0,79.4,0c7.3,0,13.2,5.9,13.2,13.2
		C92.6,13.2,92.6,46.3,92.6,46.3z"/>
	<path class="st3" d="M79.4,99.2c7.3,0,13.2,5.9,13.2,13.2c0,7.3-5.9,13.2-13.2,13.2c-7.3,0-13.2-5.9-13.2-13.2V99.2H79.4z
		 M79.4,92.6c-7.3,0-13.2-5.9-13.2-13.2c0-7.3,5.9-13.2,13.2-13.2h33.1c7.3,0,13.2,5.9,13.2,13.2c0,7.3-5.9,13.2-13.2,13.2H79.4z"/>
</g>
</svg>
