<svg xmlns="http://www.w3.org/2000/svg" width="203.87587" height="60.76704" viewBox="0 0 53.942157 16.077945">
  <path d="M202.59179 278.80743c-.01-.007-.021-.0166-.0326-.0267-.18735-.23215-1.34591-1.68349-2.5264-3.54498-.35408-.59315-.58401-1.05576-.53986-1.17539.11549-.31104 2.1735-.48128 2.8073-.1993.19274.0856.18788.1989.18788.26489 0 .28475-.0141 1.0488-.0141 1.0488.00013.15789.1285.28593.28655.28567.15832 0 .28616-.12857.28563-.28685l-.003-1.90382h-.00053c0-.16525-.18039-.20653-.21429-.21297-.33082-.002-1.00259-.004-1.7239-.004-1.5916 0-1.94725.0653-2.21764-.11148-.58585-.38308-1.54377-2.96498-1.56611-4.41763-.0318-2.04935 1.18247-3.82355 2.89231-4.70263.71434-.35968 1.52117-.56239 2.37334-.56239 2.70627 0 4.93495 2.04264 5.23148 4.67069.00027.002.00027.005.0008.007.0544.63535-3.44728.77036-4.13994.58552-.10616-.0284-.13336-.13711-.13336-.18391-.00079-.48312-.004-1.8427-.004-1.8427-.00053-.15801-.12889-.28619-.28694-.28579h-.00027c-.15779.00026-.28589.1287-.28589.28698l.006 2.50447c.005.15775.1373.20034.17356.20744.39389.00013 1.31503-.00079 2.17297-.00079 1.15961 0 1.64665.13436 1.97078.38111.21547.16433.2989.47891.22598.88776-.65022 3.63701-4.77033 8.14298-4.9251 8.33083zm11.17413-8.48843c1.03952.44553 1.68357.93982 1.68357 2.02477 0 1.10835-.83955 1.82429-2.13855 1.82429-1.05266 0-1.89759-.47681-2.31842-1.30844l-.0681-.13409 1.23765-.71712.0811.13252c.27866.45551.59018.64968 1.04214.64968.38956 0 .65128-.17261.65128-.42975 0-.28488-.18946-.39162-.77504-.64797l-.29759-.12765c-.79423-.33851-1.52998-.80888-1.52998-1.94813 0-1.02382.78476-1.73884 1.9085-1.73884.85137 0 1.43485.32958 1.8365 1.03684l.0745.13133-1.19915.77063-.0826-.1479c-.20049-.35862-.38929-.43053-.6292-.43053-.25082 0-.41242.13829-.41242.35284 0 .24649.11904.35468.63787.57948zm8.76047.20978.87371-2.43624h1.49962l-2.2225 6.17605h-.33306l-1.34815-2.89241c-.0627-.13252-.12731-.29711-.18302-.44789-.057.15105-.12323.31603-.18604.44854l-1.40082 2.89176h-.33083l-2.25811-6.17605h1.60197l.8833 2.43624c.0564.15538.11418.34482.16476.52058.06-.18141.13217-.37729.20759-.53518l1.16013-2.47252h.32097l1.17813 2.47279c.0751.15775.14755.35376.20733.53518.0508-.17603.10905-.36547.16502-.52085zm4.12216 3.56248v-6.12491h1.51356v6.12491zm6.47614-2.05787v-1.36877h2.81045v2.74504l-.0581.0479c-.3215.26397-1.17392.71055-2.32867.71055-1.94804 0-3.30801-1.29082-3.30801-3.13904 0-1.81403 1.31228-3.13075 3.1204-3.13075.99432 0 1.72311.28028 2.22763.857l.0985.11266-1.03164 1.02132-.11207-.11542c-.28813-.2971-.58663-.48115-1.18246-.48115-.92614 0-1.57308.71397-1.57308 1.73635 0 1.06496.69082 1.7533 1.76069 1.7533.35487 0 .72433-.0611.9758-.15881v-.59013zm7.67011 0v-1.36877h2.81045v2.74504l-.0581.0479c-.32176.26397-1.17392.71055-2.3284.71055-1.94805 0-3.30827-1.29082-3.30827-3.13904 0-1.81403 1.31253-3.13075 3.12013-3.13075.99484 0 1.72363.28028 2.22789.857l.0988.11266-1.03137 1.02132-.11233-.11542c-.28827-.2971-.5869-.48115-1.183-.48115-.92587 0-1.57281.71397-1.57281 1.73635 0 1.06496.69109 1.7533 1.76096 1.7533.35487 0 .72406-.0611.97553-.15881v-.59013zm8.35629-4.06702h1.58201l-2.1714 4.0757v2.04922H247.04v-1.9622l-2.31316-4.16272h1.68803l1.06908 1.95286c.11496.21244.23504.49324.32583.7212.0867-.22612.20142-.50442.31559-.71936z" style="fill:#fc8019;fill-opacity:1;stroke-width:.26458332" transform="translate(-197.05553 -262.99407)"/>
</svg>
