<?xml version="1.0" encoding="utf-8"?>
<!-- Generator: Adobe Illustrator 27.3.1, SVG Export Plug-In . SVG Version: 6.00 Build 0)  -->
<svg version="1.1"
	 id="Layer_1" xmlns:dc="http://purl.org/dc/elements/1.1/" xmlns:cc="http://creativecommons.org/ns#" xmlns:rdf="http://www.w3.org/1999/02/22-rdf-syntax-ns#"
	 xmlns="http://www.w3.org/2000/svg" xmlns:xlink="http://www.w3.org/1999/xlink" x="0px" y="0px" viewBox="0 0 278.67 42.44"
	 style="enable-background:new 0 0 278.67 42.44;" xml:space="preserve">
<style type="text/css">
	.st0{fill:#E82127;}
</style>
<g>
	<path class="st0" d="M0,3.14c0.81,3.17,3.55,6.4,7.32,7.21h11.37l0.58,0.23v28.69h7.1V10.58l0.65-0.23h11.38
		c3.8-0.98,6.49-4.05,7.28-7.21V3.07H0L0,3.14"/>
	<path class="st0" d="M70.27,39.35h27.01c3.76-0.75,6.55-4.06,7.33-7.26H62.94C63.71,35.3,66.55,38.61,70.27,39.35"/>
	<path class="st0" d="M70.27,24.64h27.01c3.76-0.74,6.55-4.05,7.33-7.26H62.94C63.71,20.59,66.55,23.9,70.27,24.64"/>
	<path class="st0" d="M70.27,10.32h27.01c3.76-0.75,6.55-4.06,7.33-7.27H62.94C63.71,6.26,66.55,9.57,70.27,10.32"/>
	<path class="st0" d="M131.87,10.25h24.95c3.76-1.09,6.92-3.96,7.69-7.14h-39.64v21.42h32.44v7.52l-25.45,0.02
		c-3.99,1.11-7.37,3.79-9.06,7.33l2.06-0.04h39.41V17.41h-32.42L131.87,10.25"/>
	<path class="st0" d="M216.79,39.36c3.54-1.5,5.45-4.1,6.18-7.14h-31.52l0.02-29.12l-7.07,0.02v36.24L216.79,39.36"/>
	<path class="st0" d="M244.32,10.34h27.02c3.75-0.75,6.54-4.06,7.33-7.26h-41.68C237.77,6.29,240.6,9.6,244.32,10.34"/>
	<path class="st0" d="M238.08,17.43v21.91h7.03V24.76h25.58v14.59h7.02V17.47L238.08,17.43"/>
</g>
</svg>
