<?xml version="1.0" encoding="utf-8"?>
<!-- Generator: Adobe Illustrator 28.0.0, SVG Export Plug-In . SVG Version: 6.00 Build 0)  -->
<svg version="1.1" id="Layer_1" xmlns="http://www.w3.org/2000/svg" xmlns:xlink="http://www.w3.org/1999/xlink" x="0px" y="0px"
	 viewBox="0 0 100 100" style="enable-background:new 0 0 100 100;" xml:space="preserve">
<style type="text/css">
	.st0{fill:#EF546B;}
	.st1{fill:#5580F9;}
</style>
<path class="st0" d="M168.6-143.4c-1.1,0.5-2.3-0.1-2.8-1.1l-3.3-7.7c-0.5-1.1,0-2.3,1.1-2.8l11.3-4.8c-5.4-4.8-13.5-4.6-18.7,0.5
	c0,0-0.1,0.1-0.1,0.1c-7.1,7.1-1.1,11.6-10.2,21.2l-19.2,19.2l2.9,2.9l19.2-19.2l2.5-2.5c0.8-0.8,2-0.8,2.8,0c0.8,0.8,0.8,2,0,2.8
	l-2.5,2.5l-19.2,19.2l2.9,2.9l19.2-19.2c9.6-9.1,14.1-3.1,21.2-10.2l0.1-0.1c2.2-2.3,3.5-5.1,3.8-8.1L168.6-143.4z"/>
<g>
	<g>
		<path class="st1" d="M53.8,46.7l2.5,2.4L50,55.6c-0.3,0.4-0.8,0.5-1.2,0.5c-0.4,0-0.9-0.2-1.2-0.5l-3.8-3.6l2.4-2.5l2.5,2.4
			L53.8,46.7z"/>
		<path class="st1" d="M72.1,36.2c-10.9,0-16.3-3-22.1-11.1c-5.8,8.1-11.3,11.1-22.1,11.1c0,0-4.6,35.6,22.1,40.8
			C76.7,71.7,72.1,36.2,72.1,36.2z M50,62.3c-6,0-10.9-4.9-10.9-10.9c0-6,4.9-10.9,10.9-10.9s10.9,4.9,10.9,10.9
			C60.9,57.4,56,62.3,50,62.3z"/>
	</g>
	<g>
		<g>
			<path class="st1" d="M85.1,64.8c-0.1,0-0.2,0-0.3-0.1c-0.5-0.2-0.8-0.8-0.6-1.3c1.4-4,2.1-8.1,2.1-12.4
				c0-16.9-11.5-31.6-27.9-35.8c-0.5-0.1-0.9-0.7-0.7-1.2s0.7-0.9,1.2-0.7c17.3,4.4,29.4,19.9,29.4,37.7c0,4.5-0.8,8.9-2.3,13.1
				C85.9,64.5,85.6,64.8,85.1,64.8z"/>
		</g>
		<g>
			<path class="st1" d="M13.2,63.2c-0.4,0-0.8-0.3-1-0.7c-1.1-3.7-1.7-7.5-1.7-11.4c0-18.2,12.4-33.8,30.1-37.9
				c0.5-0.1,1.1,0.2,1.2,0.7c0.1,0.5-0.2,1.1-0.7,1.2C24.3,19,12.6,33.8,12.6,51.1c0,3.7,0.5,7.3,1.6,10.8c0.2,0.5-0.1,1.1-0.7,1.2
				C13.4,63.1,13.3,63.2,13.2,63.2z"/>
		</g>
		<g>
			<path class="st1" d="M49.4,89.9c-10.9,0-21.3-4.6-28.7-12.6c-0.4-0.4-0.3-1,0.1-1.4c0.4-0.4,1-0.3,1.4,0.1c7,7.6,16.9,12,27.2,12
				c10.8,0,21-4.7,28.1-13c0.4-0.4,1-0.5,1.4-0.1c0.4,0.4,0.5,1,0.1,1.4C71.6,85,60.8,89.9,49.4,89.9z"/>
		</g>
		<g>
			<circle class="st1" cx="49.4" cy="13.2" r="3.1"/>
		</g>
		<g>
			<circle class="st1" cx="16.6" cy="70" r="3.1"/>
		</g>
		<g>
			<circle class="st1" cx="82.3" cy="70" r="3.1"/>
		</g>
		<g>
			<path class="st1" d="M85,64.9c-0.4,0-0.7-0.2-0.9-0.5L82.3,61c-0.3-0.5-0.1-1.1,0.4-1.4c0.5-0.3,1.1-0.1,1.4,0.4l1.4,2.5l2.5-1.4
				c0.5-0.3,1.1-0.1,1.4,0.4c0.3,0.5,0.1,1.1-0.4,1.4l-3.4,1.9C85.3,64.9,85.2,64.9,85,64.9z"/>
		</g>
		<g>
			<path class="st1" d="M21.4,81.1c-0.5,0-0.9-0.4-1-0.8l-0.6-3.8c-0.1-0.5,0.3-1.1,0.8-1.1l3.8-0.6c0.6-0.1,1.1,0.3,1.1,0.8
				s-0.3,1.1-0.8,1.1l-2.9,0.4l0.4,2.9c0.1,0.5-0.3,1.1-0.8,1.1C21.5,81.1,21.4,81.1,21.4,81.1z"/>
		</g>
		<g>
			<path class="st1" d="M39.8,18.5c-0.1,0-0.3,0-0.4-0.1c-0.5-0.2-0.8-0.8-0.5-1.3l1.1-2.7l-2.7-1.1c-0.5-0.2-0.8-0.8-0.5-1.3
				c0.2-0.5,0.8-0.8,1.3-0.5l3.6,1.5c0.5,0.2,0.8,0.8,0.5,1.3l-1.5,3.6C40.5,18.3,40.2,18.5,39.8,18.5z"/>
		</g>
	</g>
</g>
</svg>
