
<svg version="1.1" id="Layer_1" xmlns="http://www.w3.org/2000/svg" xmlns:xlink="http://www.w3.org/1999/xlink" x="0px" y="0px"
	 viewBox="0 0 100 100" style="enable-background:new 0 0 100 100;" xml:space="preserve">
<style type="text/css">
	.st0{fill:#FFA348;}
</style>
<g>
	<path class="st0" d="M78.8,21.7H21.2c-3.5,0-6.4,2.9-6.4,6.4v43.7c0,3.5,2.9,6.4,6.4,6.4h57.7c3.5,0,6.4-2.9,6.4-6.4V28.1
		C85.3,24.6,82.4,21.7,78.8,21.7z M77.3,28.8c0,0.5-0.4,0.9-0.9,0.9H43.6c-0.5,0-0.9-0.4-0.9-0.9s0.4-0.9,0.9-0.9h32.8
		C76.9,27.9,77.3,28.3,77.3,28.8z M38,28.8c0,1-0.8,1.8-1.8,1.8s-1.8-0.8-1.8-1.8s0.8-1.8,1.8-1.8S38,27.8,38,28.8z M32.2,28.8
		c0,1-0.8,1.8-1.8,1.8s-1.8-0.8-1.8-1.8s0.8-1.8,1.8-1.8C31.4,27,32.2,27.8,32.2,28.8z M26.4,28.8c0,1-0.8,1.8-1.8,1.8
		s-1.8-0.8-1.8-1.8s0.8-1.8,1.8-1.8S26.4,27.8,26.4,28.8z M78.8,76.3H21.2c-2.4,0-4.4-2-4.4-4.4V34.7h66.5v37.2
		C83.3,74.3,81.3,76.3,78.8,76.3z"/>
	<path class="st0" d="M39.1,47.1c-0.4-0.4-1-0.4-1.4,0L29.3,55c-0.2,0.2-0.3,0.5-0.3,0.7s0.1,0.5,0.3,0.7l8.4,7.9
		c0.2,0.2,0.4,0.3,0.7,0.3s0.5-0.1,0.7-0.3c0.4-0.4,0.4-1,0-1.4l-7.7-7.1l7.7-7.1C39.5,48.2,39.5,47.5,39.1,47.1z"/>
	<path class="st0" d="M65,47.1c-0.4-0.4-1-0.4-1.4,0s-0.4,1,0,1.4l7.7,7.1l-7.7,7.1c-0.4,0.4-0.4,1,0,1.4c0.2,0.2,0.5,0.3,0.7,0.3
		c0.2,0,0.5-0.1,0.7-0.3l8.4-7.9c0.2-0.2,0.3-0.5,0.3-0.7s-0.1-0.5-0.3-0.7L65,47.1z"/>
	<path class="st0" d="M55.8,43.6c-0.5-0.2-1.1,0.1-1.3,0.6l-8.9,23.1c-0.2,0.5,0.1,1.1,0.6,1.3c0.1,0,0.2,0.1,0.4,0.1
		c0.4,0,0.8-0.2,0.9-0.6L56.4,45C56.5,44.4,56.3,43.8,55.8,43.6z"/>
</g>
</svg>
