<?xml version="1.0" encoding="utf-8"?>
<!-- Generator: Adobe Illustrator 28.2.0, SVG Export Plug-In . SVG Version: 6.00 Build 0)  -->
<svg version="1.1" id="Layer_1" xmlns="http://www.w3.org/2000/svg" xmlns:xlink="http://www.w3.org/1999/xlink" x="0px" y="0px"
	 viewBox="0 0 100 100" style="enable-background:new 0 0 100 100;" xml:space="preserve">
<style type="text/css">
	.st0{fill:#3AC9A5;}
</style>
<g>
	<path class="st0" d="M47.9,65.4H15.6c-0.6,0-1.1,0.5-1.1,1.1s0.5,1.1,1.1,1.1h32.3c0.6,0,1.1-0.5,1.1-1.1S48.5,65.4,47.9,65.4z"/>
	<path class="st0" d="M15.6,54.7h42.2c0.6,0,1-0.5,1-1s-0.5-1-1-1H15.6c-0.6,0-1.1,0.5-1.1,1S15,54.7,15.6,54.7z"/>
	<path class="st0" d="M59.4,41.9h8.9c0.6,0,1-0.5,1-1.1c0-0.6-0.5-1-1-1h-8.9c-0.6,0-1,0.5-1,1C58.4,41.4,58.9,41.9,59.4,41.9z"/>
	<path class="st0" d="M59.4,29.1h8.9c0.6,0,1-0.5,1-1c0-0.6-0.5-1.1-1-1.1h-8.9c-0.6,0-1,0.5-1,1.1C58.4,28.7,58.9,29.1,59.4,29.1z"
		/>
	<path class="st0" d="M45.3,78.1H15.6c-0.6,0-1.1,0.5-1.1,1c0,0.6,0.5,1.1,1.1,1.1h29.7c0.6,0,1-0.5,1-1.1
		C46.4,78.6,45.9,78.1,45.3,78.1z"/>
	<path class="st0" d="M43.7,28c0.7,0.6,1.7,1.6,2.8,2.7c1.3,1.3,2.8,2.7,3.9,3.7c-1.1,1.1-2.6,2.4-3.9,3.7c-1.1,1.1-2.1,2-2.8,2.7
		l-1.1,1.1h4.6l0.3-0.3c1.4-1.3,3.9-3.8,5.7-5.5c0.5-0.5,1-0.9,1.3-1.2l0.5-0.5l-0.5-0.5c-0.3-0.3-0.8-0.7-1.3-1.2
		c-1.8-1.7-4.3-4.2-5.7-5.5l-0.3-0.3h-4.6L43.7,28z"/>
	<path class="st0" d="M17.7,36.1c1.8,1.7,4.3,4.2,5.7,5.5l0.3,0.3h4.6l-1.1-1.1c-0.7-0.6-1.7-1.6-2.8-2.7c-1.4-1.3-2.8-2.7-3.9-3.7
		c1.1-1.1,2.6-2.4,3.9-3.7c1.1-1.1,2.1-2,2.8-2.7l1.1-1.1h-4.6l-0.3,0.3c-1.4,1.3-3.9,3.8-5.7,5.5c-0.5,0.5-1,0.9-1.3,1.2l-0.5,0.5
		l0.5,0.5C16.7,35.1,17.2,35.6,17.7,36.1z"/>
	<polygon class="st0" points="32,46.8 43.4,19.8 39.6,19.8 28.2,46.8 	"/>
	<path class="st0" d="M84.6,46L79,41.3c-0.5-0.4-1-0.6-1.7-0.5c-0.6,0.1-1.1,0.3-1.5,0.8l-0.4,0.4c0,0,0,0,0,0L52.6,69.5
		c-0.1,0.2-0.2,0.3-0.2,0.6l-1,8.8c0,0.4,0.1,0.7,0.4,0.9c0.2,0.2,0.4,0.2,0.7,0.2c0.1,0,0.2,0,0.3,0l8.5-2.6
		c0.2-0.1,0.4-0.2,0.5-0.3l22.9-27.5c0,0,0,0,0,0l0.4-0.4c0.4-0.5,0.6-1.1,0.5-1.7C85.4,46.9,85.1,46.4,84.6,46z M60.3,75.5
		l-2.6,0.8l-3.5-3.2l0.3-2.5l16.8-20.2l5.9,4.9L60.3,75.5z M78.4,53.7l-5.9-4.9l1.8-2.1l5.9,4.9L78.4,53.7z"/>
</g>
</svg>
