<?xml version="1.0" encoding="UTF-8"?>
<svg id="Layer_1" data-name="Layer 1" xmlns="http://www.w3.org/2000/svg" version="1.1" viewBox="0 0 100 100">
  <defs>
    <style>
      .cls-1 {
        stroke-width: 0px;
      }

      .cls-1, .cls-2 {
        fill: #ef546b;
      }

      .cls-2 {
        stroke: #000;
        stroke-linejoin: round;
      }
    </style>
  </defs>
  <g>
    <path class="cls-1" d="M20.304,70.964c-.256,0-.513-.098-.708-.294-6.229-6.24-9.659-14.521-9.659-23.318,0-18.185,14.794-32.979,32.979-32.979,17.1,0,31.542,13.338,32.877,30.367.043.55-.368,1.032-.919,1.075-.54.036-1.032-.368-1.075-.919-1.254-15.994-14.82-28.523-30.883-28.523-17.082,0-30.979,13.897-30.979,30.979,0,8.262,3.223,16.042,9.075,21.906.39.391.389,1.023-.001,1.414-.195.194-.451.292-.707.292Z"/>
    <path class="cls-1" d="M20.467,70.761c-.256,0-.511-.098-.707-.292-.391-.391-.391-1.023,0-1.415l11.207-11.214c.391-.391,1.023-.391,1.414,0s.391,1.023,0,1.414l-11.206,11.214c-.195.195-.451.293-.708.293Z"/>
    <path class="cls-1" d="M42.918,56.337c-4.952,0-8.981-4.029-8.981-8.981s4.029-8.981,8.981-8.981c1.205,0,2.375.235,3.478.699.509.214.749.8.535,1.309-.214.509-.799.748-1.309.535-.857-.36-1.767-.542-2.704-.542-3.849,0-6.981,3.132-6.981,6.981s3.132,6.981,6.981,6.981,6.98-3.132,6.98-6.981c0-.552.448-1,1-1s1,.448,1,1c0,4.952-4.029,8.981-8.98,8.981Z"/>
    <path class="cls-1" d="M28.004,63.264c-.256,0-.512-.098-.707-.293-4.178-4.179-6.479-9.725-6.479-15.619,0-12.185,9.913-22.098,22.098-22.098s22.098,9.913,22.098,22.098c0,.552-.447,1-1,1s-1-.448-1-1c0-11.082-9.016-20.098-20.098-20.098s-20.098,9.016-20.098,20.098c0,5.359,2.093,10.404,5.894,14.205.391.391.391,1.023,0,1.414-.195.195-.451.293-.707.293Z"/>
    <circle class="cls-1" cx="42.918" cy="47.356" r="4.473"/>
    <path class="cls-1" d="M56.4,39.505l-10.731,9.335-1.402-2.43-2.011-2.096,13.474-5.868c.665-.29,1.217.584.67,1.06Z"/>
    <path class="cls-1" d="M42.915,27.254c-.552,0-1-.448-1-1v-10.882c0-.552.448-1,1-1s1,.448,1,1v10.882c0,.552-.448,1-1,1Z"/>
    <path class="cls-1" d="M53.073,23.833c-.128,0-.258-.025-.383-.077-.51-.211-.752-.796-.541-1.307l2.082-5.027c.211-.511.799-.751,1.307-.541.51.211.752.796.541,1.307l-2.082,5.027c-.159.385-.532.618-.924.618Z"/>
    <path class="cls-1" d="M32.759,23.835c-.393,0-.765-.233-.924-.618l-2.082-5.026c-.211-.51.031-1.095.541-1.307.511-.212,1.095.031,1.307.541l2.082,5.026c.211.51-.031,1.095-.541,1.307-.125.052-.255.077-.382.077Z"/>
    <path class="cls-1" d="M18.394,38.202c-.127,0-.257-.025-.382-.077l-5.026-2.082c-.51-.211-.752-.796-.541-1.307.211-.51.794-.753,1.307-.541l5.026,2.082c.51.211.752.796.541,1.307-.16.385-.532.618-.924.618Z"/>
    <path class="cls-1" d="M13.371,60.598c-.393,0-.765-.232-.924-.617-.211-.511.031-1.096.541-1.307l5.026-2.082c.511-.212,1.095.031,1.307.541.211.511-.031,1.096-.541,1.307l-5.026,2.082c-.125.052-.255.076-.382.076Z"/>
    <path class="cls-1" d="M67.439,38.197c-.392,0-.765-.233-.924-.618-.211-.51.031-1.095.541-1.307l5.026-2.082c.509-.21,1.096.031,1.307.541s-.031,1.095-.541,1.307l-5.026,2.082c-.125.052-.255.077-.383.077Z"/>
    <path class="cls-1" d="M57.838,33.433c-.256,0-.512-.098-.707-.293-.391-.391-.391-1.023,0-1.414l7.694-7.694c.391-.391,1.023-.391,1.414,0s.391,1.023,0,1.414l-7.694,7.694c-.195.195-.451.293-.707.293Z"/>
    <path class="cls-1" d="M27.995,33.436c-.256,0-.512-.098-.707-.293l-7.694-7.694c-.391-.391-.391-1.023,0-1.414s1.023-.391,1.414,0l7.694,7.694c.391.391.391,1.023,0,1.414-.195.195-.451.293-.707.293Z"/>
    <path class="cls-1" d="M21.816,48.359h-10.881c-.552,0-1-.448-1-1s.448-1,1-1h10.881c.552,0,1,.448,1,1s-.448,1-1,1Z"/>
  </g>
  <g>
    <path class="cls-1" d="M81.414,56.128l1.25-.75-.74-1.77-1.41.35c-.29-.39-.64-.73-1.02-1.01l.35-1.42-1.77-.73-.75,1.25c-.47-.07-.96-.07-1.44-.01l-.75-1.24-1.78.73.36,1.41c-.39.3-.73.64-1.02,1.03l-1.41-.36-.74,1.77,1.25.76c-.07.47-.07.95,0,1.44l-1.25.75.73,1.77,1.42-.35c.29.39.64.73,1.02,1.01l-.35,1.42,1.77.74.75-1.26c.47.07.96.07,1.44.01l.75,1.24,1.77-.73-.35-1.41c.39-.3.73-.64,1.01-1.03l1.42.36.73-1.77-1.25-.76c.07-.47.08-.95.01-1.44ZM78.203,58.458c-.88.88-2.32.88-3.2,0-.89-.89-.89-2.32,0-3.21.88-.88,2.32-.88,3.2,0,.88.89.88,2.32,0,3.21Z"/>
    <g>
      <path class="cls-1" d="M54.294,77.698l1.41,1.41-7.03,7.03c-.19.19-.45.29-.71.29-.25,0-.51-.1-.7-.29-.39-.39-.39-1.03,0-1.42l7.03-7.02Z"/>
      <path class="cls-1" d="M58.013,76.468l-1.08-1.08c.22-.03.45.03.64.15l.16.13c.22.22.31.51.28.8Z"/>
    </g>
    <path class="cls-1" d="M59.104,82.508l-3.64,3.63c-.19.19-.45.29-.7.29-.26,0-.52-.1-.71-.29-.39-.39-.39-1.03,0-1.42l3.63-3.63,1.42,1.42Z"/>
    <path class="cls-1" d="M52.313,75.718l-3.64,3.63c-.19.19-.45.29-.71.29-.25,0-.51-.1-.7-.29-.39-.39-.39-1.03,0-1.42l3.63-3.63,1.42,1.42Z"/>
    <path class="cls-1" d="M63.044,80.148q-.01.01-.02.01c-.14.02-.27.03-.41.03-.56,0-1.1-.22-1.5-.62l-6.73-6.73,3.19,2.7.16.13,5.31,4.48Z"/>
    <path class="cls-1" d="M59.17,63.38l-8.992-4.141,4.323-4.323c.884-.884,2.095-1.363,3.344-1.324l6.085.193-4.761,9.595Z"/>
    <path class="cls-1" d="M70.059,74.269l4.141,8.992,4.323-4.323c.884-.884,1.363-2.095,1.324-3.344l-.193-6.085-9.595,4.761Z"/>
    <path class="cls-2" d="M70.059,74.269"/>
    <path class="cls-1" d="M89.394,44.053l.008-.008h-.008s0-.008,0-.008l-.008.008-9.248.338,9.206,9.206c.823.823.049-9.537.049-9.537Z"/>
    <path class="cls-1" d="M90.383,43.868c-.04-.2-.13-.39-.28-.53-.16-.17-.37-.27-.59-.29-.99-.21-6.99-1.34-13.79.97-.64.21-1.28.46-1.93.75-2.66,1.14-5.38,2.86-7.92,5.4-1.19,1.19-2.2,2.39-3.06,3.58-2.48,3.43-3.7,6.75-4.29,9.33-.45,1.94-.54,3.46-.55,4.31,0,.42.02.67.02.73.02.24.12.47.29.64l.48.48,5.93,5.93c.17.17.39.27.63.29.05,0,.26.02.6.02h.12c.84-.01,2.37-.1,4.32-.55,2.58-.58,5.9-1.8,9.33-4.28,1.19-.86,2.4-1.88,3.59-3.07,9.94-9.94,7.34-22.65,7.1-23.71ZM81.863,66.168c-2.56,2.56-5.18,4.22-7.57,5.3-.03.01-.06.03-.09.04-1.36.61-2.63,1.03-3.77,1.32-2.23.57-3.91.64-4.61.64l-2.88-2.88c-.01-.01-.03-.02-.04-.04l-2.93-2.93c0-.71.07-2.39.64-4.61.28-1.08.68-2.3,1.25-3.59.02-.06.04-.12.08-.18,1.08-2.42,2.75-5.08,5.34-7.66,4.31-4.31,9.27-6.04,13.38-6.66,3.65-.55,6.63-.21,7.88-.01.2,1.25.53,4.23-.01,7.87-.62,4.11-2.36,9.08-6.67,13.39Z"/>
    <path class="cls-1" d="M66.094,73.748l-.27-.28-2.88-2.88c-.01-.01-.03-.02-.04-.04l-3.21-3.21c-.29-.28-.72-.37-1.1-.21l-.62.26-3.43,1.47c-.65.28-1.12.86-1.26,1.56-.13.7.09,1.41.59,1.91l7.24,7.24c.4.4.94.62,1.5.62.14,0,.27-.01.41-.03q.01,0,.02-.01c.68-.14,1.26-.61,1.53-1.25l1.47-3.42.27-.63c.16-.38.07-.81-.22-1.1ZM62.743,78.108c-.01.02-.03.07-.1.08-.07.01-.11-.02-.12-.03l-7.24-7.24c-.01-.01-.05-.05-.03-.12.01-.07.06-.09.07-.1l3.44-1.46,2.73,2.73c.01.01.03.03.05.04.01.02.02.03.03.04l2.63,2.63-1.46,3.43Z"/>
    <path class="cls-2" d="M62.19,71.25"/>
    <path class="cls-1" d="M66.191,68.248c-.256,0-.512-.098-.707-.293l-4.423-4.422c-1.368-1.368-1.727-3.473-.891-5.236.237-.499.835-.711,1.331-.476.5.236.713.832.476,1.331-.475,1.002-.274,2.194.498,2.967l4.423,4.422c.391.391.391,1.023,0,1.414-.195.195-.451.293-.707.293Z"/>
    <path class="cls-1" d="M73.164,73.724c-1.197,0-2.374-.462-3.25-1.338l-4.423-4.423c-.391-.391-.391-1.023,0-1.414s1.023-.391,1.414,0l4.423,4.423c.773.772,1.967.972,2.967.497.504-.237,1.097-.022,1.332.477s.022,1.096-.477,1.332c-.635.3-1.313.446-1.986.446Z"/>
  </g>
</svg>