<?xml version="1.0" encoding="UTF-8"?>
<svg id="Layer_1" data-name="Layer 1" xmlns="http://www.w3.org/2000/svg" version="1.1" viewBox="0 0 100 100">
  <defs>
    <style>
      .cls-1 {
        fill: #1bc7ff;
        stroke-width: 0px;
      }
    </style>
  </defs>
  <path class="cls-1" d="M81.467,77.285H18.534c-4.362,0-7.912-3.55-7.912-7.912V30.627c0-4.362,3.55-7.912,7.912-7.912h62.934c4.362,0,7.911,3.55,7.911,7.912v38.746c0,4.362-3.549,7.912-7.911,7.912ZM18.534,24.715c-3.26,0-5.912,2.652-5.912,5.912v38.746c0,3.26,2.652,5.912,5.912,5.912h62.934c3.26,0,5.911-2.652,5.911-5.912V30.627c0-3.26-2.651-5.912-5.911-5.912H18.534Z"/>
  <path class="cls-1" d="M41.699,41.012h2.782c.465,0,.842.377.842.842v7.354h-4.466v-7.354c0-.465.377-.842.842-.842Z"/>
  <path class="cls-1" d="M48.526,37.382h2.782c.465,0,.842.377.842.842v10.984h-4.466v-10.984c0-.465.377-.842.842-.842Z"/>
  <path class="cls-1" d="M55.352,33.752h2.782c.465,0,.842.377.842.842v14.614h-4.466v-14.614c0-.465.377-.842.842-.842Z"/>
  <g>
    <circle class="cls-1" cx="19.452" cy="56.332" r="1.312"/>
    <path class="cls-1" d="M19.452,58.645c-1.274,0-2.312-1.037-2.312-2.312s1.037-2.312,2.312-2.312,2.312,1.037,2.312,2.312-1.037,2.312-2.312,2.312ZM19.452,56.021c-.172,0-.312.14-.312.312s.14.312.312.312.312-.141.312-.312-.141-.312-.312-.312Z"/>
  </g>
  <g>
    <circle class="cls-1" cx="26.005" cy="56.332" r="1.312"/>
    <path class="cls-1" d="M26.004,58.645c-1.274,0-2.312-1.037-2.312-2.312s1.037-2.312,2.312-2.312,2.312,1.037,2.312,2.312-1.037,2.312-2.312,2.312ZM26.004,56.021c-.172,0-.312.14-.312.312s.14.312.312.312.312-.141.312-.312-.141-.312-.312-.312Z"/>
  </g>
  <g>
    <circle class="cls-1" cx="32.557" cy="56.332" r="1.312"/>
    <path class="cls-1" d="M32.557,58.645c-1.274,0-2.312-1.037-2.312-2.312s1.037-2.312,2.312-2.312,2.312,1.037,2.312,2.312-1.037,2.312-2.312,2.312ZM32.557,56.021c-.172,0-.312.14-.312.312s.14.312.312.312.312-.141.312-.312-.14-.312-.312-.312Z"/>
  </g>
  <g>
    <circle class="cls-1" cx="19.452" cy="62.891" r="1.312"/>
    <path class="cls-1" d="M19.452,65.202c-1.274,0-2.312-1.037-2.312-2.312s1.037-2.312,2.312-2.312,2.312,1.037,2.312,2.312-1.037,2.312-2.312,2.312ZM19.452,62.579c-.172,0-.312.14-.312.312s.14.312.312.312.312-.14.312-.312-.141-.312-.312-.312Z"/>
  </g>
  <path class="cls-1" d="M26.004,65.202c-1.274,0-2.312-1.037-2.312-2.312s1.037-2.312,2.312-2.312,2.312,1.037,2.312,2.312-1.037,2.312-2.312,2.312ZM26.004,62.579c-.172,0-.312.14-.312.312s.14.312.312.312.312-.14.312-.312-.141-.312-.312-.312Z"/>
  <path class="cls-1" d="M32.557,65.202c-1.274,0-2.312-1.037-2.312-2.312s1.037-2.312,2.312-2.312,2.312,1.037,2.312,2.312-1.037,2.312-2.312,2.312ZM32.557,62.579c-.172,0-.312.14-.312.312s.14.312.312.312.312-.14.312-.312-.14-.312-.312-.312Z"/>
  <g>
    <circle class="cls-1" cx="19.452" cy="69.449" r="1.312"/>
    <path class="cls-1" d="M19.452,71.761c-1.274,0-2.312-1.037-2.312-2.312s1.037-2.312,2.312-2.312,2.312,1.037,2.312,2.312-1.037,2.312-2.312,2.312ZM19.452,69.138c-.172,0-.312.14-.312.312s.14.312.312.312.312-.14.312-.312-.141-.312-.312-.312Z"/>
  </g>
  <g>
    <circle class="cls-1" cx="26.005" cy="69.449" r="1.312"/>
    <path class="cls-1" d="M26.004,71.761c-1.274,0-2.312-1.037-2.312-2.312s1.037-2.312,2.312-2.312,2.312,1.037,2.312,2.312-1.037,2.312-2.312,2.312ZM26.004,69.138c-.172,0-.312.14-.312.312s.14.312.312.312.312-.14.312-.312-.141-.312-.312-.312Z"/>
  </g>
  <path class="cls-1" d="M32.557,71.761c-1.274,0-2.312-1.037-2.312-2.312s1.037-2.312,2.312-2.312,2.312,1.037,2.312,2.312-1.037,2.312-2.312,2.312ZM32.557,69.138c-.172,0-.312.14-.312.312s.14.312.312.312.312-.14.312-.312-.14-.312-.312-.312Z"/>
  <rect class="cls-1" x="17.704" y="30.249" width="16.568" height="18.96" rx="2.266" ry="2.266"/>
  <path class="cls-1" d="M39.264,62.074c-.291,0-.579-.126-.776-.369-.349-.428-.284-1.058.145-1.406l5.827-4.742c.341-.28.825-.3,1.19-.054l5.179,3.498,5.246-4.724c.411-.369,1.042-.338,1.412.074.369.41.336,1.043-.074,1.412l-5.827,5.247c-.341.308-.849.342-1.229.086l-5.211-3.521-5.252,4.273c-.186.151-.408.225-.63.225Z"/>
  <g>
    <polygon class="cls-1" points="56.743 62.891 50.917 65.677 45.09 64.765 39.263 70.964 39.263 70.964 56.743 70.964 56.743 62.891"/>
    <path class="cls-1" d="M56.744,71.464h-17.48c-.199,0-.38-.118-.459-.302-.079-.183-.042-.396.095-.541l5.827-6.199c.112-.119.279-.175.441-.151l5.673.889,5.688-2.72c.154-.073.338-.062.482.028.146.092.233.251.233.423v8.073c0,.276-.224.5-.5.5ZM40.419,70.464h15.824v-6.78l-5.111,2.444c-.091.043-.193.056-.293.043l-5.565-.871-4.854,5.164Z"/>
  </g>
  <g>
    <g>
      <path class="cls-1" d="M78.555,39.511c0,1-.269,1.935-.733,2.745l3.213,1.855c.778-1.356,1.229-2.924,1.229-4.6,0-5.118-4.145-9.263-9.263-9.263v3.717c3.064,0,5.554,2.483,5.554,5.547Z"/>
      <path class="cls-1" d="M81.036,45.111c-.174,0-.347-.046-.5-.134l-3.214-1.855c-.478-.275-.642-.886-.367-1.363.393-.686.6-1.462.6-2.247,0-2.507-2.042-4.547-4.553-4.547-.553,0-1-.447-1-1v-3.717c0-.553.447-1,1-1,5.659,0,10.263,4.604,10.263,10.264,0,1.782-.471,3.545-1.361,5.097-.132.23-.351.399-.607.469-.085.022-.173.034-.26.034ZM79.119,41.85l1.495.863c.428-1.012.65-2.103.65-3.201,0-4.218-3.177-7.708-7.263-8.203v1.732c3.141.482,5.553,3.2,5.553,6.471,0,.8-.149,1.594-.436,2.338Z"/>
    </g>
    <path class="cls-1" d="M64.907,45.01c-.089,0-.179-.012-.267-.036-.258-.071-.477-.243-.607-.478-.847-1.521-1.295-3.244-1.295-4.984,0-5.659,4.604-10.264,10.264-10.264.553,0,1,.447,1,1v3.717c0,.553-.447,1-1,1-2.507,0-4.547,2.04-4.547,4.547,0,.756.189,1.504.547,2.165.259.477.09,1.072-.379,1.343l-3.216,1.856c-.153.088-.326.134-.5.134ZM72.001,31.309c-4.087.495-7.264,3.985-7.264,8.203,0,1.061.207,2.112.604,3.093l1.502-.867c-.256-.711-.389-1.466-.389-2.226,0-3.27,2.41-5.987,5.547-6.471v-1.732Z"/>
    <path class="cls-1" d="M73.001,49.774c-3.719,0-7.155-2.022-8.969-5.278-.266-.477-.099-1.079.374-1.353l3.216-1.856c.233-.136.513-.168.771-.097.26.073.479.249.607.485.798,1.47,2.33,2.382,4,2.382,1.627,0,3.142-.881,3.952-2.298.132-.231.351-.4.607-.47.257-.068.53-.033.761.1l3.214,1.855c.478.275.642.886.367,1.364-1.828,3.186-5.239,5.165-8.901,5.165ZM66.31,44.354c1.545,2.131,4.028,3.42,6.691,3.42,2.613,0,5.068-1.253,6.618-3.326l-1.495-.863c-1.233,1.545-3.119,2.473-5.123,2.473-2.058,0-3.971-.962-5.198-2.565l-1.493.862Z"/>
    <path class="cls-1" d="M68.124,43.153c-.355,0-.699-.189-.88-.523-.517-.953-.789-2.031-.789-3.118,0-3.61,2.937-6.547,6.547-6.547.553,0,1,.447,1,1s-.447,1-1,1c-2.507,0-4.547,2.04-4.547,4.547,0,.756.189,1.504.547,2.165.264.486.083,1.093-.402,1.355-.151.082-.314.121-.476.121Z"/>
    <path class="cls-1" d="M77.821,43.256c-.169,0-.34-.043-.496-.133-.479-.274-.646-.885-.37-1.364.393-.686.6-1.462.6-2.247,0-2.507-2.042-4.547-4.553-4.547-.553,0-1-.447-1-1s.447-1,1-1c3.613,0,6.553,2.937,6.553,6.547,0,1.133-.299,2.254-.865,3.241-.185.322-.521.503-.868.503Z"/>
    <path class="cls-1" d="M73.001,46.058c-2.404,0-4.61-1.313-5.758-3.427-.264-.485-.084-1.093.401-1.356.488-.263,1.092-.084,1.356.401.798,1.47,2.33,2.382,4,2.382,1.627,0,3.142-.881,3.952-2.298.274-.479.885-.646,1.364-.372s.646.886.372,1.364c-1.166,2.039-3.346,3.306-5.688,3.306Z"/>
  </g>
  <rect class="cls-1" x="63.12" y="55.849" width="19.663" height="3.092" rx="1.546" ry="1.546"/>
  <rect class="cls-1" x="63.12" y="61.86" width="15.563" height="3.092" rx="1.546" ry="1.546"/>
  <rect class="cls-1" x="63.12" y="67.872" width="8.701" height="3.092" rx="1.546" ry="1.546"/>
  <g>
    <path class="cls-1" d="M68.456,42.698l-1.67,3.681c-.211-.189-.414-.392-.603-.602l1.554-3.398.385-.225c.102.189.21.37.334.544Z"/>
    <path class="cls-1" d="M69.56,43.86l-1.568,3.441c-.225-.145-.45-.297-.661-.464l1.612-3.536c.196.203.399.385.617.559Z"/>
    <path class="cls-1" d="M70.845,44.622l-1.539,3.383c-.24-.102-.479-.218-.711-.348l1.546-3.398c.225.138.457.261.704.363Z"/>
    <path class="cls-1" d="M72.297,45.014l-1.583,3.47c-.261-.058-.523-.138-.769-.225l1.561-3.405c.254.073.523.124.791.16Z"/>
    <path class="cls-1" d="M73.952,44.971l-1.721,3.768c-.283-.022-.559-.051-.828-.109l1.633-3.572c.312,0,.617-.029.915-.087Z"/>
    <path class="cls-1" d="M75.927,44.216l-2.055,4.516c-.283.029-.574.044-.871.044h-.029l1.837-4.022c.399-.138.77-.312,1.118-.537Z"/>
    <path class="cls-1" d="M78.322,42.546l-2.664,5.837c-.319.101-.646.181-.98.24l2.49-5.452c.247-.283.465-.588.653-.915l.501.29Z"/>
    <path class="cls-1" d="M79.615,43.294l-1.917,4.203c-.363.211-.741.407-1.133.566l2.359-5.169.69.399Z"/>
  </g>
  <path class="cls-1" d="M73.001,49.774c-.308,0-.593-.016-.863-.04-.312-.024-.632-.06-.944-.127-.189-.02-.474-.08-.759-.163-.237-.05-.539-.142-.823-.241-.253-.093-.485-.183-.717-.287-.252-.105-.524-.238-.789-.386-.194-.101-.402-.229-.609-.359-.299-.191-.552-.363-.787-.552-.2-.153-.404-.324-.601-.505-.228-.203-.457-.433-.671-.672-.527-.566-1.006-1.226-1.405-1.943-.266-.478-.099-1.079.374-1.353l3.212-1.855c.234-.139.513-.171.774-.1.261.073.481.25.609.488.082.151.169.298.269.438.125.173.258.345.405.504.152.157.325.312.51.459.138.11.289.219.447.309.21.129.396.228.592.309.199.089.38.145.56.197.204.058.427.099.648.13.427.053.928.042,1.328-.035.248-.038.464-.094.724-.183.334-.115.629-.257.898-.431.388-.236.729-.525,1.039-.872.195-.225.378-.48.535-.75.276-.478.888-.642,1.365-.363l3.214,1.857c.479.275.643.885.368,1.363-.884,1.543-2.163,2.838-3.698,3.746-.456.265-.866.47-1.262.632-.332.137-.668.259-1.02.357-.328.104-.703.196-1.077.261-.276.054-.582.095-.895.121-.295.03-.62.046-.952.046ZM66.31,44.357c.188.261.391.507.605.737.178.198.354.375.537.538.163.15.322.284.488.411.197.156.396.289.592.416.188.117.349.22.521.31.229.127.435.227.642.314.21.095.399.165.594.237.196.069.418.138.64.187.239.067.419.107.6.13.31.062.542.086.778.104.531.05,1.027.04,1.463-.005.26-.021.491-.052.718-.096.305-.053.59-.123.867-.211.309-.086.568-.183.829-.29.313-.129.644-.294,1.013-.508.943-.559,1.77-1.303,2.425-2.18l-1.499-.866c-.064.081-.131.161-.199.24-.449.503-.943.919-1.477,1.243-.385.249-.82.459-1.312.629-.38.13-.709.213-1.038.262-.582.116-1.329.119-1.922.047-.331-.045-.646-.105-.943-.19-.275-.08-.546-.169-.798-.283-.251-.103-.528-.245-.817-.423-.202-.113-.434-.272-.68-.468-.254-.204-.487-.413-.713-.646-.153-.165-.291-.331-.421-.5l-1.493.861Z"/>
</svg>