<?xml version="1.0" encoding="UTF-8"?>
<svg id="Layer_1" data-name="Layer 1" xmlns="http://www.w3.org/2000/svg" version="1.1" viewBox="0 0 100 100">
  <defs>
    <style>
      .cls-1 {
        fill: #3ac9a5;
        stroke-width: 0px;
      }
    </style>
  </defs>
  <rect class="cls-1" x="48.7" y="25" width="24.9" height="2"/>
  <rect class="cls-1" x="48.7" y="34.3" width="24.9" height="2"/>
  <path class="cls-1" d="M51.5,43.6c-.6.6-1.1,1.3-1.5,2h-13.5v-2h15Z"/>
  <path class="cls-1" d="M47.3,52.9v2h-10.7v-2h10.8,0Z"/>
  <path class="cls-1" d="M49.9,64.1h-13.4v-2h12.3c.3.7.7,1.4,1.1,2Z"/>
  <g>
    <path class="cls-1" d="M68.5,49.4l3,2.9-7.5,7.6c-.4.4-.9.6-1.5.6s-1-.2-1.4-.6l-4.5-4.3,2.9-3,3,2.9s6-6.1,6-6.1Z"/>
    <path class="cls-1" d="M64,68.8c-7.7,0-14-6.3-14-14s6.3-14,14-14,14,6.3,14,14-6.3,14-14,14ZM64,42.8c-6.6,0-12,5.4-12,12s5.4,12,12,12,12-5.4,12-12-5.4-12-12-12Z"/>
  </g>
  <path class="cls-1" d="M87,80.8c-.8,0-1.5-.3-2.1-.9l-8.5-8.5c-1.2-1.2-1.2-3.1,0-4.2,1.2-1.2,3.1-1.2,4.2,0l8.5,8.5c1.2,1.2,1.2,3.1,0,4.2-.6.6-1.4.9-2.1.9Z"/>
  <rect class="cls-1" x="77.4" y="62.1" width="2" height="14.6" transform="translate(-26.1 75.8) rotate(-45)"/>
  <path class="cls-1" d="M83.4,53.8h-2V14.1H28.6v4.2h-2v-5.2c0-.6.4-1,1-1h54.8c.6,0,1,.4,1,1v40.7Z"/>
  <path class="cls-1" d="M59.3,87.9H14.5c-.6,0-1-.4-1-1v-47.8h2v46.7h42.9v-9.8c0-.6.4-.5,1-.5s1-.1,1,.5v10.8c0,.6-.5,1.1-1.1,1.1Z"/>
  <g>
    <path class="cls-1" d="M72.5,77.1H27.6c-.6,0-1-.4-1-1v-30.5h-5.9v-2h6.9c.6,0,1,.4,1,1v30.5h43.9v2Z"/>
    <rect class="cls-1" x="21" y="52.9" width="6.7" height="2"/>
    <rect class="cls-1" x="21" y="62.1" width="7.4" height="2"/>
    <rect class="cls-1" x="21" y="71.4" width="6.7" height="2"/>
  </g>
  <g>
    <path class="cls-1" d="M45.5,31.8c-4.2-5.1-10.4-8-17-8s-12.8,2.9-17,8l-1.5-1.3c4.6-5.6,11.3-8.8,18.5-8.8s13.9,3.2,18.5,8.8l-1.5,1.3Z"/>
    <path class="cls-1" d="M28.5,37.6c-6.3,0-12.1-3.2-15.5-8.5l1.7-1.1c3,4.7,8.2,7.6,13.8,7.6s10.8-2.8,13.8-7.6l1.7,1.1c-3.4,5.4-9.2,8.5-15.5,8.5Z"/>
    <path class="cls-1" d="M34.9,25.4c0,3.5-2.8,6.3-6.3,6.3s-6.3-2.8-6.3-6.3.1-1,.2-1.5c1.9-.7,4-1.1,6.1-1.1s4.2.4,6.1,1.1c0,.5.2,1,.2,1.5Z"/>
  </g>
</svg>