<?xml version="1.0" encoding="UTF-8"?>
<svg id="Layer_1" data-name="Layer 1" xmlns="http://www.w3.org/2000/svg" version="1.1" viewBox="0 0 100 100">
  <defs>
    <style>
      .cls-1 {
        fill: #2868f7;
        stroke-width: 0px;
      }
    </style>
  </defs>
  <g>
    <path class="cls-1" d="M17.558,29.813h-2v-10c0-.552.447-1,1-1h10v2h-9v9Z"/>
    <path class="cls-1" d="M26.558,84.898h-10c-.553,0-1-.447-1-1v-10h2v9h9v2Z"/>
    <path class="cls-1" d="M77.659,84.898h-10v-2h9v-9h2v10c0,.553-.447,1-1,1Z"/>
  </g>
  <rect class="cls-1" x="25.003" y="40.223" width="18.753" height="2"/>
  <rect class="cls-1" x="40.378" y="50.371" width="28.835" height="2"/>
  <g>
    <rect class="cls-1" x="25.003" y="60.52" width="11.812" height="2"/>
    <rect class="cls-1" x="60.861" y="60.52" width="8.352" height="2"/>
  </g>
  <g>
    <rect class="cls-1" x="25.003" y="70.668" width="4.628" height="2"/>
    <rect class="cls-1" x="41.622" y="70.668" width="13.724" height="2"/>
    <rect class="cls-1" x="60.861" y="70.668" width="8.352" height="2"/>
  </g>
  <path class="cls-1" d="M48.303,39.73c-.824,0-1.493.668-1.493,1.493s.668,1.493,1.493,1.493,1.493-.668,1.493-1.493-.668-1.493-1.493-1.493Z"/>
  <path class="cls-1" d="M53.597,39.73c-.824,0-1.493.668-1.493,1.493s.668,1.493,1.493,1.493,1.493-.668,1.493-1.493-.668-1.493-1.493-1.493Z"/>
  <path class="cls-1" d="M26.496,49.878c-.824,0-1.493.668-1.493,1.493s.668,1.493,1.493,1.493,1.493-.668,1.493-1.493-.668-1.493-1.493-1.493Z"/>
  <path class="cls-1" d="M31.791,49.878c-.824,0-1.493.668-1.493,1.493s.668,1.493,1.493,1.493,1.493-.668,1.493-1.493-.668-1.493-1.493-1.493Z"/>
  <path class="cls-1" d="M32.945,70.175c-.824,0-1.493.668-1.493,1.493s.668,1.493,1.493,1.493,1.493-.668,1.493-1.493-.668-1.493-1.493-1.493Z"/>
  <path class="cls-1" d="M38.24,70.175c-.824,0-1.493.668-1.493,1.493s.668,1.493,1.493,1.493,1.493-.668,1.493-1.493-.668-1.493-1.493-1.493Z"/>
  <path class="cls-1" d="M37.085,49.878c-.824,0-1.493.668-1.493,1.493s.668,1.493,1.493,1.493,1.493-.668,1.493-1.493-.668-1.493-1.493-1.493Z"/>
  <path class="cls-1" d="M40.955,60.027c-.824,0-1.493.668-1.493,1.493s.668,1.493,1.493,1.493,1.493-.668,1.493-1.493-.668-1.493-1.493-1.493Z"/>
  <path class="cls-1" d="M46.249,60.027c-.824,0-1.493.668-1.493,1.493s.668,1.493,1.493,1.493,1.493-.668,1.493-1.493-.668-1.493-1.493-1.493Z"/>
  <path class="cls-1" d="M51.544,60.027c-.824,0-1.493.668-1.493,1.493s.668,1.493,1.493,1.493,1.493-.668,1.493-1.493-.668-1.493-1.493-1.493Z"/>
  <path class="cls-1" d="M56.839,60.027c-.824,0-1.493.668-1.493,1.493s.668,1.493,1.493,1.493,1.493-.668,1.493-1.493-.668-1.493-1.493-1.493Z"/>
  <path class="cls-1" d="M58.331,70.175c-.824,0-1.493.668-1.493,1.493s.668,1.493,1.493,1.493,1.493-.668,1.493-1.493-.668-1.493-1.493-1.493Z"/>
  <rect class="cls-1" x="25.003" y="26.402" width="23.299" height="6.21"/>
  <g>
    <path class="cls-1" d="M83.253,34.897l-1.834-.798c2.006-4.609,1.005-9.885-2.55-13.44-2.294-2.294-5.344-3.557-8.589-3.557s-6.294,1.263-8.588,3.557l-1.414-1.414c2.672-2.672,6.224-4.143,10.002-4.143s7.331,1.471,10.003,4.143c4.141,4.141,5.306,10.285,2.97,15.652Z"/>
    <path class="cls-1" d="M70.28,43.386c-3.622,0-7.244-1.379-10.002-4.137-3.629-3.63-5.009-8.954-3.6-13.894l1.924.549c-1.211,4.243-.026,8.814,3.09,11.931,4.735,4.735,12.441,4.734,17.177,0l1.414,1.414c-2.758,2.758-6.38,4.137-10.003,4.137Z"/>
    <polygon class="cls-1" points="59.364 15.362 59.364 22.132 66.134 22.132 59.364 15.362"/>
    <polygon class="cls-1" points="81.383 43.296 81.383 36.526 74.613 36.526 81.383 43.296"/>
  </g>
</svg>