<?xml version="1.0" encoding="UTF-8"?>
<svg id="Layer_1" data-name="Layer 1" xmlns="http://www.w3.org/2000/svg" version="1.1" viewBox="0 0 100 100">
  <defs>
    <style>
      .cls-1 {
        fill: #835edd;
        stroke-width: 0px;
      }
    </style>
  </defs>
  <g>
    <path class="cls-1" d="M44.077,77.378c-.457,0-.827-.37-.827-.827v-41.897c0-.457.37-.827.827-.827s.827.37.827.827v41.897c0,.457-.37.827-.827.827Z"/>
    <rect class="cls-1" x="37.69" y="31.367" width="12.773" height="6.573" rx="1.705" ry="1.705"/>
    <rect class="cls-1" x="37.69" y="48.454" width="12.773" height="6.573" rx="1.705" ry="1.705"/>
    <rect class="cls-1" x="37.69" y="74.333" width="12.773" height="6.573" rx="1.213" ry="1.213"/>
    <g>
      <path class="cls-1" d="M27.015,49.771c-.457,0-.827-.37-.827-.827v-4.178c0-1.847,1.502-3.349,3.349-3.349h14.539c.457,0,.827.37.827.827s-.37.827-.827.827h-14.539c-.935,0-1.696.761-1.696,1.695v4.178c0,.457-.37.827-.827.827Z"/>
      <path class="cls-1" d="M60.83,49.771c-.457,0-.827-.37-.827-.827v-4.178c0-.935-.761-1.695-1.695-1.695h-14.23c-.457,0-.827-.37-.827-.827s.37-.827.827-.827h14.23c1.847,0,3.35,1.502,3.35,3.349v4.178c0,.457-.37.827-.827.827Z"/>
    </g>
    <path class="cls-1" d="M58.309,65.637h-8.583c-.457,0-.827-.37-.827-.827s.37-.827.827-.827h8.583c.935,0,1.694-.761,1.694-1.695v-17.438c0-.457.37-.827.827-.827s.827.37.827.827v17.438c0,1.847-1.502,3.35-3.349,3.35Z"/>
    <rect class="cls-1" x="54.444" y="48.454" width="12.773" height="6.573" rx="1.705" ry="1.705"/>
    <rect class="cls-1" x="20.629" y="48.454" width="12.773" height="6.573" rx="1.705" ry="1.705"/>
    <rect class="cls-1" x="37.69" y="61.393" width="12.773" height="6.573" rx="1.705" ry="1.705"/>
    <path class="cls-1" d="M33.981,78.239h-2.48c-.342,0-.62-.277-.62-.62s.278-.62.62-.62h2.48c.342,0,.62.277.62.62s-.278.62-.62.62ZM28.389,77.413c-.145,0-.29-.051-.407-.153-.675-.59-1.142-1.415-1.386-2.452-.079-.334.128-.668.461-.746.336-.081.667.128.746.461.184.781.519,1.388.995,1.804.258.225.285.617.059.875-.123.14-.294.212-.467.212ZM27.015,71.992c-.342,0-.62-.277-.62-.62v-2.48c0-.343.278-.62.62-.62s.62.277.62.62v2.48c0,.343-.278.62-.62.62ZM27.015,66.205c-.342,0-.62-.277-.62-.62v-2.48c0-.343.278-.62.62-.62s.62.277.62.62v2.48c0,.343-.278.62-.62.62ZM27.015,60.417c-.342,0-.62-.277-.62-.62v-2.48c0-.343.278-.62.62-.62s.62.277.62.62v2.48c0,.343-.278.62-.62.62Z"/>
  </g>
  <path class="cls-1" d="M73.804,81.635H13.565c-3.292,0-5.969-2.678-5.969-5.97v-42.881c0-3.292,2.678-5.969,5.969-5.969h46.056v1.676H13.565c-2.368,0-4.293,1.926-4.293,4.293v42.881c0,2.368,1.926,4.294,4.293,4.294h60.239c2.368,0,4.294-1.926,4.294-4.294v-26.429h1.676v26.429c0,3.292-2.678,5.97-5.97,5.97Z"/>
  <g>
    <rect class="cls-1" x="75.723" y="23.949" width="4" height="14.015" transform="translate(.874 64.023) rotate(-44.999)"/>
    <rect class="cls-1" x="70.715" y="28.957" width="14.015" height="4" transform="translate(.875 64.025) rotate(-45)"/>
  </g>
  <g>
    <path class="cls-1" d="M77.722,45.638c-3.921,0-7.608-1.527-10.381-4.3-5.725-5.724-5.725-15.038,0-20.762,2.772-2.773,6.46-4.3,10.381-4.3s7.608,1.527,10.382,4.3c2.772,2.773,4.3,6.46,4.3,10.381h-2c0-3.387-1.319-6.572-3.714-8.967-2.396-2.396-5.58-3.714-8.968-3.714s-6.571,1.319-8.967,3.714c-4.944,4.944-4.944,12.99,0,17.934,2.396,2.396,5.58,3.714,8.967,3.714s6.572-1.319,8.968-3.714l1.414,1.414c-2.773,2.773-6.46,4.3-10.382,4.3Z"/>
    <path class="cls-1" d="M90.216,43.069v-4.785c0-.257-.209-.466-.466-.466h-4.785c-.415,0-.623.502-.33.795l4.785,4.785c.294.294.795.086.795-.33Z"/>
  </g>
  <path class="cls-1" d="M67.54,78.239h-2.48c-.343,0-.62-.277-.62-.62s.277-.62.62-.62h2.48c.343,0,.62.277.62.62s-.277.62-.62.62ZM61.752,78.239h-2.48c-.343,0-.62-.277-.62-.62s.277-.62.62-.62h2.48c.343,0,.62.277.62.62s-.277.62-.62.62ZM55.965,78.239h-2.48c-.343,0-.62-.277-.62-.62s.277-.62.62-.62h2.48c.343,0,.62.277.62.62s-.277.62-.62.62ZM70.844,78.215c-.303,0-.567-.222-.612-.53-.05-.339.185-.654.523-.703.602-.088,1.114-.519,1.308-1.097.107-.325.46-.503.784-.392.325.108.5.459.392.784-.34,1.018-1.244,1.775-2.304,1.931-.03.005-.061.007-.091.007ZM72.767,73.406c-.343,0-.62-.277-.62-.62v-2.48c0-.343.277-.62.62-.62s.62.277.62.62v2.48c0,.343-.277.62-.62.62ZM72.767,67.618c-.343,0-.62-.277-.62-.62v-2.48c0-.343.277-.62.62-.62s.62.277.62.62v2.48c0,.343-.277.62-.62.62ZM72.767,61.831c-.343,0-.62-.277-.62-.62v-2.48c0-.343.277-.62.62-.62s.62.277.62.62v2.48c0,.343-.277.62-.62.62ZM72.767,56.043c-.343,0-.62-.277-.62-.62v-1.43c0-.258-.059-.505-.174-.734-.154-.306-.031-.679.275-.832.305-.152.679-.03.832.275.203.403.307.838.307,1.291v1.43c0,.343-.277.62-.62.62ZM69.697,52.36h-2.48c-.343,0-.62-.277-.62-.62s.277-.62.62-.62h2.48c.343,0,.62.277.62.62s-.277.62-.62.62Z"/>
</svg>