<?xml version="1.0" encoding="utf-8"?>
<!-- Generator: Adobe Illustrator 28.2.0, SVG Export Plug-In . SVG Version: 6.00 Build 0)  -->
<svg version="1.1" id="Layer_1" xmlns="http://www.w3.org/2000/svg" xmlns:xlink="http://www.w3.org/1999/xlink" x="0px" y="0px"
	 viewBox="0 0 24 24" style="enable-background:new 0 0 24 24;" xml:space="preserve">
<style type="text/css">
	.st0{fill:#677172;}
</style>
<g>
	<path class="st0" d="M12,14.3l0.3-0.3c0.1-0.1,0.1-0.2,0-0.2L12,13.3c0.1-0.2,0.2-0.4,0.2-0.6l0.5-0.2c0.1,0,0.1-0.1,0.1-0.2v-0.7
		c0-0.1-0.1-0.2-0.1-0.2l-0.5-0.2c-0.1-0.2-0.1-0.4-0.2-0.6l0.3-0.5c0-0.1,0-0.2,0-0.2l-0.5-0.5c-0.1-0.1-0.2-0.1-0.2,0L11,9.7
		c-0.1,0-0.1,0-0.2-0.1c-0.1-0.1-0.3-0.1-0.4-0.2L10.3,9c0-0.1-0.1-0.1-0.2-0.1H9.4C9.3,8.8,9.2,8.9,9.2,9L9.1,9.5
		C9,9.5,8.9,9.6,8.8,9.6c-0.1,0-0.2,0.1-0.3,0.1L8,9.5c-0.1,0-0.2,0-0.2,0L7.5,9.7v0L7.2,10c-0.1,0.1-0.1,0.2,0,0.2l0.3,0.5
		c-0.1,0.2-0.2,0.4-0.2,0.6l-0.5,0.2c-0.1,0-0.1,0.1-0.1,0.2v0.7c0,0.1,0.1,0.2,0.1,0.2l0.5,0.2c0.1,0.2,0.1,0.4,0.2,0.6l-0.3,0.5
		c0,0.1,0,0.2,0,0.2l0.5,0.5c0.1,0.1,0.2,0.1,0.2,0l0.5-0.3c0.1,0,0.1,0.1,0.2,0.1c0.1,0.1,0.3,0.1,0.4,0.2L9.2,15
		c0,0.1,0.1,0.1,0.2,0.1h0.7c0.1,0,0.2-0.1,0.2-0.1l0.2-0.5c0.1,0,0.2-0.1,0.3-0.1c0.1,0,0.2-0.1,0.3-0.1l0.5,0.3c0.1,0,0.2,0,0.2,0
		L12,14.3z M9.8,13.4c-0.8,0-1.5-0.7-1.5-1.5c0-0.8,0.7-1.5,1.5-1.5c0.8,0,1.5,0.7,1.5,1.5C11.2,12.8,10.6,13.4,9.8,13.4z"/>
	<path class="st0" d="M2.7,6.2c0.7,0,1.3-0.4,1.5-1.1h1l1.4,3.5l0.9-0.4L5.9,4.5C5.8,4.3,5.7,4.2,5.4,4.2H4.1c-0.2-0.6-0.8-1-1.4-1
		c-0.8,0-1.5,0.7-1.5,1.5C1.2,5.5,1.9,6.2,2.7,6.2z"/>
	<path class="st0" d="M2.7,13.5c0.7,0,1.2-0.4,1.4-1h1.4v-1H4.1c-0.2-0.6-0.8-1-1.4-1c-0.8,0-1.5,0.7-1.5,1.5
		C1.2,12.8,1.9,13.5,2.7,13.5z"/>
	<path class="st0" d="M21.3,6.2c0.8,0,1.5-0.7,1.5-1.5c0-0.8-0.7-1.5-1.5-1.5c-0.8,0-1.5,0.7-1.5,1.5C19.8,5.5,20.5,6.2,21.3,6.2z"
		/>
	<path class="st0" d="M21.3,10.5c-0.8,0-1.5,0.7-1.5,1.5c0,0.8,0.7,1.5,1.5,1.5c0.8,0,1.5-0.7,1.5-1.5
		C22.8,11.2,22.1,10.5,21.3,10.5z"/>
	<path class="st0" d="M21.3,17.8c-0.8,0-1.5,0.7-1.5,1.5c0,0.8,0.7,1.5,1.5,1.5c0.8,0,1.5-0.7,1.5-1.5
		C22.8,18.5,22.1,17.8,21.3,17.8z"/>
	<path class="st0" d="M5.1,18.8h-1c-0.2-0.6-0.8-1.1-1.5-1.1c-0.8,0-1.5,0.7-1.5,1.5c0,0.8,0.7,1.5,1.5,1.5c0.7,0,1.2-0.4,1.4-1h1.3
		c0.2,0,0.4-0.1,0.5-0.3l1.5-3.8l-0.9-0.4L5.1,18.8z"/>
	<path class="st0" d="M17.7,4.2h-3.1c-0.2,0-0.3,0.1-0.4,0.2l-2.5,3.8l0.8,0.5l2.3-3.6h2.8v1l1.7-1.5l-1.7-1.5V4.2z"/>
	<polygon class="st0" points="17.7,11.5 13.5,11.5 13.5,12.5 17.7,12.5 17.7,13.5 19.4,12 17.7,10.5 	"/>
	<path class="st0" d="M17.7,18.8h-2.8l-2.3-3.6l-0.8,0.5l2.5,3.8c0.1,0.1,0.2,0.2,0.4,0.2h3.1v1l1.7-1.5l-1.7-1.5V18.8z"/>
</g>
</svg>
