<?xml version="1.0" encoding="UTF-8"?>
<svg id="Layer_1" data-name="Layer 1" xmlns="http://www.w3.org/2000/svg" version="1.1" viewBox="0 0 100 100">
  <defs>
    <style>
      .cls-1 {
        stroke-width: 0px;
      }

      .cls-1, .cls-2 {
        fill: #3ac9a5;
      }

      .cls-2 {
        stroke: #805ed4;
        stroke-linecap: round;
        stroke-linejoin: round;
        stroke-width: 2px;
      }
    </style>
  </defs>
  <g>
    <path class="cls-1" d="M55.225,62.272c-.256,0-.512-.098-.707-.293-.391-.391-.391-1.023,0-1.414l5.218-5.218-5.218-5.218c-.391-.391-.391-1.023,0-1.414s1.023-.391,1.414,0l5.925,5.925c.391.391.391,1.023,0,1.414l-5.925,5.925c-.195.195-.451.293-.707.293Z"/>
    <path class="cls-1" d="M34.967,62.272c-.256,0-.512-.098-.707-.293l-5.924-5.925c-.391-.391-.391-1.023,0-1.414l5.924-5.925c.391-.391,1.023-.391,1.414,0s.391,1.023,0,1.414l-5.217,5.218,5.217,5.218c.391.391.391,1.023,0,1.414-.195.195-.451.293-.707.293Z"/>
    <g>
      <path class="cls-1" d="M56.017,74.466H19.257c-3.207,0-5.816-2.609-5.816-5.816V29.538c0-3.201,2.604-5.811,5.806-5.816l51.383-.091h.01c1.553,0,3.011.604,4.109,1.7,1.101,1.099,1.707,2.561,1.707,4.116v29.842h-2v-29.842c0-1.021-.397-1.98-1.12-2.701-.721-.719-1.678-1.115-2.696-1.115h-.006l-51.383.091c-2.101.004-3.81,1.716-3.81,3.816v39.111c0,2.104,1.712,3.816,3.816,3.816h36.76v2Z"/>
      <path class="cls-1" d="M14.441,39.427c-.552,0-.999-.447-1-.999,0-.552.446-1,.999-1.001l61.015-.091h.002c.552,0,.999.447,1,.999,0,.552-.446,1-.998,1.001l-61.016.091h-.001Z"/>
    </g>
    <path class="cls-1" d="M30.725,31.024c-.552,0-1-.448-1-1v-10.707c0-.552.448-1,1-1s1,.448,1,1v10.707c0,.552-.448,1-1,1Z"/>
    <path class="cls-2" d="M44.949,31.504"/>
    <path class="cls-1" d="M59.184,31.024c-.553,0-1-.448-1-1v-10.707c0-.552.447-1,1-1s1,.448,1,1v10.707c0,.552-.447,1-1,1Z"/>
    <path class="cls-1" d="M40.548,65.165c-.15,0-.303-.034-.446-.105-.494-.247-.694-.848-.447-1.342l8.819-17.635c.247-.494.846-.695,1.341-.447s.694.848.447,1.342l-8.818,17.635c-.175.351-.528.553-.896.553Z"/>
  </g>
  <g>
    <path class="cls-1" d="M72.216,71.462l-9.945-8.522c-.461-.395-.182-1.151.426-1.151h21.934c.996,0,1.174.494.432,1.17-1.667,1.519-9.942,8.504-9.942,8.504-.853.708-2.069.708-2.904,0Z"/>
    <path class="cls-1" d="M86.559,65.394v13.77c0,1.392-1.128,2.52-2.52,2.52h-20.717c-1.392,0-2.52-1.128-2.52-2.52v-13.754c0-.476.558-.732.919-.423l9.094,7.778c.821.724,1.852,1.079,2.866,1.079s2.028-.354,2.849-1.079l9.11-7.794c.361-.309.919-.052.919.423Z"/>
  </g>
</svg>