<?xml version="1.0" encoding="UTF-8"?>
<svg id="Layer_1" data-name="Layer 1" xmlns="http://www.w3.org/2000/svg" version="1.1" viewBox="0 0 100 100">
  <defs>
    <style>
      .cls-1 {
        fill: #ef546b;
        stroke-width: 0px;
      }
    </style>
  </defs>
  <g>
    <g>
      <path class="cls-1" d="M43.708,53.382c-8.087,0-14.667-6.58-14.667-14.667s6.58-14.667,14.667-14.667,14.667,6.58,14.667,14.667-6.58,14.667-14.667,14.667ZM43.708,26.097c-6.958,0-12.619,5.66-12.619,12.619s5.66,12.619,12.619,12.619,12.619-5.661,12.619-12.619-5.66-12.619-12.619-12.619Z"/>
      <path class="cls-1" d="M74.796,77.825h-2.048c0-9.965-4.921-19.668-12.609-24.995-4.119,4.811-10.054,7.551-16.429,7.551s-12.305-2.736-16.43-7.542c-7.687,5.303-12.608,15.003-12.608,24.986h-2.048c0-10.988,5.616-21.67,14.309-27.213.442-.285,1.03-.184,1.355.23,3.747,4.76,9.367,7.491,15.421,7.491s11.68-2.734,15.42-7.501c.326-.415.914-.513,1.358-.23,8.692,5.569,14.308,16.255,14.308,27.223Z"/>
    </g>
    <g>
      <path class="cls-1" d="M43.708,53.382c-8.087,0-14.667-6.58-14.667-14.667s6.58-14.667,14.667-14.667,14.667,6.58,14.667,14.667-6.58,14.667-14.667,14.667ZM43.708,26.097c-6.958,0-12.619,5.66-12.619,12.619s5.66,12.619,12.619,12.619,12.619-5.661,12.619-12.619-5.66-12.619-12.619-12.619Z"/>
      <path class="cls-1" d="M74.796,77.825h-2.048c0-9.965-4.921-19.668-12.609-24.995-4.119,4.811-10.054,7.551-16.429,7.551s-12.305-2.736-16.43-7.542c-7.687,5.303-12.608,15.003-12.608,24.986h-2.048c0-10.988,5.616-21.67,14.309-27.213.442-.285,1.03-.184,1.355.23,3.747,4.76,9.367,7.491,15.421,7.491s11.68-2.734,15.42-7.501c.326-.415.914-.513,1.358-.23,8.692,5.569,14.308,16.255,14.308,27.223Z"/>
    </g>
    <g>
      <path class="cls-1" d="M93.465,38.157l-3.499-1.109c-.355-1.227-.84-2.412-1.486-3.564l1.701-3.251c.312-.463.258-1.088-.14-1.486l-3.359-3.359c-.388-.388-1.023-.453-1.475-.129l-3.252,1.69c-1.156-.578-2.35-1.124-3.585-1.486l-1.087-3.489c-.108-.538-.581-.947-1.141-.947h-4.759c-.538,0-1.034.409-1.12.947l-1.109,3.499c-1.237.353-2.442.863-3.575,1.475-4.931-2.54-3.479-2.724-7.418,1.152,2.207,2.972,3.499,6.644,3.499,10.617h1.572c.484-1.755,1.421-3.403,2.799-4.781l-.011-.011c10.46-9.892,25.414,4.973,15.494,15.483v.011c-3.809,3.882-10.557,4.319-14.654.678l-.624.7c3.704,3.209,6.654,7.128,8.667,11.51.817,0,2.233.194,2.38-.947,0,0,1.109-3.499,1.109-3.499,1.239-.345,2.444-.85,3.574-1.464l3.241,1.68c.463.312,1.087.258,1.464-.129l1.69-1.68-.011-.011h.011l1.691-1.68c.388-.387.441-1.012.129-1.475l-1.691-3.252c.614-1.098,1.109-2.304,1.464-3.553l3.51-1.109c.538-.108.947-.581.947-1.13v-4.781c0-.538-.409-1.012-.947-1.12Z"/>
      <path class="cls-1" d="M73.767,36.265c2.979,0,5.405,2.424,5.407,5.404,0,.056.002.111.007.166-.089,2.905-2.479,5.24-5.405,5.24-2.979,0-5.405-2.424-5.407-5.404,0-.056-.002-.111-.007-.166.089-2.905,2.479-5.24,5.405-5.24M73.767,34.217c-4.118,0-7.456,3.338-7.456,7.456h.009c.003,4.115,3.34,7.45,7.455,7.45s7.456-3.338,7.456-7.456h-.009c-.003-4.115-3.34-7.45-7.455-7.45h0Z"/>
    </g>
  </g>
  <rect class="cls-1" x="5.588" y="76.801" width="22.858" height="2.048"/>
  <rect class="cls-1" x="41.021" y="76.801" width="41.509" height="2.048"/>
  <circle class="cls-1" cx="37.194" cy="77.825" r="1.149"/>
  <circle class="cls-1" cx="32.274" cy="77.825" r="1.149"/>
</svg>