<?xml version="1.0" encoding="utf-8"?>
<!-- Generator: Adobe Illustrator 28.2.0, SVG Export Plug-In . SVG Version: 6.00 Build 0)  -->
<svg version="1.1" id="Layer_1" xmlns="http://www.w3.org/2000/svg" xmlns:xlink="http://www.w3.org/1999/xlink" x="0px" y="0px"
	 viewBox="0 0 24 24" style="enable-background:new 0 0 24 24;" xml:space="preserve">
<style type="text/css">
	.st0{fill:#677172;}
</style>
<g>
	<path class="st0" d="M22.5,12c0-0.7-0.5-1.2-1.1-1.3c-0.2-1.6-0.9-3-1.8-4.3c0.3-0.6,0.3-1.3-0.2-1.8c-0.5-0.5-1.2-0.5-1.7-0.1
		c-1.2-0.9-2.7-1.5-4.3-1.8C13.2,2,12.7,1.5,12,1.5c-0.7,0-1.2,0.5-1.3,1.1C9,2.9,7.6,3.5,6.4,4.4C5.8,4.1,5,4.1,4.6,4.6
		C4.1,5.1,4.1,5.8,4.4,6.3C3.5,7.6,2.9,9,2.6,10.6C2,10.8,1.5,11.4,1.5,12c0,0.6,0.5,1.2,1.1,1.3c0.2,1.6,0.9,3.1,1.8,4.3
		c-0.3,0.6-0.2,1.3,0.2,1.7c0.5,0.4,1.1,0.5,1.7,0.2c1.2,0.9,2.7,1.6,4.3,1.8c0.2,0.6,0.7,1.1,1.4,1c0.6,0,1.2-0.5,1.3-1
		c1.6-0.2,3.1-0.9,4.3-1.8c0.6,0.3,1.3,0.2,1.7-0.2c0.4-0.5,0.5-1.1,0.2-1.7c0.9-1.2,1.6-2.7,1.8-4.3C22,13.2,22.5,12.6,22.5,12z
		 M17.4,17.4c-0.4,0.4-0.5,1-0.3,1.4c-1.1,0.8-2.4,1.4-3.8,1.6c-0.2-0.5-0.7-0.8-1.3-0.8c-0.6,0-1,0.3-1.2,0.8
		c-1.4-0.2-2.7-0.8-3.8-1.6c0.2-0.5,0.1-1.1-0.4-1.5c-0.4-0.4-0.9-0.5-1.4-0.3c-0.8-1.1-1.4-2.4-1.6-3.8C4.1,13,4.4,12.5,4.4,12
		c0-0.5-0.3-1-0.8-1.2C3.8,9.3,4.4,8,5.2,7c0.5,0.1,1.1,0,1.4-0.4C7,6.2,7.1,5.7,7,5.2c1.1-0.8,2.4-1.4,3.8-1.6
		C11,4.1,11.5,4.4,12,4.4c0.5,0,1-0.3,1.2-0.7c1.4,0.2,2.7,0.8,3.8,1.6c-0.1,0.5,0,1.1,0.4,1.4C17.8,7,18.3,7.1,18.8,7
		c0.8,1.1,1.4,2.4,1.6,3.8c-0.5,0.2-0.8,0.7-0.8,1.3c0,0.5,0.3,1,0.8,1.2c-0.2,1.4-0.7,2.7-1.5,3.8C18.3,16.9,17.8,17,17.4,17.4z"/>
	<path class="st0" d="M12,11.8c1.2,0,2.2-1,2.2-2.2c0-1.2-1-2.2-2.2-2.2c-1.2,0-2.2,1-2.2,2.2C9.8,10.8,10.8,11.8,12,11.8z"/>
	<path class="st0" d="M14.3,11.5c-0.5,0.7-1.4,1.1-2.3,1.1c-0.9,0-1.7-0.4-2.3-1.1c-1.3,0.7-2.2,1.9-2.5,3.4
		c0.1,0.2,0.3,0.4,0.5,0.5c2.4,2.4,6.2,2.4,8.5,0c0.2-0.2,0.3-0.3,0.5-0.5C16.5,13.4,15.5,12.1,14.3,11.5z"/>
</g>
</svg>
