<?xml version="1.0" encoding="UTF-8"?>
<svg id="Layer_1" data-name="Layer 1" xmlns="http://www.w3.org/2000/svg" version="1.1" viewBox="0 0 100 100">
  <defs>
    <style>
      .cls-1 {
        fill: #ef546b;
        stroke-width: 0px;
      }
    </style>
  </defs>
  <path class="cls-1" d="M82.144,16.736H29.057c-.619,0-1.12.501-1.12,1.12v29.986h2.241v-28.866h50.847v50.847h-29.084v2.241h30.204c.619,0,1.12-.501,1.12-1.12V17.856c0-.619-.502-1.12-1.12-1.12Z"/>
  <path class="cls-1" d="M62.377,39.207v8.653c0,.619.502,1.12,1.12,1.12s1.12-.501,1.12-1.12v-11.357c0-.146-.03-.291-.086-.428-.114-.274-.332-.492-.606-.606-.137-.057-.282-.086-.428-.086h-11.357c-.619,0-1.12.501-1.12,1.12s.502,1.12,1.12,1.12h8.653l-14.486,14.486h-28.45c-.619,0-1.12.501-1.12,1.12v28.915c0,.619.502,1.12,1.12,1.12h28.914c.619,0,1.12-.501,1.12-1.12v-28.451l14.486-14.486Z"/>
</svg>