<?xml version="1.0" encoding="UTF-8"?>
<svg id="Layer_1" data-name="Layer 1" xmlns="http://www.w3.org/2000/svg" version="1.1" viewBox="0 0 100 100">
  <defs>
    <style>
      .cls-1 {
        fill: #1bc7ff;
        stroke-width: 0px;
      }
    </style>
  </defs>
  <path class="cls-1" d="M74.479,25.506c-1.873,0-3.726.3-5.486.874-3.204-8.843-11.522-14.711-21.019-14.711-11.703,0-21.504,9.248-22.307,20.813-1.108-.269-2.257-.408-3.429-.408-7.944,0-14.406,6.462-14.406,14.406s6.462,14.406,14.495,14.406h10.547v-2h-10.636c-6.841,0-12.406-5.565-12.406-12.406s5.565-12.406,12.406-12.406c3.853,0,7.422,1.745,9.792,4.789l1.578-1.229c-1.594-2.045-3.654-3.586-5.975-4.52.482-10.761,9.518-19.445,20.34-19.445,8.663,0,16.249,5.363,19.155,13.438-1.385.632-2.69,1.443-3.878,2.419l1.27,1.545c2.796-2.299,6.333-3.565,9.959-3.565,8.651,0,15.69,7.039,15.69,15.69s-7.039,15.69-15.69,15.69h-5.799v2h5.799c9.755,0,17.69-7.936,17.69-17.69s-7.936-17.69-17.69-17.69Z"/>
  <path class="cls-1" d="M66.2,73.31c-.94,0-1.83.28-2.56.76l-1.92-1.92v-6.65l3.89-2.03c.33-.17.54-.51.54-.88v-18.06c0-.024-.007-.048-.009-.072,0-.01-.003-.02-.004-.031-.013-.122-.043-.242-.103-.357-.001-.002,0-.004-.002-.007,0,0,0,0-.001-.002,0,0,0-.002,0-.002,0-.003-.004-.004-.005-.005-.006-.012-.018-.019-.025-.03v-.004c0-.02-.01-.03-.03-.05-.01-.02-.02-.04-.04-.06,0-.01-.01-.01-.01-.01-.01,0-.01-.01-.01-.01-.01-.01-.01-.02-.02-.02q0-.01-.01-.01v-.01l-.01-.01c0-.01-.01-.01-.01-.01-.01-.01-.02-.02-.03-.03-.007-.015-.02-.019-.03-.022-.011-.009-.019-.02-.03-.029-.024-.021-.049-.038-.075-.056-.005-.003-.01-.01-.015-.012-.02-.02-.05-.03-.07-.04h-.01c0-.01-.01-.02-.02-.02-.03-.03-.06-.04-.1-.05l-14.06-7.36c-.3-.15-.64-.15-.93,0l-14.05,7.35c-.04.01-.07.03-.11.05-.03.01-.05.03-.08.04-.022.018-.041.037-.062.053-.02.016-.038.032-.058.049-.006.007-.015.01-.02.017l-.06.06s-.01,0-.01.01c-.041.049-.074.101-.107.156-.007.012-.02.02-.026.032-.006.012-.005.025-.011.037-.049.101-.077.206-.091.312-.002.018-.006.035-.007.053-.002.023-.009.045-.009.068v18.05c0,.31.14.58.36.76.05.06.12.1.18.13.01.01.03.02.04.03l3.81,1.99v6.69l-1.92,1.92c-.73-.48-1.61-.76-2.55-.76-2.61,0-4.73,2.12-4.73,4.73s2.12,4.72,4.73,4.72,4.72-2.12,4.72-4.72c0-.94-.28-1.82-.76-2.55l2.22-2.22c.19-.19.29-.44.29-.71v-6.05l7.81,4.08v8.4c-2.13.45-3.73,2.35-3.73,4.62,0,2.6,2.12,4.72,4.73,4.72s4.72-2.12,4.72-4.72c0-2.27-1.6-4.16-3.72-4.62v-8.4l7.73-4.04v6.01c0,.27.11.52.3.71l2.21,2.21c-.48.73-.76,1.62-.76,2.56,0,2.6,2.12,4.72,4.73,4.72s4.72-2.12,4.72-4.72-2.12-4.73-4.72-4.73ZM38.43,78.04c0,1.5-1.22,2.72-2.72,2.72s-2.73-1.22-2.73-2.72c0-1.51,1.23-2.73,2.73-2.73.38,0,.75.08,1.08.23.64.27,1.15.78,1.41,1.42.15.33.23.7.23,1.08ZM50.952,50.756l-11.948-6.238,11.986-6.258,11.947,6.238-11.985,6.258ZM37.83,61.97v-15.792l12.122,6.329v15.794h-.002s-12.12-6.331-12.12-6.331ZM50.99,86.33c-1.51,0-2.73-1.22-2.73-2.72,0-1.16.71-2.14,1.73-2.54.31-.12.65-.19,1-.19s.69.07,1,.19c1.01.4,1.72,1.38,1.72,2.54,0,1.5-1.22,2.72-2.72,2.72ZM66.2,80.76c-1.51,0-2.73-1.22-2.73-2.72,0-.39.08-.76.23-1.09.27-.63.78-1.14,1.41-1.41.33-.15.7-.23,1.09-.23,1.5,0,2.72,1.22,2.72,2.73,0,1.5-1.22,2.72-2.72,2.72Z"/>
</svg>