<?xml version="1.0" encoding="UTF-8"?>
<svg id="Layer_1" data-name="Layer 1" xmlns="http://www.w3.org/2000/svg" version="1.1" viewBox="0 0 24 24">
  <defs>
    <style>
      .cls-1 {
        fill: #677172;
        fill-rule: evenodd;
        stroke-width: 0px;
      }
    </style>
  </defs>
  <path id="Fill-11" class="cls-1" d="M19.925,17.026l-2.908,2.908c-.706.706-1.645,1.095-2.643,1.095-.593,0-1.045-.147-1.045-.147h0c-.925-.259-2.084-.728-3.01-2.052l8.613-8.613c.057-.057.113-.115.167-.176.278-.305.496-.63.662-.972l1.139,4.378c.33,1.276-.043,2.647-.975,3.579h0ZM3.113,16.324c-.351-1.287.003-2.619.946-3.563l2.893-2.893,1.451-1.45c-1.558,4.003-.516,8.247.92,10.593.245.401.508.74.779,1.034l-4.366-1.131c-1.292-.334-2.273-1.303-2.623-2.59h0ZM9.83,17.998c-.895-1.775-1.952-5.359-.674-8.953,2.953-.925,6.192-.635,8.841.786l-8.167,8.167ZM15.331,2.989c3.317,0,4.549,3.717,3.309,6.134-2.685-1.511-5.958-1.931-9.019-1.177.406-.815,3.134-4.956,5.71-4.956h0ZM21.804,13.213l-2.002-7.699h0c-.194-.77-.586-1.501-1.185-2.106-.874-.874-3.64-2.589-6.525,0L3.399,12.101c-2.52,2.52-1.347,6.824,2.103,7.718l7.702,1.995h0c.387.1.781.149,1.171.149,1.223,0,2.416-.481,3.303-1.368l2.908-2.909c1.17-1.17,1.634-2.872,1.219-4.474h0Z"/>
</svg>