<?xml version="1.0" encoding="UTF-8"?>
<svg id="Layer_1" data-name="Layer 1" xmlns="http://www.w3.org/2000/svg" version="1.1" viewBox="0 0 100 100">
  <defs>
    <style>
      .cls-1 {
        fill: #835edd;
        stroke-width: 0px;
      }
    </style>
  </defs>
  <g>
    <path class="cls-1" d="M31.865,51.236c-6.052,0-10.976-4.924-10.976-10.976s4.924-10.976,10.976-10.976,10.976,4.924,10.976,10.976-4.924,10.976-10.976,10.976ZM31.865,31.285c-4.949,0-8.976,4.026-8.976,8.976s4.026,8.976,8.976,8.976,8.976-4.026,8.976-8.976-4.026-8.976-8.976-8.976Z"/>
    <path class="cls-1" d="M32.253,75.47c-8.037,0-16.623-2.576-21.886-6.955-.229-.189-.36-.472-.36-.769,0-8.036,4.396-15.381,11.472-19.169.423-.227.948-.12,1.25.254,2.215,2.747,5.518,4.322,9.061,4.322s6.848-1.577,9.095-4.327c.302-.37.826-.475,1.248-.248,3.872,2.08,7.093,5.374,9.071,9.275.25.492.053,1.095-.439,1.344-.492.251-1.095.053-1.344-.439-1.675-3.305-4.335-6.13-7.541-8.027-2.604,2.821-6.235,4.423-10.089,4.423s-7.487-1.602-10.064-4.422c-5.88,3.459-9.552,9.697-9.714,16.543,6.739,5.33,18.829,7.652,27.796,5.283.533-.143,1.082.177,1.222.712.141.533-.178,1.081-.711,1.222-2.511.663-5.255.979-8.066.979h-.001Z"/>
  </g>
  <g>
    <path class="cls-1" d="M72.423,31.219c-5.711,0-10.357-4.642-10.357-10.348s4.646-10.357,10.357-10.357,10.348,4.646,10.348,10.357-4.642,10.348-10.348,10.348ZM72.423,12.514c-4.608,0-8.357,3.749-8.357,8.357s3.749,8.348,8.357,8.348,8.348-3.745,8.348-8.348-3.745-8.357-8.348-8.357Z"/>
    <path class="cls-1" d="M72.421,26.912c3.34,0,6.043-2.703,6.043-6.043s-2.703-6.048-6.043-6.048-6.048,2.708-6.048,6.048,2.708,6.043,6.048,6.043Z"/>
    <path class="cls-1" d="M75.088,20.866c0-.935-1.196-1.694-2.67-1.694h-28.439c-.722,0-1.306.402-1.306.898v1.592c0,.496.585.898,1.306.898h28.439c1.475,0,2.67-.758,2.67-1.694Z"/>
    <path class="cls-1" d="M47.641,29.347c-.552,0-1-.448-1-1v-6.378c0-.552.448-1,1-1s1,.448,1,1v6.378c0,.552-.448,1-1,1Z"/>
    <path class="cls-1" d="M53.85,27.896c-.553,0-1-.448-1-1v-4.928c0-.552.447-1,1-1s1,.448,1,1v4.928c0,.552-.447,1-1,1Z"/>
  </g>
  <g>
    <circle class="cls-1" cx="66.38" cy="48.849" r="11.548"/>
    <path class="cls-1" d="M69.759,61.602l-1.035,3.254c-.121.381-.475.639-.874.639h-2.939c-.399,0-.753-.258-.874-.639l-1.035-3.254c1.083.259,2.213.4,3.375.4,1.169,0,2.3-.141,3.383-.4h0Z"/>
    <path class="cls-1" d="M71.826,83.823l-5.029,3.581c-.237.22-.603.22-.84,0l-5.022-3.581c-.159-.147-.229-.367-.184-.579l3.49-16.65h4.28l3.49,16.65c.044.212-.026.432-.185.579Z"/>
    <path class="cls-1" d="M88.993,75.481c-4.574,7.364-12.904,13.005-22.612,13.005s-18.024-5.111-22.62-12.042v-.184c0-4.195,1.146-7.429,3.125-10.067,1.99-2.628,4.834-4.66,8.218-6.445.724-.378,1.622-.086,1.968.649l9.31,19.734,9.3-19.734c.357-.735,1.254-1.027,1.979-.649,6.564,3.46,11.051,7.84,11.333,15.733h0Z"/>
  </g>
</svg>