<?xml version="1.0" encoding="UTF-8"?>
<svg id="Layer_1" data-name="Layer 1" xmlns="http://www.w3.org/2000/svg" version="1.1" viewBox="0 0 100 100">
  <defs>
    <style>
      .cls-1 {
        fill: #835edd;
        stroke-width: 0px;
      }
    </style>
  </defs>
  <path class="cls-1" d="M89.392,52.328L53.735,16.681c-1.047-1.047-2.51-1.628-3.983-1.599l-25.975.572c-2.791.058-4.982,2.297-4.991,5.088v2.704c.465.213,1.182.465,1.929.543l.01-3.247c.01-1.725,1.367-3.111,3.092-3.15l25.975-.572h.077c.93,0,1.842.368,2.501,1.037l35.648,35.648c1.386,1.376,1.386,3.625,0,5.001l-25.607,25.607c-1.338,1.338-3.664,1.338-5.001,0L21.712,48.626c-.659-.659-1.037-1.57-1.027-2.501l.029-18.89c-.678-.039-1.328-.136-1.938-.262l-.029,19.142c-.01,1.444.582,2.859,1.599,3.887l35.686,35.686c1.037,1.037,2.413,1.599,3.877,1.599s2.83-.562,3.867-1.599l25.616-25.616c1.027-1.027,1.599-2.404,1.599-3.867s-.572-2.84-1.599-3.877Z"/>
  <circle class="cls-1" cx="26.688" cy="23.634" r="3.215"/>
  <rect class="cls-1" x="23.237" y="32.991" width="35.095" height="9.481" rx="1.506" ry="1.506" transform="translate(-14.734 39.89) rotate(-45)"/>
  <rect class="cls-1" x="36.731" y="46.485" width="35.095" height="9.481" rx="1.506" ry="1.506" transform="translate(-20.324 53.384) rotate(-45)"/>
  <path class="cls-1" d="M34.591,32.506h-3.202c-.535,0-.969-.434-.969-.969s.434-.969.969-.969h2.233v-2.232c0-.535.434-.969.969-.969s.969.434.969.969v3.202c0,.535-.434.969-.969.969Z"/>
  <path class="cls-1" d="M48.419,46.334h-3.202c-.535,0-.969-.434-.969-.969s.434-.969.969-.969h2.233v-2.232c0-.535.434-.969.969-.969s.969.434.969.969v3.202c0,.535-.434.969-.969.969Z"/>
  <rect class="cls-1" x="50.225" y="59.978" width="35.095" height="9.481" rx="1.506" ry="1.506" transform="translate(-25.913 66.878) rotate(-45)"/>
  <path class="cls-1" d="M61.953,59.869h-3.202c-.535,0-.969-.434-.969-.969s.434-.969.969-.969h2.232v-2.233c0-.535.434-.969.969-.969s.969.434.969.969v3.202c0,.535-.434.969-.969.969Z"/>
  <path class="cls-1" d="M21.809,25.332c-1.884,0-3.913-.365-5.403-1.598-2.01-1.663-2.85-3.633-3.592-5.37-.798-1.87-1.375-3.222-3.12-3.754-.512-.156-.8-.698-.644-1.21.156-.512.694-.802,1.21-.644,2.607.796,3.486,2.855,4.336,4.847.687,1.61,1.397,3.274,3.045,4.638,2.308,1.91,7.102.986,8.756.469.513-.156,1.055.125,1.215.636.159.511-.125,1.055-.636,1.215-.166.052-2.523.773-5.168.773Z"/>
</svg>