<?xml version="1.0" encoding="UTF-8"?>
<svg id="Layer_1" data-name="Layer 1" xmlns="http://www.w3.org/2000/svg" version="1.1" viewBox="0 0 100 100">
  <defs>
    <style>
      .cls-1 {
        fill: #ef546b;
        stroke-width: 0px;
      }
    </style>
  </defs>
  <path class="cls-1" d="M69.641,81.252H15.65c-3.502,0-6.351-2.625-6.351-5.853v-39.121c0-3.228,2.849-5.854,6.351-5.854h42.224c.553,0,1,.448,1,1s-.447,1-1,1H15.65c-2.399,0-4.351,1.729-4.351,3.854v39.121c0,2.124,1.952,3.853,4.351,3.853h53.99c2.398,0,4.351-1.729,4.351-3.853v-24.121c0-.553.447-1,1-1s1,.447,1,1v24.121c0,3.228-2.849,5.853-6.351,5.853Z"/>
  <path class="cls-1" d="M66.599,59.731v12.944H18.692v-12.944h47.907M68.599,57.731H16.692v16.944h51.907v-16.944h0Z"/>
  <rect class="cls-1" x="16.692" y="38.433" width="26.416" height="7.048"/>
  <path class="cls-1" d="M62.489,46.01c-1.92-1.776-2.813-5.021-3.544-7.577h-4.61v12.845h14.264v-1.797c-1.911-.957-4.574-2.05-6.11-3.471Z"/>
  <rect class="cls-1" x="16.692" y="47.684" width="20.301" height="3.595"/>
  <path class="cls-1" d="M73.945,52.25c-4.29,0-8.58-1.633-11.847-4.899-3.165-3.165-4.908-7.372-4.908-11.848s1.743-8.683,4.908-11.848c3.164-3.165,7.372-4.908,11.847-4.908s8.684,1.743,11.848,4.908c3.165,3.165,4.908,7.372,4.908,11.848h-2c0-3.941-1.535-7.646-4.322-10.434-2.787-2.787-6.492-4.322-10.434-4.322s-7.646,1.535-10.433,4.322c-2.787,2.787-4.322,6.492-4.322,10.434s1.535,7.646,4.322,10.434c5.752,5.753,15.112,5.753,20.866,0l1.414,1.414c-3.267,3.267-7.557,4.899-11.848,4.899Z"/>
  <path class="cls-1" d="M87.874,50.269v-5.839c0-.314-.255-.569-.569-.569h-5.839c-.507,0-.76.612-.402.971l5.839,5.839c.358.358.971.105.971-.402Z"/>
  <path class="cls-1" d="M76.728,25.868c.039-.551-.397-1.019-.949-1.019h-3.666c-.552,0-.989.469-.949,1.02l.817,11.42c.036.498.45.884.949.884h2.034c.499,0,.914-.386.949-.884l.814-11.42Z"/>
  <rect class="cls-1" x="71.574" y="40.745" width="4.744" height="4.745" rx=".949" ry=".949"/>
</svg>