<?xml version="1.0" encoding="UTF-8"?>
<svg id="Layer_1" data-name="Layer 1" xmlns="http://www.w3.org/2000/svg" version="1.1" viewBox="0 0 100 100">
  <defs>
    <style>
      .cls-1 {
        fill: #835edd;
        stroke-width: 0px;
      }
    </style>
  </defs>
  <path class="cls-1" d="M81.8,18.5H17.2c-2.8,0-5.2,2.3-5.2,5.2v51.8c0,2.8,2.3,5.2,5.2,5.2h64.7c2.8,0,5.2-2.3,5.2-5.2V23.6c0-2.8-2.3-5.2-5.2-5.2ZM20.6,26c0-1,.9-1.9,1.9-1.9s1.9.9,1.9,1.9-.8,1.9-1.9,1.9-1.9-.9-1.9-1.9ZM26.8,26c0-1,.9-1.9,1.9-1.9s1.9.9,1.9,1.9-.9,1.9-1.9,1.9-1.9-.9-1.9-1.9ZM32.9,26c0-1,.9-1.9,1.9-1.9s1.9.9,1.9,1.9-.9,1.9-1.9,1.9-1.9-.9-1.9-1.9ZM41.7,26c0-.5.4-.9.9-.9h34.9c.5,0,.9.4.9.9s-.4.9-.9.9h-34.9c-.5,0-.9-.4-.9-.9ZM14.1,75.4v-42.1h12.5v45.1h-9.4c-1.7,0-3-1.4-3-3ZM43.2,53.4v5.8h-8.6v-5.8h8.6ZM40,61.4h4.3c.6,0,1.1-.5,1.1-1.1v-8c0-.6-.5-1.1-1.1-1.1h-4.3v-3.5h14.7v3.5h-4.3c-.6,0-1.1.5-1.1,1.1v8c0,.6.5,1.1,1.1,1.1h4.3v3.8h-14.7v-3.8ZM55.8,40.9c-.9,0-1.6-.7-1.6-1.6s.7-1.6,1.6-1.6,1.6.7,1.6,1.6-.7,1.6-1.6,1.6ZM51.5,59.2v-5.8h8.6v5.8h-8.6ZM56.8,61.4h4.3c.6,0,1.1-.5,1.1-1.1v-8c0-.6-.5-1.1-1.1-1.1h-4.3v-3.5h14.7v3.5h-4.3c-.6,0-1.1.5-1.1,1.1v8c0,.6.5,1.1,1.1,1.1h4.3v12.8h-9.4v-2.2c0-.6-.5-1.1-1.1-1.1h-4.3v-9.5ZM68.4,59.2v-5.8h8.6v5.8h-8.6ZM60.1,73.1v5.1h-8.6v-5.1h8.6ZM81.8,78.4h-19.6v-2.1h10.5c.6,0,1.1-.5,1.1-1.1v-13.9h4.2c.6,0,1.1-.5,1.1-1.1v-8c0-.6-.5-1.1-1.1-1.1h-4.3v-4c0-.9-.8-1.7-1.7-1.7h-15.2v-2.8c1.5-.5,2.7-1.9,2.7-3.5s-1.7-3.7-3.7-3.7-3.7,1.7-3.7,3.7,1.1,3.1,2.7,3.5v2.8h-15.2c-.9,0-1.7.8-1.7,1.7v4h-4.3c-.6,0-1.1.5-1.1,1.1v8c0,.6.5,1.1,1.1,1.1h4.3v4.3c0,.9.8,1.7,1.7,1.7h15.2v3.6h-4.3c-.6,0-1.1.5-1.1,1.1v6.4h-20.6v-45.1h56.1v42.1c0,1.7-1.4,3-3,3Z"/>
</svg>